<svg width="343" height="390" viewBox="0 0 343 390" fill="none" xmlns="http://www.w3.org/2000/svg">
<path d="M0 12C0 5.37258 5.37258 0 12 0H331C337.627 0 343 5.37258 343 12V378C343 384.627 337.627 390 331 390H12C5.37258 390 0 384.627 0 378V12Z" fill="#F3F4F5"/>
<path d="M0 12C0 5.37258 5.37258 0 12 0H331C337.627 0 343 5.37258 343 12V378C343 384.627 337.627 390 331 390H12C5.37258 390 0 384.627 0 378V12Z" stroke="#F3F4F5"/>
<path d="M18.4897 90H21.478V79.0928H34.6265V90H37.6147V66.0439H34.6265V76.4033H21.478V66.0439H18.4897V90ZM49.2524 90.332C53.021 90.332 55.8433 88.0742 56.4077 85.2188L56.4409 85.0527H53.6021L53.5522 85.2021C53.0542 86.6797 51.5103 87.7754 49.3188 87.7754C46.2476 87.7754 44.2886 85.7002 44.2222 82.1475H56.6567V81.085C56.6567 75.9053 53.7847 72.4023 49.0698 72.4023C44.355 72.4023 41.3003 76.0713 41.3003 81.417V81.4336C41.3003 86.8623 44.2886 90.332 49.2524 90.332ZM49.0532 74.959C51.5767 74.959 53.436 76.5361 53.7183 79.8896H44.272C44.5874 76.6689 46.5464 74.959 49.0532 74.959ZM67.8462 94.7314V90H81.2437V94.7314H83.9331V87.6094H81.1938V72.7344H69.3071L68.6431 82.3135C68.4771 84.6377 67.8628 86.7793 66.6011 87.6094H65.1567V94.7314H67.8462ZM78.3052 87.6094H69.855V87.543C70.7183 86.4307 71.1665 84.5547 71.3159 82.3799L71.8472 75.125H78.3052V87.6094ZM93.6948 90.332C98.4595 90.332 101.68 86.8789 101.68 81.3672V81.334C101.68 75.8223 98.4429 72.4023 93.6782 72.4023C88.9136 72.4023 85.6929 75.8389 85.6929 81.334V81.3672C85.6929 86.8623 88.897 90.332 93.6948 90.332ZM93.7114 87.7754C90.6567 87.7754 88.6479 85.4346 88.6479 81.3672V81.334C88.6479 77.2998 90.6733 74.959 93.6782 74.959C96.7329 74.959 98.7251 77.2832 98.7251 81.334V81.3672C98.7251 85.418 96.7495 87.7754 93.7114 87.7754ZM104.884 90H112.322C115.991 90 118.249 88.0908 118.249 85.0527V85.0195C118.249 82.9111 116.821 81.3838 114.646 81.085V80.9521C116.24 80.6201 117.485 78.9932 117.485 77.2168V77.1836C117.485 74.4443 115.509 72.7344 112.272 72.7344H104.884V90ZM107.773 79.9561V75.125H111.84C113.65 75.125 114.613 75.9385 114.613 77.4824V77.5156C114.613 79.1758 113.583 79.9561 111.409 79.9561H107.773ZM107.773 87.6094V82.3467H111.558C114.082 82.3467 115.293 83.1768 115.293 84.9531V84.9863C115.293 86.7129 114.165 87.6094 112.073 87.6094H107.773ZM128.674 90.332C132.443 90.332 135.265 88.0742 135.83 85.2188L135.863 85.0527H133.024L132.974 85.2021C132.476 86.6797 130.932 87.7754 128.741 87.7754C125.669 87.7754 123.71 85.7002 123.644 82.1475H136.079V81.085C136.079 75.9053 133.207 72.4023 128.492 72.4023C123.777 72.4023 120.722 76.0713 120.722 81.417V81.4336C120.722 86.8623 123.71 90.332 128.674 90.332ZM128.475 74.959C130.999 74.959 132.858 76.5361 133.14 79.8896H123.694C124.009 76.6689 125.968 74.959 128.475 74.959ZM139.333 95.8105H142.221V87.1113H142.288C143.367 89.1035 145.375 90.332 147.816 90.332C152.149 90.332 155.104 86.8291 155.104 81.3838V81.3672C155.104 75.9219 152.182 72.4023 147.766 72.4023C145.292 72.4023 143.367 73.6475 142.288 75.6562H142.221V72.7344H139.333V95.8105ZM147.202 87.7754C144.296 87.7754 142.205 85.2354 142.205 81.3838V81.3672C142.205 77.499 144.28 74.959 147.202 74.959C150.256 74.959 152.149 77.3994 152.149 81.3672V81.3838C152.149 85.3184 150.256 87.7754 147.202 87.7754ZM167.904 90H170.792V72.7344H164.368C160.4 72.7344 157.843 74.9092 157.843 78.4453V78.4785C157.843 80.8359 159.321 82.6289 161.761 83.3262L156.947 90H160.284L164.667 83.8574H167.904V90ZM164.384 81.4668C162.16 81.4668 160.798 80.2051 160.798 78.4287V78.3955C160.798 76.3369 162.143 75.125 164.384 75.125H167.904V81.4668H164.384ZM182.281 70.7754C185.485 70.7754 187.361 68.7002 187.361 66.0771V66.0273H184.987V66.1104C184.987 67.5879 184.024 68.8496 182.297 68.8496C180.504 68.8496 179.608 67.5879 179.608 66.1104V66.0273H177.234V66.0771C177.234 68.7002 179.11 70.7754 182.281 70.7754ZM174.843 90H177.699L186.298 77.167H186.431V90H189.32V72.7344H186.464L177.865 85.5674H177.732V72.7344H174.843V90ZM200.343 90H203.232V79.9229C203.232 76.9844 205.008 74.959 207.681 74.959C210.371 74.959 211.964 76.8018 211.964 79.9229V90H214.853V79.4248C214.853 75.2412 212.346 72.4023 208.677 72.4023C206.104 72.4023 204.228 73.5479 203.298 75.4902H203.232V66.0439H200.343V90ZM224.133 90.332C224.698 90.332 225.312 90.2656 225.677 90.2158V87.875C225.428 87.8916 225.096 87.9414 224.748 87.9414C223.204 87.9414 222.39 87.4268 222.39 85.584V75.125H225.677V72.7344H222.39V68.0693H219.402V72.7344H216.878V75.125H219.402V85.6006C219.402 88.9043 220.962 90.332 224.133 90.332ZM234.393 90.332C234.958 90.332 235.572 90.2656 235.937 90.2158V87.875C235.688 87.8916 235.356 87.9414 235.007 87.9414C233.463 87.9414 232.65 87.4268 232.65 85.584V75.125H235.937V72.7344H232.65V68.0693H229.662V72.7344H227.138V75.125H229.662V85.6006C229.662 88.9043 231.222 90.332 234.393 90.332ZM239.042 95.8105H241.93V87.1113H241.997C243.076 89.1035 245.084 90.332 247.525 90.332C251.858 90.332 254.813 86.8291 254.813 81.3838V81.3672C254.813 75.9219 251.891 72.4023 247.475 72.4023C245.001 72.4023 243.076 73.6475 241.997 75.6562H241.93V72.7344H239.042V95.8105ZM246.911 87.7754C244.005 87.7754 241.914 85.2354 241.914 81.3838V81.3672C241.914 77.499 243.989 74.959 246.911 74.959C249.965 74.959 251.858 77.3994 251.858 81.3672V81.3838C251.858 85.3184 249.965 87.7754 246.911 87.7754ZM25.4292 126.332C30.4263 126.332 33.4976 122.979 33.4976 117.55V117.517C33.4976 112.387 30.5259 109.1 25.8608 109.1C23.1714 109.1 20.9966 110.162 19.8511 112.204H19.7847L19.8179 111.972C20.5317 106.975 21.9761 104.933 26.7075 104.75L27.9858 104.7C29.978 104.617 31.8042 104.186 32.3521 103.688V101.164C31.3726 101.679 29.5132 102.027 27.853 102.094L26.5747 102.144C19.8677 102.409 17.3442 106.36 17.3442 115.873V115.906C17.3442 122.763 20.1333 126.332 25.4292 126.332ZM25.4292 123.775C22.1753 123.775 20.2993 121.518 20.2993 117.55V117.517C20.2993 113.765 22.1753 111.656 25.4292 111.656C28.6665 111.656 30.5425 113.765 30.5425 117.517V117.55C30.5425 121.518 28.6665 123.775 25.4292 123.775ZM43.8403 126.332C47.6089 126.332 50.4312 124.074 50.9956 121.219L51.0288 121.053H48.1899L48.1401 121.202C47.6421 122.68 46.0981 123.775 43.9067 123.775C40.8354 123.775 38.8765 121.7 38.8101 118.147H51.2446V117.085C51.2446 111.905 48.3726 108.402 43.6577 108.402C38.9429 108.402 35.8882 112.071 35.8882 117.417V117.434C35.8882 122.862 38.8765 126.332 43.8403 126.332ZM43.6411 110.959C46.1646 110.959 48.0239 112.536 48.3062 115.89H38.8599C39.1753 112.669 41.1343 110.959 43.6411 110.959ZM60.2427 126.332C64.2769 126.332 66.9829 124.174 66.9829 120.97V120.937C66.9829 118.944 65.7544 117.566 63.5298 117.085V116.952C65.2896 116.554 66.5015 115.01 66.5015 113.167V113.134C66.5015 110.212 64.1938 108.402 60.4253 108.402C56.8394 108.402 54.3325 110.195 53.9341 112.984L53.9175 113.101H56.7231L56.7397 113.018C57.0054 111.673 58.4497 110.793 60.4253 110.793C62.4673 110.793 63.6792 111.756 63.6792 113.366V113.399C63.6792 115.109 62.5337 115.973 60.2427 115.973H57.6528V118.363H60.2427C62.8823 118.363 64.144 119.227 64.144 121.069V121.103C64.144 122.846 62.6333 123.941 60.2427 123.941C58.1841 123.941 56.8062 123.128 56.3911 121.684L56.3413 121.518H53.4194L53.436 121.65C53.7847 124.473 56.4907 126.332 60.2427 126.332ZM83.2358 126.332C87.0874 126.332 89.9429 124.207 89.9429 121.186V121.169C89.9429 118.712 88.6812 117.334 85.1948 116.487L82.4556 115.823C80.5464 115.358 79.7661 114.545 79.7661 113.366V113.35C79.7661 111.822 81.061 110.81 83.1528 110.81C85.2944 110.81 86.5728 111.922 86.8052 113.599L86.8218 113.715H89.5776L89.561 113.499C89.3452 110.61 86.938 108.402 83.1528 108.402C79.4175 108.402 76.811 110.511 76.811 113.482V113.499C76.811 115.989 78.3882 117.5 81.6421 118.28L84.3813 118.944C86.3403 119.426 86.9878 120.123 86.9878 121.368V121.385C86.9878 122.945 85.5933 123.925 83.2524 123.925C80.895 123.925 79.6167 122.912 79.2681 121.186L79.2349 121.02H76.3462L76.3628 121.169C76.7114 124.257 79.1685 126.332 83.2358 126.332Z" fill="#BB3AF7"/>
<path d="M25.0029 41V31.1357H16.9775V41H18.5088V32.4551H23.4717V41H25.0029ZM27.6512 41H29.1824V37.6299H31.3221C33.2635 37.6299 34.5965 36.3105 34.5965 34.3828V34.3691C34.5965 32.4346 33.2635 31.1357 31.3221 31.1357H27.6512V41ZM30.9461 32.4277C32.2723 32.4277 33.0379 33.1455 33.0379 34.376V34.3896C33.0379 35.627 32.2723 36.3447 30.9461 36.3447H29.1824V32.4277H30.9461ZM35.276 41H36.8824L37.7916 38.334H41.5924L42.4947 41H44.1012L40.5191 31.1357H38.8648L35.276 41ZM39.6783 32.7695H39.7057L41.1754 37.1035H38.2018L39.6783 32.7695ZM46.0248 41H49.9828C52.0814 41 53.3461 39.9473 53.3461 38.2109V38.1973C53.3461 36.8916 52.4369 35.9277 51.0355 35.791V35.7568C52.0746 35.6133 52.8607 34.6494 52.8607 33.6104V33.5967C52.8607 32.1064 51.7123 31.1357 49.9623 31.1357H46.0248V41ZM49.5932 32.3867C50.6938 32.3867 51.3295 32.8857 51.3295 33.7881V33.8018C51.3295 34.7793 50.598 35.3262 49.2719 35.3262H47.5561V32.3867H49.5932ZM49.5795 36.5088C51.0287 36.5088 51.7807 37.0557 51.7807 38.1152V38.1289C51.7807 39.1953 51.0424 39.749 49.6684 39.749H47.5561V36.5088H49.5795ZM55.5021 41H56.9104L61.9963 33.6582H62.0305V41H63.548V31.1357H62.133L57.0539 38.4844H57.0197V31.1357H55.5021V41ZM66.1348 41.0752C67.8643 41.0752 68.6436 39.8379 68.7939 37.2402L69.0879 32.4551H72.5059V41H74.0371V31.1357H67.7002L67.3721 37.1582C67.2695 38.915 66.8936 39.6875 65.9639 39.6875C65.8271 39.6875 65.6426 39.667 65.5605 39.6465V41C65.6904 41.041 65.9023 41.0752 66.1348 41.0752ZM80.9578 41.1641C83.8084 41.1641 85.5789 39.2021 85.5789 36.0713V36.0576C85.5789 32.9336 83.8016 30.9717 80.9578 30.9717C78.1209 30.9717 76.3367 32.9268 76.3367 36.0576V36.0713C76.3367 39.209 78.1141 41.1641 80.9578 41.1641ZM80.9578 39.8105C79.0848 39.8105 77.8953 38.3682 77.8953 36.0713V36.0576C77.8953 33.7607 79.0916 32.3252 80.9578 32.3252C82.8309 32.3252 84.0135 33.7676 84.0135 36.0576V36.0713C84.0135 38.3477 82.8514 39.8105 80.9578 39.8105ZM93.6986 41H95.1957V31.1357H93.685L91.0873 32.9814V34.4307L93.6645 32.6533H93.6986V41ZM101.57 31.1357H100.209L97.5363 43.3926H98.9035L101.57 31.1357ZM103.582 41H105.188L109.475 32.4619V31.1357H102.762V32.4277H107.964V32.4619L103.582 41Z" fill="#BB3AF7"/>
<path d="M343 244.96H121.666C104.08 244.96 89.8799 230.45 89.8799 212.48C89.8799 194.51 104.21 180 121.666 180H342.87V244.96H343Z" fill="#202124"/>
<path d="M343 244.96H121.666C104.08 244.96 89.8799 230.45 89.8799 212.48C89.8799 194.51 104.21 180 121.666 180H342.87" stroke="#626265" stroke-width="2" stroke-miterlimit="10"/>
<path d="M132.411 222.248H121.684C120.343 222.248 119.27 221.178 119.27 219.841V210.616C119.27 209.279 120.343 208.21 121.684 208.21H132.411C133.752 208.21 134.824 209.279 134.824 210.616V219.841C134.69 221.178 133.617 222.248 132.411 222.248Z" fill="#EAEAEA"/>
<path d="M127.181 216.098C124.5 216.098 122.354 213.959 122.354 211.285V205.803C122.354 203.129 124.5 200.99 127.181 200.99C129.863 200.99 132.009 203.129 132.009 205.803V211.285C132.009 213.959 129.863 216.098 127.181 216.098ZM127.181 202.862C125.572 202.862 124.231 204.199 124.231 205.803V211.285C124.231 212.889 125.572 214.226 127.181 214.226C128.79 214.226 130.131 212.889 130.131 211.285V205.803C130.265 204.199 128.925 202.862 127.181 202.862Z" fill="#EAEAEA"/>
<path d="M162.848 198.985H165.53V207.676C165.933 206.74 166.603 206.071 167.407 205.537C168.212 205.002 169.285 204.734 170.491 204.734C171.564 204.734 172.637 205.002 173.441 205.537C174.246 206.071 174.916 206.874 175.453 207.809C175.989 208.745 176.123 209.949 176.123 211.152V220.778H173.441V211.553C173.441 210.082 173.039 209.013 172.369 208.21C171.698 207.408 170.76 207.007 169.419 207.007C168.614 207.007 167.944 207.141 167.273 207.542C166.603 207.943 166.201 208.478 165.798 209.146C165.396 209.815 165.262 210.617 165.262 211.553V220.778H162.58V198.985H162.848Z" fill="#EAEAEA"/>
<path d="M181.218 220.242C180.548 219.574 180.146 218.504 180.146 216.9V207.274H177.866V205.135H180.146V200.856H182.827V205.135H185.777V207.274H182.827V216.9C182.827 217.702 182.962 218.371 183.364 218.638C183.766 218.905 184.302 219.039 184.973 219.039C185.107 219.039 185.241 219.039 185.375 219.039C185.509 219.039 185.643 219.039 185.777 219.039V221.178C185.643 221.178 185.375 221.178 185.107 221.312C184.839 221.312 184.571 221.312 184.302 221.312C182.962 221.178 181.889 220.911 181.218 220.242Z" fill="#EAEAEA"/>
<path d="M191.141 220.242C190.471 219.574 190.068 218.504 190.068 216.9V207.274H187.789V205.135H190.068V200.856H192.75V205.135H195.7V207.274H192.75V216.9C192.75 217.702 192.884 218.371 193.286 218.638C193.689 218.905 194.225 219.039 194.895 219.039C195.03 219.039 195.164 219.039 195.298 219.039C195.432 219.039 195.566 219.039 195.7 219.039V221.178C195.566 221.178 195.298 221.178 195.03 221.312C194.761 221.312 194.493 221.312 194.225 221.312C192.884 221.178 191.811 220.911 191.141 220.242Z" fill="#EAEAEA"/>
<path d="M198.382 205.135H201.063V207.809C201.332 207.14 201.868 206.605 202.27 206.204C202.672 205.803 203.343 205.402 204.013 205.135C204.684 204.867 205.354 204.734 206.159 204.734C207.5 204.734 208.706 205.135 209.645 205.803C210.718 206.472 211.388 207.408 212.059 208.611C212.729 209.814 212.863 211.285 212.863 212.889C212.863 214.494 212.595 215.964 212.059 217.167C211.522 218.371 210.718 219.307 209.779 219.975C208.84 220.644 207.634 221.045 206.293 221.045C205.488 221.045 204.818 220.911 204.147 220.644C203.477 220.376 202.941 220.109 202.404 219.574C201.868 219.173 201.466 218.638 201.197 217.97V225.858H198.516V205.135H198.382ZM208.036 218.103C208.706 217.569 209.243 216.9 209.645 216.098C210.047 215.162 210.181 214.226 210.181 213.023C210.181 211.82 210.047 210.75 209.645 209.948C209.243 209.012 208.706 208.343 208.036 207.942C207.365 207.408 206.561 207.274 205.622 207.274C204.684 207.274 203.879 207.541 203.209 207.942C202.538 208.343 202.002 209.146 201.6 209.948C201.197 210.884 201.063 211.82 201.063 213.023C201.063 214.226 201.197 215.162 201.6 216.098C202.002 217.034 202.538 217.702 203.209 218.103C203.879 218.504 204.684 218.772 205.622 218.772C206.427 218.905 207.231 218.638 208.036 218.103Z" fill="#EAEAEA"/>
<path d="M217.825 220.643C216.886 220.242 216.215 219.708 215.679 219.039C215.143 218.371 214.875 217.568 214.74 216.499V216.365H217.422V216.499C217.556 217.301 217.959 217.836 218.629 218.371C219.165 218.772 220.104 219.039 221.177 219.039C221.847 219.039 222.518 218.905 223.054 218.772C223.59 218.638 223.993 218.371 224.261 217.97C224.529 217.568 224.663 217.167 224.663 216.766C224.663 216.231 224.529 215.697 224.127 215.429C223.724 215.162 223.188 214.761 222.249 214.627L219.702 213.959C218.227 213.558 217.154 213.023 216.35 212.354C215.545 211.686 215.143 210.616 215.143 209.413C215.143 208.477 215.411 207.675 215.947 207.006C216.484 206.338 217.154 205.803 217.959 205.402C218.897 205.001 219.836 204.867 221.043 204.867C222.249 204.867 223.188 205.135 224.127 205.536C224.931 205.937 225.602 206.472 226.138 207.14C226.674 207.809 226.942 208.611 226.942 209.547V209.68H224.395V209.547C224.261 208.744 223.993 208.21 223.322 207.675C222.786 207.274 221.981 207.006 221.043 207.006C220.372 207.006 219.836 207.14 219.434 207.274C219.031 207.408 218.629 207.675 218.361 208.076C218.093 208.477 217.959 208.878 217.959 209.279C217.959 209.814 218.093 210.215 218.495 210.616C218.897 211.017 219.568 211.285 220.372 211.552L222.92 212.221C224.529 212.622 225.602 213.156 226.272 213.825C226.942 214.493 227.211 215.429 227.211 216.499C227.211 217.435 226.942 218.237 226.406 218.905C225.87 219.574 225.199 220.109 224.261 220.51C223.322 220.911 222.249 221.045 221.043 221.045C219.836 221.178 218.763 221.045 217.825 220.643Z" fill="#EAEAEA"/>
<path d="M230.161 208.878C229.892 208.611 229.624 208.076 229.624 207.675C229.624 207.274 229.758 206.739 230.161 206.472C230.429 206.204 230.965 205.937 231.367 205.937C231.77 205.937 232.306 206.071 232.574 206.472C232.842 206.739 233.111 207.274 233.111 207.675C233.111 208.076 232.976 208.611 232.574 208.878C232.306 209.146 231.77 209.413 231.367 209.413C230.965 209.413 230.429 209.146 230.161 208.878ZM230.161 220.643C229.892 220.376 229.624 219.841 229.624 219.44C229.624 219.039 229.758 218.504 230.161 218.237C230.429 217.969 230.965 217.702 231.367 217.702C231.77 217.702 232.306 217.836 232.574 218.237C232.842 218.504 233.111 219.039 233.111 219.44C233.111 219.841 232.976 220.376 232.574 220.643C232.306 220.911 231.77 221.178 231.367 221.178C230.965 221.178 230.429 220.911 230.161 220.643Z" fill="#EAEAEA"/>
<path d="M237.267 226.259H234.719L240.888 198.985H243.435L237.267 226.259Z" fill="#EAEAEA"/>
<path d="M245.044 226.259H242.497L248.665 198.985H251.212L245.044 226.259Z" fill="#EAEAEA"/>
<path d="M254.296 220.643C253.492 220.242 252.955 219.708 252.419 219.039C252.017 218.371 251.749 217.435 251.749 216.499C251.749 215.162 252.285 214.092 253.223 213.29C254.162 212.488 255.637 212.087 257.514 211.953L263.414 211.686V213.691L257.917 213.959C256.844 213.959 256.039 214.226 255.503 214.761C254.967 215.162 254.564 215.83 254.564 216.499C254.564 217.301 254.833 217.836 255.369 218.371C255.905 218.772 256.71 219.039 257.648 219.039C258.453 219.039 259.257 218.905 259.928 218.504C260.598 218.103 261.135 217.702 261.537 217.034C261.939 216.365 262.073 215.697 262.073 215.028V210.349C262.073 209.413 261.805 208.611 261.135 208.076C260.464 207.541 259.66 207.274 258.587 207.274C257.514 207.274 256.71 207.541 256.173 207.942C255.637 208.343 255.101 209.012 254.967 209.68V209.814H252.419V209.68C252.553 208.744 252.821 208.076 253.358 207.274C253.894 206.472 254.564 205.937 255.503 205.536C256.442 205.135 257.514 204.867 258.721 204.867C259.928 204.867 261.001 205.135 261.939 205.536C262.878 205.937 263.548 206.605 264.085 207.274C264.621 208.076 264.889 209.012 264.889 209.948V220.911H262.207V218.371C261.939 218.905 261.537 219.44 261.001 219.841C260.464 220.242 259.928 220.643 259.257 220.777C258.587 221.045 257.917 221.178 257.246 221.178C256.039 221.178 255.101 221.045 254.296 220.643Z" fill="#EAEAEA"/>
<path d="M268.241 205.135H270.923V207.408C271.325 206.605 271.996 206.071 272.8 205.536C273.605 205.001 274.677 204.867 275.75 204.867C277.493 204.867 278.834 205.402 279.773 206.472C280.711 207.541 281.248 208.878 281.248 210.75V221.045H278.566V211.285C278.566 209.948 278.298 209.012 277.627 208.343C276.957 207.675 276.152 207.274 274.946 207.274C274.141 207.274 273.337 207.408 272.8 207.809C272.13 208.21 271.728 208.744 271.325 209.413C270.923 210.081 270.789 210.884 270.789 211.819V221.045H268.107V205.135H268.241Z" fill="#EAEAEA"/>
<path d="M287.55 220.242C286.478 219.574 285.539 218.638 285.003 217.435C284.332 216.231 284.064 214.761 284.064 213.023C284.064 211.285 284.332 209.948 285.003 208.611C285.673 207.408 286.478 206.472 287.55 205.803C288.623 205.135 289.964 204.867 291.439 204.867C292.914 204.867 294.121 205.135 295.327 205.803C296.4 206.472 297.339 207.408 297.875 208.611C298.545 209.814 298.814 211.285 298.814 213.023C298.814 214.761 298.545 216.098 297.875 217.435C297.205 218.638 296.4 219.574 295.327 220.242C294.255 220.911 292.914 221.178 291.439 221.178C289.964 221.178 288.623 220.911 287.55 220.242ZM293.852 218.237C294.523 217.836 295.059 217.167 295.461 216.231C295.864 215.296 295.998 214.36 295.998 213.023C295.998 211.819 295.864 210.75 295.461 209.814C295.059 208.878 294.523 208.343 293.852 207.809C293.182 207.408 292.377 207.14 291.439 207.14C290.5 207.14 289.696 207.408 289.025 207.809C288.355 208.21 287.818 208.878 287.416 209.814C287.014 210.75 286.88 211.686 286.88 213.023C286.88 214.226 287.014 215.296 287.416 216.231C287.818 217.167 288.355 217.836 289.025 218.237C289.696 218.638 290.5 218.905 291.439 218.905C292.377 218.905 293.048 218.638 293.852 218.237Z" fill="#EAEAEA"/>
<path d="M303.104 220.242C302.434 219.574 302.032 218.504 302.032 216.9V207.274H299.752V205.135H302.032V200.856H304.713V205.135H307.663V207.274H304.713V216.9C304.713 217.702 304.848 218.371 305.25 218.638C305.652 218.905 306.188 219.039 306.859 219.039C306.993 219.039 307.127 219.039 307.261 219.039C307.395 219.039 307.529 219.039 307.663 219.039V221.178C307.529 221.178 307.261 221.178 306.993 221.312C306.725 221.312 306.457 221.312 306.188 221.312C304.982 221.178 303.775 220.911 303.104 220.242Z" fill="#EAEAEA"/>
<path d="M310.345 198.985H313.027V207.675C313.429 206.739 314.1 206.071 314.904 205.536C315.709 205.001 316.781 204.734 317.988 204.734C319.061 204.734 320.134 205.001 320.938 205.536C321.743 206.071 322.413 206.873 322.949 207.809C323.486 208.745 323.62 209.948 323.62 211.151V220.777H320.938V211.552C320.938 210.082 320.536 209.012 319.865 208.21C319.195 207.408 318.256 207.007 316.915 207.007C316.111 207.007 315.44 207.14 314.77 207.541C314.1 207.942 313.697 208.477 313.295 209.146C312.893 209.814 312.759 210.616 312.759 211.552V220.777H310.077V198.985H310.345Z" fill="#EAEAEA"/>
<path d="M329.788 220.242C328.715 219.574 327.911 218.638 327.24 217.435C326.704 216.231 326.302 214.761 326.302 213.156C326.302 211.552 326.57 210.081 327.24 208.878C327.776 207.675 328.715 206.739 329.788 205.937C330.86 205.268 332.067 204.867 333.542 204.867C335.017 204.867 336.224 205.135 337.297 205.803C338.369 206.472 339.174 207.408 339.71 208.611C340.247 209.814 340.515 211.151 340.515 212.755V213.691H327.776V211.686H339.174L337.833 213.558V212.488C337.833 211.285 337.699 210.215 337.297 209.413C336.894 208.611 336.358 208.076 335.822 207.675C335.151 207.274 334.481 207.14 333.542 207.14C332.604 207.14 331.933 207.408 331.263 207.809C330.592 208.21 330.056 208.878 329.654 209.68C329.251 210.483 329.117 211.418 329.117 212.622V213.691C329.117 214.761 329.251 215.697 329.654 216.499C330.056 217.301 330.592 217.836 331.263 218.371C331.933 218.772 332.738 219.039 333.81 219.039C334.481 219.039 335.017 218.905 335.554 218.772C336.09 218.638 336.492 218.237 336.894 217.97C337.297 217.568 337.565 217.167 337.699 216.766V216.633H340.247V216.766C340.113 217.435 339.844 217.97 339.442 218.638C339.04 219.173 338.638 219.708 337.967 220.109C337.431 220.51 336.76 220.911 335.956 221.045C335.151 221.178 334.347 221.446 333.542 221.446C332.201 221.178 330.86 220.911 329.788 220.242Z" fill="#EAEAEA"/>
<path d="M89.1002 348C114.649 348 135.361 327.349 135.361 301.875C135.361 276.401 114.649 255.75 89.1002 255.75C63.5513 255.75 42.8398 276.401 42.8398 301.875C42.8398 327.349 63.5513 348 89.1002 348Z" fill="#202124" stroke="#AC4BEE" stroke-miterlimit="10"/>
<path d="M75.2891 335.566C71.2664 333.828 68.1824 331.421 65.7688 328.213C63.4893 325.138 62.0144 321.394 61.6121 317.25L61.478 316.581H73.1437L73.2778 317.25C73.9482 320.726 75.6913 323.4 78.3731 325.405C81.0549 327.411 84.6752 328.346 89.5024 328.346C92.7205 328.346 95.4023 327.945 97.6818 327.143C99.9613 326.341 101.704 325.138 102.911 323.533C104.118 321.929 104.788 320.191 104.788 318.052V317.918C104.788 315.378 103.984 313.373 102.509 311.902C101.034 310.431 98.2181 309.094 94.1955 308.158L83.0662 305.484C76.4959 303.88 71.5346 301.607 68.3165 298.399C65.0984 295.19 63.4893 291.179 63.4893 286.098V285.965C63.4893 281.954 64.562 278.344 66.7075 275.269C68.8529 272.194 71.9369 269.788 75.8254 268.05C79.714 266.311 84.1389 265.376 89.2342 265.376C94.3296 265.376 98.7545 266.311 102.643 268.05C106.397 269.921 109.482 272.328 111.627 275.403C113.772 278.478 114.979 281.954 115.247 285.965V286.901H104.118V286.366C103.716 283.023 102.107 280.216 99.6931 278.21C97.1454 276.205 93.6591 275.135 89.3683 275.135C86.5525 275.135 84.1389 275.536 81.9935 276.472C79.714 277.542 78.1049 278.745 77.0322 280.216C75.9595 281.82 75.4232 283.558 75.4232 285.564V285.697C75.4232 288.104 76.2277 290.109 77.9708 291.714C79.714 293.318 82.3957 294.655 86.2843 295.591L97.4136 298.265C104.52 300.003 109.482 302.276 112.431 305.217C115.247 308.158 116.722 312.169 116.722 317.116V317.25C116.722 321.261 115.515 324.87 113.236 328.079C110.822 331.154 107.604 333.694 103.582 335.432C99.4249 337.17 94.8659 338.106 89.6365 338.106C84.0048 338.106 79.3117 337.304 75.2891 335.566Z" fill="#EAEAEA"/>
<path d="M217.253 221.609L128.442 278.154" stroke="#AC4BEE" stroke-miterlimit="10"/>
</svg>
