<svg width="343" height="482" viewBox="0 0 343 482" fill="none" xmlns="http://www.w3.org/2000/svg">
<g clip-path="url(#clip0)">
<path d="M0 12C0 5.37258 5.37258 0 12 0H331C337.627 0 343 5.37258 343 12V470C343 476.627 337.627 482 331 482H12C5.37258 482 0 476.627 0 470V12Z" fill="#F3F4F5"/>
<path d="M0 12C0 5.37258 5.37258 0 12 0H331C337.627 0 343 5.37258 343 12V470C343 476.627 337.627 482 331 482H12C5.37258 482 0 476.627 0 470V12Z" stroke="#F3F4F5"/>
<path d="M18.4902 90H21.4785V79.0928H34.627V90H37.6152V66.0439H34.627V76.4033H21.4785V66.0439H18.4902V90ZM49.2529 90.332C53.0215 90.332 55.8438 88.0742 56.4082 85.2188L56.4414 85.0527H53.6025L53.5527 85.2021C53.0547 86.6797 51.5107 87.7754 49.3193 87.7754C46.248 87.7754 44.2891 85.7002 44.2227 82.1475H56.6572V81.085C56.6572 75.9053 53.7852 72.4023 49.0703 72.4023C44.3555 72.4023 41.3008 76.0713 41.3008 81.417V81.4336C41.3008 86.8623 44.2891 90.332 49.2529 90.332ZM49.0537 74.959C51.5771 74.959 53.4365 76.5361 53.7188 79.8896H44.2725C44.5879 76.6689 46.5469 74.959 49.0537 74.959ZM67.8467 94.7314V90H81.2441V94.7314H83.9336V87.6094H81.1943V72.7344H69.3076L68.6436 82.3135C68.4775 84.6377 67.8633 86.7793 66.6016 87.6094H65.1572V94.7314H67.8467ZM78.3057 87.6094H69.8555V87.543C70.7188 86.4307 71.167 84.5547 71.3164 82.3799L71.8477 75.125H78.3057V87.6094ZM93.6953 90.332C98.46 90.332 101.681 86.8789 101.681 81.3672V81.334C101.681 75.8223 98.4434 72.4023 93.6787 72.4023C88.9141 72.4023 85.6934 75.8389 85.6934 81.334V81.3672C85.6934 86.8623 88.8975 90.332 93.6953 90.332ZM93.7119 87.7754C90.6572 87.7754 88.6484 85.4346 88.6484 81.3672V81.334C88.6484 77.2998 90.6738 74.959 93.6787 74.959C96.7334 74.959 98.7256 77.2832 98.7256 81.334V81.3672C98.7256 85.418 96.75 87.7754 93.7119 87.7754ZM104.885 90H112.322C115.991 90 118.249 88.0908 118.249 85.0527V85.0195C118.249 82.9111 116.821 81.3838 114.646 81.085V80.9521C116.24 80.6201 117.485 78.9932 117.485 77.2168V77.1836C117.485 74.4443 115.51 72.7344 112.272 72.7344H104.885V90ZM107.773 79.9561V75.125H111.841C113.65 75.125 114.613 75.9385 114.613 77.4824V77.5156C114.613 79.1758 113.584 79.9561 111.409 79.9561H107.773ZM107.773 87.6094V82.3467H111.559C114.082 82.3467 115.294 83.1768 115.294 84.9531V84.9863C115.294 86.7129 114.165 87.6094 112.073 87.6094H107.773ZM128.675 90.332C132.443 90.332 135.266 88.0742 135.83 85.2188L135.863 85.0527H133.024L132.975 85.2021C132.477 86.6797 130.933 87.7754 128.741 87.7754C125.67 87.7754 123.711 85.7002 123.645 82.1475H136.079V81.085C136.079 75.9053 133.207 72.4023 128.492 72.4023C123.777 72.4023 120.723 76.0713 120.723 81.417V81.4336C120.723 86.8623 123.711 90.332 128.675 90.332ZM128.476 74.959C130.999 74.959 132.858 76.5361 133.141 79.8896H123.694C124.01 76.6689 125.969 74.959 128.476 74.959ZM139.333 95.8105H142.222V87.1113H142.288C143.367 89.1035 145.376 90.332 147.816 90.332C152.149 90.332 155.104 86.8291 155.104 81.3838V81.3672C155.104 75.9219 152.183 72.4023 147.767 72.4023C145.293 72.4023 143.367 73.6475 142.288 75.6562H142.222V72.7344H139.333V95.8105ZM147.202 87.7754C144.297 87.7754 142.205 85.2354 142.205 81.3838V81.3672C142.205 77.499 144.28 74.959 147.202 74.959C150.257 74.959 152.149 77.3994 152.149 81.3672V81.3838C152.149 85.3184 150.257 87.7754 147.202 87.7754ZM167.904 90H170.793V72.7344H164.368C160.4 72.7344 157.844 74.9092 157.844 78.4453V78.4785C157.844 80.8359 159.321 82.6289 161.762 83.3262L156.947 90H160.284L164.667 83.8574H167.904V90ZM164.385 81.4668C162.16 81.4668 160.799 80.2051 160.799 78.4287V78.3955C160.799 76.3369 162.144 75.125 164.385 75.125H167.904V81.4668H164.385ZM182.281 70.7754C185.485 70.7754 187.361 68.7002 187.361 66.0771V66.0273H184.987V66.1104C184.987 67.5879 184.024 68.8496 182.298 68.8496C180.505 68.8496 179.608 67.5879 179.608 66.1104V66.0273H177.234V66.0771C177.234 68.7002 179.11 70.7754 182.281 70.7754ZM174.844 90H177.699L186.299 77.167H186.432V90H189.32V72.7344H186.465L177.865 85.5674H177.732V72.7344H174.844V90ZM200.344 90H203.232V79.9229C203.232 76.9844 205.009 74.959 207.682 74.959C210.371 74.959 211.965 76.8018 211.965 79.9229V90H214.854V79.4248C214.854 75.2412 212.347 72.4023 208.678 72.4023C206.104 72.4023 204.229 73.5479 203.299 75.4902H203.232V66.0439H200.344V90ZM224.134 90.332C224.698 90.332 225.312 90.2656 225.678 90.2158V87.875C225.429 87.8916 225.097 87.9414 224.748 87.9414C223.204 87.9414 222.391 87.4268 222.391 85.584V75.125H225.678V72.7344H222.391V68.0693H219.402V72.7344H216.879V75.125H219.402V85.6006C219.402 88.9043 220.963 90.332 224.134 90.332ZM234.394 90.332C234.958 90.332 235.572 90.2656 235.938 90.2158V87.875C235.688 87.8916 235.356 87.9414 235.008 87.9414C233.464 87.9414 232.65 87.4268 232.65 85.584V75.125H235.938V72.7344H232.65V68.0693H229.662V72.7344H227.139V75.125H229.662V85.6006C229.662 88.9043 231.223 90.332 234.394 90.332ZM239.042 95.8105H241.931V87.1113H241.997C243.076 89.1035 245.085 90.332 247.525 90.332C251.858 90.332 254.813 86.8291 254.813 81.3838V81.3672C254.813 75.9219 251.892 72.4023 247.476 72.4023C245.002 72.4023 243.076 73.6475 241.997 75.6562H241.931V72.7344H239.042V95.8105ZM246.911 87.7754C244.006 87.7754 241.914 85.2354 241.914 81.3838V81.3672C241.914 77.499 243.989 74.959 246.911 74.959C249.966 74.959 251.858 77.3994 251.858 81.3672V81.3838C251.858 85.3184 249.966 87.7754 246.911 87.7754ZM25.4297 126.332C30.4268 126.332 33.498 122.979 33.498 117.55V117.517C33.498 112.387 30.5264 109.1 25.8613 109.1C23.1719 109.1 20.9971 110.162 19.8516 112.204H19.7852L19.8184 111.972C20.5322 106.975 21.9766 104.933 26.708 104.75L27.9863 104.7C29.9785 104.617 31.8047 104.186 32.3525 103.688V101.164C31.373 101.679 29.5137 102.027 27.8535 102.094L26.5752 102.144C19.8682 102.409 17.3447 106.36 17.3447 115.873V115.906C17.3447 122.763 20.1338 126.332 25.4297 126.332ZM25.4297 123.775C22.1758 123.775 20.2998 121.518 20.2998 117.55V117.517C20.2998 113.765 22.1758 111.656 25.4297 111.656C28.667 111.656 30.543 113.765 30.543 117.517V117.55C30.543 121.518 28.667 123.775 25.4297 123.775ZM43.8408 126.332C47.6094 126.332 50.4316 124.074 50.9961 121.219L51.0293 121.053H48.1904L48.1406 121.202C47.6426 122.68 46.0986 123.775 43.9072 123.775C40.8359 123.775 38.877 121.7 38.8105 118.147H51.2451V117.085C51.2451 111.905 48.373 108.402 43.6582 108.402C38.9434 108.402 35.8887 112.071 35.8887 117.417V117.434C35.8887 122.862 38.877 126.332 43.8408 126.332ZM43.6416 110.959C46.165 110.959 48.0244 112.536 48.3066 115.89H38.8604C39.1758 112.669 41.1348 110.959 43.6416 110.959ZM60.2432 126.332C64.2773 126.332 66.9834 124.174 66.9834 120.97V120.937C66.9834 118.944 65.7549 117.566 63.5303 117.085V116.952C65.29 116.554 66.502 115.01 66.502 113.167V113.134C66.502 110.212 64.1943 108.402 60.4258 108.402C56.8398 108.402 54.333 110.195 53.9346 112.984L53.918 113.101H56.7236L56.7402 113.018C57.0059 111.673 58.4502 110.793 60.4258 110.793C62.4678 110.793 63.6797 111.756 63.6797 113.366V113.399C63.6797 115.109 62.5342 115.973 60.2432 115.973H57.6533V118.363H60.2432C62.8828 118.363 64.1445 119.227 64.1445 121.069V121.103C64.1445 122.846 62.6338 123.941 60.2432 123.941C58.1846 123.941 56.8066 123.128 56.3916 121.684L56.3418 121.518H53.4199L53.4365 121.65C53.7852 124.473 56.4912 126.332 60.2432 126.332ZM83.2363 126.332C87.0879 126.332 89.9434 124.207 89.9434 121.186V121.169C89.9434 118.712 88.6816 117.334 85.1953 116.487L82.4561 115.823C80.5469 115.358 79.7666 114.545 79.7666 113.366V113.35C79.7666 111.822 81.0615 110.81 83.1533 110.81C85.2949 110.81 86.5732 111.922 86.8057 113.599L86.8223 113.715H89.5781L89.5615 113.499C89.3457 110.61 86.9385 108.402 83.1533 108.402C79.418 108.402 76.8115 110.511 76.8115 113.482V113.499C76.8115 115.989 78.3887 117.5 81.6426 118.28L84.3818 118.944C86.3408 119.426 86.9883 120.123 86.9883 121.368V121.385C86.9883 122.945 85.5938 123.925 83.2529 123.925C80.8955 123.925 79.6172 122.912 79.2686 121.186L79.2354 121.02H76.3467L76.3633 121.169C76.7119 124.257 79.1689 126.332 83.2363 126.332Z" fill="#BB3AF7"/>
<path d="M293 390.75H50C31.6365 390.75 16.75 405.637 16.75 424C16.75 442.363 31.6365 457.25 50 457.25H293C311.363 457.25 326.25 442.363 326.25 424C326.25 405.637 311.363 390.75 293 390.75Z" stroke="#BB3AF7" stroke-width="1.5"/>
<path d="M112.625 431H115.403L116.654 427.175H122.15L123.401 431H126.18L120.899 416.204H117.916L112.625 431ZM119.382 418.839H119.433L121.484 425.135H117.321L119.382 418.839ZM135.05 422.1V420.131H127.677V431H130.23V422.1H135.05ZM139.705 431.185C141.13 431.185 142.34 430.467 142.976 429.329H143.027V431H145.581V423.525C145.581 421.341 143.837 419.905 141.11 419.905C138.352 419.905 136.69 421.351 136.526 423.279L136.516 423.402H138.885L138.905 423.31C139.069 422.51 139.818 421.946 141.028 421.946C142.31 421.946 143.027 422.612 143.027 423.709V424.458L140.187 424.632C137.562 424.796 136.055 425.955 136.055 427.883V427.903C136.055 429.841 137.521 431.185 139.705 431.185ZM138.608 427.801V427.791C138.608 426.929 139.295 426.386 140.546 426.304L143.027 426.15V426.97C143.027 428.262 141.93 429.236 140.464 429.236C139.336 429.236 138.608 428.693 138.608 427.801ZM147.088 434.025H148.872L150.369 428.59H147.898L147.088 434.025ZM157.106 433.922V431H164.827V433.922H167.165V429H165.504V420.131H157.239L156.86 425.801C156.757 427.268 156.429 428.529 155.629 429H154.768V433.922H157.106ZM162.951 429H158.285V428.949C158.808 428.221 159.054 427.175 159.136 425.935L159.413 422.13H162.951V429ZM171.8 431.185C173.225 431.185 174.435 430.467 175.071 429.329H175.122V431H177.675V423.525C177.675 421.341 175.932 419.905 173.205 419.905C170.446 419.905 168.785 421.351 168.621 423.279L168.611 423.402H170.979L171 423.31C171.164 422.51 171.913 421.946 173.123 421.946C174.404 421.946 175.122 422.612 175.122 423.709V424.458L172.282 424.632C169.657 424.796 168.149 425.955 168.149 427.883V427.903C168.149 429.841 169.616 431.185 171.8 431.185ZM170.703 427.801V427.791C170.703 426.929 171.39 426.386 172.641 426.304L175.122 426.15V426.97C175.122 428.262 174.025 429.236 172.559 429.236C171.431 429.236 170.703 428.693 170.703 427.801ZM183.571 426.058L183.838 422.11H187.252V431H189.816V420.131H181.613L181.254 425.873C181.131 427.842 180.762 428.867 179.665 428.867C179.388 428.867 179.183 428.826 179.08 428.795V430.979C179.244 431.031 179.583 431.103 180.054 431.103C182.607 431.103 183.366 429.144 183.571 426.058ZM192.113 431H196.758C199.291 431 200.921 429.523 200.921 427.206V427.186C200.921 424.868 199.291 423.392 196.758 423.392H194.666V420.131H192.113V431ZM196.399 425.36C197.568 425.36 198.316 426.078 198.316 427.186V427.206C198.316 428.303 197.578 429.031 196.399 429.031H194.666V425.36H196.399ZM202.695 431H217.081V420.131H214.528V429H211.165V420.131H208.611V429H205.248V420.131H202.695V431ZM224.136 431.215C226.976 431.215 228.576 429.534 228.924 427.862L228.945 427.75H226.556L226.535 427.821C226.289 428.549 225.469 429.226 224.187 429.226C222.526 429.226 221.48 428.098 221.449 426.191H229.058V425.371C229.058 422.089 227.13 419.905 224.013 419.905C220.906 419.905 218.906 422.161 218.906 425.586V425.596C218.906 429.052 220.875 431.215 224.136 431.215ZM224.043 421.905C225.397 421.905 226.381 422.766 226.566 424.489H221.48C221.675 422.817 222.7 421.905 224.043 421.905Z" fill="black"/>
<path d="M342.999 244.96H121.665C104.079 244.96 89.8789 230.45 89.8789 212.48C89.8789 194.51 104.209 180 121.665 180H342.869V244.96H342.999Z" fill="#202124"/>
<path d="M342.999 244.96H121.665C104.079 244.96 89.8789 230.45 89.8789 212.48C89.8789 194.51 104.209 180 121.665 180H342.869" stroke="#626265" stroke-width="2" stroke-miterlimit="10"/>
<path d="M132.41 222.248H121.683C120.342 222.248 119.27 221.178 119.27 219.842V210.616C119.27 209.28 120.342 208.21 121.683 208.21H132.41C133.751 208.21 134.824 209.28 134.824 210.616V219.842C134.69 221.178 133.617 222.248 132.41 222.248Z" fill="#EAEAEA"/>
<path d="M127.181 216.098C124.499 216.098 122.354 213.959 122.354 211.285V205.803C122.354 203.129 124.499 200.99 127.181 200.99C129.862 200.99 132.008 203.129 132.008 205.803V211.285C132.008 213.959 129.862 216.098 127.181 216.098ZM127.181 202.862C125.572 202.862 124.231 204.199 124.231 205.803V211.285C124.231 212.889 125.572 214.226 127.181 214.226C128.79 214.226 130.131 212.889 130.131 211.285V205.803C130.265 204.199 128.924 202.862 127.181 202.862Z" fill="#EAEAEA"/>
<path d="M162.848 198.985H165.53V207.676C165.932 206.74 166.603 206.071 167.407 205.536C168.212 205.002 169.284 204.734 170.491 204.734C171.564 204.734 172.637 205.002 173.441 205.536C174.246 206.071 174.916 206.873 175.453 207.809C175.989 208.745 176.123 209.948 176.123 211.152V220.778H173.441V211.553C173.441 210.082 173.039 209.013 172.368 208.21C171.698 207.408 170.759 207.007 169.419 207.007C168.614 207.007 167.944 207.141 167.273 207.542C166.603 207.943 166.2 208.478 165.798 209.146C165.396 209.815 165.262 210.617 165.262 211.553V220.778H162.58V198.985H162.848Z" fill="#EAEAEA"/>
<path d="M181.217 220.242C180.547 219.574 180.145 218.504 180.145 216.9V207.274H177.865V205.135H180.145V200.856H182.826V205.135H185.776V207.274H182.826V216.9C182.826 217.702 182.961 218.371 183.363 218.638C183.765 218.905 184.301 219.039 184.972 219.039C185.106 219.039 185.24 219.039 185.374 219.039C185.508 219.039 185.642 219.039 185.776 219.039V221.178C185.642 221.178 185.374 221.178 185.106 221.312C184.838 221.312 184.57 221.312 184.301 221.312C182.961 221.178 181.888 220.911 181.217 220.242Z" fill="#EAEAEA"/>
<path d="M191.141 220.242C190.471 219.574 190.069 218.504 190.069 216.9V207.274H187.789V205.135H190.069V200.856H192.75V205.135H195.7V207.274H192.75V216.9C192.75 217.702 192.884 218.371 193.287 218.638C193.689 218.905 194.225 219.039 194.896 219.039C195.03 219.039 195.164 219.039 195.298 219.039C195.432 219.039 195.566 219.039 195.7 219.039V221.178C195.566 221.178 195.298 221.178 195.03 221.312C194.762 221.312 194.493 221.312 194.225 221.312C192.884 221.178 191.812 220.911 191.141 220.242Z" fill="#EAEAEA"/>
<path d="M198.381 205.134H201.063V207.808C201.331 207.14 201.867 206.605 202.269 206.204C202.672 205.803 203.342 205.402 204.013 205.134C204.683 204.867 205.353 204.733 206.158 204.733C207.499 204.733 208.706 205.134 209.644 205.803C210.717 206.471 211.387 207.407 212.058 208.611C212.728 209.814 212.862 211.285 212.862 212.889C212.862 214.493 212.594 215.964 212.058 217.167C211.521 218.37 210.717 219.306 209.778 219.975C208.84 220.643 207.633 221.044 206.292 221.044C205.488 221.044 204.817 220.911 204.147 220.643C203.476 220.376 202.94 220.108 202.403 219.574C201.867 219.173 201.465 218.638 201.197 217.969V225.857H198.515V205.134H198.381ZM208.035 218.103C208.706 217.568 209.242 216.9 209.644 216.098C210.047 215.162 210.181 214.226 210.181 213.023C210.181 211.819 210.047 210.75 209.644 209.948C209.242 209.012 208.706 208.343 208.035 207.942C207.365 207.407 206.56 207.274 205.622 207.274C204.683 207.274 203.878 207.541 203.208 207.942C202.538 208.343 202.001 209.145 201.599 209.948C201.197 210.883 201.063 211.819 201.063 213.023C201.063 214.226 201.197 215.162 201.599 216.098C202.001 217.033 202.538 217.702 203.208 218.103C203.878 218.504 204.683 218.771 205.622 218.771C206.426 218.905 207.231 218.638 208.035 218.103Z" fill="#EAEAEA"/>
<path d="M217.824 220.643C216.886 220.242 216.215 219.707 215.679 219.039C215.142 218.371 214.874 217.568 214.74 216.499V216.365H217.422V216.499C217.556 217.301 217.958 217.836 218.629 218.371C219.165 218.772 220.104 219.039 221.176 219.039C221.847 219.039 222.517 218.905 223.054 218.772C223.59 218.638 223.992 218.371 224.26 217.969C224.529 217.568 224.663 217.167 224.663 216.766C224.663 216.231 224.529 215.697 224.126 215.429C223.724 215.162 223.188 214.761 222.249 214.627L219.701 213.959C218.227 213.557 217.154 213.023 216.349 212.354C215.545 211.686 215.143 210.616 215.143 209.413C215.143 208.477 215.411 207.675 215.947 207.006C216.483 206.338 217.154 205.803 217.958 205.402C218.897 205.001 219.836 204.867 221.042 204.867C222.249 204.867 223.188 205.135 224.126 205.536C224.931 205.937 225.601 206.472 226.138 207.14C226.674 207.809 226.942 208.611 226.942 209.547V209.68H224.395V209.547C224.26 208.744 223.992 208.21 223.322 207.675C222.786 207.274 221.981 207.006 221.042 207.006C220.372 207.006 219.836 207.14 219.433 207.274C219.031 207.407 218.629 207.675 218.361 208.076C218.092 208.477 217.958 208.878 217.958 209.279C217.958 209.814 218.092 210.215 218.495 210.616C218.897 211.017 219.567 211.285 220.372 211.552L222.92 212.22C224.529 212.622 225.601 213.156 226.272 213.825C226.942 214.493 227.21 215.429 227.21 216.499C227.21 217.435 226.942 218.237 226.406 218.905C225.87 219.574 225.199 220.109 224.26 220.51C223.322 220.911 222.249 221.044 221.042 221.044C219.836 221.178 218.763 221.044 217.824 220.643Z" fill="#EAEAEA"/>
<path d="M230.159 208.878C229.891 208.61 229.623 208.076 229.623 207.675C229.623 207.273 229.757 206.739 230.159 206.471C230.428 206.204 230.964 205.937 231.366 205.937C231.768 205.937 232.305 206.07 232.573 206.471C232.841 206.739 233.109 207.273 233.109 207.675C233.109 208.076 232.975 208.61 232.573 208.878C232.305 209.145 231.768 209.413 231.366 209.413C230.964 209.413 230.428 209.145 230.159 208.878ZM230.159 220.643C229.891 220.376 229.623 219.841 229.623 219.44C229.623 219.039 229.757 218.504 230.159 218.237C230.428 217.969 230.964 217.702 231.366 217.702C231.768 217.702 232.305 217.835 232.573 218.237C232.841 218.504 233.109 219.039 233.109 219.44C233.109 219.841 232.975 220.376 232.573 220.643C232.305 220.91 231.768 221.178 231.366 221.178C230.964 221.178 230.428 220.91 230.159 220.643Z" fill="#EAEAEA"/>
<path d="M237.266 226.258H234.719L240.887 198.984H243.434L237.266 226.258Z" fill="#EAEAEA"/>
<path d="M245.044 226.258H242.496L248.664 198.984H251.212L245.044 226.258Z" fill="#EAEAEA"/>
<path d="M254.296 220.643C253.491 220.242 252.955 219.707 252.418 219.039C252.016 218.371 251.748 217.435 251.748 216.499C251.748 215.162 252.284 214.092 253.223 213.29C254.162 212.488 255.637 212.087 257.514 211.953L263.414 211.686V213.691L257.916 213.959C256.843 213.959 256.039 214.226 255.503 214.761C254.966 215.162 254.564 215.83 254.564 216.499C254.564 217.301 254.832 217.836 255.368 218.371C255.905 218.772 256.709 219.039 257.648 219.039C258.452 219.039 259.257 218.905 259.927 218.504C260.598 218.103 261.134 217.702 261.536 217.034C261.939 216.365 262.073 215.697 262.073 215.028V210.349C262.073 209.413 261.805 208.611 261.134 208.076C260.464 207.541 259.659 207.274 258.587 207.274C257.514 207.274 256.709 207.541 256.173 207.942C255.637 208.343 255.1 209.012 254.966 209.68V209.814H252.418V209.68C252.553 208.744 252.821 208.076 253.357 207.274C253.893 206.472 254.564 205.937 255.503 205.536C256.441 205.135 257.514 204.867 258.721 204.867C259.927 204.867 261 205.135 261.939 205.536C262.877 205.937 263.548 206.605 264.084 207.274C264.62 208.076 264.889 209.012 264.889 209.948V220.911H262.207V218.371C261.939 218.905 261.536 219.44 261 219.841C260.464 220.242 259.927 220.643 259.257 220.777C258.587 221.044 257.916 221.178 257.246 221.178C256.039 221.178 255.1 221.044 254.296 220.643Z" fill="#EAEAEA"/>
<path d="M268.242 205.135H270.923V207.407C271.326 206.605 271.996 206.07 272.801 205.536C273.605 205.001 274.678 204.867 275.75 204.867C277.494 204.867 278.834 205.402 279.773 206.472C280.712 207.541 281.248 208.878 281.248 210.75V221.044H278.566V211.285C278.566 209.948 278.298 209.012 277.628 208.343C276.957 207.675 276.153 207.274 274.946 207.274C274.141 207.274 273.337 207.407 272.801 207.809C272.13 208.21 271.728 208.744 271.326 209.413C270.923 210.081 270.789 210.884 270.789 211.819V221.044H268.107V205.135H268.242Z" fill="#EAEAEA"/>
<path d="M287.551 220.242C286.478 219.574 285.539 218.638 285.003 217.435C284.333 216.231 284.064 214.761 284.064 213.023C284.064 211.285 284.333 209.948 285.003 208.611C285.674 207.407 286.478 206.472 287.551 205.803C288.623 205.135 289.964 204.867 291.439 204.867C292.914 204.867 294.121 205.135 295.328 205.803C296.401 206.472 297.339 207.407 297.876 208.611C298.546 209.814 298.814 211.285 298.814 213.023C298.814 214.761 298.546 216.098 297.876 217.435C297.205 218.638 296.401 219.574 295.328 220.242C294.255 220.911 292.914 221.178 291.439 221.178C289.964 221.178 288.623 220.911 287.551 220.242ZM293.853 218.237C294.523 217.836 295.06 217.167 295.462 216.231C295.864 215.295 295.998 214.36 295.998 213.023C295.998 211.819 295.864 210.75 295.462 209.814C295.06 208.878 294.523 208.343 293.853 207.809C293.182 207.407 292.378 207.14 291.439 207.14C290.501 207.14 289.696 207.407 289.026 207.809C288.355 208.21 287.819 208.878 287.417 209.814C287.014 210.75 286.88 211.686 286.88 213.023C286.88 214.226 287.014 215.295 287.417 216.231C287.819 217.167 288.355 217.836 289.026 218.237C289.696 218.638 290.501 218.905 291.439 218.905C292.378 218.905 293.048 218.638 293.853 218.237Z" fill="#EAEAEA"/>
<path d="M303.104 220.242C302.434 219.574 302.031 218.504 302.031 216.9V207.274H299.752V205.135H302.031V200.856H304.713V205.135H307.663V207.274H304.713V216.9C304.713 217.702 304.847 218.371 305.25 218.638C305.652 218.905 306.188 219.039 306.859 219.039C306.993 219.039 307.127 219.039 307.261 219.039C307.395 219.039 307.529 219.039 307.663 219.039V221.178C307.529 221.178 307.261 221.178 306.993 221.312C306.725 221.312 306.456 221.312 306.188 221.312C304.981 221.178 303.775 220.911 303.104 220.242Z" fill="#EAEAEA"/>
<path d="M310.344 198.984H313.026V207.675C313.428 206.739 314.099 206.07 314.903 205.535C315.708 205.001 316.781 204.733 317.987 204.733C319.06 204.733 320.133 205.001 320.937 205.535C321.742 206.07 322.412 206.872 322.949 207.808C323.485 208.744 323.619 209.947 323.619 211.151V220.777H320.937V211.552C320.937 210.081 320.535 209.012 319.865 208.209C319.194 207.407 318.256 207.006 316.915 207.006C316.11 207.006 315.44 207.14 314.769 207.541C314.099 207.942 313.697 208.477 313.294 209.145C312.892 209.814 312.758 210.616 312.758 211.552V220.777H310.076V198.984H310.344Z" fill="#EAEAEA"/>
<path d="M329.787 220.242C328.714 219.574 327.91 218.638 327.239 217.435C326.703 216.231 326.301 214.761 326.301 213.156C326.301 211.552 326.569 210.081 327.239 208.878C327.776 207.675 328.714 206.739 329.787 205.937C330.86 205.268 332.067 204.867 333.542 204.867C335.016 204.867 336.223 205.135 337.296 205.803C338.369 206.472 339.173 207.407 339.71 208.611C340.246 209.814 340.514 211.151 340.514 212.755V213.691H327.776V211.686H339.173L337.832 213.557V212.488C337.832 211.285 337.698 210.215 337.296 209.413C336.894 208.611 336.357 208.076 335.821 207.675C335.151 207.274 334.48 207.14 333.542 207.14C332.603 207.14 331.932 207.407 331.262 207.809C330.592 208.21 330.055 208.878 329.653 209.68C329.251 210.482 329.117 211.418 329.117 212.622V213.691C329.117 214.761 329.251 215.697 329.653 216.499C330.055 217.301 330.592 217.836 331.262 218.371C331.932 218.772 332.737 219.039 333.81 219.039C334.48 219.039 335.016 218.905 335.553 218.772C336.089 218.638 336.491 218.237 336.894 217.969C337.296 217.568 337.564 217.167 337.698 216.766V216.632H340.246V216.766C340.112 217.435 339.844 217.969 339.441 218.638C339.039 219.173 338.637 219.707 337.966 220.109C337.43 220.51 336.76 220.911 335.955 221.044C335.151 221.178 334.346 221.446 333.542 221.446C332.201 221.178 330.86 220.911 329.787 220.242Z" fill="#EAEAEA"/>
<path d="M89.1002 348C114.649 348 135.361 327.349 135.361 301.875C135.361 276.401 114.649 255.75 89.1002 255.75C63.5513 255.75 42.8398 276.401 42.8398 301.875C42.8398 327.349 63.5513 348 89.1002 348Z" fill="#202124" stroke="#AC4BEE" stroke-miterlimit="10"/>
<path d="M75.2896 335.566C71.2669 333.828 68.1829 331.422 65.7693 328.213C63.4898 325.138 62.0149 321.395 61.6126 317.25L61.4785 316.582H73.1442L73.2783 317.25C73.9487 320.726 75.6918 323.4 78.3736 325.406C81.0554 327.411 84.6757 328.347 89.5029 328.347C92.721 328.347 95.4028 327.946 97.6823 327.144C99.9618 326.341 101.705 325.138 102.912 323.534C104.118 321.929 104.789 320.191 104.789 318.052V317.919C104.789 315.378 103.984 313.373 102.509 311.902C101.034 310.432 98.2186 309.095 94.196 308.159L83.0667 305.485C76.4964 303.88 71.5351 301.608 68.317 298.399C65.0989 295.19 63.4898 291.179 63.4898 286.099V285.965C63.4898 281.954 64.5625 278.345 66.7079 275.269C68.8534 272.194 71.9374 269.788 75.8259 268.05C79.7145 266.312 84.1394 265.376 89.2347 265.376C94.3301 265.376 98.755 266.312 102.644 268.05C106.398 269.922 109.482 272.328 111.627 275.403C113.773 278.478 114.98 281.954 115.248 285.965V286.901H104.118V286.366C103.716 283.024 102.107 280.216 99.6936 278.211C97.1459 276.205 93.6596 275.136 89.3688 275.136C86.553 275.136 84.1394 275.537 81.994 276.473C79.7145 277.542 78.1054 278.746 77.0327 280.216C75.96 281.821 75.4237 283.559 75.4237 285.564V285.698C75.4237 288.104 76.2282 290.11 77.9713 291.714C79.7145 293.318 82.3962 294.655 86.2848 295.591L97.4141 298.265C104.521 300.003 109.482 302.276 112.432 305.217C115.248 308.159 116.723 312.17 116.723 317.116V317.25C116.723 321.261 115.516 324.871 113.236 328.079C110.823 331.155 107.605 333.695 103.582 335.433C99.4254 337.171 94.8664 338.107 89.637 338.107C84.0053 338.107 79.3122 337.305 75.2896 335.566Z" fill="#EAEAEA"/>
<path d="M217.253 221.609L128.441 278.155" stroke="#AC4BEE" stroke-miterlimit="10"/>
<path d="M26.0029 41V31.1357H17.9775V41H19.5088V32.4551H24.4717V41H26.0029ZM28.6512 41H30.1824V37.6299H32.3221C34.2635 37.6299 35.5965 36.3105 35.5965 34.3828V34.3691C35.5965 32.4346 34.2635 31.1357 32.3221 31.1357H28.6512V41ZM31.9461 32.4277C33.2723 32.4277 34.0379 33.1455 34.0379 34.376V34.3896C34.0379 35.627 33.2723 36.3447 31.9461 36.3447H30.1824V32.4277H31.9461ZM36.276 41H37.8824L38.7916 38.334H42.5924L43.4947 41H45.1012L41.5191 31.1357H39.8648L36.276 41ZM40.6783 32.7695H40.7057L42.1754 37.1035H39.2018L40.6783 32.7695ZM47.0248 41H50.9828C53.0814 41 54.3461 39.9473 54.3461 38.2109V38.1973C54.3461 36.8916 53.4369 35.9277 52.0355 35.791V35.7568C53.0746 35.6133 53.8607 34.6494 53.8607 33.6104V33.5967C53.8607 32.1064 52.7123 31.1357 50.9623 31.1357H47.0248V41ZM50.5932 32.3867C51.6938 32.3867 52.3295 32.8857 52.3295 33.7881V33.8018C52.3295 34.7793 51.598 35.3262 50.2719 35.3262H48.5561V32.3867H50.5932ZM50.5795 36.5088C52.0287 36.5088 52.7807 37.0557 52.7807 38.1152V38.1289C52.7807 39.1953 52.0424 39.749 50.6684 39.749H48.5561V36.5088H50.5795ZM56.5021 41H57.9104L62.9963 33.6582H63.0305V41H64.548V31.1357H63.133L58.0539 38.4844H58.0197V31.1357H56.5021V41ZM67.1348 41.0752C68.8643 41.0752 69.6436 39.8379 69.7939 37.2402L70.0879 32.4551H73.5059V41H75.0371V31.1357H68.7002L68.3721 37.1582C68.2695 38.915 67.8936 39.6875 66.9639 39.6875C66.8271 39.6875 66.6426 39.667 66.5605 39.6465V41C66.6904 41.041 66.9023 41.0752 67.1348 41.0752ZM81.9578 41.1641C84.8084 41.1641 86.5789 39.2021 86.5789 36.0713V36.0576C86.5789 32.9336 84.8016 30.9717 81.9578 30.9717C79.1209 30.9717 77.3367 32.9268 77.3367 36.0576V36.0713C77.3367 39.209 79.1141 41.1641 81.9578 41.1641ZM81.9578 39.8105C80.0848 39.8105 78.8953 38.3682 78.8953 36.0713V36.0576C78.8953 33.7607 80.0916 32.3252 81.9578 32.3252C83.8309 32.3252 85.0135 33.7676 85.0135 36.0576V36.0713C85.0135 38.3477 83.8514 39.8105 81.9578 39.8105ZM94.6986 41H96.1957V31.1357H94.685L92.0873 32.9814V34.4307L94.6645 32.6533H94.6986V41ZM102.57 31.1357H101.209L98.5363 43.3926H99.9035L102.57 31.1357ZM104.582 41H106.188L110.475 32.4619V31.1357H103.762V32.4277H108.964V32.4619L104.582 41Z" fill="#BB3AF7"/>
</g>
<defs>
<clipPath id="clip0">
<rect width="343" height="482" fill="white"/>
</clipPath>
</defs>
</svg>
