<svg width="343" height="390" viewBox="0 0 343 390" fill="none" xmlns="http://www.w3.org/2000/svg">
<path d="M0 12C0 5.37258 5.37258 0 12 0H331C337.627 0 343 5.37258 343 12V378C343 384.627 337.627 390 331 390H12C5.37258 390 0 384.627 0 378V12Z" fill="#F3F4F5"/>
<path d="M0 12C0 5.37258 5.37258 0 12 0H331C337.627 0 343 5.37258 343 12V378C343 384.627 337.627 390 331 390H12C5.37258 390 0 384.627 0 378V12Z" stroke="#F3F4F5"/>
<path d="M24.5493 90H27.5376V68.7334H35.0913V66.0439H16.9956V68.7334H24.5493V90ZM42.4624 90.332C47.2271 90.332 50.4478 86.8789 50.4478 81.3672V81.334C50.4478 75.8223 47.2104 72.4023 42.4458 72.4023C37.6812 72.4023 34.4604 75.8389 34.4604 81.334V81.3672C34.4604 86.8623 37.6646 90.332 42.4624 90.332ZM42.479 87.7754C39.4243 87.7754 37.4155 85.4346 37.4155 81.3672V81.334C37.4155 77.2998 39.4409 74.959 42.4458 74.959C45.5005 74.959 47.4927 77.2832 47.4927 81.334V81.3672C47.4927 85.418 45.5171 87.7754 42.479 87.7754ZM57.7856 82.3965L58.3335 75.125H64.9741V90H67.8628V72.7344H55.7271L55.0464 82.3301C54.814 85.501 54.1831 87.5098 52.3403 87.5098C51.8921 87.5098 51.5767 87.4434 51.4272 87.3936V90C51.6597 90.083 52.0913 90.166 52.6392 90.166C56.3081 90.166 57.4204 87.1611 57.7856 82.3965ZM71.9468 90H78.0728C82.0239 90 84.564 87.7256 84.564 84.1396V84.1064C84.564 80.5205 82.0239 78.2461 78.0728 78.2461H74.8354V72.7344H71.9468V90ZM78.0229 80.6367C80.2144 80.6367 81.6089 81.998 81.6089 84.1064V84.1396C81.6089 86.2314 80.231 87.6094 78.0229 87.6094H74.8354V80.6367H78.0229ZM91.271 82.0312L98.1606 90H101.813L93.8774 80.9023L101.581 72.7344H98.0776L91.271 80.0391H90.6069V72.7344H87.7183V90H90.6069V82.0312H91.271ZM111.06 90.332C115.825 90.332 119.045 86.8789 119.045 81.3672V81.334C119.045 75.8223 115.808 72.4023 111.043 72.4023C106.279 72.4023 103.058 75.8389 103.058 81.334V81.3672C103.058 86.8623 106.262 90.332 111.06 90.332ZM111.077 87.7754C108.022 87.7754 106.013 85.4346 106.013 81.3672V81.334C106.013 77.2998 108.039 74.959 111.043 74.959C114.098 74.959 116.09 77.2832 116.09 81.334V81.3672C116.09 85.418 114.115 87.7754 111.077 87.7754ZM132.111 90V77.748H132.227L137.772 89.502H139.98L145.542 77.748H145.658V90H148.546V72.7344H145.16L139 86.1816H138.868L132.758 72.7344H129.222V90H132.111ZM159.769 90.332C164.534 90.332 167.754 86.8789 167.754 81.3672V81.334C167.754 75.8223 164.517 72.4023 159.752 72.4023C154.988 72.4023 151.767 75.8389 151.767 81.334V81.3672C151.767 86.8623 154.971 90.332 159.769 90.332ZM159.786 87.7754C156.731 87.7754 154.722 85.4346 154.722 81.3672V81.334C154.722 77.2998 156.748 74.959 159.752 74.959C162.807 74.959 164.799 77.2832 164.799 81.334V81.3672C164.799 85.418 162.824 87.7754 159.786 87.7754ZM170.958 90H192.275V72.7344H189.386V87.6094H183.061V72.7344H180.172V87.6094H173.847V72.7344H170.958V90ZM203.448 90.332C207.216 90.332 210.039 88.0742 210.603 85.2188L210.636 85.0527H207.797L207.748 85.2021C207.25 86.6797 205.706 87.7754 203.514 87.7754C200.443 87.7754 198.484 85.7002 198.417 82.1475H210.852V81.085C210.852 75.9053 207.98 72.4023 203.265 72.4023C198.55 72.4023 195.496 76.0713 195.496 81.417V81.4336C195.496 86.8623 198.484 90.332 203.448 90.332ZM203.249 74.959C205.772 74.959 207.631 76.5361 207.914 79.8896H198.467C198.783 76.6689 200.742 74.959 203.249 74.959ZM225.428 90H228.317V72.7344H225.428V79.8564H216.978V72.7344H214.089V90H216.978V82.2471H225.428V90ZM243.723 90H246.612V72.7344H243.723V79.8564H235.273V72.7344H232.384V90H235.273V82.2471H243.723V90ZM250.679 90H253.535L262.134 77.167H262.267V90H265.156V72.7344H262.3L253.701 85.5674H253.568V72.7344H250.679V90ZM272.759 82.0312L279.649 90H283.301L275.366 80.9023L283.069 72.7344H279.566L272.759 80.0391H272.095V72.7344H269.207V90H272.095V82.0312H272.759ZM18.0249 126H20.9136V111.125H29.1978V126H32.103V108.734H18.0249V126ZM36.1704 131.811H39.0591V123.111H39.1255C40.2046 125.104 42.2134 126.332 44.6538 126.332C48.9868 126.332 51.9419 122.829 51.9419 117.384V117.367C51.9419 111.922 49.02 108.402 44.604 108.402C42.1304 108.402 40.2046 109.647 39.1255 111.656H39.0591V108.734H36.1704V131.811ZM44.0396 123.775C41.1343 123.775 39.0425 121.235 39.0425 117.384V117.367C39.0425 113.499 41.1177 110.959 44.0396 110.959C47.0942 110.959 48.9868 113.399 48.9868 117.367V117.384C48.9868 121.318 47.0942 123.775 44.0396 123.775ZM62.3013 126.332C66.0698 126.332 68.8921 124.074 69.4565 121.219L69.4897 121.053H66.6509L66.6011 121.202C66.103 122.68 64.5591 123.775 62.3677 123.775C59.2964 123.775 57.3374 121.7 57.271 118.147H69.7056V117.085C69.7056 111.905 66.8335 108.402 62.1187 108.402C57.4038 108.402 54.3491 112.071 54.3491 117.417V117.434C54.3491 122.862 57.3374 126.332 62.3013 126.332ZM62.1021 110.959C64.6255 110.959 66.4849 112.536 66.7671 115.89H57.3208C57.6362 112.669 59.5952 110.959 62.1021 110.959ZM73.5903 130.731V126H86.9878V130.731H89.6772V123.609H86.938V108.734H75.0513L74.3872 118.313C74.2212 120.638 73.6069 122.779 72.3452 123.609H70.9009V130.731H73.5903ZM84.0493 123.609H75.5991V123.543C76.4624 122.431 76.9106 120.555 77.0601 118.38L77.5913 111.125H84.0493V123.609ZM97.0649 118.396L97.6128 111.125H104.253V126H107.142V108.734H95.0063L94.3257 118.33C94.0933 121.501 93.4624 123.51 91.6196 123.51C91.1714 123.51 90.856 123.443 90.7065 123.394V126C90.939 126.083 91.3706 126.166 91.9185 126.166C95.5874 126.166 96.6997 123.161 97.0649 118.396ZM118.398 126.332C123.163 126.332 126.383 122.879 126.383 117.367V117.334C126.383 111.822 123.146 108.402 118.381 108.402C113.617 108.402 110.396 111.839 110.396 117.334V117.367C110.396 122.862 113.6 126.332 118.398 126.332ZM118.415 123.775C115.36 123.775 113.351 121.435 113.351 117.367V117.334C113.351 113.3 115.376 110.959 118.381 110.959C121.436 110.959 123.428 113.283 123.428 117.334V117.367C123.428 121.418 121.453 123.775 118.415 123.775ZM130.816 126L137.556 117.965H138.054V126H140.843V117.965H141.341L148.082 126H151.784L143.981 116.902L151.518 108.734H147.999L141.341 116.105H140.843V108.734H138.054V116.105H137.556L130.899 108.734H127.379L134.917 116.902L127.114 126H130.816ZM154.191 126H157.046L165.646 113.167H165.779V126H168.667V108.734H165.812L157.212 121.567H157.08V108.734H154.191V126ZM185.352 108.734H171.34V111.125H176.902V126H179.791V111.125H185.352V108.734ZM23.0884 162.332C25.396 162.332 27.4712 161.087 28.4839 159.194H28.5503V162H31.439V150.063C31.439 146.61 28.8823 144.402 24.7983 144.402C20.731 144.402 18.2573 146.693 18.0083 149.532L17.9917 149.715H20.7808L20.814 149.565C21.146 148.021 22.5405 146.959 24.7651 146.959C27.1724 146.959 28.5503 148.237 28.5503 150.346V151.79L23.603 152.072C19.6353 152.305 17.3442 154.147 17.3442 157.086V157.119C17.3442 160.257 19.6519 162.332 23.0884 162.332ZM20.2993 157.119V157.086C20.2993 155.476 21.6274 154.446 23.9351 154.313L28.5503 154.031V155.442C28.5503 157.949 26.4585 159.825 23.7358 159.825C21.6606 159.825 20.2993 158.779 20.2993 157.119ZM46.7622 162H49.6509V144.734H46.7622V151.856H38.312V144.734H35.4233V162H38.312V154.247H46.7622V162ZM66.3521 144.734H52.3403V147.125H57.9019V162H60.7905V147.125H66.3521V144.734ZM69.0249 162H71.8804L80.48 149.167H80.6128V162H83.5015V144.734H80.646L72.0464 157.567H71.9136V144.734H69.0249V162ZM87.5522 162H94.9897C98.6587 162 100.917 160.091 100.917 157.053V157.02C100.917 154.911 99.4888 153.384 97.314 153.085V152.952C98.9077 152.62 100.153 150.993 100.153 149.217V149.184C100.153 146.444 98.1772 144.734 94.9399 144.734H87.5522V162ZM90.4409 151.956V147.125H94.5083C96.3179 147.125 97.2808 147.938 97.2808 149.482V149.516C97.2808 151.176 96.2515 151.956 94.0767 151.956H90.4409ZM90.4409 159.609V154.347H94.2261C96.7495 154.347 97.9614 155.177 97.9614 156.953V156.986C97.9614 158.713 96.8325 159.609 94.7407 159.609H90.4409ZM104.22 162H107.076L115.675 149.167H115.808V162H118.697V144.734H115.841L107.242 157.567H107.109V144.734H104.22V162ZM122.764 167.811H125.653V159.111H125.719C126.798 161.104 128.807 162.332 131.248 162.332C135.581 162.332 138.536 158.829 138.536 153.384V153.367C138.536 147.922 135.614 144.402 131.198 144.402C128.724 144.402 126.798 145.647 125.719 147.656H125.653V144.734H122.764V167.811ZM130.633 159.775C127.728 159.775 125.636 157.235 125.636 153.384V153.367C125.636 149.499 127.711 146.959 130.633 146.959C133.688 146.959 135.581 149.399 135.581 153.367V153.384C135.581 157.318 133.688 159.775 130.633 159.775ZM142.952 167.811C146.073 167.811 147.583 166.383 148.812 163.079L155.552 144.734H152.514L147.733 159.111H147.667L142.902 144.734H139.814L146.222 162.017L145.874 162.996C145.176 164.955 144.164 165.42 142.337 165.42C141.989 165.42 141.657 165.37 141.408 165.32V167.678C141.773 167.744 142.387 167.811 142.952 167.811ZM164.816 162.332C168.717 162.332 171.556 159.792 172.021 156.505L172.038 156.389H169.199L169.166 156.521C168.684 158.447 167.173 159.775 164.816 159.775C161.828 159.775 159.769 157.401 159.769 153.384V153.367C159.769 149.449 161.778 146.959 164.783 146.959C167.323 146.959 168.717 148.486 169.149 150.213L169.182 150.346H172.004L171.988 150.213C171.623 147.258 169.083 144.402 164.783 144.402C159.985 144.402 156.814 147.889 156.814 153.334V153.351C156.814 158.846 159.918 162.332 164.816 162.332Z" fill="#BB3AF7"/>
<path d="M25.0029 41V31.1357H16.9775V41H18.5088V32.4551H23.4717V41H25.0029ZM27.6512 41H29.1824V37.6299H31.3221C33.2635 37.6299 34.5965 36.3105 34.5965 34.3828V34.3691C34.5965 32.4346 33.2635 31.1357 31.3221 31.1357H27.6512V41ZM30.9461 32.4277C32.2723 32.4277 33.0379 33.1455 33.0379 34.376V34.3896C33.0379 35.627 32.2723 36.3447 30.9461 36.3447H29.1824V32.4277H30.9461ZM35.276 41H36.8824L37.7916 38.334H41.5924L42.4947 41H44.1012L40.5191 31.1357H38.8648L35.276 41ZM39.6783 32.7695H39.7057L41.1754 37.1035H38.2018L39.6783 32.7695ZM46.0248 41H49.9828C52.0814 41 53.3461 39.9473 53.3461 38.2109V38.1973C53.3461 36.8916 52.4369 35.9277 51.0355 35.791V35.7568C52.0746 35.6133 52.8607 34.6494 52.8607 33.6104V33.5967C52.8607 32.1064 51.7123 31.1357 49.9623 31.1357H46.0248V41ZM49.5932 32.3867C50.6938 32.3867 51.3295 32.8857 51.3295 33.7881V33.8018C51.3295 34.7793 50.598 35.3262 49.2719 35.3262H47.5561V32.3867H49.5932ZM49.5795 36.5088C51.0287 36.5088 51.7807 37.0557 51.7807 38.1152V38.1289C51.7807 39.1953 51.0424 39.749 49.6684 39.749H47.5561V36.5088H49.5795ZM55.5021 41H56.9104L61.9963 33.6582H62.0305V41H63.548V31.1357H62.133L57.0539 38.4844H57.0197V31.1357H55.5021V41ZM66.1348 41.0752C67.8643 41.0752 68.6436 39.8379 68.7939 37.2402L69.0879 32.4551H72.5059V41H74.0371V31.1357H67.7002L67.3721 37.1582C67.2695 38.915 66.8936 39.6875 65.9639 39.6875C65.8271 39.6875 65.6426 39.667 65.5605 39.6465V41C65.6904 41.041 65.9023 41.0752 66.1348 41.0752ZM80.9578 41.1641C83.8084 41.1641 85.5789 39.2021 85.5789 36.0713V36.0576C85.5789 32.9336 83.8016 30.9717 80.9578 30.9717C78.1209 30.9717 76.3367 32.9268 76.3367 36.0576V36.0713C76.3367 39.209 78.1141 41.1641 80.9578 41.1641ZM80.9578 39.8105C79.0848 39.8105 77.8953 38.3682 77.8953 36.0713V36.0576C77.8953 33.7607 79.0916 32.3252 80.9578 32.3252C82.8309 32.3252 84.0135 33.7676 84.0135 36.0576V36.0713C84.0135 38.3477 82.8514 39.8105 80.9578 39.8105ZM91.2035 41H97.9506V39.708H93.2543V39.6465L95.4965 37.4453C97.267 35.6953 97.7934 34.8955 97.7934 33.7676V33.7539C97.7934 32.1611 96.4398 30.9717 94.5463 30.9717C92.6186 30.9717 91.1215 32.25 91.1215 34.0137V34.0547H92.5707V34.0137C92.5844 33.0156 93.4115 32.2363 94.5668 32.2363C95.5648 32.2363 96.2758 32.9062 96.2826 33.8428V33.8564C96.2826 34.6221 95.9887 35.1416 94.6762 36.4541L91.2035 39.9473V41ZM103.279 31.1357H101.918L99.2453 43.3926H100.613L103.279 31.1357ZM105.291 41H106.897L111.184 32.4619V31.1357H104.471V32.4277H109.673V32.4619L105.291 41Z" fill="#BB3AF7"/>
<path d="M308 208H18V333H308V208Z" fill="#202124"/>
<path d="M68.7575 315.817H37.1934C32.1326 315.817 28.009 311.699 28.009 306.645V275.123C28.009 270.069 32.1326 265.951 37.1934 265.951H68.7575C73.8182 265.951 77.9418 270.069 77.9418 275.123V306.645C77.9418 311.736 73.8182 315.817 68.7575 315.817Z" fill="#63ED22"/>
<path d="M52.9755 310.126C63.5964 310.126 72.2064 301.528 72.2064 290.922C72.2064 280.315 63.5964 271.717 52.9755 271.717C42.3546 271.717 33.7446 280.315 33.7446 290.922C33.7446 301.528 42.3546 310.126 52.9755 310.126Z" fill="white"/>
<path d="M52.938 305.147L63.5469 287.964L56.6493 290.397V279.129H49.2643V290.21L42.3667 287.964L52.938 305.147Z" fill="#46AD0E"/>
<path d="M63.022 238.96C62.5722 238.735 62.2348 238.436 62.0099 238.024C61.785 237.612 61.635 237.163 61.635 236.639C61.635 235.89 61.9349 235.254 62.4972 234.842C63.0595 234.43 63.8467 234.131 64.8964 234.093L68.1952 233.906V235.179L65.1213 235.366C64.5965 235.403 64.1841 235.516 63.8842 235.74C63.5843 235.965 63.4344 236.264 63.4344 236.639C63.4344 237.013 63.5843 237.313 63.8842 237.537C64.1841 237.762 64.559 237.874 65.0463 237.874C65.4587 237.874 65.8336 237.799 66.1709 237.612C66.5083 237.425 66.7707 237.2 66.9582 236.901C67.1456 236.601 67.2581 236.264 67.2581 235.89V233.307C67.2581 232.82 67.1081 232.446 66.8082 232.184C66.5083 231.922 66.096 231.772 65.5337 231.772C65.0088 231.772 64.5965 231.884 64.2966 232.109C63.9967 232.334 63.7718 232.633 63.6968 232.97V233.045H62.0099V232.97C62.0474 232.483 62.2348 231.997 62.5347 231.622C62.8346 231.211 63.2469 230.911 63.7718 230.686C64.2966 230.462 64.8964 230.35 65.6086 230.35C66.3209 230.35 66.9582 230.462 67.4455 230.724C67.9703 230.949 68.3827 231.285 68.6451 231.735C68.945 232.184 69.0949 232.671 69.0949 233.27V239.297H67.2956V237.912H67.2581C67.0706 238.211 66.8832 238.511 66.5833 238.735C66.3209 238.96 66.021 239.147 65.6836 239.259C65.3462 239.372 64.9714 239.447 64.5965 239.447C63.9967 239.297 63.4719 239.185 63.022 238.96Z" fill="white"/>
<path d="M73.3309 237.35C73.1435 237.949 72.8811 238.398 72.5062 238.735C72.1313 239.072 71.6065 239.222 70.9692 239.222C70.8193 239.222 70.6693 239.222 70.5194 239.185C70.4069 239.147 70.2945 239.147 70.2195 239.11V237.575C70.257 237.575 70.3319 237.612 70.4069 237.612C70.4819 237.612 70.5943 237.612 70.7068 237.612C71.0067 237.612 71.2691 237.5 71.4191 237.313C71.6065 237.126 71.719 236.826 71.8314 236.452C71.9064 236.077 71.9814 235.628 72.0189 235.104L72.3188 230.387H78.7291V239.11H76.9297V231.847H73.9307L73.7058 235.216C73.6308 236.04 73.5183 236.751 73.3309 237.35Z" fill="white"/>
<path d="M80.6785 230.424H82.4779V233.12H84.1273C85.1394 233.12 85.9642 233.382 86.5639 233.943C87.1637 234.505 87.4636 235.216 87.4636 236.152C87.4636 237.088 87.1637 237.799 86.5639 238.361C85.9642 238.922 85.1394 239.185 84.1273 239.185H80.6785V230.424ZM82.4779 234.542V237.725H83.9399C84.4647 237.725 84.877 237.575 85.1394 237.275C85.4393 236.976 85.5893 236.601 85.5893 236.115C85.5893 235.628 85.4393 235.254 85.1394 234.954C84.8395 234.655 84.4272 234.505 83.9399 234.505H82.4779V234.542Z" fill="white"/>
<path d="M93.1617 239.259C92.2245 239.259 91.4373 239.035 90.725 238.698C90.0503 238.323 89.488 237.799 89.1131 237.163C88.7382 236.489 88.5508 235.703 88.5508 234.804C88.5508 233.906 88.7382 233.12 89.1131 232.483C89.488 231.847 90.0128 231.285 90.725 230.948C91.3998 230.574 92.2245 230.387 93.1617 230.349V227.654H94.9236V230.349C95.8607 230.387 96.648 230.574 97.3602 230.948C98.035 231.323 98.5973 231.81 98.9722 232.483C99.347 233.157 99.5345 233.943 99.5345 234.842C99.5345 235.74 99.347 236.526 98.9722 237.2C98.5973 237.874 98.0725 238.361 97.3602 238.735C96.6855 239.11 95.8607 239.297 94.9611 239.334V242.105H93.1992V239.259H93.1617ZM93.1617 231.772C92.5994 231.772 92.112 231.922 91.6997 232.146C91.2873 232.408 90.95 232.745 90.725 233.195C90.5001 233.644 90.3876 234.168 90.3876 234.767C90.3876 235.366 90.5001 235.928 90.725 236.339C90.95 236.751 91.2873 237.125 91.6997 237.388C92.112 237.65 92.5994 237.762 93.1617 237.799V231.772ZM96.3856 237.425C96.7979 237.163 97.1353 236.826 97.3602 236.377C97.5851 235.928 97.6976 235.403 97.6976 234.767C97.6976 234.131 97.5851 233.606 97.3602 233.157C97.1353 232.708 96.7979 232.371 96.3856 232.109C95.9732 231.847 95.4859 231.735 94.9236 231.735V237.762C95.4484 237.799 95.9357 237.65 96.3856 237.425Z" fill="white"/>
<path d="M102.084 238.96C101.634 238.735 101.296 238.436 101.071 238.024C100.809 237.612 100.697 237.163 100.697 236.639C100.697 235.89 100.996 235.254 101.559 234.842C102.121 234.43 102.908 234.131 103.958 234.093L107.257 233.906V235.179L104.183 235.366C103.658 235.403 103.246 235.516 102.946 235.74C102.646 235.965 102.496 236.264 102.496 236.639C102.496 237.013 102.646 237.313 102.946 237.537C103.246 237.762 103.621 237.874 104.108 237.874C104.52 237.874 104.895 237.799 105.232 237.612C105.57 237.425 105.832 237.2 106.02 236.901C106.207 236.601 106.32 236.264 106.32 235.89V233.307C106.32 232.82 106.17 232.446 105.87 232.184C105.57 231.922 105.158 231.772 104.595 231.772C104.07 231.772 103.658 231.884 103.358 232.109C103.058 232.334 102.833 232.633 102.758 232.97V233.045H101.071V232.97C101.109 232.483 101.296 231.997 101.596 231.622C101.896 231.211 102.308 230.911 102.833 230.686C103.358 230.462 103.958 230.35 104.67 230.35C105.382 230.35 106.02 230.462 106.507 230.724C107.032 230.949 107.444 231.285 107.707 231.735C108.007 232.184 108.156 232.671 108.156 233.27V239.297H106.357V237.912H106.32C106.132 238.211 105.945 238.511 105.645 238.735C105.382 238.96 105.083 239.147 104.745 239.259C104.408 239.372 104.033 239.447 103.658 239.447C103.021 239.297 102.496 239.185 102.084 238.96Z" fill="white"/>
<path d="M114.192 237.987C113.48 237.088 113.105 235.815 113.105 234.093C113.105 232.483 113.255 231.173 113.592 230.162C113.929 229.152 114.417 228.44 115.129 227.954C115.841 227.467 116.741 227.205 117.828 227.167L118.615 227.13C119.065 227.13 119.478 227.093 119.89 226.98C120.302 226.905 120.64 226.793 120.865 226.681V228.178C120.715 228.291 120.452 228.403 120.04 228.478C119.627 228.553 119.178 228.627 118.69 228.627L117.941 228.665C117.191 228.702 116.554 228.815 116.104 229.077C115.654 229.339 115.316 229.713 115.054 230.2C114.829 230.686 114.642 231.36 114.529 232.147V232.259H114.567C114.867 231.735 115.242 231.36 115.766 231.061C116.291 230.799 116.891 230.649 117.566 230.649C118.353 230.649 119.028 230.836 119.627 231.173C120.19 231.51 120.64 231.997 120.977 232.633C121.277 233.27 121.464 233.981 121.464 234.842C121.464 235.74 121.277 236.527 120.94 237.2C120.602 237.874 120.115 238.361 119.515 238.735C118.915 239.11 118.165 239.259 117.303 239.259C115.954 239.334 114.942 238.885 114.192 237.987ZM118.578 237.462C118.915 237.238 119.178 236.901 119.365 236.489C119.553 236.04 119.627 235.553 119.627 234.917C119.627 234.318 119.553 233.831 119.365 233.419C119.178 233.008 118.915 232.708 118.578 232.483C118.24 232.259 117.828 232.147 117.303 232.147C116.816 232.147 116.404 232.259 116.029 232.483C115.691 232.708 115.391 233.008 115.242 233.419C115.054 233.831 114.979 234.318 114.979 234.917C114.979 235.516 115.054 236.04 115.242 236.489C115.429 236.938 115.691 237.238 116.029 237.462C116.366 237.687 116.816 237.799 117.303 237.799C117.791 237.799 118.24 237.687 118.578 237.462Z" fill="white"/>
<path d="M124.088 238.96C123.639 238.735 123.301 238.436 123.076 238.024C122.814 237.612 122.701 237.163 122.701 236.639C122.701 235.89 123.001 235.254 123.564 234.842C124.126 234.43 124.913 234.131 125.963 234.093L129.262 233.906V235.179L126.188 235.366C125.663 235.403 125.251 235.516 124.951 235.74C124.651 235.965 124.501 236.264 124.501 236.639C124.501 237.013 124.651 237.313 124.951 237.537C125.251 237.762 125.625 237.874 126.113 237.874C126.525 237.874 126.9 237.799 127.237 237.612C127.575 237.425 127.837 237.2 128.025 236.901C128.212 236.601 128.324 236.264 128.324 235.89V233.307C128.324 232.82 128.175 232.446 127.875 232.184C127.575 231.922 127.162 231.772 126.6 231.772C126.075 231.772 125.663 231.884 125.363 232.109C125.063 232.334 124.838 232.633 124.763 232.97V233.045H123.076V232.97C123.114 232.483 123.301 231.997 123.601 231.622C123.901 231.211 124.313 230.911 124.838 230.686C125.363 230.462 125.963 230.35 126.675 230.35C127.387 230.35 128.025 230.462 128.512 230.724C129.037 230.949 129.449 231.285 129.712 231.735C130.011 232.184 130.161 232.671 130.161 233.27V239.297H128.362V237.912H128.324C128.137 238.211 127.95 238.511 127.65 238.735C127.387 238.96 127.087 239.147 126.75 239.259C126.413 239.372 126.038 239.447 125.663 239.447C125.026 239.297 124.501 239.185 124.088 238.96Z" fill="white"/>
<path d="M137.734 235.366H133.798V239.147H131.998V230.424H133.798V233.943H137.734V230.424H139.533V239.147H137.734V235.366Z" fill="white"/>
<path d="M143.244 235.254V239.147H141.445V230.424H143.244V234.018H143.544L146.693 230.424H148.793L145.044 234.617V234.43L148.942 239.147H146.731L143.507 235.254H143.244Z" fill="white"/>
<path d="M154.378 237.987C153.666 237.088 153.291 235.815 153.291 234.093C153.291 232.483 153.441 231.173 153.778 230.162C154.116 229.152 154.603 228.44 155.315 227.954C156.028 227.467 156.927 227.205 158.014 227.167L158.802 227.13C159.251 227.13 159.664 227.093 160.076 226.98C160.489 226.905 160.826 226.793 161.051 226.681V228.178C160.901 228.291 160.638 228.403 160.226 228.478C159.814 228.553 159.364 228.627 158.877 228.627L158.127 228.665C157.377 228.702 156.74 228.815 156.29 229.077C155.84 229.339 155.503 229.713 155.24 230.2C155.015 230.686 154.828 231.36 154.716 232.147V232.259H154.753C155.053 231.735 155.428 231.36 155.953 231.061C156.477 230.799 157.077 230.649 157.752 230.649C158.539 230.649 159.214 230.836 159.814 231.173C160.376 231.51 160.826 231.997 161.163 232.633C161.463 233.27 161.651 233.981 161.651 234.842C161.651 235.74 161.463 236.527 161.126 237.2C160.788 237.874 160.301 238.361 159.701 238.735C159.102 239.11 158.352 239.259 157.49 239.259C156.14 239.334 155.09 238.885 154.378 237.987ZM158.727 237.462C159.064 237.238 159.326 236.901 159.514 236.489C159.701 236.04 159.776 235.553 159.776 234.917C159.776 234.318 159.701 233.831 159.514 233.419C159.326 233.008 159.064 232.708 158.727 232.483C158.389 232.259 157.977 232.147 157.452 232.147C156.965 232.147 156.552 232.259 156.178 232.483C155.84 232.708 155.54 233.008 155.39 233.419C155.203 233.831 155.128 234.318 155.128 234.917C155.128 235.516 155.203 236.04 155.39 236.489C155.578 236.938 155.84 237.238 156.178 237.462C156.515 237.687 156.965 237.799 157.452 237.799C157.977 237.799 158.389 237.687 158.727 237.462Z" fill="white"/>
<path d="M164.724 238.773C164.125 238.398 163.637 237.874 163.3 237.2C162.962 236.527 162.812 235.74 162.812 234.804C162.812 233.906 162.962 233.12 163.3 232.409C163.637 231.735 164.087 231.211 164.687 230.799C165.287 230.424 165.999 230.237 166.824 230.237C167.648 230.237 168.361 230.424 168.923 230.799C169.523 231.173 169.973 231.66 170.272 232.334C170.61 233.008 170.76 233.756 170.76 234.617V235.216H163.675V233.943H169.898L168.998 235.141V234.43C168.998 233.831 168.923 233.307 168.735 232.895C168.548 232.483 168.286 232.184 167.948 231.997C167.611 231.81 167.236 231.697 166.824 231.697C166.411 231.697 165.999 231.81 165.662 231.997C165.324 232.221 165.062 232.521 164.874 232.933C164.687 233.344 164.574 233.831 164.574 234.43V235.141C164.574 235.703 164.687 236.19 164.874 236.601C165.062 237.013 165.324 237.313 165.699 237.537C166.036 237.762 166.486 237.874 166.936 237.874C167.273 237.874 167.611 237.837 167.873 237.725C168.136 237.612 168.361 237.462 168.548 237.275C168.735 237.088 168.848 236.901 168.923 236.676L168.96 236.601H170.685V236.676C170.61 237.013 170.46 237.35 170.272 237.65C170.085 237.949 169.823 238.249 169.485 238.511C169.185 238.773 168.81 238.96 168.361 239.11C167.911 239.259 167.461 239.334 166.899 239.334C166.074 239.334 165.324 239.147 164.724 238.773Z" fill="white"/>
<path d="M173.684 238.997C173.159 238.81 172.747 238.511 172.447 238.136C172.147 237.762 171.959 237.313 171.885 236.789V236.714H173.646L173.684 236.789C173.796 237.126 173.984 237.388 174.321 237.575C174.621 237.762 175.033 237.837 175.521 237.837C176.083 237.837 176.495 237.725 176.833 237.5C177.17 237.275 177.32 236.976 177.32 236.564C177.32 236.152 177.17 235.853 176.87 235.628C176.57 235.403 176.121 235.329 175.521 235.329H174.246V234.018H175.483C176.008 234.018 176.42 233.906 176.683 233.719C176.945 233.532 177.095 233.232 177.095 232.858C177.095 232.483 176.945 232.184 176.683 231.997C176.42 231.772 176.046 231.697 175.558 231.697C175.108 231.697 174.696 231.81 174.396 231.997C174.096 232.184 173.909 232.446 173.834 232.783V232.82H172.109V232.745C172.184 232.221 172.372 231.772 172.672 231.398C172.972 231.023 173.347 230.724 173.871 230.537C174.359 230.35 174.958 230.237 175.596 230.237C176.27 230.237 176.833 230.35 177.32 230.537C177.807 230.724 178.182 231.023 178.445 231.36C178.707 231.735 178.82 232.147 178.82 232.633C178.82 233.082 178.67 233.494 178.407 233.831C178.145 234.168 177.77 234.393 177.283 234.505V234.58C177.658 234.655 177.995 234.767 178.257 234.954C178.52 235.141 178.707 235.366 178.857 235.628C179.007 235.89 179.082 236.19 179.082 236.527C179.082 237.051 178.932 237.537 178.632 237.949C178.332 238.361 177.92 238.66 177.395 238.885C176.87 239.11 176.233 239.222 175.521 239.222C174.771 239.334 174.171 239.222 173.684 238.997Z" fill="white"/>
<path d="M182.193 238.773C181.556 238.398 181.069 237.874 180.731 237.2C180.394 236.527 180.207 235.703 180.207 234.767C180.207 233.831 180.394 233.045 180.731 232.371C181.069 231.697 181.556 231.173 182.193 230.799C182.831 230.424 183.543 230.237 184.368 230.237C185.192 230.237 185.942 230.424 186.542 230.799C187.179 231.173 187.666 231.697 188.004 232.371C188.341 233.045 188.529 233.869 188.529 234.767C188.529 235.703 188.341 236.527 188.004 237.2C187.666 237.874 187.179 238.398 186.542 238.773C185.905 239.147 185.192 239.334 184.368 239.334C183.543 239.334 182.831 239.147 182.193 238.773ZM185.605 237.462C185.942 237.238 186.204 236.863 186.392 236.414C186.579 235.965 186.692 235.403 186.692 234.767C186.692 234.131 186.579 233.607 186.392 233.12C186.204 232.671 185.942 232.334 185.605 232.109C185.267 231.884 184.855 231.772 184.368 231.772C183.918 231.772 183.505 231.884 183.168 232.147C182.831 232.371 182.568 232.745 182.343 233.157C182.156 233.607 182.043 234.131 182.043 234.767C182.043 235.403 182.156 235.965 182.343 236.414C182.531 236.863 182.793 237.2 183.168 237.462C183.505 237.687 183.918 237.837 184.405 237.837C184.855 237.799 185.267 237.687 185.605 237.462Z" fill="white"/>
<path d="M190.066 230.424H197.526V239.147H195.726V231.847H191.865V239.147H190.066V230.424Z" fill="white"/>
<path d="M200.45 238.96C200 238.735 199.663 238.436 199.438 238.024C199.213 237.612 199.063 237.163 199.063 236.639C199.063 235.89 199.363 235.254 199.925 234.842C200.487 234.393 201.274 234.131 202.324 234.093L205.623 233.906V235.179L202.549 235.366C202.024 235.403 201.612 235.516 201.312 235.74C201.012 235.965 200.862 236.264 200.862 236.639C200.862 237.013 201.012 237.313 201.312 237.537C201.612 237.762 201.987 237.874 202.474 237.874C202.886 237.874 203.261 237.799 203.599 237.612C203.936 237.425 204.198 237.2 204.386 236.901C204.573 236.601 204.686 236.264 204.686 235.89V233.307C204.686 232.82 204.536 232.446 204.236 232.184C203.936 231.922 203.524 231.772 202.961 231.772C202.437 231.772 202.024 231.884 201.724 232.109C201.424 232.334 201.2 232.633 201.125 232.97V233.045H199.438V232.97C199.475 232.483 199.663 231.997 199.962 231.622C200.262 231.211 200.675 230.911 201.2 230.686C201.724 230.462 202.324 230.35 203.036 230.35C203.749 230.35 204.386 230.462 204.873 230.724C205.361 230.986 205.81 231.285 206.073 231.735C206.373 232.184 206.523 232.671 206.523 233.27V239.297H204.723V237.912H204.686C204.498 238.211 204.311 238.511 204.011 238.735C203.749 238.96 203.449 239.147 203.111 239.259C202.774 239.372 202.399 239.447 202.024 239.447C201.424 239.297 200.9 239.185 200.45 238.96Z" fill="white"/>
<path d="M209.934 238.773C209.297 238.398 208.847 237.874 208.509 237.2C208.172 236.527 208.022 235.703 208.022 234.804C208.022 233.869 208.209 233.082 208.547 232.409C208.884 231.735 209.372 231.211 209.971 230.836C210.571 230.462 211.321 230.275 212.146 230.275C212.895 230.275 213.533 230.424 214.095 230.686C214.657 230.986 215.07 231.36 215.369 231.81C215.669 232.259 215.857 232.783 215.894 233.344V233.419H214.17V233.344C214.095 232.933 213.87 232.558 213.533 232.221C213.195 231.922 212.745 231.735 212.146 231.735C211.696 231.735 211.283 231.847 210.946 232.109C210.609 232.371 210.346 232.708 210.159 233.157C209.971 233.606 209.859 234.131 209.859 234.767C209.859 235.403 209.971 235.928 210.159 236.414C210.346 236.863 210.609 237.2 210.983 237.462C211.321 237.687 211.733 237.837 212.183 237.837C212.745 237.837 213.195 237.687 213.533 237.388C213.87 237.088 214.095 236.714 214.207 236.264V236.19H215.932V236.264C215.857 236.863 215.669 237.388 215.332 237.837C214.995 238.286 214.582 238.66 214.02 238.96C213.495 239.222 212.858 239.372 212.146 239.372C211.283 239.334 210.571 239.147 209.934 238.773Z" fill="white"/>
<path d="M223.054 235.366H219.118V239.147H217.356V230.424H219.156V233.943H223.092V230.424H224.891V239.147H223.092V235.366H223.054Z" fill="white"/>
<path d="M228.377 238.773C227.74 238.398 227.253 237.874 226.915 237.2C226.578 236.527 226.391 235.703 226.391 234.767C226.391 233.831 226.578 233.045 226.915 232.371C227.253 231.697 227.74 231.173 228.377 230.799C229.015 230.424 229.727 230.237 230.552 230.237C231.376 230.237 232.126 230.424 232.726 230.799C233.363 231.173 233.851 231.697 234.188 232.371C234.525 233.045 234.713 233.869 234.713 234.767C234.713 235.703 234.525 236.527 234.188 237.2C233.851 237.874 233.363 238.398 232.726 238.773C232.089 239.147 231.376 239.334 230.552 239.334C229.727 239.334 228.977 239.147 228.377 238.773ZM231.789 237.462C232.126 237.238 232.389 236.863 232.576 236.414C232.763 235.965 232.876 235.403 232.876 234.767C232.876 234.131 232.763 233.607 232.576 233.12C232.389 232.671 232.126 232.334 231.789 232.109C231.451 231.884 231.039 231.772 230.552 231.772C230.102 231.772 229.689 231.884 229.352 232.147C229.015 232.371 228.752 232.745 228.527 233.157C228.34 233.607 228.227 234.131 228.227 234.767C228.227 235.403 228.34 235.965 228.527 236.414C228.715 236.863 228.977 237.2 229.352 237.462C229.689 237.687 230.102 237.837 230.589 237.837C231.039 237.799 231.414 237.687 231.789 237.462Z" fill="white"/>
<path d="M237.787 238.773C237.15 238.398 236.7 237.874 236.362 237.2C236.025 236.527 235.875 235.703 235.875 234.804C235.875 233.869 236.062 233.082 236.4 232.409C236.737 231.735 237.225 231.211 237.824 230.836C238.424 230.462 239.174 230.275 239.999 230.275C240.748 230.275 241.386 230.424 241.948 230.686C242.51 230.986 242.923 231.36 243.222 231.81C243.522 232.259 243.71 232.783 243.747 233.344V233.419H242.023V233.344C241.948 232.933 241.723 232.558 241.386 232.221C241.048 231.922 240.598 231.735 239.999 231.735C239.549 231.735 239.136 231.847 238.799 232.109C238.462 232.371 238.199 232.708 238.012 233.157C237.824 233.606 237.712 234.131 237.712 234.767C237.712 235.403 237.824 235.928 238.012 236.414C238.199 236.863 238.462 237.2 238.836 237.462C239.174 237.687 239.586 237.837 240.036 237.837C240.598 237.837 241.048 237.687 241.386 237.388C241.723 237.088 241.948 236.714 242.06 236.264V236.19H243.785V236.264C243.71 236.863 243.522 237.388 243.185 237.837C242.848 238.286 242.435 238.66 241.873 238.96C241.348 239.222 240.711 239.372 239.999 239.372C239.136 239.334 238.387 239.147 237.787 238.773Z" fill="white"/>
<path d="M251.619 231.847H248.883V239.147H247.083V231.847H244.347V230.424H251.619V231.847Z" fill="white"/>
<path d="M252.932 230.424H254.731V233.12H256.38C257.393 233.12 258.217 233.382 258.817 233.943C259.417 234.505 259.717 235.216 259.717 236.152C259.717 237.088 259.417 237.799 258.817 238.361C258.217 238.922 257.393 239.185 256.38 239.185H252.932V230.424ZM254.731 234.542V237.725H256.193C256.718 237.725 257.13 237.575 257.393 237.275C257.692 236.976 257.842 236.601 257.842 236.115C257.842 235.628 257.692 235.254 257.393 234.954C257.093 234.655 256.68 234.505 256.193 234.505H254.731V234.542Z" fill="white"/>
<path d="M261.366 238.96C261.141 238.735 261.066 238.473 261.066 238.174C261.066 237.874 261.179 237.612 261.366 237.388C261.591 237.163 261.853 237.088 262.153 237.088C262.453 237.088 262.716 237.2 262.941 237.388C263.165 237.612 263.24 237.837 263.24 238.174C263.24 238.473 263.128 238.735 262.941 238.96C262.716 239.185 262.491 239.259 262.153 239.259C261.853 239.259 261.591 239.147 261.366 238.96Z" fill="white"/>
<path d="M265.19 238.96C264.965 238.735 264.89 238.473 264.89 238.174C264.89 237.874 265.002 237.612 265.19 237.388C265.415 237.163 265.677 237.088 265.977 237.088C266.277 237.088 266.539 237.2 266.764 237.388C266.989 237.612 267.064 237.837 267.064 238.174C267.064 238.473 266.952 238.735 266.764 238.96C266.539 239.185 266.314 239.259 265.977 239.259C265.64 239.259 265.377 239.147 265.19 238.96Z" fill="white"/>
<path d="M268.976 238.96C268.751 238.735 268.676 238.473 268.676 238.174C268.676 237.874 268.789 237.612 268.976 237.388C269.201 237.163 269.463 237.088 269.763 237.088C270.063 237.088 270.326 237.2 270.551 237.388C270.776 237.612 270.85 237.837 270.85 238.174C270.85 238.473 270.738 238.735 270.551 238.96C270.326 239.185 270.101 239.259 269.763 239.259C269.463 239.259 269.201 239.147 268.976 238.96Z" fill="white"/>
<path d="M35.0192 240.944L26.9595 232.895L35.0192 224.809L36.0688 225.895L29.0587 232.895L36.0688 239.896L35.0192 240.944Z" fill="white"/>
<path d="M42.7789 232.146H28.009V233.644H42.7789V232.146Z" fill="white"/>
<path d="M284.683 237.275C281.047 237.275 278.085 234.318 278.085 230.686C278.085 227.055 281.047 224.098 284.683 224.098C288.319 224.098 291.281 227.055 291.281 230.686C291.281 234.318 288.319 237.275 284.683 237.275ZM284.683 225.558C281.872 225.558 279.585 227.841 279.585 230.649C279.585 233.457 281.872 235.74 284.683 235.74C287.495 235.74 289.781 233.457 289.781 230.649C289.781 227.841 287.495 225.558 284.683 225.558Z" fill="white"/>
<path d="M289.568 234.013L288.508 235.072L294.949 241.504L296.01 240.445L289.568 234.013Z" fill="white"/>
<path d="M100.059 272.54H97.1353V271.267H104.445V272.54H101.521V280.776H100.022V272.54H100.059Z" fill="white"/>
<path d="M104.97 280.439C104.483 280.14 104.108 279.728 103.846 279.204C103.583 278.68 103.471 278.043 103.471 277.295C103.471 276.583 103.621 275.947 103.883 275.386C104.145 274.824 104.52 274.412 105.008 274.113C105.495 273.813 106.057 273.663 106.695 273.663C107.332 273.663 107.894 273.813 108.381 274.113C108.869 274.412 109.206 274.824 109.469 275.348C109.731 275.872 109.843 276.471 109.843 277.182V277.669H104.22V276.658H109.169L108.456 277.594V277.033C108.456 276.546 108.381 276.134 108.232 275.835C108.082 275.535 107.894 275.273 107.632 275.123C107.369 274.974 107.069 274.899 106.732 274.899C106.395 274.899 106.095 274.974 105.832 275.161C105.57 275.348 105.345 275.573 105.195 275.91C105.045 276.247 104.97 276.621 104.97 277.108V277.669C104.97 278.118 105.045 278.493 105.195 278.83C105.345 279.167 105.57 279.391 105.832 279.578C106.095 279.766 106.432 279.84 106.845 279.84C107.144 279.84 107.369 279.803 107.594 279.728C107.819 279.653 108.007 279.541 108.119 279.391C108.232 279.241 108.344 279.092 108.419 278.905L108.456 278.867H109.806V278.942C109.731 279.204 109.656 279.466 109.469 279.728C109.281 279.99 109.094 280.215 108.869 280.402C108.644 280.589 108.307 280.776 107.969 280.889C107.632 281.001 107.257 281.076 106.807 281.076C106.057 280.889 105.458 280.739 104.97 280.439Z" fill="white"/>
<path d="M111.718 280.627C111.38 280.439 111.118 280.215 110.893 279.878C110.668 279.541 110.593 279.204 110.593 278.792C110.593 278.193 110.818 277.707 111.268 277.37C111.718 277.033 112.355 276.808 113.18 276.771L115.804 276.621V277.632L113.367 277.781C112.955 277.819 112.617 277.894 112.392 278.081C112.167 278.268 112.055 278.493 112.055 278.792C112.055 279.092 112.167 279.316 112.392 279.504C112.617 279.691 112.917 279.766 113.33 279.766C113.667 279.766 113.967 279.691 114.229 279.578C114.492 279.466 114.717 279.241 114.867 279.017C115.016 278.792 115.091 278.493 115.091 278.193V276.134C115.091 275.76 114.979 275.46 114.754 275.236C114.529 275.011 114.192 274.899 113.742 274.899C113.33 274.899 112.992 274.974 112.767 275.161C112.542 275.348 112.355 275.573 112.317 275.835V275.91H110.893V275.835C110.93 275.423 111.08 275.086 111.305 274.749C111.53 274.412 111.868 274.188 112.28 274C112.692 273.813 113.18 273.738 113.742 273.738C114.304 273.738 114.792 273.851 115.204 274.038C115.616 274.225 115.954 274.487 116.179 274.824C116.404 275.161 116.516 275.573 116.516 276.022V280.776H115.091V279.691H115.054C114.904 279.953 114.754 280.14 114.529 280.327C114.304 280.514 114.079 280.664 113.817 280.739C113.554 280.814 113.255 280.889 112.955 280.889C112.467 280.889 112.055 280.776 111.718 280.627Z" fill="white"/>
<path d="M117.903 273.851H119.328V274.936H119.365C119.515 274.562 119.74 274.262 120.115 274.075C120.49 273.888 120.865 273.738 121.314 273.738C121.614 273.738 121.914 273.776 122.177 273.888C122.439 274 122.664 274.15 122.851 274.337C123.039 274.524 123.189 274.787 123.264 275.086H123.301C123.414 274.787 123.601 274.562 123.789 274.375C123.976 274.188 124.238 274 124.538 273.888C124.838 273.776 125.138 273.738 125.475 273.738C125.925 273.738 126.338 273.851 126.675 274.038C127.012 274.225 127.275 274.487 127.462 274.824C127.65 275.161 127.762 275.573 127.762 276.022V280.776H126.338V276.359C126.338 275.91 126.225 275.573 126 275.311C125.775 275.049 125.438 274.936 125.026 274.936C124.726 274.936 124.501 275.011 124.276 275.123C124.051 275.236 123.901 275.423 123.789 275.648C123.676 275.872 123.601 276.134 123.601 276.434V280.776H122.214V276.247C122.214 275.835 122.102 275.535 121.877 275.273C121.652 275.011 121.314 274.936 120.902 274.936C120.64 274.936 120.377 275.011 120.152 275.123C119.927 275.236 119.777 275.423 119.627 275.685C119.478 275.947 119.44 276.172 119.44 276.471V280.739H118.016V273.851H117.903Z" fill="white"/>
<path d="M133.31 280.589C132.786 280.365 132.336 280.065 132.036 279.653C131.736 279.241 131.548 278.755 131.511 278.231V278.118H132.935V278.193C132.973 278.493 133.085 278.717 133.31 278.942C133.535 279.167 133.76 279.316 134.098 279.429C134.435 279.541 134.81 279.616 135.222 279.616C135.635 279.616 136.009 279.541 136.309 279.429C136.609 279.316 136.872 279.129 137.022 278.905C137.172 278.68 137.284 278.418 137.284 278.118C137.284 277.744 137.134 277.445 136.872 277.22C136.609 276.995 136.159 276.808 135.522 276.658L134.472 276.434C133.535 276.247 132.861 275.91 132.373 275.498C131.886 275.086 131.698 274.487 131.698 273.776C131.698 273.252 131.848 272.765 132.148 272.353C132.448 271.941 132.861 271.604 133.385 271.38C133.91 271.155 134.51 271.043 135.185 271.043C135.859 271.043 136.422 271.155 136.947 271.38C137.471 271.604 137.846 271.904 138.146 272.316C138.446 272.728 138.596 273.177 138.634 273.738V273.851H137.209V273.776C137.172 273.476 137.059 273.214 136.872 273.027C136.684 272.84 136.459 272.653 136.159 272.54C135.859 272.428 135.56 272.391 135.147 272.391C134.772 272.391 134.397 272.465 134.135 272.578C133.873 272.69 133.61 272.84 133.46 273.064C133.31 273.289 133.235 273.514 133.235 273.813C133.235 274.15 133.385 274.45 133.648 274.674C133.91 274.899 134.36 275.086 134.96 275.198L136.009 275.423C136.984 275.648 137.696 275.947 138.146 276.359C138.596 276.771 138.821 277.37 138.821 278.081C138.821 278.642 138.671 279.167 138.371 279.578C138.071 279.99 137.659 280.327 137.134 280.552C136.609 280.776 135.934 280.889 135.185 280.889C134.472 280.926 133.835 280.814 133.31 280.589Z" fill="white"/>
<path d="M141.145 280.439C140.658 280.14 140.283 279.728 140.02 279.204C139.758 278.68 139.646 278.043 139.646 277.295C139.646 276.583 139.795 275.947 140.058 275.386C140.32 274.824 140.695 274.412 141.182 274.113C141.67 273.813 142.232 273.663 142.869 273.663C143.507 273.663 144.069 273.813 144.556 274.113C145.044 274.412 145.381 274.824 145.643 275.348C145.906 275.872 146.018 276.471 146.018 277.182V277.669H140.395V276.658H145.344L144.631 277.594V277.033C144.631 276.546 144.556 276.134 144.406 275.835C144.256 275.535 144.069 275.273 143.807 275.123C143.544 274.974 143.244 274.899 142.907 274.899C142.569 274.899 142.27 274.974 142.007 275.161C141.745 275.348 141.52 275.573 141.37 275.91C141.22 276.247 141.145 276.621 141.145 277.108V277.669C141.145 278.118 141.22 278.493 141.37 278.83C141.52 279.167 141.745 279.391 142.007 279.578C142.27 279.766 142.607 279.84 143.019 279.84C143.319 279.84 143.544 279.803 143.769 279.728C143.994 279.653 144.181 279.541 144.294 279.391C144.406 279.241 144.519 279.092 144.594 278.905L144.631 278.867H145.981V278.942C145.906 279.204 145.831 279.466 145.643 279.728C145.456 279.99 145.269 280.215 145.044 280.402C144.819 280.589 144.481 280.776 144.144 280.889C143.807 281.001 143.432 281.076 142.982 281.076C142.232 280.889 141.632 280.739 141.145 280.439Z" fill="white"/>
<path d="M148.305 280.439C147.818 280.14 147.443 279.728 147.18 279.204C146.918 278.68 146.768 278.043 146.768 277.295C146.768 276.546 146.918 275.91 147.18 275.385C147.443 274.861 147.818 274.45 148.305 274.15C148.792 273.851 149.355 273.701 150.029 273.701C150.629 273.701 151.154 273.813 151.566 274.038C151.979 274.262 152.354 274.562 152.579 274.936C152.803 275.311 152.953 275.722 152.991 276.134V276.172H151.641V276.097C151.566 275.76 151.379 275.46 151.117 275.236C150.854 275.011 150.479 274.861 150.029 274.861C149.655 274.861 149.355 274.974 149.055 275.161C148.755 275.348 148.567 275.647 148.417 275.984C148.268 276.321 148.193 276.771 148.193 277.257C148.193 277.744 148.268 278.193 148.417 278.568C148.567 278.942 148.792 279.204 149.055 279.391C149.317 279.578 149.655 279.691 150.029 279.691C150.479 279.691 150.817 279.578 151.079 279.354C151.341 279.129 151.529 278.83 151.604 278.455V278.418H152.991V278.455C152.953 278.904 152.766 279.316 152.504 279.691C152.241 280.065 151.904 280.364 151.454 280.589C151.004 280.814 150.517 280.926 149.992 280.926C149.392 280.889 148.792 280.739 148.305 280.439Z" fill="white"/>
<path d="M155.128 280.589C154.753 280.365 154.491 280.065 154.303 279.691C154.116 279.316 154.003 278.83 154.003 278.306V273.813H155.428V278.006C155.428 278.53 155.54 278.942 155.803 279.204C156.065 279.466 156.402 279.616 156.89 279.616C157.227 279.616 157.527 279.541 157.752 279.391C157.977 279.241 158.202 279.017 158.314 278.755C158.427 278.493 158.502 278.156 158.502 277.819V273.776H159.926V280.701H158.502V279.653H158.464C158.277 279.99 158.014 280.29 157.677 280.514C157.34 280.739 156.89 280.851 156.365 280.851C155.915 280.889 155.465 280.776 155.128 280.589Z" fill="white"/>
<path d="M161.388 273.851H162.775V275.011H162.813C162.925 274.599 163.113 274.3 163.412 274.075C163.712 273.851 164.05 273.738 164.462 273.738C164.575 273.738 164.65 273.738 164.762 273.738C164.874 273.738 164.912 273.776 164.987 273.776V275.086C164.912 275.049 164.837 275.049 164.725 275.049C164.612 275.049 164.5 275.011 164.35 275.011C164.05 275.011 163.787 275.086 163.562 275.198C163.338 275.311 163.15 275.498 163.038 275.76C162.925 276.022 162.85 276.284 162.85 276.621V280.776H161.426V273.851H161.388Z" fill="white"/>
<path d="M166.037 272.54C165.887 272.391 165.774 272.203 165.774 271.979C165.774 271.754 165.849 271.567 166.037 271.38C166.224 271.193 166.411 271.155 166.636 271.155C166.861 271.155 167.049 271.23 167.236 271.38C167.424 271.53 167.461 271.717 167.461 271.979C167.461 272.203 167.386 272.391 167.236 272.54C167.086 272.69 166.861 272.765 166.636 272.765C166.374 272.765 166.187 272.69 166.037 272.54ZM165.887 273.851H167.311V280.776H165.887V273.851Z" fill="white"/>
<path d="M169.71 280.439C169.373 280.14 169.223 279.616 169.223 278.942V274.974H168.211V273.851H169.223V272.016H170.685V273.813H171.997V274.936H170.685V278.83C170.685 279.167 170.76 279.429 170.91 279.541C171.06 279.653 171.285 279.728 171.585 279.728C171.66 279.728 171.734 279.728 171.809 279.728C171.884 279.728 171.922 279.728 171.997 279.728V280.814C171.922 280.814 171.809 280.851 171.697 280.851C171.585 280.851 171.435 280.889 171.285 280.889C170.535 280.889 170.048 280.739 169.71 280.439Z" fill="white"/>
<path d="M173.534 283.06C173.384 283.06 173.272 283.023 173.197 283.023V281.899C173.234 281.899 173.309 281.899 173.384 281.937C173.459 281.974 173.571 281.937 173.646 281.937C173.984 281.937 174.246 281.862 174.471 281.75C174.696 281.637 174.846 281.413 174.959 281.076L175.071 280.739L172.559 273.813H174.096L175.933 279.766L175.671 279.466H176.008L175.746 279.766L177.583 273.813H179.082L176.496 281.038C176.308 281.525 176.121 281.899 175.896 282.199C175.671 282.498 175.371 282.723 175.071 282.835C174.771 282.948 174.359 283.023 173.909 283.023C173.796 283.06 173.684 283.06 173.534 283.06Z" fill="white"/>
<path d="M99.0845 299.382C98.5597 299.157 98.1099 298.858 97.81 298.446C97.5101 298.034 97.3226 297.548 97.2852 297.024V296.911H98.7097V296.986C98.7471 297.286 98.8596 297.51 99.0845 297.735C99.3095 297.959 99.5344 298.109 99.8718 298.222C100.209 298.334 100.584 298.409 100.996 298.409C101.409 298.409 101.784 298.334 102.083 298.222C102.383 298.109 102.646 297.922 102.796 297.697C102.946 297.473 103.058 297.211 103.058 296.911C103.058 296.537 102.908 296.237 102.646 296.013C102.383 295.788 101.934 295.601 101.296 295.451L100.247 295.227C99.3095 295.039 98.6347 294.703 98.1474 294.291C97.66 293.879 97.4726 293.28 97.4726 292.569C97.4726 292.045 97.6225 291.558 97.9224 291.146C98.2223 290.734 98.6347 290.397 99.1595 290.173C99.6843 289.948 100.284 289.836 100.959 289.836C101.634 289.836 102.196 289.948 102.721 290.173C103.246 290.397 103.62 290.697 103.92 291.109C104.22 291.52 104.37 291.97 104.408 292.531V292.644H102.983V292.569C102.946 292.269 102.833 292.007 102.646 291.82C102.458 291.633 102.233 291.446 101.934 291.333C101.634 291.221 101.334 291.184 100.921 291.184C100.547 291.184 100.172 291.258 99.9092 291.371C99.6468 291.483 99.3844 291.633 99.2345 291.857C99.0845 292.082 99.0095 292.307 99.0095 292.606C99.0095 292.943 99.1595 293.243 99.4219 293.467C99.6843 293.692 100.134 293.879 100.734 293.991L101.784 294.216C102.758 294.44 103.471 294.74 103.92 295.152C104.37 295.564 104.595 296.163 104.595 296.874C104.595 297.435 104.445 297.959 104.145 298.371C103.845 298.783 103.433 299.12 102.908 299.345C102.383 299.569 101.709 299.682 100.959 299.682C100.209 299.719 99.6093 299.607 99.0845 299.382Z" fill="white"/>
<path d="M106.919 299.27C106.432 298.97 106.057 298.558 105.795 298.034C105.532 297.51 105.42 296.874 105.42 296.125C105.42 295.414 105.57 294.777 105.832 294.216C106.095 293.654 106.47 293.242 106.957 292.943C107.444 292.643 108.007 292.494 108.644 292.494C109.281 292.494 109.843 292.643 110.331 292.943C110.818 293.242 111.155 293.654 111.418 294.178C111.68 294.702 111.793 295.301 111.793 296.013V296.499H106.17V295.489H111.118L110.406 296.425V295.863C110.406 295.376 110.331 294.965 110.181 294.665C110.031 294.366 109.843 294.103 109.581 293.954C109.319 293.804 109.019 293.729 108.681 293.729C108.344 293.729 108.044 293.804 107.782 293.991C107.519 294.178 107.294 294.403 107.144 294.74C106.994 295.077 106.919 295.451 106.919 295.938V296.499C106.919 296.949 106.994 297.323 107.144 297.66C107.294 297.997 107.519 298.221 107.782 298.409C108.044 298.596 108.381 298.671 108.794 298.671C109.094 298.671 109.319 298.633 109.543 298.558C109.768 298.484 109.956 298.371 110.068 298.221C110.181 298.072 110.293 297.922 110.368 297.735L110.406 297.697H111.755V297.772C111.68 298.034 111.605 298.296 111.418 298.558C111.23 298.82 111.043 299.045 110.818 299.232C110.593 299.419 110.256 299.607 109.918 299.719C109.581 299.831 109.206 299.906 108.756 299.906C108.007 299.681 107.407 299.569 106.919 299.27Z" fill="white"/>
<path d="M114.079 299.27C113.592 298.97 113.217 298.559 112.955 298.034C112.692 297.51 112.542 296.874 112.542 296.125C112.542 295.376 112.692 294.74 112.955 294.216C113.217 293.692 113.592 293.28 114.079 292.98C114.567 292.681 115.129 292.531 115.804 292.531C116.404 292.531 116.928 292.644 117.341 292.868C117.753 293.093 118.128 293.392 118.353 293.767C118.578 294.141 118.728 294.553 118.765 294.965V295.002H117.416V294.927C117.341 294.59 117.153 294.291 116.891 294.066C116.629 293.842 116.254 293.692 115.804 293.692C115.429 293.692 115.129 293.804 114.829 293.991C114.529 294.178 114.342 294.478 114.192 294.815C114.042 295.152 113.967 295.601 113.967 296.088C113.967 296.574 114.042 297.024 114.192 297.398C114.342 297.772 114.567 298.034 114.829 298.222C115.092 298.409 115.429 298.521 115.804 298.521C116.254 298.521 116.591 298.409 116.854 298.184C117.116 297.96 117.303 297.66 117.378 297.286V297.248H118.765V297.286C118.728 297.735 118.54 298.147 118.278 298.521C118.016 298.895 117.678 299.195 117.228 299.42C116.779 299.644 116.291 299.756 115.766 299.756C115.129 299.682 114.567 299.569 114.079 299.27Z" fill="white"/>
<path d="M120.865 299.382C120.49 299.157 120.227 298.858 120.04 298.484C119.852 298.109 119.74 297.623 119.74 297.098V292.606H121.164V296.799C121.164 297.323 121.277 297.735 121.539 297.997C121.802 298.259 122.139 298.409 122.626 298.409C122.964 298.409 123.264 298.334 123.489 298.184C123.714 298.034 123.939 297.81 124.051 297.548C124.163 297.286 124.238 296.949 124.238 296.612V292.569H125.663V299.494H124.238V298.446H124.201C124.014 298.783 123.751 299.083 123.414 299.307C123.076 299.532 122.626 299.644 122.102 299.644C121.652 299.682 121.239 299.607 120.865 299.382Z" fill="white"/>
<path d="M127.162 292.644H128.549V293.804H128.587C128.699 293.392 128.887 293.093 129.187 292.868C129.487 292.644 129.824 292.531 130.236 292.531C130.349 292.531 130.424 292.531 130.536 292.531C130.649 292.531 130.686 292.569 130.761 292.569V293.879C130.686 293.842 130.611 293.842 130.499 293.842C130.386 293.842 130.274 293.804 130.124 293.804C129.824 293.804 129.562 293.879 129.337 293.991C129.112 294.104 128.924 294.291 128.812 294.553C128.699 294.815 128.624 295.077 128.624 295.414V299.569H127.2V292.644H127.162Z" fill="white"/>
<path d="M131.773 291.333C131.623 291.183 131.511 290.996 131.511 290.772C131.511 290.547 131.586 290.36 131.773 290.173C131.923 290.023 132.148 289.948 132.373 289.948C132.598 289.948 132.785 290.023 132.973 290.173C133.16 290.322 133.198 290.51 133.198 290.772C133.198 290.996 133.123 291.183 132.973 291.333C132.823 291.483 132.598 291.558 132.373 291.558C132.148 291.558 131.961 291.483 131.773 291.333ZM131.661 292.643H133.085V299.569H131.661V292.643Z" fill="white"/>
<path d="M135.447 299.232C135.11 298.933 134.96 298.409 134.96 297.735V293.767H133.948V292.644H134.96V290.847H136.422V292.644H137.734V293.767H136.422V297.66C136.422 297.997 136.497 298.259 136.647 298.371C136.797 298.484 137.021 298.559 137.321 298.559C137.396 298.559 137.471 298.559 137.546 298.559C137.621 298.559 137.659 298.559 137.734 298.559V299.644C137.659 299.644 137.546 299.682 137.434 299.682C137.321 299.682 137.171 299.719 137.021 299.719C136.309 299.682 135.784 299.532 135.447 299.232Z" fill="white"/>
<path d="M139.308 301.853C139.158 301.853 139.046 301.816 138.971 301.816V300.692C139.008 300.692 139.083 300.692 139.158 300.73C139.233 300.767 139.346 300.73 139.421 300.73C139.758 300.73 140.02 300.655 140.245 300.543C140.47 300.43 140.62 300.206 140.733 299.869L140.845 299.532L138.333 292.606H139.87L141.707 298.559L141.445 298.259H141.782L141.52 298.559L143.357 292.606H144.856L142.27 299.831C142.082 300.318 141.895 300.692 141.67 300.992C141.445 301.291 141.145 301.516 140.845 301.628C140.545 301.741 140.133 301.816 139.683 301.816C139.571 301.89 139.421 301.853 139.308 301.853Z" fill="white"/>
<g opacity="0.7">
<g opacity="0.7">
<path opacity="0.7" d="M98.4473 316.94C98.3349 316.94 98.2974 316.902 98.2224 316.865V315.817C98.2974 315.817 98.3723 315.854 98.4473 315.854C98.5223 315.854 98.6348 315.854 98.7472 315.854C98.9721 315.854 99.1971 315.817 99.3845 315.742C99.5719 315.667 99.7219 315.555 99.9093 315.405C100.097 315.255 100.209 315.068 100.322 314.843L97.0603 307.356H98.3349L100.884 313.496H100.996L103.471 307.356H104.708L101.784 314.132C101.484 314.843 101.184 315.405 100.921 315.779C100.659 316.154 100.322 316.491 99.9843 316.64C99.6469 316.79 99.2346 316.902 98.7847 316.902C98.6348 316.977 98.5223 316.977 98.4473 316.94Z" fill="white"/>
<path opacity="0.7" d="M106.17 316.603C105.682 316.303 105.307 315.892 105.082 315.368C104.857 314.843 104.708 314.207 104.708 313.496C104.708 312.784 104.857 312.148 105.12 311.624C105.382 311.1 105.757 310.688 106.244 310.389C106.732 310.089 107.257 309.939 107.894 309.939C108.456 309.939 108.944 310.052 109.356 310.276C109.768 310.501 110.068 310.8 110.331 311.137C110.593 311.474 110.705 311.849 110.743 312.26V312.298H109.618V312.26C109.543 311.923 109.356 311.624 109.056 311.362C108.756 311.1 108.381 310.988 107.856 310.988C107.444 310.988 107.107 311.1 106.807 311.287C106.507 311.474 106.282 311.774 106.095 312.185C105.907 312.597 105.832 313.009 105.832 313.533C105.832 314.057 105.907 314.507 106.095 314.881C106.282 315.255 106.507 315.555 106.807 315.742C107.107 315.929 107.444 316.041 107.856 316.041C108.344 316.041 108.719 315.929 108.981 315.667C109.243 315.405 109.468 315.106 109.581 314.731V314.694H110.705V314.731C110.63 315.18 110.481 315.555 110.218 315.892C109.956 316.229 109.618 316.528 109.206 316.715C108.794 316.902 108.344 317.015 107.819 317.015C107.219 317.052 106.657 316.902 106.17 316.603Z" fill="white"/>
<path opacity="0.7" d="M116.778 311.025H114.567V316.94H113.405V311.025H111.193V310.089H116.741V311.025H116.778Z" fill="white"/>
<path opacity="0.7" d="M118.39 316.79C118.053 316.603 117.791 316.378 117.603 316.079C117.416 315.779 117.303 315.405 117.303 314.993C117.303 314.394 117.528 313.945 117.94 313.608C118.353 313.271 118.99 313.046 119.777 313.009L122.326 312.859V313.758L119.927 313.907C119.477 313.945 119.103 314.057 118.878 314.244C118.653 314.432 118.503 314.694 118.503 315.031C118.503 315.367 118.615 315.63 118.878 315.817C119.14 316.004 119.44 316.116 119.852 316.116C120.227 316.116 120.527 316.041 120.827 315.892C121.127 315.742 121.352 315.517 121.502 315.255C121.652 314.993 121.764 314.694 121.764 314.357V312.335C121.764 311.923 121.652 311.586 121.389 311.362C121.127 311.137 120.752 310.987 120.265 310.987C119.815 310.987 119.477 311.1 119.215 311.287C118.953 311.474 118.765 311.736 118.728 312.036V312.111H117.603V312.036C117.641 311.661 117.753 311.324 117.978 311.025C118.203 310.725 118.503 310.463 118.915 310.276C119.328 310.089 119.777 310.014 120.302 310.014C120.827 310.014 121.314 310.089 121.689 310.276C122.064 310.463 122.401 310.725 122.589 311.062C122.776 311.399 122.926 311.811 122.926 312.26V316.977H121.764V315.854H121.727C121.577 316.116 121.427 316.341 121.202 316.491C120.977 316.64 120.752 316.827 120.452 316.94C120.152 317.052 119.89 317.09 119.59 317.09C119.14 317.052 118.728 316.94 118.39 316.79Z" fill="white"/>
<path opacity="0.7" d="M128.999 313.833H125.663V316.902H124.501V310.052H125.663V312.859H128.999V310.052H130.162V316.902H128.999V313.833Z" fill="white"/>
<path opacity="0.7" d="M132.935 316.603C132.448 316.303 132.073 315.892 131.811 315.368C131.548 314.843 131.398 314.207 131.398 313.496C131.398 312.784 131.548 312.148 131.811 311.624C132.073 311.1 132.448 310.688 132.935 310.389C133.423 310.089 133.948 309.939 134.585 309.939C135.222 309.939 135.784 310.089 136.234 310.389C136.684 310.688 137.096 311.1 137.359 311.624C137.621 312.148 137.771 312.784 137.771 313.496C137.771 314.207 137.621 314.843 137.359 315.368C137.096 315.892 136.722 316.303 136.234 316.603C135.747 316.902 135.222 317.052 134.585 317.052C133.948 317.052 133.385 316.902 132.935 316.603ZM135.634 315.742C135.934 315.555 136.159 315.255 136.309 314.881C136.459 314.507 136.572 314.057 136.572 313.496C136.572 312.972 136.497 312.522 136.309 312.111C136.122 311.699 135.897 311.437 135.597 311.25C135.297 311.062 134.96 310.95 134.547 310.95C134.135 310.95 133.798 311.062 133.498 311.25C133.198 311.437 132.973 311.736 132.785 312.111C132.598 312.485 132.523 312.934 132.523 313.458C132.523 313.982 132.598 314.469 132.785 314.843C132.973 315.218 133.198 315.517 133.498 315.705C133.798 315.892 134.135 316.004 134.547 316.004C134.96 316.004 135.335 315.929 135.634 315.742Z" fill="white"/>
<path opacity="0.7" d="M139.008 310.052H141.932C142.57 310.052 143.094 310.201 143.432 310.538C143.769 310.875 143.994 311.287 143.994 311.811C143.994 312.148 143.882 312.485 143.657 312.747C143.432 313.009 143.169 313.196 142.869 313.271V313.309C143.169 313.346 143.394 313.421 143.619 313.571C143.844 313.72 143.994 313.908 144.107 314.095C144.219 314.282 144.294 314.581 144.294 314.843C144.294 315.442 144.069 315.929 143.657 316.266C143.244 316.603 142.645 316.79 141.932 316.79H139.008V310.052ZM141.632 312.934C142.045 312.934 142.382 312.859 142.607 312.71C142.832 312.56 142.907 312.298 142.907 311.961C142.907 311.661 142.832 311.437 142.645 311.25C142.457 311.062 142.195 311.025 141.82 311.025H140.208V312.934H141.632ZM141.895 315.967C142.307 315.967 142.645 315.892 142.832 315.704C143.019 315.517 143.169 315.255 143.169 314.918C143.169 314.581 143.057 314.319 142.794 314.132C142.532 313.945 142.195 313.87 141.67 313.87H140.17V315.967H141.895Z" fill="white"/>
<path opacity="0.7" d="M145.644 310.052H146.806V315.143H147.368L146.581 315.555L150.292 310.052H151.417V316.902H150.254V311.811H149.692L150.479 311.399L146.768 316.902H145.644V310.052Z" fill="white"/>
<path opacity="0.7" d="M158.014 311.025H155.803V316.94H154.64V311.025H152.429V310.089H157.977V311.025H158.014Z" fill="white"/>
<path opacity="0.7" d="M159.064 310.052H160.226V312.223H161.501C162.288 312.223 162.925 312.448 163.375 312.859C163.825 313.271 164.087 313.833 164.087 314.544C164.087 315.255 163.862 315.817 163.375 316.229C162.888 316.64 162.288 316.865 161.501 316.865H159.064V310.052ZM160.226 313.196V315.967H161.501C161.95 315.967 162.288 315.854 162.55 315.592C162.813 315.33 162.925 314.993 162.925 314.581C162.925 314.17 162.813 313.833 162.55 313.571C162.288 313.309 161.95 313.196 161.501 313.196H160.226Z" fill="white"/>
</g>
</g>
<g opacity="0.7">
<g opacity="0.7">
<path opacity="0.7" d="M152.766 290.061H153.966V299.569H152.766V290.061ZM153.366 295.114H155.84C156.515 295.114 157.04 294.927 157.414 294.59C157.789 294.253 157.977 293.767 157.977 293.13C157.977 292.494 157.789 292.007 157.414 291.67C157.04 291.333 156.515 291.146 155.84 291.146H153.366V290.098H156.177C156.777 290.098 157.302 290.21 157.752 290.472C158.202 290.734 158.577 291.071 158.839 291.521C159.101 291.97 159.214 292.494 159.214 293.093C159.214 293.692 159.101 294.216 158.839 294.703C158.577 295.189 158.202 295.526 157.752 295.788C157.302 296.05 156.777 296.163 156.177 296.163H153.366V295.114Z" fill="white"/>
<path opacity="0.7" d="M161.313 299.42C160.976 299.233 160.713 299.008 160.526 298.708C160.339 298.409 160.226 298.035 160.226 297.623C160.226 297.024 160.451 296.575 160.863 296.238C161.276 295.901 161.913 295.676 162.7 295.639L165.249 295.489V296.387L162.85 296.537C162.4 296.575 162.025 296.687 161.801 296.874C161.576 297.061 161.426 297.323 161.426 297.66C161.426 297.997 161.538 298.259 161.801 298.446C162.063 298.634 162.363 298.746 162.775 298.746C163.15 298.746 163.45 298.671 163.75 298.521C164.05 298.371 164.275 298.147 164.425 297.885C164.575 297.623 164.687 297.323 164.687 296.986V294.965C164.687 294.553 164.575 294.216 164.312 293.991C164.05 293.767 163.675 293.617 163.188 293.617C162.738 293.617 162.4 293.729 162.138 293.917C161.876 294.104 161.688 294.366 161.651 294.665V294.74H160.526V294.665C160.563 294.291 160.676 293.954 160.901 293.654C161.126 293.355 161.426 293.093 161.838 292.906C162.25 292.719 162.7 292.644 163.225 292.644C163.75 292.644 164.237 292.719 164.612 292.906C164.987 293.093 165.324 293.355 165.512 293.692C165.699 294.029 165.849 294.441 165.849 294.89V299.607H164.687V298.484H164.65C164.5 298.746 164.35 298.97 164.125 299.12C163.9 299.27 163.675 299.457 163.375 299.569C163.075 299.682 162.813 299.719 162.513 299.719C162.063 299.682 161.688 299.607 161.313 299.42Z" fill="white"/>
<path opacity="0.7" d="M167.948 298.633C167.386 297.922 167.124 296.911 167.124 295.564C167.124 294.291 167.236 293.28 167.498 292.494C167.761 291.708 168.136 291.109 168.66 290.734C169.185 290.36 169.898 290.135 170.797 290.098L171.322 290.061C171.659 290.061 171.997 290.023 172.334 289.948C172.672 289.873 172.934 289.798 173.121 289.686V290.697C173.009 290.809 172.784 290.884 172.484 290.959C172.184 291.034 171.809 291.071 171.397 291.109L170.872 291.146C170.235 291.184 169.748 291.296 169.373 291.483C168.998 291.67 168.735 292.007 168.548 292.419C168.361 292.831 168.211 293.355 168.136 294.029V294.104H168.173C168.398 293.692 168.735 293.392 169.148 293.168C169.56 292.943 170.048 292.868 170.572 292.868C171.21 292.868 171.734 293.018 172.184 293.28C172.634 293.542 172.972 293.954 173.234 294.441C173.496 294.927 173.609 295.526 173.609 296.2C173.609 296.911 173.496 297.548 173.234 298.072C172.972 298.596 172.597 299.008 172.147 299.27C171.697 299.532 171.097 299.682 170.422 299.682C169.298 299.682 168.511 299.345 167.948 298.633ZM171.435 298.409C171.734 298.222 171.959 297.922 172.109 297.585C172.259 297.248 172.334 296.762 172.334 296.238C172.334 295.751 172.259 295.339 172.109 294.965C171.959 294.59 171.734 294.366 171.435 294.179C171.135 293.991 170.76 293.916 170.347 293.916C169.935 293.916 169.56 293.991 169.26 294.179C168.96 294.366 168.735 294.628 168.548 294.965C168.361 295.302 168.323 295.751 168.323 296.238C168.323 296.762 168.398 297.211 168.548 297.585C168.698 297.96 168.923 298.222 169.26 298.409C169.598 298.596 169.935 298.708 170.347 298.708C170.76 298.708 171.135 298.596 171.435 298.409Z" fill="white"/>
<path opacity="0.7" d="M176.008 299.27C175.521 298.97 175.146 298.559 174.884 298.034C174.621 297.51 174.471 296.874 174.471 296.163C174.471 295.451 174.621 294.815 174.884 294.291C175.146 293.767 175.521 293.355 176.008 293.055C176.496 292.756 177.02 292.606 177.658 292.606C178.295 292.606 178.857 292.756 179.307 293.055C179.757 293.355 180.169 293.767 180.432 294.291C180.694 294.815 180.844 295.451 180.844 296.163C180.844 296.874 180.694 297.51 180.432 298.034C180.169 298.559 179.794 298.97 179.307 299.27C178.82 299.569 178.295 299.719 177.658 299.719C177.02 299.719 176.496 299.532 176.008 299.27ZM178.745 298.371C179.045 298.184 179.27 297.885 179.419 297.51C179.569 297.136 179.682 296.687 179.682 296.125C179.682 295.601 179.607 295.152 179.419 294.74C179.232 294.328 179.007 294.066 178.707 293.879C178.407 293.692 178.07 293.58 177.658 293.58C177.245 293.58 176.908 293.692 176.608 293.879C176.308 294.066 176.083 294.366 175.896 294.74C175.708 295.114 175.633 295.564 175.633 296.088C175.633 296.612 175.708 297.099 175.896 297.473C176.083 297.847 176.308 298.147 176.608 298.334C176.908 298.521 177.245 298.633 177.658 298.633C178.07 298.633 178.445 298.596 178.745 298.371Z" fill="white"/>
<path opacity="0.7" d="M186.879 293.654H184.668V299.569H183.505V293.654H181.294V292.718H186.842V293.654H186.879Z" fill="white"/>
<path opacity="0.7" d="M188.491 299.42C188.154 299.233 187.891 299.008 187.704 298.708C187.517 298.409 187.404 298.035 187.404 297.623C187.404 297.024 187.629 296.575 188.041 296.238C188.454 295.901 189.091 295.676 189.878 295.639L192.427 295.489V296.387L190.028 296.537C189.578 296.575 189.203 296.687 188.979 296.874C188.754 297.061 188.604 297.323 188.604 297.66C188.604 297.997 188.716 298.259 188.979 298.446C189.241 298.634 189.541 298.746 189.953 298.746C190.328 298.746 190.628 298.671 190.928 298.521C191.228 298.371 191.453 298.147 191.603 297.885C191.753 297.623 191.865 297.323 191.865 296.986V294.965C191.865 294.553 191.753 294.216 191.49 293.991C191.228 293.767 190.853 293.617 190.366 293.617C189.916 293.617 189.578 293.729 189.316 293.917C189.053 294.104 188.866 294.366 188.829 294.665V294.74H187.704V294.665C187.741 294.291 187.854 293.954 188.079 293.654C188.304 293.355 188.604 293.093 189.016 292.906C189.428 292.719 189.878 292.644 190.403 292.644C190.928 292.644 191.415 292.719 191.79 292.906C192.165 293.093 192.502 293.355 192.69 293.692C192.877 294.029 193.027 294.441 193.027 294.89V299.607H191.865V298.484H191.828C191.678 298.746 191.528 298.97 191.303 299.12C191.078 299.27 190.853 299.457 190.553 299.569C190.253 299.682 189.991 299.719 189.691 299.719C189.241 299.682 188.829 299.607 188.491 299.42Z" fill="white"/>
</g>
</g>
<path d="M308 254.795H18V255.919H308V254.795Z" fill="white"/>
</svg>
