<svg width="343" height="482" viewBox="0 0 343 482" fill="none" xmlns="http://www.w3.org/2000/svg">
<g clip-path="url(#clip0)">
<path d="M0 12C0 5.37258 5.37258 0 12 0H331C337.627 0 343 5.37258 343 12V470C343 476.627 337.627 482 331 482H12C5.37258 482 0 476.627 0 470V12Z" fill="#F3F4F5"/>
<path d="M0 12C0 5.37258 5.37258 0 12 0H331C337.627 0 343 5.37258 343 12V470C343 476.627 337.627 482 331 482H12C5.37258 482 0 476.627 0 470V12Z" stroke="#F3F4F5"/>
<path d="M24.5498 90H27.5381V68.7334H35.0918V66.0439H16.9961V68.7334H24.5498V90ZM42.4629 90.332C47.2275 90.332 50.4482 86.8789 50.4482 81.3672V81.334C50.4482 75.8223 47.2109 72.4023 42.4463 72.4023C37.6816 72.4023 34.4609 75.8389 34.4609 81.334V81.3672C34.4609 86.8623 37.665 90.332 42.4629 90.332ZM42.4795 87.7754C39.4248 87.7754 37.416 85.4346 37.416 81.3672V81.334C37.416 77.2998 39.4414 74.959 42.4463 74.959C45.501 74.959 47.4932 77.2832 47.4932 81.334V81.3672C47.4932 85.418 45.5176 87.7754 42.4795 87.7754ZM57.7861 82.3965L58.334 75.125H64.9746V90H67.8633V72.7344H55.7275L55.0469 82.3301C54.8145 85.501 54.1836 87.5098 52.3408 87.5098C51.8926 87.5098 51.5771 87.4434 51.4277 87.3936V90C51.6602 90.083 52.0918 90.166 52.6396 90.166C56.3086 90.166 57.4209 87.1611 57.7861 82.3965ZM71.9473 90H78.0732C82.0244 90 84.5645 87.7256 84.5645 84.1396V84.1064C84.5645 80.5205 82.0244 78.2461 78.0732 78.2461H74.8359V72.7344H71.9473V90ZM78.0234 80.6367C80.2148 80.6367 81.6094 81.998 81.6094 84.1064V84.1396C81.6094 86.2314 80.2314 87.6094 78.0234 87.6094H74.8359V80.6367H78.0234ZM91.2715 82.0312L98.1611 90H101.813L93.8779 80.9023L101.581 72.7344H98.0781L91.2715 80.0391H90.6074V72.7344H87.7188V90H90.6074V82.0312H91.2715ZM111.061 90.332C115.825 90.332 119.046 86.8789 119.046 81.3672V81.334C119.046 75.8223 115.809 72.4023 111.044 72.4023C106.279 72.4023 103.059 75.8389 103.059 81.334V81.3672C103.059 86.8623 106.263 90.332 111.061 90.332ZM111.077 87.7754C108.022 87.7754 106.014 85.4346 106.014 81.3672V81.334C106.014 77.2998 108.039 74.959 111.044 74.959C114.099 74.959 116.091 77.2832 116.091 81.334V81.3672C116.091 85.418 114.115 87.7754 111.077 87.7754ZM132.111 90V77.748H132.228L137.772 89.502H139.98L145.542 77.748H145.658V90H148.547V72.7344H145.16L139.001 86.1816H138.868L132.759 72.7344H129.223V90H132.111ZM159.77 90.332C164.534 90.332 167.755 86.8789 167.755 81.3672V81.334C167.755 75.8223 164.518 72.4023 159.753 72.4023C154.988 72.4023 151.768 75.8389 151.768 81.334V81.3672C151.768 86.8623 154.972 90.332 159.77 90.332ZM159.786 87.7754C156.731 87.7754 154.723 85.4346 154.723 81.3672V81.334C154.723 77.2998 156.748 74.959 159.753 74.959C162.808 74.959 164.8 77.2832 164.8 81.334V81.3672C164.8 85.418 162.824 87.7754 159.786 87.7754ZM170.959 90H192.275V72.7344H189.387V87.6094H183.062V72.7344H180.173V87.6094H173.848V72.7344H170.959V90ZM203.448 90.332C207.217 90.332 210.039 88.0742 210.604 85.2188L210.637 85.0527H207.798L207.748 85.2021C207.25 86.6797 205.706 87.7754 203.515 87.7754C200.443 87.7754 198.484 85.7002 198.418 82.1475H210.853V81.085C210.853 75.9053 207.98 72.4023 203.266 72.4023C198.551 72.4023 195.496 76.0713 195.496 81.417V81.4336C195.496 86.8623 198.484 90.332 203.448 90.332ZM203.249 74.959C205.772 74.959 207.632 76.5361 207.914 79.8896H198.468C198.783 76.6689 200.742 74.959 203.249 74.959ZM225.429 90H228.317V72.7344H225.429V79.8564H216.979V72.7344H214.09V90H216.979V82.2471H225.429V90ZM243.724 90H246.612V72.7344H243.724V79.8564H235.273V72.7344H232.385V90H235.273V82.2471H243.724V90ZM250.68 90H253.535L262.135 77.167H262.268V90H265.156V72.7344H262.301L253.701 85.5674H253.568V72.7344H250.68V90ZM272.76 82.0312L279.649 90H283.302L275.366 80.9023L283.069 72.7344H279.566L272.76 80.0391H272.096V72.7344H269.207V90H272.096V82.0312H272.76ZM18.0254 126H20.9141V111.125H29.1982V126H32.1035V108.734H18.0254V126ZM36.1709 131.811H39.0596V123.111H39.126C40.2051 125.104 42.2139 126.332 44.6543 126.332C48.9873 126.332 51.9424 122.829 51.9424 117.384V117.367C51.9424 111.922 49.0205 108.402 44.6045 108.402C42.1309 108.402 40.2051 109.647 39.126 111.656H39.0596V108.734H36.1709V131.811ZM44.04 123.775C41.1348 123.775 39.043 121.235 39.043 117.384V117.367C39.043 113.499 41.1182 110.959 44.04 110.959C47.0947 110.959 48.9873 113.399 48.9873 117.367V117.384C48.9873 121.318 47.0947 123.775 44.04 123.775ZM62.3018 126.332C66.0703 126.332 68.8926 124.074 69.457 121.219L69.4902 121.053H66.6514L66.6016 121.202C66.1035 122.68 64.5596 123.775 62.3682 123.775C59.2969 123.775 57.3379 121.7 57.2715 118.147H69.7061V117.085C69.7061 111.905 66.834 108.402 62.1191 108.402C57.4043 108.402 54.3496 112.071 54.3496 117.417V117.434C54.3496 122.862 57.3379 126.332 62.3018 126.332ZM62.1025 110.959C64.626 110.959 66.4854 112.536 66.7676 115.89H57.3213C57.6367 112.669 59.5957 110.959 62.1025 110.959ZM73.5908 130.731V126H86.9883V130.731H89.6777V123.609H86.9385V108.734H75.0518L74.3877 118.313C74.2217 120.638 73.6074 122.779 72.3457 123.609H70.9014V130.731H73.5908ZM84.0498 123.609H75.5996V123.543C76.4629 122.431 76.9111 120.555 77.0605 118.38L77.5918 111.125H84.0498V123.609ZM97.0654 118.396L97.6133 111.125H104.254V126H107.143V108.734H95.0068L94.3262 118.33C94.0938 121.501 93.4629 123.51 91.6201 123.51C91.1719 123.51 90.8564 123.443 90.707 123.394V126C90.9395 126.083 91.3711 126.166 91.9189 126.166C95.5879 126.166 96.7002 123.161 97.0654 118.396ZM118.398 126.332C123.163 126.332 126.384 122.879 126.384 117.367V117.334C126.384 111.822 123.146 108.402 118.382 108.402C113.617 108.402 110.396 111.839 110.396 117.334V117.367C110.396 122.862 113.601 126.332 118.398 126.332ZM118.415 123.775C115.36 123.775 113.352 121.435 113.352 117.367V117.334C113.352 113.3 115.377 110.959 118.382 110.959C121.437 110.959 123.429 113.283 123.429 117.334V117.367C123.429 121.418 121.453 123.775 118.415 123.775ZM130.816 126L137.557 117.965H138.055V126H140.844V117.965H141.342L148.082 126H151.784L143.981 116.902L151.519 108.734H147.999L141.342 116.105H140.844V108.734H138.055V116.105H137.557L130.899 108.734H127.38L134.917 116.902L127.114 126H130.816ZM154.191 126H157.047L165.646 113.167H165.779V126H168.668V108.734H165.812L157.213 121.567H157.08V108.734H154.191V126ZM185.353 108.734H171.341V111.125H176.902V126H179.791V111.125H185.353V108.734ZM23.0889 162.332C25.3965 162.332 27.4717 161.087 28.4844 159.194H28.5508V162H31.4395V150.063C31.4395 146.61 28.8828 144.402 24.7988 144.402C20.7314 144.402 18.2578 146.693 18.0088 149.532L17.9922 149.715H20.7812L20.8145 149.565C21.1465 148.021 22.541 146.959 24.7656 146.959C27.1729 146.959 28.5508 148.237 28.5508 150.346V151.79L23.6035 152.072C19.6357 152.305 17.3447 154.147 17.3447 157.086V157.119C17.3447 160.257 19.6523 162.332 23.0889 162.332ZM20.2998 157.119V157.086C20.2998 155.476 21.6279 154.446 23.9355 154.313L28.5508 154.031V155.442C28.5508 157.949 26.459 159.825 23.7363 159.825C21.6611 159.825 20.2998 158.779 20.2998 157.119ZM46.7627 162H49.6514V144.734H46.7627V151.856H38.3125V144.734H35.4238V162H38.3125V154.247H46.7627V162ZM66.3525 144.734H52.3408V147.125H57.9023V162H60.791V147.125H66.3525V144.734ZM69.0254 162H71.8809L80.4805 149.167H80.6133V162H83.502V144.734H80.6465L72.0469 157.567H71.9141V144.734H69.0254V162ZM87.5527 162H94.9902C98.6592 162 100.917 160.091 100.917 157.053V157.02C100.917 154.911 99.4893 153.384 97.3145 153.085V152.952C98.9082 152.62 100.153 150.993 100.153 149.217V149.184C100.153 146.444 98.1777 144.734 94.9404 144.734H87.5527V162ZM90.4414 151.956V147.125H94.5088C96.3184 147.125 97.2812 147.938 97.2812 149.482V149.516C97.2812 151.176 96.252 151.956 94.0771 151.956H90.4414ZM90.4414 159.609V154.347H94.2266C96.75 154.347 97.9619 155.177 97.9619 156.953V156.986C97.9619 158.713 96.833 159.609 94.7412 159.609H90.4414ZM104.221 162H107.076L115.676 149.167H115.809V162H118.697V144.734H115.842L107.242 157.567H107.109V144.734H104.221V162ZM122.765 167.811H125.653V159.111H125.72C126.799 161.104 128.808 162.332 131.248 162.332C135.581 162.332 138.536 158.829 138.536 153.384V153.367C138.536 147.922 135.614 144.402 131.198 144.402C128.725 144.402 126.799 145.647 125.72 147.656H125.653V144.734H122.765V167.811ZM130.634 159.775C127.729 159.775 125.637 157.235 125.637 153.384V153.367C125.637 149.499 127.712 146.959 130.634 146.959C133.688 146.959 135.581 149.399 135.581 153.367V153.384C135.581 157.318 133.688 159.775 130.634 159.775ZM142.952 167.811C146.073 167.811 147.584 166.383 148.812 163.079L155.553 144.734H152.515L147.733 159.111H147.667L142.902 144.734H139.814L146.223 162.017L145.874 162.996C145.177 164.955 144.164 165.42 142.338 165.42C141.989 165.42 141.657 165.37 141.408 165.32V167.678C141.773 167.744 142.388 167.811 142.952 167.811ZM164.816 162.332C168.718 162.332 171.557 159.792 172.021 156.505L172.038 156.389H169.199L169.166 156.521C168.685 158.447 167.174 159.775 164.816 159.775C161.828 159.775 159.77 157.401 159.77 153.384V153.367C159.77 149.449 161.778 146.959 164.783 146.959C167.323 146.959 168.718 148.486 169.149 150.213L169.183 150.346H172.005L171.988 150.213C171.623 147.258 169.083 144.402 164.783 144.402C159.985 144.402 156.814 147.889 156.814 153.334V153.351C156.814 158.846 159.919 162.332 164.816 162.332Z" fill="#BB3AF7"/>
<path d="M293 390.75H50C31.6365 390.75 16.75 405.637 16.75 424C16.75 442.363 31.6365 457.25 50 457.25H293C311.363 457.25 326.25 442.363 326.25 424C326.25 405.637 311.363 390.75 293 390.75Z" stroke="#BB3AF7" stroke-width="1.5"/>
<path d="M124.394 431.256C128.721 431.256 131.417 428.313 131.417 423.607V423.586C131.417 418.89 128.71 415.947 124.394 415.947C120.087 415.947 117.37 418.89 117.37 423.586V423.607C117.37 428.313 120.077 431.256 124.394 431.256ZM124.394 428.959C121.748 428.959 120.066 426.898 120.066 423.607V423.586C120.066 420.295 121.758 418.244 124.394 418.244C127.039 418.244 128.721 420.305 128.721 423.586V423.607C128.721 426.868 127.07 428.959 124.394 428.959ZM136.37 426.273L140.103 431H143.209L138.616 425.207L142.994 420.131H140.051L136.37 424.52H135.991V420.131H133.438V431H135.991V426.273H136.37ZM143.866 434.025H145.65L147.147 428.59H144.676L143.866 434.025ZM153.884 433.922V431H161.605V433.922H163.943V429H162.282V420.131H154.017L153.638 425.801C153.535 427.268 153.207 428.529 152.407 429H151.546V433.922H153.884ZM159.729 429H155.063V428.949C155.586 428.221 155.832 427.175 155.914 425.935L156.191 422.13H159.729V429ZM168.578 431.185C170.003 431.185 171.213 430.467 171.849 429.329H171.9V431H174.453V423.525C174.453 421.341 172.71 419.905 169.982 419.905C167.224 419.905 165.563 421.351 165.399 423.279L165.389 423.402H167.757L167.778 423.31C167.942 422.51 168.69 421.946 169.9 421.946C171.182 421.946 171.9 422.612 171.9 423.709V424.458L169.06 424.632C166.435 424.796 164.927 425.955 164.927 427.883V427.903C164.927 429.841 166.394 431.185 168.578 431.185ZM167.48 427.801V427.791C167.48 426.929 168.167 426.386 169.418 426.304L171.9 426.15V426.97C171.9 428.262 170.803 429.236 169.336 429.236C168.208 429.236 167.48 428.693 167.48 427.801ZM180.349 426.058L180.616 422.11H184.03V431H186.594V420.131H178.391L178.032 425.873C177.909 427.842 177.54 428.867 176.442 428.867C176.166 428.867 175.96 428.826 175.858 428.795V430.979C176.022 431.031 176.36 431.103 176.832 431.103C179.385 431.103 180.144 429.144 180.349 426.058ZM188.891 431H193.536C196.068 431 197.699 429.523 197.699 427.206V427.186C197.699 424.868 196.068 423.392 193.536 423.392H191.444V420.131H188.891V431ZM193.177 425.36C194.346 425.36 195.094 426.078 195.094 427.186V427.206C195.094 428.303 194.356 429.031 193.177 429.031H191.444V425.36H193.177ZM199.473 431H213.859V420.131H211.306V429H207.942V420.131H205.389V429H202.026V420.131H199.473V431ZM220.914 431.215C223.754 431.215 225.354 429.534 225.702 427.862L225.723 427.75H223.333L223.313 427.821C223.067 428.549 222.247 429.226 220.965 429.226C219.304 429.226 218.258 428.098 218.227 426.191H225.835V425.371C225.835 422.089 223.908 419.905 220.791 419.905C217.684 419.905 215.684 422.161 215.684 425.586V425.596C215.684 429.052 217.653 431.215 220.914 431.215ZM220.821 421.905C222.175 421.905 223.159 422.766 223.344 424.489H218.258C218.453 422.817 219.478 421.905 220.821 421.905Z" fill="black"/>
<path d="M308 208H18V333H308V208Z" fill="#202124"/>
<path d="M68.7582 315.816H37.1941C32.1333 315.816 28.0098 311.698 28.0098 306.644V275.123C28.0098 270.069 32.1333 265.951 37.1941 265.951H68.7582C73.819 265.951 77.9426 270.069 77.9426 275.123V306.644C77.9426 311.736 73.819 315.816 68.7582 315.816Z" fill="#63ED22"/>
<path d="M52.975 310.126C63.5959 310.126 72.2059 301.528 72.2059 290.922C72.2059 280.315 63.5959 271.717 52.975 271.717C42.3541 271.717 33.7441 280.315 33.7441 290.922C33.7441 301.528 42.3541 310.126 52.975 310.126Z" fill="white"/>
<path d="M52.9385 305.147L63.5474 287.964L56.6498 290.397V279.129H49.2648V290.21L42.3672 287.964L52.9385 305.147Z" fill="#46AD0E"/>
<path d="M63.0218 238.96C62.5719 238.735 62.2346 238.436 62.0096 238.024C61.7847 237.612 61.6348 237.163 61.6348 236.639C61.6348 235.89 61.9347 235.254 62.497 234.842C63.0593 234.43 63.8465 234.131 64.8961 234.093L68.195 233.906V235.179L65.1211 235.366C64.5962 235.404 64.1839 235.516 63.884 235.74C63.5841 235.965 63.4341 236.265 63.4341 236.639C63.4341 237.013 63.5841 237.313 63.884 237.537C64.1839 237.762 64.5588 237.874 65.0461 237.874C65.4585 237.874 65.8333 237.799 66.1707 237.612C66.5081 237.425 66.7705 237.2 66.9579 236.901C67.1454 236.601 67.2578 236.265 67.2578 235.89V233.307C67.2578 232.82 67.1079 232.446 66.808 232.184C66.5081 231.922 66.0957 231.772 65.5334 231.772C65.0086 231.772 64.5962 231.884 64.2964 232.109C63.9965 232.334 63.7715 232.633 63.6966 232.97V233.045H62.0096V232.97C62.0471 232.483 62.2346 231.997 62.5345 231.622C62.8343 231.211 63.2467 230.911 63.7715 230.687C64.2963 230.462 64.8961 230.35 65.6084 230.35C66.3207 230.35 66.9579 230.462 67.4453 230.724C67.9701 230.949 68.3824 231.286 68.6448 231.735C68.9447 232.184 69.0947 232.671 69.0947 233.27V239.297H67.2953V237.912H67.2578C67.0704 238.211 66.8829 238.511 66.5831 238.735C66.3206 238.96 66.0207 239.147 65.6834 239.259C65.346 239.372 64.9711 239.447 64.5962 239.447C63.9964 239.297 63.4716 239.185 63.0218 238.96Z" fill="white"/>
<path d="M73.3301 237.35C73.1426 237.949 72.8802 238.398 72.5054 238.735C72.1305 239.072 71.6057 239.222 70.9684 239.222C70.8184 239.222 70.6685 239.222 70.5185 239.184C70.4061 239.147 70.2937 239.147 70.2188 239.109V237.575C70.2561 237.575 70.3311 237.612 70.4061 237.612C70.4811 237.612 70.5935 237.612 70.706 237.612C71.0059 237.612 71.2683 237.5 71.4182 237.312C71.6057 237.125 71.7182 236.826 71.8307 236.451C71.9057 236.077 71.9805 235.628 72.018 235.104L72.3179 230.387H78.7282V239.109H76.9288V231.847H73.9299L73.7049 235.216C73.63 236.04 73.5175 236.751 73.3301 237.35Z" fill="white"/>
<path d="M80.6777 230.424H82.4771V233.119H84.1266C85.1387 233.119 85.9634 233.381 86.5632 233.943C87.163 234.504 87.4629 235.216 87.4629 236.152C87.4629 237.087 87.163 237.799 86.5632 238.36C85.9634 238.922 85.1387 239.184 84.1266 239.184H80.6777V230.424ZM82.4771 234.542V237.724H83.9391C84.4639 237.724 84.8763 237.574 85.1387 237.275C85.4386 236.975 85.5885 236.601 85.5885 236.114C85.5885 235.627 85.4386 235.253 85.1387 234.954C84.8388 234.654 84.4265 234.504 83.9391 234.504H82.4771V234.542Z" fill="white"/>
<path d="M93.1617 239.26C92.2245 239.26 91.4373 239.035 90.725 238.698C90.0503 238.324 89.488 237.8 89.1131 237.163C88.7382 236.489 88.5508 235.703 88.5508 234.805C88.5508 233.906 88.7382 233.12 89.1131 232.484C89.488 231.847 90.0128 231.286 90.725 230.949C91.3998 230.574 92.2245 230.387 93.1617 230.35V227.654H94.9236V230.35C95.8607 230.387 96.648 230.574 97.3602 230.949C98.035 231.323 98.5973 231.81 98.9722 232.484C99.347 233.157 99.5345 233.944 99.5345 234.842C99.5345 235.741 99.347 236.527 98.9722 237.201C98.5973 237.874 98.0725 238.361 97.3602 238.735C96.6855 239.11 95.8607 239.297 94.9611 239.334V242.105H93.1992V239.26H93.1617ZM93.1617 231.772C92.5994 231.772 92.112 231.922 91.6997 232.147C91.2873 232.409 90.95 232.746 90.725 233.195C90.5001 233.644 90.3876 234.168 90.3876 234.767C90.3876 235.366 90.5001 235.928 90.725 236.34C90.95 236.751 91.2873 237.126 91.6997 237.388C92.112 237.65 92.5994 237.762 93.1617 237.8V231.772ZM96.3856 237.425C96.7979 237.163 97.1353 236.826 97.3602 236.377C97.5851 235.928 97.6976 235.404 97.6976 234.767C97.6976 234.131 97.5851 233.607 97.3602 233.157C97.1353 232.708 96.7979 232.371 96.3856 232.109C95.9732 231.847 95.4859 231.735 94.9236 231.735V237.762C95.4484 237.8 95.9357 237.65 96.3856 237.425Z" fill="white"/>
<path d="M102.084 238.96C101.634 238.735 101.297 238.436 101.072 238.024C100.81 237.612 100.697 237.163 100.697 236.639C100.697 235.89 100.997 235.254 101.559 234.842C102.122 234.43 102.909 234.131 103.959 234.093L107.258 233.906V235.179L104.184 235.366C103.659 235.404 103.246 235.516 102.946 235.74C102.647 235.965 102.497 236.265 102.497 236.639C102.497 237.013 102.647 237.313 102.946 237.537C103.246 237.762 103.621 237.874 104.109 237.874C104.521 237.874 104.896 237.799 105.233 237.612C105.571 237.425 105.833 237.2 106.02 236.901C106.208 236.601 106.32 236.265 106.32 235.89V233.307C106.32 232.82 106.17 232.446 105.87 232.184C105.571 231.922 105.158 231.772 104.596 231.772C104.071 231.772 103.659 231.884 103.359 232.109C103.059 232.334 102.834 232.633 102.759 232.97V233.045H101.072V232.97C101.11 232.483 101.297 231.997 101.597 231.622C101.897 231.211 102.309 230.911 102.834 230.687C103.359 230.462 103.959 230.35 104.671 230.35C105.383 230.35 106.02 230.462 106.508 230.724C107.033 230.949 107.445 231.286 107.707 231.735C108.007 232.184 108.157 232.671 108.157 233.27V239.297H106.358V237.912H106.32C106.133 238.211 105.945 238.511 105.646 238.735C105.383 238.96 105.083 239.147 104.746 239.259C104.408 239.372 104.034 239.447 103.659 239.447C103.021 239.297 102.497 239.185 102.084 238.96Z" fill="white"/>
<path d="M114.193 237.986C113.48 237.088 113.105 235.815 113.105 234.093C113.105 232.483 113.255 231.173 113.593 230.162C113.93 229.151 114.418 228.44 115.13 227.953C115.842 227.467 116.742 227.205 117.829 227.167L118.616 227.13C119.066 227.13 119.478 227.092 119.891 226.98C120.303 226.905 120.64 226.793 120.865 226.681V228.178C120.715 228.29 120.453 228.403 120.041 228.478C119.628 228.552 119.178 228.627 118.691 228.627L117.941 228.665C117.192 228.702 116.554 228.815 116.104 229.077C115.655 229.339 115.317 229.713 115.055 230.2C114.83 230.686 114.642 231.36 114.53 232.146V232.259H114.567C114.867 231.735 115.242 231.36 115.767 231.061C116.292 230.799 116.892 230.649 117.566 230.649C118.354 230.649 119.028 230.836 119.628 231.173C120.191 231.51 120.64 231.997 120.978 232.633C121.278 233.269 121.465 233.981 121.465 234.842C121.465 235.74 121.278 236.526 120.94 237.2C120.603 237.874 120.116 238.361 119.516 238.735C118.916 239.11 118.166 239.259 117.304 239.259C115.954 239.334 114.942 238.885 114.193 237.986ZM118.579 237.462C118.916 237.238 119.178 236.901 119.366 236.489C119.553 236.04 119.628 235.553 119.628 234.917C119.628 234.318 119.553 233.831 119.366 233.419C119.178 233.007 118.916 232.708 118.579 232.483C118.241 232.259 117.829 232.146 117.304 232.146C116.817 232.146 116.404 232.259 116.029 232.483C115.692 232.708 115.392 233.007 115.242 233.419C115.055 233.831 114.98 234.318 114.98 234.917C114.98 235.516 115.055 236.04 115.242 236.489C115.43 236.938 115.692 237.238 116.029 237.462C116.367 237.687 116.817 237.799 117.304 237.799C117.791 237.799 118.241 237.687 118.579 237.462Z" fill="white"/>
<path d="M124.088 238.96C123.638 238.735 123.301 238.436 123.076 238.024C122.814 237.612 122.701 237.163 122.701 236.639C122.701 235.89 123.001 235.254 123.563 234.842C124.126 234.43 124.913 234.131 125.963 234.093L129.261 233.906V235.179L126.187 235.366C125.663 235.404 125.25 235.516 124.95 235.74C124.651 235.965 124.501 236.265 124.501 236.639C124.501 237.013 124.651 237.313 124.95 237.537C125.25 237.762 125.625 237.874 126.113 237.874C126.525 237.874 126.9 237.799 127.237 237.612C127.574 237.425 127.837 237.2 128.024 236.901C128.212 236.601 128.324 236.265 128.324 235.89V233.307C128.324 232.82 128.174 232.446 127.874 232.184C127.574 231.922 127.162 231.772 126.6 231.772C126.075 231.772 125.663 231.884 125.363 232.109C125.063 232.334 124.838 232.633 124.763 232.97V233.045H123.076V232.97C123.114 232.483 123.301 231.997 123.601 231.622C123.901 231.211 124.313 230.911 124.838 230.687C125.363 230.462 125.963 230.35 126.675 230.35C127.387 230.35 128.024 230.462 128.512 230.724C129.036 230.949 129.449 231.286 129.711 231.735C130.011 232.184 130.161 232.671 130.161 233.27V239.297H128.362V237.912H128.324C128.137 238.211 127.949 238.511 127.649 238.735C127.387 238.96 127.087 239.147 126.75 239.259C126.412 239.372 126.038 239.447 125.663 239.447C125.025 239.297 124.501 239.185 124.088 238.96Z" fill="white"/>
<path d="M137.734 235.365H133.797V239.146H131.998V230.424H133.797V233.943H137.734V230.424H139.533V239.146H137.734V235.365Z" fill="white"/>
<path d="M143.245 235.253V239.146H141.445V230.424H143.245V234.018H143.545L146.693 230.424H148.793L145.044 234.617V234.43L148.943 239.146H146.731L143.507 235.253H143.245Z" fill="white"/>
<path d="M154.378 237.986C153.666 237.088 153.291 235.815 153.291 234.093C153.291 232.483 153.441 231.173 153.778 230.162C154.116 229.151 154.603 228.44 155.315 227.953C156.028 227.467 156.927 227.205 158.014 227.167L158.802 227.13C159.251 227.13 159.664 227.092 160.076 226.98C160.489 226.905 160.826 226.793 161.051 226.681V228.178C160.901 228.29 160.638 228.403 160.226 228.478C159.814 228.552 159.364 228.627 158.877 228.627L158.127 228.665C157.377 228.702 156.74 228.815 156.29 229.077C155.84 229.339 155.503 229.713 155.24 230.2C155.015 230.686 154.828 231.36 154.716 232.146V232.259H154.753C155.053 231.735 155.428 231.36 155.953 231.061C156.477 230.799 157.077 230.649 157.752 230.649C158.539 230.649 159.214 230.836 159.814 231.173C160.376 231.51 160.826 231.997 161.163 232.633C161.463 233.269 161.651 233.981 161.651 234.842C161.651 235.74 161.463 236.526 161.126 237.2C160.788 237.874 160.301 238.361 159.701 238.735C159.102 239.11 158.352 239.259 157.49 239.259C156.14 239.334 155.09 238.885 154.378 237.986ZM158.727 237.462C159.064 237.238 159.326 236.901 159.514 236.489C159.701 236.04 159.776 235.553 159.776 234.917C159.776 234.318 159.701 233.831 159.514 233.419C159.326 233.007 159.064 232.708 158.727 232.483C158.389 232.259 157.977 232.146 157.452 232.146C156.965 232.146 156.552 232.259 156.178 232.483C155.84 232.708 155.54 233.007 155.39 233.419C155.203 233.831 155.128 234.318 155.128 234.917C155.128 235.516 155.203 236.04 155.39 236.489C155.578 236.938 155.84 237.238 156.178 237.462C156.515 237.687 156.965 237.799 157.452 237.799C157.977 237.799 158.389 237.687 158.727 237.462Z" fill="white"/>
<path d="M164.724 238.773C164.125 238.398 163.637 237.874 163.3 237.2C162.962 236.527 162.812 235.74 162.812 234.805C162.812 233.906 162.962 233.12 163.3 232.409C163.637 231.735 164.087 231.211 164.687 230.799C165.287 230.424 165.999 230.237 166.824 230.237C167.648 230.237 168.361 230.424 168.923 230.799C169.523 231.173 169.973 231.66 170.272 232.334C170.61 233.008 170.76 233.756 170.76 234.617V235.216H163.675V233.944H169.898L168.998 235.141V234.43C168.998 233.831 168.923 233.307 168.735 232.895C168.548 232.483 168.286 232.184 167.948 231.997C167.611 231.81 167.236 231.697 166.824 231.697C166.411 231.697 165.999 231.81 165.662 231.997C165.324 232.221 165.062 232.521 164.874 232.933C164.687 233.345 164.574 233.831 164.574 234.43V235.141C164.574 235.703 164.687 236.19 164.874 236.601C165.062 237.013 165.324 237.313 165.699 237.537C166.036 237.762 166.486 237.874 166.936 237.874C167.273 237.874 167.611 237.837 167.873 237.725C168.136 237.612 168.361 237.463 168.548 237.275C168.735 237.088 168.848 236.901 168.923 236.676L168.96 236.601H170.685V236.676C170.61 237.013 170.46 237.35 170.272 237.65C170.085 237.949 169.823 238.249 169.485 238.511C169.185 238.773 168.81 238.96 168.361 239.11C167.911 239.259 167.461 239.334 166.899 239.334C166.074 239.334 165.324 239.147 164.724 238.773Z" fill="white"/>
<path d="M173.684 238.997C173.159 238.81 172.747 238.511 172.447 238.136C172.147 237.762 171.96 237.313 171.885 236.789V236.714H173.647L173.684 236.789C173.797 237.126 173.984 237.388 174.321 237.575C174.621 237.762 175.034 237.837 175.521 237.837C176.083 237.837 176.496 237.725 176.833 237.5C177.17 237.275 177.32 236.976 177.32 236.564C177.32 236.152 177.17 235.853 176.871 235.628C176.571 235.404 176.121 235.329 175.521 235.329H174.246V234.018H175.484C176.008 234.018 176.421 233.906 176.683 233.719C176.946 233.532 177.095 233.232 177.095 232.858C177.095 232.483 176.946 232.184 176.683 231.997C176.421 231.772 176.046 231.697 175.558 231.697C175.109 231.697 174.696 231.81 174.396 231.997C174.097 232.184 173.909 232.446 173.834 232.783V232.82H172.11V232.746C172.185 232.221 172.372 231.772 172.672 231.398C172.972 231.023 173.347 230.724 173.872 230.537C174.359 230.35 174.959 230.237 175.596 230.237C176.271 230.237 176.833 230.35 177.32 230.537C177.808 230.724 178.183 231.023 178.445 231.36C178.707 231.735 178.82 232.147 178.82 232.633C178.82 233.082 178.67 233.494 178.408 233.831C178.145 234.168 177.77 234.393 177.283 234.505V234.58C177.658 234.655 177.995 234.767 178.258 234.954C178.52 235.141 178.707 235.366 178.857 235.628C179.007 235.89 179.082 236.19 179.082 236.527C179.082 237.051 178.932 237.537 178.632 237.949C178.333 238.361 177.92 238.66 177.395 238.885C176.871 239.11 176.233 239.222 175.521 239.222C174.771 239.334 174.171 239.222 173.684 238.997Z" fill="white"/>
<path d="M182.194 238.773C181.557 238.398 181.069 237.874 180.732 237.2C180.394 236.527 180.207 235.703 180.207 234.767C180.207 233.831 180.394 233.045 180.732 232.371C181.069 231.697 181.557 231.173 182.194 230.799C182.831 230.424 183.543 230.237 184.368 230.237C185.193 230.237 185.943 230.424 186.542 230.799C187.18 231.173 187.667 231.697 188.004 232.371C188.342 233.045 188.529 233.869 188.529 234.767C188.529 235.703 188.342 236.527 188.004 237.2C187.667 237.874 187.18 238.398 186.542 238.773C185.905 239.147 185.193 239.334 184.368 239.334C183.543 239.334 182.831 239.147 182.194 238.773ZM185.605 237.463C185.943 237.238 186.205 236.864 186.392 236.414C186.58 235.965 186.692 235.404 186.692 234.767C186.692 234.131 186.58 233.607 186.392 233.12C186.205 232.671 185.943 232.334 185.605 232.109C185.268 231.885 184.855 231.772 184.368 231.772C183.918 231.772 183.506 231.885 183.169 232.147C182.831 232.371 182.569 232.746 182.344 233.157C182.156 233.607 182.044 234.131 182.044 234.767C182.044 235.404 182.156 235.965 182.344 236.414C182.531 236.864 182.794 237.2 183.169 237.463C183.506 237.687 183.918 237.837 184.406 237.837C184.855 237.799 185.268 237.687 185.605 237.463Z" fill="white"/>
<path d="M190.066 230.424H197.526V239.146H195.727V231.846H191.866V239.146H190.066V230.424Z" fill="white"/>
<path d="M200.45 238.96C200 238.735 199.662 238.436 199.437 238.024C199.212 237.612 199.062 237.163 199.062 236.639C199.062 235.89 199.362 235.254 199.925 234.842C200.487 234.393 201.274 234.131 202.324 234.093L205.623 233.906V235.179L202.549 235.366C202.024 235.404 201.612 235.516 201.312 235.74C201.012 235.965 200.862 236.265 200.862 236.639C200.862 237.013 201.012 237.313 201.312 237.537C201.612 237.762 201.986 237.874 202.474 237.874C202.886 237.874 203.261 237.799 203.598 237.612C203.936 237.425 204.198 237.2 204.386 236.901C204.573 236.601 204.686 236.265 204.686 235.89V233.307C204.686 232.82 204.536 232.446 204.236 232.184C203.936 231.922 203.523 231.772 202.961 231.772C202.436 231.772 202.024 231.884 201.724 232.109C201.424 232.334 201.199 232.633 201.124 232.97V233.045H199.437V232.97C199.475 232.483 199.662 231.997 199.962 231.622C200.262 231.211 200.674 230.911 201.199 230.687C201.724 230.462 202.324 230.35 203.036 230.35C203.748 230.35 204.386 230.462 204.873 230.724C205.36 230.986 205.81 231.286 206.073 231.735C206.372 232.184 206.522 232.671 206.522 233.27V239.297H204.723V237.912H204.686C204.498 238.211 204.311 238.511 204.011 238.735C203.748 238.96 203.448 239.147 203.111 239.259C202.774 239.372 202.399 239.447 202.024 239.447C201.424 239.297 200.899 239.185 200.45 238.96Z" fill="white"/>
<path d="M209.933 238.772C209.296 238.398 208.846 237.874 208.509 237.2C208.171 236.526 208.021 235.703 208.021 234.804C208.021 233.868 208.209 233.082 208.546 232.408C208.884 231.734 209.371 231.21 209.971 230.836C210.571 230.462 211.32 230.274 212.145 230.274C212.895 230.274 213.532 230.424 214.094 230.686C214.657 230.986 215.069 231.36 215.369 231.809C215.669 232.259 215.856 232.783 215.894 233.344V233.419H214.169V233.344C214.094 232.932 213.869 232.558 213.532 232.221C213.195 231.922 212.745 231.734 212.145 231.734C211.695 231.734 211.283 231.847 210.946 232.109C210.608 232.371 210.346 232.708 210.158 233.157C209.971 233.606 209.858 234.13 209.858 234.767C209.858 235.403 209.971 235.927 210.158 236.414C210.346 236.863 210.608 237.2 210.983 237.462C211.32 237.687 211.733 237.837 212.183 237.837C212.745 237.837 213.195 237.687 213.532 237.387C213.869 237.088 214.094 236.713 214.207 236.264V236.189H215.931V236.264C215.856 236.863 215.669 237.387 215.331 237.837C214.994 238.286 214.582 238.66 214.019 238.96C213.495 239.222 212.857 239.371 212.145 239.371C211.283 239.334 210.571 239.147 209.933 238.772Z" fill="white"/>
<path d="M223.054 235.365H219.117V239.146H217.355V230.424H219.155V233.943H223.091V230.424H224.89V239.146H223.091V235.365H223.054Z" fill="white"/>
<path d="M228.377 238.773C227.74 238.398 227.253 237.874 226.915 237.2C226.578 236.527 226.391 235.703 226.391 234.767C226.391 233.831 226.578 233.045 226.915 232.371C227.253 231.697 227.74 231.173 228.377 230.799C229.015 230.424 229.727 230.237 230.552 230.237C231.376 230.237 232.126 230.424 232.726 230.799C233.363 231.173 233.851 231.697 234.188 232.371C234.525 233.045 234.713 233.869 234.713 234.767C234.713 235.703 234.525 236.527 234.188 237.2C233.851 237.874 233.363 238.398 232.726 238.773C232.089 239.147 231.376 239.334 230.552 239.334C229.727 239.334 228.977 239.147 228.377 238.773ZM231.789 237.463C232.126 237.238 232.389 236.864 232.576 236.414C232.763 235.965 232.876 235.404 232.876 234.767C232.876 234.131 232.763 233.607 232.576 233.12C232.389 232.671 232.126 232.334 231.789 232.109C231.451 231.885 231.039 231.772 230.552 231.772C230.102 231.772 229.689 231.885 229.352 232.147C229.015 232.371 228.752 232.746 228.527 233.157C228.34 233.607 228.227 234.131 228.227 234.767C228.227 235.404 228.34 235.965 228.527 236.414C228.715 236.864 228.977 237.2 229.352 237.463C229.689 237.687 230.102 237.837 230.589 237.837C231.039 237.799 231.414 237.687 231.789 237.463Z" fill="white"/>
<path d="M237.787 238.772C237.15 238.398 236.7 237.874 236.362 237.2C236.025 236.526 235.875 235.703 235.875 234.804C235.875 233.868 236.062 233.082 236.4 232.408C236.737 231.734 237.225 231.21 237.824 230.836C238.424 230.462 239.174 230.274 239.999 230.274C240.748 230.274 241.386 230.424 241.948 230.686C242.51 230.986 242.923 231.36 243.222 231.809C243.522 232.259 243.71 232.783 243.747 233.344V233.419H242.023V233.344C241.948 232.932 241.723 232.558 241.386 232.221C241.048 231.922 240.598 231.734 239.999 231.734C239.549 231.734 239.136 231.847 238.799 232.109C238.462 232.371 238.199 232.708 238.012 233.157C237.824 233.606 237.712 234.13 237.712 234.767C237.712 235.403 237.824 235.927 238.012 236.414C238.199 236.863 238.462 237.2 238.836 237.462C239.174 237.687 239.586 237.837 240.036 237.837C240.598 237.837 241.048 237.687 241.386 237.387C241.723 237.088 241.948 236.713 242.06 236.264V236.189H243.785V236.264C243.71 236.863 243.522 237.387 243.185 237.837C242.848 238.286 242.435 238.66 241.873 238.96C241.348 239.222 240.711 239.371 239.999 239.371C239.136 239.334 238.387 239.147 237.787 238.772Z" fill="white"/>
<path d="M251.62 231.846H248.884V239.146H247.084V231.846H244.348V230.424H251.62V231.846Z" fill="white"/>
<path d="M252.932 230.424H254.731V233.119H256.38C257.393 233.119 258.217 233.381 258.817 233.943C259.417 234.504 259.717 235.216 259.717 236.152C259.717 237.087 259.417 237.799 258.817 238.36C258.217 238.922 257.393 239.184 256.38 239.184H252.932V230.424ZM254.731 234.542V237.724H256.193C256.718 237.724 257.13 237.574 257.393 237.275C257.692 236.975 257.842 236.601 257.842 236.114C257.842 235.627 257.692 235.253 257.393 234.954C257.093 234.654 256.68 234.504 256.193 234.504H254.731V234.542Z" fill="white"/>
<path d="M261.366 238.96C261.141 238.735 261.066 238.473 261.066 238.174C261.066 237.874 261.179 237.612 261.366 237.387C261.591 237.163 261.854 237.088 262.154 237.088C262.453 237.088 262.716 237.2 262.941 237.387C263.166 237.612 263.241 237.837 263.241 238.174C263.241 238.473 263.128 238.735 262.941 238.96C262.716 239.184 262.491 239.259 262.154 239.259C261.854 239.259 261.591 239.147 261.366 238.96Z" fill="white"/>
<path d="M265.191 238.96C264.966 238.735 264.891 238.473 264.891 238.174C264.891 237.874 265.003 237.612 265.191 237.387C265.415 237.163 265.678 237.088 265.978 237.088C266.278 237.088 266.54 237.2 266.765 237.387C266.99 237.612 267.065 237.837 267.065 238.174C267.065 238.473 266.952 238.735 266.765 238.96C266.54 239.184 266.315 239.259 265.978 239.259C265.64 239.259 265.378 239.147 265.191 238.96Z" fill="white"/>
<path d="M268.976 238.96C268.751 238.735 268.676 238.473 268.676 238.174C268.676 237.874 268.788 237.612 268.976 237.387C269.201 237.163 269.463 237.088 269.763 237.088C270.063 237.088 270.325 237.2 270.55 237.387C270.775 237.612 270.85 237.837 270.85 238.174C270.85 238.473 270.738 238.735 270.55 238.96C270.325 239.184 270.1 239.259 269.763 239.259C269.463 239.259 269.201 239.147 268.976 238.96Z" fill="white"/>
<path d="M35.0187 240.944L26.959 232.895L35.0187 224.809L36.0683 225.894L29.0583 232.895L36.0683 239.895L35.0187 240.944Z" fill="white"/>
<path d="M42.7777 232.146H28.0078V233.644H42.7777V232.146Z" fill="white"/>
<path d="M284.684 237.275C281.047 237.275 278.086 234.318 278.086 230.686C278.086 227.055 281.047 224.098 284.684 224.098C288.32 224.098 291.281 227.055 291.281 230.686C291.281 234.318 288.32 237.275 284.684 237.275ZM284.684 225.558C281.872 225.558 279.585 227.841 279.585 230.649C279.585 233.457 281.872 235.74 284.684 235.74C287.495 235.74 289.782 233.457 289.782 230.649C289.782 227.841 287.495 225.558 284.684 225.558Z" fill="white"/>
<path d="M289.568 234.012L288.508 235.071L294.949 241.504L296.009 240.445L289.568 234.012Z" fill="white"/>
<path d="M100.059 272.54H97.1348V271.268H104.445V272.54H101.521V280.776H100.021V272.54H100.059Z" fill="white"/>
<path d="M104.97 280.439C104.483 280.14 104.108 279.728 103.846 279.204C103.583 278.68 103.471 278.043 103.471 277.294C103.471 276.583 103.621 275.947 103.883 275.385C104.145 274.824 104.52 274.412 105.008 274.112C105.495 273.813 106.057 273.663 106.695 273.663C107.332 273.663 107.894 273.813 108.381 274.112C108.869 274.412 109.206 274.824 109.469 275.348C109.731 275.872 109.843 276.471 109.843 277.182V277.669H104.22V276.658H109.169L108.456 277.594V277.032C108.456 276.546 108.381 276.134 108.232 275.834C108.082 275.535 107.894 275.273 107.632 275.123C107.369 274.973 107.069 274.898 106.732 274.898C106.395 274.898 106.095 274.973 105.832 275.161C105.57 275.348 105.345 275.572 105.195 275.909C105.045 276.246 104.97 276.621 104.97 277.107V277.669C104.97 278.118 105.045 278.492 105.195 278.829C105.345 279.166 105.57 279.391 105.832 279.578C106.095 279.765 106.432 279.84 106.845 279.84C107.144 279.84 107.369 279.803 107.594 279.728C107.819 279.653 108.007 279.541 108.119 279.391C108.232 279.241 108.344 279.091 108.419 278.904L108.456 278.867H109.806V278.942C109.731 279.204 109.656 279.466 109.469 279.728C109.281 279.99 109.094 280.214 108.869 280.402C108.644 280.589 108.307 280.776 107.969 280.888C107.632 281.001 107.257 281.075 106.807 281.075C106.057 280.888 105.458 280.739 104.97 280.439Z" fill="white"/>
<path d="M111.716 280.627C111.379 280.439 111.117 280.215 110.892 279.878C110.667 279.541 110.592 279.204 110.592 278.792C110.592 278.193 110.817 277.707 111.267 277.37C111.716 277.033 112.354 276.808 113.178 276.771L115.802 276.621V277.632L113.366 277.781C112.953 277.819 112.616 277.894 112.391 278.081C112.166 278.268 112.054 278.493 112.054 278.792C112.054 279.092 112.166 279.316 112.391 279.503C112.616 279.691 112.916 279.766 113.328 279.766C113.666 279.766 113.966 279.691 114.228 279.578C114.49 279.466 114.715 279.241 114.865 279.017C115.015 278.792 115.09 278.493 115.09 278.193V276.134C115.09 275.76 114.978 275.46 114.753 275.236C114.528 275.011 114.191 274.899 113.741 274.899C113.328 274.899 112.991 274.974 112.766 275.161C112.541 275.348 112.354 275.573 112.316 275.835V275.91H110.892V275.835C110.929 275.423 111.079 275.086 111.304 274.749C111.529 274.412 111.866 274.188 112.279 274C112.691 273.813 113.178 273.738 113.741 273.738C114.303 273.738 114.79 273.851 115.203 274.038C115.615 274.225 115.952 274.487 116.177 274.824C116.402 275.161 116.515 275.573 116.515 276.022V280.776H115.09V279.691H115.053C114.903 279.953 114.753 280.14 114.528 280.327C114.303 280.514 114.078 280.664 113.816 280.739C113.553 280.814 113.253 280.889 112.953 280.889C112.466 280.889 112.054 280.776 111.716 280.627Z" fill="white"/>
<path d="M117.902 273.851H119.327V274.936H119.364C119.514 274.562 119.739 274.262 120.114 274.075C120.489 273.888 120.864 273.738 121.314 273.738C121.614 273.738 121.913 273.776 122.176 273.888C122.438 274 122.663 274.15 122.851 274.337C123.038 274.524 123.188 274.786 123.263 275.086H123.3C123.413 274.786 123.6 274.562 123.788 274.375C123.975 274.188 124.238 274 124.538 273.888C124.837 273.776 125.137 273.738 125.475 273.738C125.925 273.738 126.337 273.851 126.674 274.038C127.012 274.225 127.274 274.487 127.462 274.824C127.649 275.161 127.761 275.573 127.761 276.022V280.776H126.337V276.359C126.337 275.91 126.224 275.573 126 275.311C125.775 275.049 125.437 274.936 125.025 274.936C124.725 274.936 124.5 275.011 124.275 275.123C124.05 275.236 123.9 275.423 123.788 275.648C123.675 275.872 123.6 276.134 123.6 276.434V280.776H122.213V276.247C122.213 275.835 122.101 275.535 121.876 275.273C121.651 275.011 121.314 274.936 120.901 274.936C120.639 274.936 120.376 275.011 120.152 275.123C119.927 275.236 119.777 275.423 119.627 275.685C119.477 275.947 119.439 276.172 119.439 276.471V280.739H118.015V273.851H117.902Z" fill="white"/>
<path d="M133.309 280.589C132.784 280.365 132.334 280.065 132.035 279.653C131.735 279.242 131.547 278.755 131.51 278.231V278.118H132.934V278.193C132.972 278.493 133.084 278.717 133.309 278.942C133.534 279.167 133.759 279.316 134.096 279.429C134.434 279.541 134.809 279.616 135.221 279.616C135.633 279.616 136.008 279.541 136.308 279.429C136.608 279.316 136.87 279.129 137.02 278.905C137.17 278.68 137.283 278.418 137.283 278.118C137.283 277.744 137.133 277.445 136.87 277.22C136.608 276.995 136.158 276.808 135.521 276.658L134.471 276.434C133.534 276.247 132.859 275.91 132.372 275.498C131.885 275.086 131.697 274.487 131.697 273.776C131.697 273.252 131.847 272.765 132.147 272.353C132.447 271.941 132.859 271.605 133.384 271.38C133.909 271.155 134.509 271.043 135.183 271.043C135.858 271.043 136.421 271.155 136.945 271.38C137.47 271.605 137.845 271.904 138.145 272.316C138.445 272.728 138.595 273.177 138.632 273.738V273.851H137.208V273.776C137.17 273.476 137.058 273.214 136.87 273.027C136.683 272.84 136.458 272.653 136.158 272.54C135.858 272.428 135.558 272.391 135.146 272.391C134.771 272.391 134.396 272.466 134.134 272.578C133.871 272.69 133.609 272.84 133.459 273.065C133.309 273.289 133.234 273.514 133.234 273.813C133.234 274.15 133.384 274.45 133.647 274.674C133.909 274.899 134.359 275.086 134.959 275.198L136.008 275.423C136.983 275.648 137.695 275.947 138.145 276.359C138.595 276.771 138.82 277.37 138.82 278.081C138.82 278.643 138.67 279.167 138.37 279.578C138.07 279.99 137.658 280.327 137.133 280.552C136.608 280.776 135.933 280.889 135.183 280.889C134.471 280.926 133.834 280.814 133.309 280.589Z" fill="white"/>
<path d="M141.144 280.439C140.657 280.14 140.282 279.728 140.019 279.204C139.757 278.68 139.645 278.043 139.645 277.294C139.645 276.583 139.794 275.947 140.057 275.385C140.319 274.824 140.694 274.412 141.181 274.112C141.669 273.813 142.231 273.663 142.868 273.663C143.506 273.663 144.068 273.813 144.555 274.112C145.043 274.412 145.38 274.824 145.642 275.348C145.905 275.872 146.017 276.471 146.017 277.182V277.669H140.394V276.658H145.343L144.63 277.594V277.032C144.63 276.546 144.555 276.134 144.405 275.834C144.255 275.535 144.068 275.273 143.806 275.123C143.543 274.973 143.243 274.898 142.906 274.898C142.569 274.898 142.269 274.973 142.006 275.161C141.744 275.348 141.519 275.572 141.369 275.909C141.219 276.246 141.144 276.621 141.144 277.107V277.669C141.144 278.118 141.219 278.492 141.369 278.829C141.519 279.166 141.744 279.391 142.006 279.578C142.269 279.765 142.606 279.84 143.018 279.84C143.318 279.84 143.543 279.803 143.768 279.728C143.993 279.653 144.18 279.541 144.293 279.391C144.405 279.241 144.518 279.091 144.593 278.904L144.63 278.867H145.98V278.942C145.905 279.204 145.83 279.466 145.642 279.728C145.455 279.99 145.268 280.214 145.043 280.402C144.818 280.589 144.48 280.776 144.143 280.888C143.806 281.001 143.431 281.075 142.981 281.075C142.231 280.888 141.631 280.739 141.144 280.439Z" fill="white"/>
<path d="M148.305 280.44C147.817 280.14 147.442 279.728 147.18 279.204C146.918 278.68 146.768 278.044 146.768 277.295C146.768 276.546 146.918 275.91 147.18 275.386C147.442 274.862 147.817 274.45 148.305 274.15C148.792 273.851 149.354 273.701 150.029 273.701C150.629 273.701 151.154 273.813 151.566 274.038C151.978 274.263 152.353 274.562 152.578 274.937C152.803 275.311 152.953 275.723 152.99 276.135V276.172H151.641V276.097C151.566 275.76 151.378 275.461 151.116 275.236C150.854 275.011 150.479 274.862 150.029 274.862C149.654 274.862 149.354 274.974 149.054 275.161C148.754 275.348 148.567 275.648 148.417 275.985C148.267 276.322 148.192 276.771 148.192 277.258C148.192 277.744 148.267 278.194 148.417 278.568C148.567 278.942 148.792 279.204 149.054 279.391C149.317 279.579 149.654 279.691 150.029 279.691C150.479 279.691 150.816 279.579 151.079 279.354C151.341 279.129 151.528 278.83 151.603 278.456V278.418H152.99V278.456C152.953 278.905 152.766 279.317 152.503 279.691C152.241 280.065 151.903 280.365 151.453 280.589C151.004 280.814 150.516 280.926 149.991 280.926C149.392 280.889 148.792 280.739 148.305 280.44Z" fill="white"/>
<path d="M155.127 280.589C154.752 280.364 154.489 280.065 154.302 279.69C154.114 279.316 154.002 278.829 154.002 278.305V273.813H155.426V278.006C155.426 278.53 155.539 278.942 155.801 279.204C156.064 279.466 156.401 279.615 156.888 279.615C157.226 279.615 157.526 279.541 157.751 279.391C157.976 279.241 158.2 279.016 158.313 278.754C158.425 278.492 158.5 278.155 158.5 277.819V273.775H159.925V280.701H158.5V279.653H158.463C158.275 279.99 158.013 280.289 157.676 280.514C157.338 280.739 156.888 280.851 156.364 280.851C155.914 280.888 155.464 280.776 155.127 280.589Z" fill="white"/>
<path d="M161.387 273.851H162.774V275.011H162.811C162.924 274.599 163.111 274.3 163.411 274.075C163.711 273.851 164.048 273.738 164.461 273.738C164.573 273.738 164.648 273.738 164.761 273.738C164.873 273.738 164.91 273.776 164.985 273.776V275.086C164.91 275.049 164.836 275.049 164.723 275.049C164.611 275.049 164.498 275.011 164.348 275.011C164.048 275.011 163.786 275.086 163.561 275.198C163.336 275.311 163.149 275.498 163.036 275.76C162.924 276.022 162.849 276.284 162.849 276.621V280.776H161.424V273.851H161.387Z" fill="white"/>
<path d="M166.036 272.54C165.886 272.391 165.773 272.203 165.773 271.979C165.773 271.754 165.848 271.567 166.036 271.38C166.223 271.193 166.411 271.155 166.636 271.155C166.861 271.155 167.048 271.23 167.235 271.38C167.423 271.53 167.46 271.717 167.46 271.979C167.46 272.203 167.385 272.391 167.235 272.54C167.085 272.69 166.861 272.765 166.636 272.765C166.373 272.765 166.186 272.69 166.036 272.54ZM165.886 273.851H167.31V280.776H165.886V273.851Z" fill="white"/>
<path d="M169.71 280.44C169.373 280.14 169.223 279.616 169.223 278.942V274.974H168.211V273.851H169.223V272.017H170.685V273.814H171.997V274.937H170.685V278.83C170.685 279.167 170.76 279.429 170.91 279.541C171.06 279.654 171.285 279.728 171.585 279.728C171.66 279.728 171.735 279.728 171.81 279.728C171.885 279.728 171.922 279.728 171.997 279.728V280.814C171.922 280.814 171.81 280.852 171.697 280.852C171.585 280.852 171.435 280.889 171.285 280.889C170.535 280.889 170.048 280.739 169.71 280.44Z" fill="white"/>
<path d="M173.533 283.06C173.383 283.06 173.271 283.023 173.196 283.023V281.9C173.233 281.9 173.308 281.9 173.383 281.937C173.458 281.975 173.571 281.937 173.646 281.937C173.983 281.937 174.246 281.862 174.47 281.75C174.695 281.638 174.845 281.413 174.958 281.076L175.07 280.739L172.559 273.813H174.096L175.932 279.766L175.67 279.466H176.007L175.745 279.766L177.582 273.813H179.081L176.495 281.039C176.307 281.525 176.12 281.9 175.895 282.199C175.67 282.499 175.37 282.723 175.07 282.836C174.77 282.948 174.358 283.023 173.908 283.023C173.796 283.06 173.683 283.06 173.533 283.06Z" fill="white"/>
<path d="M99.0845 299.382C98.5597 299.158 98.1099 298.858 97.81 298.446C97.5101 298.034 97.3226 297.548 97.2852 297.024V296.911H98.7097V296.986C98.7471 297.286 98.8596 297.51 99.0845 297.735C99.3095 297.96 99.5344 298.109 99.8718 298.222C100.209 298.334 100.584 298.409 100.996 298.409C101.409 298.409 101.784 298.334 102.083 298.222C102.383 298.109 102.646 297.922 102.796 297.698C102.946 297.473 103.058 297.211 103.058 296.911C103.058 296.537 102.908 296.238 102.646 296.013C102.383 295.788 101.934 295.601 101.296 295.451L100.247 295.227C99.3095 295.04 98.6347 294.703 98.1474 294.291C97.66 293.879 97.4726 293.28 97.4726 292.569C97.4726 292.045 97.6225 291.558 97.9224 291.146C98.2223 290.734 98.6347 290.397 99.1595 290.173C99.6843 289.948 100.284 289.836 100.959 289.836C101.634 289.836 102.196 289.948 102.721 290.173C103.246 290.397 103.62 290.697 103.92 291.109C104.22 291.521 104.37 291.97 104.408 292.531V292.644H102.983V292.569C102.946 292.269 102.833 292.007 102.646 291.82C102.458 291.633 102.233 291.446 101.934 291.333C101.634 291.221 101.334 291.184 100.921 291.184C100.547 291.184 100.172 291.259 99.9092 291.371C99.6468 291.483 99.3844 291.633 99.2345 291.857C99.0845 292.082 99.0095 292.307 99.0095 292.606C99.0095 292.943 99.1595 293.243 99.4219 293.467C99.6843 293.692 100.134 293.879 100.734 293.991L101.784 294.216C102.758 294.441 103.471 294.74 103.92 295.152C104.37 295.564 104.595 296.163 104.595 296.874C104.595 297.436 104.445 297.96 104.145 298.371C103.845 298.783 103.433 299.12 102.908 299.345C102.383 299.569 101.709 299.682 100.959 299.682C100.209 299.719 99.6093 299.607 99.0845 299.382Z" fill="white"/>
<path d="M106.919 299.27C106.432 298.971 106.057 298.559 105.795 298.035C105.532 297.511 105.42 296.874 105.42 296.125C105.42 295.414 105.57 294.778 105.832 294.216C106.095 293.655 106.47 293.243 106.957 292.943C107.444 292.644 108.007 292.494 108.644 292.494C109.281 292.494 109.843 292.644 110.331 292.943C110.818 293.243 111.155 293.655 111.418 294.179C111.68 294.703 111.793 295.302 111.793 296.013V296.5H106.17V295.489H111.118L110.406 296.425V295.863C110.406 295.377 110.331 294.965 110.181 294.665C110.031 294.366 109.843 294.104 109.581 293.954C109.319 293.804 109.019 293.73 108.681 293.73C108.344 293.73 108.044 293.804 107.782 293.992C107.519 294.179 107.294 294.403 107.144 294.74C106.994 295.077 106.919 295.452 106.919 295.938V296.5C106.919 296.949 106.994 297.323 107.144 297.66C107.294 297.997 107.519 298.222 107.782 298.409C108.044 298.596 108.381 298.671 108.794 298.671C109.094 298.671 109.319 298.634 109.543 298.559C109.768 298.484 109.956 298.372 110.068 298.222C110.181 298.072 110.293 297.922 110.368 297.735L110.406 297.698H111.755V297.773C111.68 298.035 111.605 298.297 111.418 298.559C111.23 298.821 111.043 299.045 110.818 299.233C110.593 299.42 110.256 299.607 109.918 299.719C109.581 299.832 109.206 299.907 108.756 299.907C108.007 299.682 107.407 299.57 106.919 299.27Z" fill="white"/>
<path d="M114.08 299.27C113.593 298.97 113.218 298.559 112.955 298.034C112.693 297.51 112.543 296.874 112.543 296.125C112.543 295.376 112.693 294.74 112.955 294.216C113.218 293.692 113.593 293.28 114.08 292.98C114.567 292.681 115.13 292.531 115.804 292.531C116.404 292.531 116.929 292.644 117.341 292.868C117.754 293.093 118.129 293.392 118.353 293.767C118.578 294.141 118.728 294.553 118.766 294.965V295.002H117.416V294.927C117.341 294.59 117.154 294.291 116.891 294.066C116.629 293.842 116.254 293.692 115.804 293.692C115.429 293.692 115.13 293.804 114.83 293.991C114.53 294.178 114.342 294.478 114.192 294.815C114.042 295.152 113.967 295.601 113.967 296.088C113.967 296.574 114.042 297.024 114.192 297.398C114.342 297.772 114.567 298.034 114.83 298.222C115.092 298.409 115.429 298.521 115.804 298.521C116.254 298.521 116.592 298.409 116.854 298.184C117.116 297.96 117.304 297.66 117.379 297.286V297.248H118.766V297.286C118.728 297.735 118.541 298.147 118.279 298.521C118.016 298.895 117.679 299.195 117.229 299.42C116.779 299.644 116.292 299.756 115.767 299.756C115.13 299.682 114.567 299.569 114.08 299.27Z" fill="white"/>
<path d="M120.865 299.382C120.49 299.157 120.228 298.858 120.04 298.483C119.853 298.109 119.74 297.622 119.74 297.098V292.606H121.165V296.799C121.165 297.323 121.277 297.735 121.54 297.997C121.802 298.259 122.139 298.408 122.627 298.408C122.964 298.408 123.264 298.334 123.489 298.184C123.714 298.034 123.939 297.809 124.051 297.547C124.164 297.285 124.239 296.948 124.239 296.611V292.568H125.663V299.494H124.239V298.446H124.201C124.014 298.783 123.751 299.082 123.414 299.307C123.077 299.532 122.627 299.644 122.102 299.644C121.652 299.681 121.24 299.606 120.865 299.382Z" fill="white"/>
<path d="M127.162 292.644H128.549V293.804H128.587C128.699 293.392 128.887 293.093 129.186 292.868C129.486 292.644 129.824 292.531 130.236 292.531C130.349 292.531 130.423 292.531 130.536 292.531C130.648 292.531 130.686 292.569 130.761 292.569V293.879C130.686 293.842 130.611 293.842 130.498 293.842C130.386 293.842 130.274 293.804 130.124 293.804C129.824 293.804 129.561 293.879 129.336 293.991C129.111 294.104 128.924 294.291 128.812 294.553C128.699 294.815 128.624 295.077 128.624 295.414V299.569H127.2V292.644H127.162Z" fill="white"/>
<path d="M131.774 291.333C131.624 291.184 131.512 290.996 131.512 290.772C131.512 290.547 131.587 290.36 131.774 290.173C131.924 290.023 132.149 289.948 132.374 289.948C132.599 289.948 132.786 290.023 132.974 290.173C133.161 290.323 133.199 290.51 133.199 290.772C133.199 290.996 133.124 291.184 132.974 291.333C132.824 291.483 132.599 291.558 132.374 291.558C132.149 291.558 131.962 291.483 131.774 291.333ZM131.662 292.644H133.086V299.569H131.662V292.644Z" fill="white"/>
<path d="M135.447 299.232C135.109 298.933 134.959 298.409 134.959 297.735V293.767H133.947V292.644H134.959V290.847H136.421V292.644H137.733V293.767H136.421V297.66C136.421 297.997 136.496 298.259 136.646 298.371C136.796 298.484 137.021 298.559 137.321 298.559C137.396 298.559 137.471 298.559 137.546 298.559C137.621 298.559 137.658 298.559 137.733 298.559V299.644C137.658 299.644 137.546 299.682 137.434 299.682C137.321 299.682 137.171 299.719 137.021 299.719C136.309 299.682 135.784 299.532 135.447 299.232Z" fill="white"/>
<path d="M139.309 301.853C139.159 301.853 139.046 301.816 138.971 301.816V300.693C139.009 300.693 139.084 300.693 139.159 300.73C139.234 300.768 139.346 300.73 139.421 300.73C139.758 300.73 140.021 300.655 140.246 300.543C140.471 300.431 140.621 300.206 140.733 299.869L140.846 299.532L138.334 292.606H139.871L141.708 298.559L141.445 298.259H141.783L141.52 298.559L143.357 292.606H144.857L142.27 299.832C142.083 300.318 141.895 300.693 141.67 300.992C141.445 301.292 141.146 301.516 140.846 301.629C140.546 301.741 140.133 301.816 139.684 301.816C139.571 301.891 139.421 301.853 139.309 301.853Z" fill="white"/>
<g opacity="0.7">
<g opacity="0.7">
<path opacity="0.7" d="M98.4476 316.94C98.3351 316.94 98.2976 316.903 98.2226 316.865V315.817C98.2976 315.817 98.3726 315.855 98.4476 315.855C98.5225 315.855 98.635 315.855 98.7475 315.855C98.9724 315.855 99.1973 315.817 99.3847 315.742C99.5722 315.667 99.7221 315.555 99.9096 315.405C100.097 315.256 100.209 315.068 100.322 314.844L97.0605 307.356H98.3351L100.884 313.496H100.997L103.471 307.356H104.708L101.784 314.132C101.484 314.844 101.184 315.405 100.922 315.78C100.659 316.154 100.322 316.491 99.9845 316.641C99.6472 316.79 99.2348 316.903 98.785 316.903C98.635 316.978 98.5225 316.978 98.4476 316.94Z" fill="white"/>
<path opacity="0.7" d="M106.169 316.603C105.682 316.304 105.307 315.892 105.082 315.368C104.857 314.844 104.707 314.207 104.707 313.496C104.707 312.785 104.857 312.148 105.119 311.624C105.382 311.1 105.757 310.688 106.244 310.389C106.731 310.089 107.256 309.939 107.893 309.939C108.456 309.939 108.943 310.052 109.355 310.276C109.768 310.501 110.068 310.8 110.33 311.137C110.592 311.474 110.705 311.849 110.742 312.261V312.298H109.618V312.261C109.543 311.924 109.355 311.624 109.056 311.362C108.756 311.1 108.381 310.988 107.856 310.988C107.444 310.988 107.106 311.1 106.806 311.287C106.506 311.474 106.281 311.774 106.094 312.186C105.907 312.597 105.832 313.009 105.832 313.533C105.832 314.057 105.907 314.507 106.094 314.881C106.281 315.255 106.506 315.555 106.806 315.742C107.106 315.929 107.444 316.042 107.856 316.042C108.343 316.042 108.718 315.929 108.981 315.667C109.243 315.405 109.468 315.106 109.58 314.731V314.694H110.705V314.731C110.63 315.181 110.48 315.555 110.218 315.892C109.955 316.229 109.618 316.528 109.205 316.715C108.793 316.903 108.343 317.015 107.818 317.015C107.219 317.052 106.656 316.903 106.169 316.603Z" fill="white"/>
<path opacity="0.7" d="M116.779 311.025H114.567V316.94H113.405V311.025H111.193V310.089H116.741V311.025H116.779Z" fill="white"/>
<path opacity="0.7" d="M118.39 316.791C118.052 316.603 117.79 316.379 117.603 316.079C117.415 315.78 117.303 315.405 117.303 314.994C117.303 314.395 117.528 313.945 117.94 313.609C118.352 313.272 118.99 313.047 119.777 313.01L122.326 312.86V313.758L119.927 313.908C119.477 313.945 119.102 314.058 118.877 314.245C118.652 314.432 118.502 314.694 118.502 315.031C118.502 315.368 118.615 315.63 118.877 315.817C119.14 316.004 119.439 316.117 119.852 316.117C120.227 316.117 120.527 316.042 120.827 315.892C121.126 315.742 121.351 315.518 121.501 315.256C121.651 314.994 121.764 314.694 121.764 314.357V312.336C121.764 311.924 121.651 311.587 121.389 311.362C121.126 311.138 120.752 310.988 120.264 310.988C119.814 310.988 119.477 311.1 119.215 311.287C118.952 311.475 118.765 311.737 118.727 312.036V312.111H117.603V312.036C117.64 311.662 117.753 311.325 117.977 311.025C118.202 310.726 118.502 310.464 118.915 310.277C119.327 310.09 119.777 310.015 120.302 310.015C120.827 310.015 121.314 310.09 121.689 310.277C122.064 310.464 122.401 310.726 122.588 311.063C122.776 311.4 122.926 311.812 122.926 312.261V316.978H121.764V315.855H121.726C121.576 316.117 121.426 316.341 121.201 316.491C120.976 316.641 120.752 316.828 120.452 316.94C120.152 317.053 119.889 317.09 119.589 317.09C119.14 317.053 118.727 316.94 118.39 316.791Z" fill="white"/>
<path opacity="0.7" d="M129 313.833H125.664V316.903H124.502V310.052H125.664V312.859H129V310.052H130.163V316.903H129V313.833Z" fill="white"/>
<path opacity="0.7" d="M132.935 316.603C132.448 316.304 132.073 315.892 131.811 315.368C131.548 314.844 131.398 314.207 131.398 313.496C131.398 312.785 131.548 312.148 131.811 311.624C132.073 311.1 132.448 310.688 132.935 310.389C133.423 310.089 133.948 309.939 134.585 309.939C135.222 309.939 135.784 310.089 136.234 310.389C136.684 310.688 137.096 311.1 137.359 311.624C137.621 312.148 137.771 312.785 137.771 313.496C137.771 314.207 137.621 314.844 137.359 315.368C137.096 315.892 136.722 316.304 136.234 316.603C135.747 316.903 135.222 317.052 134.585 317.052C133.948 317.052 133.385 316.903 132.935 316.603ZM135.634 315.742C135.934 315.555 136.159 315.255 136.309 314.881C136.459 314.507 136.572 314.057 136.572 313.496C136.572 312.972 136.497 312.523 136.309 312.111C136.122 311.699 135.897 311.437 135.597 311.25C135.297 311.063 134.96 310.95 134.547 310.95C134.135 310.95 133.798 311.063 133.498 311.25C133.198 311.437 132.973 311.736 132.785 312.111C132.598 312.485 132.523 312.934 132.523 313.458C132.523 313.983 132.598 314.469 132.785 314.844C132.973 315.218 133.198 315.517 133.498 315.705C133.798 315.892 134.135 316.004 134.547 316.004C134.96 316.004 135.335 315.929 135.634 315.742Z" fill="white"/>
<path opacity="0.7" d="M139.008 310.052H141.932C142.569 310.052 143.094 310.201 143.431 310.538C143.769 310.875 143.994 311.287 143.994 311.811C143.994 312.148 143.881 312.485 143.656 312.747C143.431 313.009 143.169 313.196 142.869 313.271V313.309C143.169 313.346 143.394 313.421 143.619 313.571C143.844 313.721 143.994 313.908 144.106 314.095C144.219 314.282 144.293 314.582 144.293 314.844C144.293 315.443 144.069 315.929 143.656 316.266C143.244 316.603 142.644 316.79 141.932 316.79H139.008V310.052ZM141.632 312.934C142.044 312.934 142.382 312.859 142.607 312.71C142.831 312.56 142.906 312.298 142.906 311.961C142.906 311.662 142.831 311.437 142.644 311.25C142.457 311.063 142.194 311.025 141.819 311.025H140.207V312.934H141.632ZM141.894 315.967C142.307 315.967 142.644 315.892 142.831 315.705C143.019 315.517 143.169 315.255 143.169 314.918C143.169 314.582 143.056 314.319 142.794 314.132C142.532 313.945 142.194 313.87 141.669 313.87H140.17V315.967H141.894Z" fill="white"/>
<path opacity="0.7" d="M145.645 310.052H146.807V315.143H147.369L146.582 315.555L150.293 310.052H151.418V316.903H150.255V311.811H149.693L150.48 311.399L146.769 316.903H145.645V310.052Z" fill="white"/>
<path opacity="0.7" d="M158.015 311.025H155.804V316.94H154.641V311.025H152.43V310.089H157.978V311.025H158.015Z" fill="white"/>
<path opacity="0.7" d="M159.064 310.052H160.227V312.223H161.501C162.288 312.223 162.926 312.448 163.375 312.859C163.825 313.271 164.088 313.833 164.088 314.544C164.088 315.255 163.863 315.817 163.375 316.229C162.888 316.641 162.288 316.865 161.501 316.865H159.064V310.052ZM160.227 313.196V315.967H161.501C161.951 315.967 162.288 315.854 162.551 315.592C162.813 315.33 162.926 314.993 162.926 314.582C162.926 314.17 162.813 313.833 162.551 313.571C162.288 313.309 161.951 313.196 161.501 313.196H160.227Z" fill="white"/>
</g>
</g>
<g opacity="0.7">
<g opacity="0.7">
<path opacity="0.7" d="M152.766 290.061H153.965V299.569H152.766V290.061ZM153.365 295.114H155.84C156.514 295.114 157.039 294.927 157.414 294.59C157.789 294.253 157.976 293.767 157.976 293.13C157.976 292.494 157.789 292.007 157.414 291.67C157.039 291.333 156.514 291.146 155.84 291.146H153.365V290.098H156.177C156.777 290.098 157.302 290.21 157.751 290.472C158.201 290.734 158.576 291.071 158.839 291.521C159.101 291.97 159.213 292.494 159.213 293.093C159.213 293.692 159.101 294.216 158.839 294.703C158.576 295.189 158.201 295.526 157.751 295.788C157.302 296.05 156.777 296.163 156.177 296.163H153.365V295.114Z" fill="white"/>
<path opacity="0.7" d="M161.312 299.421C160.974 299.233 160.712 299.009 160.525 298.709C160.337 298.41 160.225 298.035 160.225 297.624C160.225 297.025 160.45 296.575 160.862 296.238C161.274 295.902 161.912 295.677 162.699 295.639L165.248 295.49V296.388L162.849 296.538C162.399 296.575 162.024 296.688 161.799 296.875C161.574 297.062 161.424 297.324 161.424 297.661C161.424 297.998 161.537 298.26 161.799 298.447C162.061 298.634 162.361 298.747 162.774 298.747C163.149 298.747 163.449 298.672 163.748 298.522C164.048 298.372 164.273 298.148 164.423 297.886C164.573 297.624 164.686 297.324 164.686 296.987V294.966C164.686 294.554 164.573 294.217 164.311 293.992C164.048 293.768 163.673 293.618 163.186 293.618C162.736 293.618 162.399 293.73 162.136 293.917C161.874 294.105 161.687 294.367 161.649 294.666V294.741H160.525V294.666C160.562 294.292 160.674 293.955 160.899 293.655C161.124 293.356 161.424 293.094 161.837 292.907C162.249 292.719 162.699 292.645 163.224 292.645C163.748 292.645 164.236 292.719 164.611 292.907C164.985 293.094 165.323 293.356 165.51 293.693C165.698 294.03 165.848 294.441 165.848 294.891V299.608H164.686V298.485H164.648C164.498 298.747 164.348 298.971 164.123 299.121C163.898 299.271 163.673 299.458 163.374 299.57C163.074 299.683 162.811 299.72 162.511 299.72C162.061 299.683 161.687 299.608 161.312 299.421Z" fill="white"/>
<path opacity="0.7" d="M167.948 298.634C167.385 297.923 167.123 296.912 167.123 295.564C167.123 294.291 167.236 293.28 167.498 292.494C167.76 291.708 168.135 291.109 168.66 290.735C169.185 290.36 169.897 290.136 170.797 290.098L171.322 290.061C171.659 290.061 171.996 290.023 172.334 289.949C172.671 289.874 172.934 289.799 173.121 289.687V290.697C173.009 290.81 172.784 290.884 172.484 290.959C172.184 291.034 171.809 291.072 171.397 291.109L170.872 291.147C170.234 291.184 169.747 291.296 169.372 291.483C168.997 291.671 168.735 292.008 168.548 292.419C168.36 292.831 168.21 293.355 168.135 294.029V294.104H168.173C168.398 293.692 168.735 293.393 169.147 293.168C169.56 292.943 170.047 292.869 170.572 292.869C171.209 292.869 171.734 293.018 172.184 293.28C172.634 293.542 172.971 293.954 173.233 294.441C173.496 294.928 173.608 295.527 173.608 296.2C173.608 296.912 173.496 297.548 173.233 298.072C172.971 298.596 172.596 299.008 172.146 299.27C171.696 299.532 171.097 299.682 170.422 299.682C169.297 299.682 168.51 299.345 167.948 298.634ZM171.434 298.409C171.734 298.222 171.959 297.923 172.109 297.586C172.259 297.249 172.334 296.762 172.334 296.238C172.334 295.751 172.259 295.339 172.109 294.965C171.959 294.591 171.734 294.366 171.434 294.179C171.134 293.992 170.759 293.917 170.347 293.917C169.935 293.917 169.56 293.992 169.26 294.179C168.96 294.366 168.735 294.628 168.548 294.965C168.36 295.302 168.323 295.751 168.323 296.238C168.323 296.762 168.398 297.211 168.548 297.586C168.698 297.96 168.922 298.222 169.26 298.409C169.597 298.596 169.935 298.709 170.347 298.709C170.759 298.709 171.134 298.596 171.434 298.409Z" fill="white"/>
<path opacity="0.7" d="M176.008 299.27C175.52 298.971 175.145 298.559 174.883 298.035C174.621 297.511 174.471 296.874 174.471 296.163C174.471 295.452 174.621 294.815 174.883 294.291C175.145 293.767 175.52 293.355 176.008 293.056C176.495 292.756 177.02 292.606 177.657 292.606C178.294 292.606 178.857 292.756 179.307 293.056C179.756 293.355 180.169 293.767 180.431 294.291C180.694 294.815 180.844 295.452 180.844 296.163C180.844 296.874 180.694 297.511 180.431 298.035C180.169 298.559 179.794 298.971 179.307 299.27C178.819 299.57 178.294 299.719 177.657 299.719C177.02 299.719 176.495 299.532 176.008 299.27ZM178.744 298.372C179.044 298.184 179.269 297.885 179.419 297.511C179.569 297.136 179.681 296.687 179.681 296.125C179.681 295.601 179.606 295.152 179.419 294.74C179.232 294.329 179.007 294.066 178.707 293.879C178.407 293.692 178.069 293.58 177.657 293.58C177.245 293.58 176.907 293.692 176.607 293.879C176.308 294.066 176.083 294.366 175.895 294.74C175.708 295.115 175.633 295.564 175.633 296.088C175.633 296.612 175.708 297.099 175.895 297.473C176.083 297.848 176.308 298.147 176.607 298.334C176.907 298.521 177.245 298.634 177.657 298.634C178.069 298.634 178.444 298.596 178.744 298.372Z" fill="white"/>
<path opacity="0.7" d="M186.879 293.655H184.667V299.57H183.505V293.655H181.293V292.719H186.841V293.655H186.879Z" fill="white"/>
<path opacity="0.7" d="M188.491 299.421C188.154 299.233 187.892 299.009 187.704 298.709C187.517 298.41 187.404 298.035 187.404 297.624C187.404 297.025 187.629 296.575 188.042 296.238C188.454 295.902 189.091 295.677 189.878 295.639L192.428 295.49V296.388L190.028 296.538C189.579 296.575 189.204 296.688 188.979 296.875C188.754 297.062 188.604 297.324 188.604 297.661C188.604 297.998 188.716 298.26 188.979 298.447C189.241 298.634 189.541 298.747 189.953 298.747C190.328 298.747 190.628 298.672 190.928 298.522C191.228 298.372 191.453 298.148 191.603 297.886C191.753 297.624 191.865 297.324 191.865 296.987V294.966C191.865 294.554 191.753 294.217 191.49 293.992C191.228 293.768 190.853 293.618 190.366 293.618C189.916 293.618 189.579 293.73 189.316 293.917C189.054 294.105 188.866 294.367 188.829 294.666V294.741H187.704V294.666C187.742 294.292 187.854 293.955 188.079 293.655C188.304 293.356 188.604 293.094 189.016 292.907C189.429 292.719 189.878 292.645 190.403 292.645C190.928 292.645 191.415 292.719 191.79 292.907C192.165 293.094 192.503 293.356 192.69 293.693C192.877 294.03 193.027 294.441 193.027 294.891V299.608H191.865V298.485H191.828C191.678 298.747 191.528 298.971 191.303 299.121C191.078 299.271 190.853 299.458 190.553 299.57C190.253 299.683 189.991 299.72 189.691 299.72C189.241 299.683 188.829 299.608 188.491 299.421Z" fill="white"/>
</g>
</g>
<path d="M308 254.796H18V255.919H308V254.796Z" fill="white"/>
<path d="M26.0029 41V31.1357H17.9775V41H19.5088V32.4551H24.4717V41H26.0029ZM28.6512 41H30.1824V37.6299H32.3221C34.2635 37.6299 35.5965 36.3105 35.5965 34.3828V34.3691C35.5965 32.4346 34.2635 31.1357 32.3221 31.1357H28.6512V41ZM31.9461 32.4277C33.2723 32.4277 34.0379 33.1455 34.0379 34.376V34.3896C34.0379 35.627 33.2723 36.3447 31.9461 36.3447H30.1824V32.4277H31.9461ZM36.276 41H37.8824L38.7916 38.334H42.5924L43.4947 41H45.1012L41.5191 31.1357H39.8648L36.276 41ZM40.6783 32.7695H40.7057L42.1754 37.1035H39.2018L40.6783 32.7695ZM47.0248 41H50.9828C53.0814 41 54.3461 39.9473 54.3461 38.2109V38.1973C54.3461 36.8916 53.4369 35.9277 52.0355 35.791V35.7568C53.0746 35.6133 53.8607 34.6494 53.8607 33.6104V33.5967C53.8607 32.1064 52.7123 31.1357 50.9623 31.1357H47.0248V41ZM50.5932 32.3867C51.6938 32.3867 52.3295 32.8857 52.3295 33.7881V33.8018C52.3295 34.7793 51.598 35.3262 50.2719 35.3262H48.5561V32.3867H50.5932ZM50.5795 36.5088C52.0287 36.5088 52.7807 37.0557 52.7807 38.1152V38.1289C52.7807 39.1953 52.0424 39.749 50.6684 39.749H48.5561V36.5088H50.5795ZM56.5021 41H57.9104L62.9963 33.6582H63.0305V41H64.548V31.1357H63.133L58.0539 38.4844H58.0197V31.1357H56.5021V41ZM67.1348 41.0752C68.8643 41.0752 69.6436 39.8379 69.7939 37.2402L70.0879 32.4551H73.5059V41H75.0371V31.1357H68.7002L68.3721 37.1582C68.2695 38.915 67.8936 39.6875 66.9639 39.6875C66.8271 39.6875 66.6426 39.667 66.5605 39.6465V41C66.6904 41.041 66.9023 41.0752 67.1348 41.0752ZM81.9578 41.1641C84.8084 41.1641 86.5789 39.2021 86.5789 36.0713V36.0576C86.5789 32.9336 84.8016 30.9717 81.9578 30.9717C79.1209 30.9717 77.3367 32.9268 77.3367 36.0576V36.0713C77.3367 39.209 79.1141 41.1641 81.9578 41.1641ZM81.9578 39.8105C80.0848 39.8105 78.8953 38.3682 78.8953 36.0713V36.0576C78.8953 33.7607 80.0916 32.3252 81.9578 32.3252C83.8309 32.3252 85.0135 33.7676 85.0135 36.0576V36.0713C85.0135 38.3477 83.8514 39.8105 81.9578 39.8105ZM92.2035 41H98.9506V39.708H94.2543V39.6465L96.4965 37.4453C98.267 35.6953 98.7934 34.8955 98.7934 33.7676V33.7539C98.7934 32.1611 97.4398 30.9717 95.5463 30.9717C93.6186 30.9717 92.1215 32.25 92.1215 34.0137V34.0547H93.5707V34.0137C93.5844 33.0156 94.4115 32.2363 95.5668 32.2363C96.5648 32.2363 97.2758 32.9062 97.2826 33.8428V33.8564C97.2826 34.6221 96.9887 35.1416 95.6762 36.4541L92.2035 39.9473V41ZM104.279 31.1357H102.918L100.245 43.3926H101.613L104.279 31.1357ZM106.291 41H107.897L112.184 32.4619V31.1357H105.471V32.4277H110.673V32.4619L106.291 41Z" fill="#BB3AF7"/>
</g>
<defs>
<clipPath id="clip0">
<rect width="343" height="482" fill="white"/>
</clipPath>
</defs>
</svg>
