<svg width="343" height="390" viewBox="0 0 343 390" fill="none" xmlns="http://www.w3.org/2000/svg">
<path d="M0 12C0 5.37258 5.37258 0 12 0H331C337.627 0 343 5.37258 343 12V378C343 384.627 337.627 390 331 390H12C5.37258 390 0 384.627 0 378V12Z" fill="#F3F4F5"/>
<path d="M0 12C0 5.37258 5.37258 0 12 0H331C337.627 0 343 5.37258 343 12V378C343 384.627 337.627 390 331 390H12C5.37258 390 0 384.627 0 378V12Z" stroke="#F3F4F5"/>
<path d="M21.478 90V78.96H22.4741L32.6177 90H36.6353L24.9644 77.4824L35.5229 66.0439H31.771L22.4741 76.5693H21.478V66.0439H18.4897V90H21.478ZM45.2183 90.332C49.9829 90.332 53.2036 86.8789 53.2036 81.3672V81.334C53.2036 75.8223 49.9663 72.4023 45.2017 72.4023C40.437 72.4023 37.2163 75.8389 37.2163 81.334V81.3672C37.2163 86.8623 40.4204 90.332 45.2183 90.332ZM45.2349 87.7754C42.1802 87.7754 40.1714 85.4346 40.1714 81.3672V81.334C40.1714 77.2998 42.1968 74.959 45.2017 74.959C48.2563 74.959 50.2485 77.2832 50.2485 81.334V81.3672C50.2485 85.418 48.2729 87.7754 45.2349 87.7754ZM57.0552 94.7314V90H70.4526V94.7314H73.1421V87.6094H70.4028V72.7344H58.5161L57.8521 82.3135C57.686 84.6377 57.0718 86.7793 55.8101 87.6094H54.3657V94.7314H57.0552ZM67.5142 87.6094H59.064V87.543C59.9272 86.4307 60.3755 84.5547 60.5249 82.3799L61.0562 75.125H67.5142V87.6094ZM82.9038 90.332C87.6685 90.332 90.8892 86.8789 90.8892 81.3672V81.334C90.8892 75.8223 87.6519 72.4023 82.8872 72.4023C78.1226 72.4023 74.9019 75.8389 74.9019 81.334V81.3672C74.9019 86.8623 78.106 90.332 82.9038 90.332ZM82.9204 87.7754C79.8657 87.7754 77.8569 85.4346 77.8569 81.3672V81.334C77.8569 77.2998 79.8823 74.959 82.8872 74.959C85.9419 74.959 87.9341 77.2832 87.9341 81.334V81.3672C87.9341 85.418 85.9585 87.7754 82.9204 87.7754ZM94.0933 90H101.531C105.2 90 107.458 88.0908 107.458 85.0527V85.0195C107.458 82.9111 106.03 81.3838 103.855 81.085V80.9521C105.449 80.6201 106.694 78.9932 106.694 77.2168V77.1836C106.694 74.4443 104.718 72.7344 101.481 72.7344H94.0933V90ZM96.9819 79.9561V75.125H101.049C102.859 75.125 103.822 75.9385 103.822 77.4824V77.5156C103.822 79.1758 102.792 79.9561 100.618 79.9561H96.9819ZM96.9819 87.6094V82.3467H100.767C103.291 82.3467 104.502 83.1768 104.502 84.9531V84.9863C104.502 86.7129 103.374 87.6094 101.282 87.6094H96.9819ZM117.933 90.332C122.698 90.332 125.918 86.8789 125.918 81.3672V81.334C125.918 75.8223 122.681 72.4023 117.917 72.4023C113.152 72.4023 109.931 75.8389 109.931 81.334V81.3672C109.931 86.8623 113.135 90.332 117.933 90.332ZM117.95 87.7754C114.895 87.7754 112.886 85.4346 112.886 81.3672V81.334C112.886 77.2998 114.912 74.959 117.917 74.959C120.971 74.959 122.963 77.2832 122.963 81.334V81.3672C122.963 85.418 120.988 87.7754 117.95 87.7754ZM136.245 90.332C140.013 90.332 142.835 88.0742 143.4 85.2188L143.433 85.0527H140.594L140.544 85.2021C140.046 86.6797 138.502 87.7754 136.311 87.7754C133.24 87.7754 131.281 85.7002 131.214 82.1475H143.649V81.085C143.649 75.9053 140.777 72.4023 136.062 72.4023C131.347 72.4023 128.292 76.0713 128.292 81.417V81.4336C128.292 86.8623 131.281 90.332 136.245 90.332ZM136.045 74.959C138.569 74.959 140.428 76.5361 140.71 79.8896H131.264C131.58 76.6689 133.539 74.959 136.045 74.959ZM161.031 90.332C164.932 90.332 167.771 87.792 168.236 84.5049L168.252 84.3887H165.414L165.38 84.5215C164.899 86.4473 163.388 87.7754 161.031 87.7754C158.042 87.7754 155.984 85.4014 155.984 81.3838V81.3672C155.984 77.4492 157.993 74.959 160.998 74.959C163.538 74.959 164.932 76.4863 165.364 78.2129L165.397 78.3457H168.219L168.203 78.2129C167.837 75.2578 165.297 72.4023 160.998 72.4023C156.2 72.4023 153.029 75.8887 153.029 81.334V81.3506C153.029 86.8457 156.133 90.332 161.031 90.332ZM175.856 82.3965L176.404 75.125H183.044V90H185.933V72.7344H173.797L173.117 82.3301C172.884 85.501 172.253 87.5098 170.411 87.5098C169.962 87.5098 169.647 87.4434 169.498 87.3936V90C169.73 90.083 170.162 90.166 170.709 90.166C174.378 90.166 175.491 87.1611 175.856 82.3965ZM197.189 90.332C201.954 90.332 205.174 86.8789 205.174 81.3672V81.334C205.174 75.8223 201.937 72.4023 197.172 72.4023C192.408 72.4023 189.187 75.8389 189.187 81.334V81.3672C189.187 86.8623 192.391 90.332 197.189 90.332ZM197.206 87.7754C194.151 87.7754 192.142 85.4346 192.142 81.3672V81.334C192.142 77.2998 194.167 74.959 197.172 74.959C200.227 74.959 202.219 77.2832 202.219 81.334V81.3672C202.219 85.418 200.244 87.7754 197.206 87.7754ZM208.378 90H215.816C219.485 90 221.743 88.0908 221.743 85.0527V85.0195C221.743 82.9111 220.315 81.3838 218.14 81.085V80.9521C219.734 80.6201 220.979 78.9932 220.979 77.2168V77.1836C220.979 74.4443 219.003 72.7344 215.766 72.7344H208.378V90ZM211.267 79.9561V75.125H215.334C217.144 75.125 218.107 75.9385 218.107 77.4824V77.5156C218.107 79.1758 217.078 79.9561 214.903 79.9561H211.267ZM211.267 87.6094V82.3467H215.052C217.576 82.3467 218.788 83.1768 218.788 84.9531V84.9863C218.788 86.7129 217.659 87.6094 215.567 87.6094H211.267ZM232.218 90.332C236.983 90.332 240.204 86.8789 240.204 81.3672V81.334C240.204 75.8223 236.966 72.4023 232.202 72.4023C227.437 72.4023 224.216 75.8389 224.216 81.334V81.3672C224.216 86.8623 227.42 90.332 232.218 90.332ZM232.235 87.7754C229.18 87.7754 227.171 85.4346 227.171 81.3672V81.334C227.171 77.2998 229.197 74.959 232.202 74.959C235.256 74.959 237.249 77.2832 237.249 81.334V81.3672C237.249 85.418 235.273 87.7754 232.235 87.7754ZM29.3638 126H32.2524V108.734H29.3638V115.856H20.9136V108.734H18.0249V126H20.9136V118.247H29.3638V126ZM43.4419 126.332C47.2104 126.332 50.0327 124.074 50.5972 121.219L50.6304 121.053H47.7915L47.7417 121.202C47.2437 122.68 45.6997 123.775 43.5083 123.775C40.437 123.775 38.478 121.7 38.4116 118.147H50.8462V117.085C50.8462 111.905 47.9741 108.402 43.2593 108.402C38.5444 108.402 35.4897 112.071 35.4897 117.417V117.434C35.4897 122.862 38.478 126.332 43.4419 126.332ZM43.2427 110.959C45.7661 110.959 47.6255 112.536 47.9077 115.89H38.4614C38.7769 112.669 40.7358 110.959 43.2427 110.959ZM61.0562 126H68.4937C72.1626 126 74.4204 124.091 74.4204 121.053V121.02C74.4204 118.911 72.9927 117.384 70.8179 117.085V116.952C72.4116 116.62 73.6567 114.993 73.6567 113.217V113.184C73.6567 110.444 71.6812 108.734 68.4438 108.734H61.0562V126ZM63.9448 115.956V111.125H68.0122C69.8218 111.125 70.7847 111.938 70.7847 113.482V113.516C70.7847 115.176 69.7554 115.956 67.5806 115.956H63.9448ZM63.9448 123.609V118.347H67.73C70.2534 118.347 71.4653 119.177 71.4653 120.953V120.986C71.4653 122.713 70.3364 123.609 68.2446 123.609H63.9448ZM84.896 126.332C89.6606 126.332 92.8813 122.879 92.8813 117.367V117.334C92.8813 111.822 89.644 108.402 84.8794 108.402C80.1147 108.402 76.894 111.839 76.894 117.334V117.367C76.894 122.862 80.0981 126.332 84.896 126.332ZM84.9126 123.775C81.8579 123.775 79.8491 121.435 79.8491 117.367V117.334C79.8491 113.3 81.8745 110.959 84.8794 110.959C87.9341 110.959 89.9263 113.283 89.9263 117.334V117.367C89.9263 121.418 87.9507 123.775 84.9126 123.775ZM96.1021 131.811H98.9907V123.111H99.0571C100.136 125.104 102.145 126.332 104.585 126.332C108.918 126.332 111.874 122.829 111.874 117.384V117.367C111.874 111.922 108.952 108.402 104.536 108.402C102.062 108.402 100.136 109.647 99.0571 111.656H98.9907V108.734H96.1021V131.811ZM103.971 123.775C101.066 123.775 98.9741 121.235 98.9741 117.384V117.367C98.9741 113.499 101.049 110.959 103.971 110.959C107.026 110.959 108.918 113.399 108.918 117.367V117.384C108.918 121.318 107.026 123.775 103.971 123.775ZM122.283 126.332C127.047 126.332 130.268 122.879 130.268 117.367V117.334C130.268 111.822 127.031 108.402 122.266 108.402C117.501 108.402 114.281 111.839 114.281 117.334V117.367C114.281 122.862 117.485 126.332 122.283 126.332ZM122.299 123.775C119.245 123.775 117.236 121.435 117.236 117.367V117.334C117.236 113.3 119.261 110.959 122.266 110.959C125.321 110.959 127.313 113.283 127.313 117.334V117.367C127.313 121.418 125.337 123.775 122.299 123.775ZM140.876 126.332C145.874 126.332 148.945 122.979 148.945 117.55V117.517C148.945 112.387 145.973 109.1 141.308 109.1C138.619 109.1 136.444 110.162 135.298 112.204H135.232L135.265 111.972C135.979 106.975 137.423 104.933 142.155 104.75L143.433 104.7C145.425 104.617 147.251 104.186 147.799 103.688V101.164C146.82 101.679 144.96 102.027 143.3 102.094L142.022 102.144C135.315 102.409 132.792 106.36 132.792 115.873V115.906C132.792 122.763 135.581 126.332 140.876 126.332ZM140.876 123.775C137.623 123.775 135.747 121.518 135.747 117.55V117.517C135.747 113.765 137.623 111.656 140.876 111.656C144.114 111.656 145.99 113.765 145.99 117.517V117.55C145.99 121.518 144.114 123.775 140.876 123.775ZM159.288 126.332C163.056 126.332 165.878 124.074 166.443 121.219L166.476 121.053H163.637L163.587 121.202C163.089 122.68 161.545 123.775 159.354 123.775C156.283 123.775 154.324 121.7 154.257 118.147H166.692V117.085C166.692 111.905 163.82 108.402 159.105 108.402C154.39 108.402 151.335 112.071 151.335 117.417V117.434C151.335 122.862 154.324 126.332 159.288 126.332ZM159.088 110.959C161.612 110.959 163.471 112.536 163.753 115.89H154.307C154.623 112.669 156.582 110.959 159.088 110.959ZM177.367 106.775C180.571 106.775 182.447 104.7 182.447 102.077V102.027H180.073V102.11C180.073 103.588 179.11 104.85 177.383 104.85C175.59 104.85 174.694 103.588 174.694 102.11V102.027H172.32V102.077C172.32 104.7 174.196 106.775 177.367 106.775ZM169.929 126H172.785L181.384 113.167H181.517V126H184.406V108.734H181.55L172.951 121.567H172.818V108.734H169.929V126Z" fill="#BB3AF7"/>
<path d="M25.0029 41V31.1357H16.9775V41H18.5088V32.4551H23.4717V41H25.0029ZM27.6512 41H29.1824V37.6299H31.3221C33.2635 37.6299 34.5965 36.3105 34.5965 34.3828V34.3691C34.5965 32.4346 33.2635 31.1357 31.3221 31.1357H27.6512V41ZM30.9461 32.4277C32.2723 32.4277 33.0379 33.1455 33.0379 34.376V34.3896C33.0379 35.627 32.2723 36.3447 30.9461 36.3447H29.1824V32.4277H30.9461ZM35.276 41H36.8824L37.7916 38.334H41.5924L42.4947 41H44.1012L40.5191 31.1357H38.8648L35.276 41ZM39.6783 32.7695H39.7057L41.1754 37.1035H38.2018L39.6783 32.7695ZM46.0248 41H49.9828C52.0814 41 53.3461 39.9473 53.3461 38.2109V38.1973C53.3461 36.8916 52.4369 35.9277 51.0355 35.791V35.7568C52.0746 35.6133 52.8607 34.6494 52.8607 33.6104V33.5967C52.8607 32.1064 51.7123 31.1357 49.9623 31.1357H46.0248V41ZM49.5932 32.3867C50.6938 32.3867 51.3295 32.8857 51.3295 33.7881V33.8018C51.3295 34.7793 50.598 35.3262 49.2719 35.3262H47.5561V32.3867H49.5932ZM49.5795 36.5088C51.0287 36.5088 51.7807 37.0557 51.7807 38.1152V38.1289C51.7807 39.1953 51.0424 39.749 49.6684 39.749H47.5561V36.5088H49.5795ZM55.5021 41H56.9104L61.9963 33.6582H62.0305V41H63.548V31.1357H62.133L57.0539 38.4844H57.0197V31.1357H55.5021V41ZM66.1348 41.0752C67.8643 41.0752 68.6436 39.8379 68.7939 37.2402L69.0879 32.4551H72.5059V41H74.0371V31.1357H67.7002L67.3721 37.1582C67.2695 38.915 66.8936 39.6875 65.9639 39.6875C65.8271 39.6875 65.6426 39.667 65.5605 39.6465V41C65.6904 41.041 65.9023 41.0752 66.1348 41.0752ZM80.9578 41.1641C83.8084 41.1641 85.5789 39.2021 85.5789 36.0713V36.0576C85.5789 32.9336 83.8016 30.9717 80.9578 30.9717C78.1209 30.9717 76.3367 32.9268 76.3367 36.0576V36.0713C76.3367 39.209 78.1141 41.1641 80.9578 41.1641ZM80.9578 39.8105C79.0848 39.8105 77.8953 38.3682 77.8953 36.0713V36.0576C77.8953 33.7607 79.0916 32.3252 80.9578 32.3252C82.8309 32.3252 84.0135 33.7676 84.0135 36.0576V36.0713C84.0135 38.3477 82.8514 39.8105 80.9578 39.8105ZM95.893 41H97.3627V39.0381H98.723V37.7529H97.3627V31.1357H95.1479L90.9574 37.7051V39.0381H95.893V41ZM92.3793 37.7734V37.7324L95.8656 32.3457H95.9066V37.7734H92.3793ZM103.853 31.1357H102.492L99.8195 43.3926H101.187L103.853 31.1357ZM105.865 41H107.472L111.758 32.4619V31.1357H105.045V32.4277H110.247V32.4619L105.865 41Z" fill="#BB3AF7"/>
<rect x="23" y="194" width="298" height="121.525" fill="white"/>
<path d="M35.0586 262.41H36.207L39.0078 267.672L41.457 262.41H42.5879L39.3652 269.09C38.9629 269.926 38.6328 270.473 38.375 270.73C38.1172 270.988 37.748 271.117 37.2676 271.117C36.9746 271.117 36.6152 271.049 36.1895 270.912V269.939C36.4941 270.115 36.8164 270.203 37.1562 270.203C37.4336 270.203 37.6719 270.115 37.8711 269.939C38.0742 269.76 38.2969 269.354 38.5391 268.721L35.0586 262.41ZM42.875 264.777H43.9297V267.467C44.2656 267.467 44.5 267.402 44.6328 267.273C44.7695 267.145 44.9688 266.77 45.2305 266.148C45.4375 265.656 45.6055 265.332 45.7344 265.176C45.8633 265.02 46.0117 264.914 46.1797 264.859C46.3477 264.805 46.6172 264.777 46.9883 264.777H47.1992V265.65L46.9062 265.645C46.6289 265.645 46.4512 265.686 46.373 265.768C46.291 265.854 46.166 266.109 45.998 266.535C45.8379 266.941 45.6914 267.223 45.5586 267.379C45.4258 267.535 45.2207 267.678 44.9434 267.807C45.3965 267.928 45.8418 268.35 46.2793 269.072L47.4336 271H46.2734L45.1484 269.072C44.918 268.686 44.7168 268.432 44.5449 268.311C44.373 268.186 44.168 268.123 43.9297 268.123V271H42.875V264.777ZM52.4609 270.232C52.0703 270.564 51.6934 270.799 51.3301 270.936C50.9707 271.072 50.584 271.141 50.1699 271.141C49.4863 271.141 48.9609 270.975 48.5938 270.643C48.2266 270.307 48.043 269.879 48.043 269.359C48.043 269.055 48.1113 268.777 48.248 268.527C48.3887 268.273 48.5703 268.07 48.793 267.918C49.0195 267.766 49.2734 267.65 49.5547 267.572C49.7617 267.518 50.0742 267.465 50.4922 267.414C51.3438 267.312 51.9707 267.191 52.373 267.051C52.377 266.906 52.3789 266.814 52.3789 266.775C52.3789 266.346 52.2793 266.043 52.0801 265.867C51.8105 265.629 51.4102 265.51 50.8789 265.51C50.3828 265.51 50.0156 265.598 49.7773 265.773C49.543 265.945 49.3691 266.252 49.2559 266.693L48.2246 266.553C48.3184 266.111 48.4727 265.756 48.6875 265.486C48.9023 265.213 49.2129 265.004 49.6191 264.859C50.0254 264.711 50.4961 264.637 51.0312 264.637C51.5625 264.637 51.9941 264.699 52.3262 264.824C52.6582 264.949 52.9023 265.107 53.0586 265.299C53.2148 265.486 53.3242 265.725 53.3867 266.014C53.4219 266.193 53.4395 266.518 53.4395 266.986V268.393C53.4395 269.373 53.4609 269.994 53.5039 270.256C53.5508 270.514 53.6406 270.762 53.7734 271H52.6719C52.5625 270.781 52.4922 270.525 52.4609 270.232ZM52.373 267.877C51.9902 268.033 51.416 268.166 50.6504 268.275C50.2168 268.338 49.9102 268.408 49.7305 268.486C49.5508 268.564 49.4121 268.68 49.3145 268.832C49.2168 268.98 49.168 269.146 49.168 269.33C49.168 269.611 49.2734 269.846 49.4844 270.033C49.6992 270.221 50.0117 270.314 50.4219 270.314C50.8281 270.314 51.1895 270.227 51.5059 270.051C51.8223 269.871 52.0547 269.627 52.2031 269.318C52.3164 269.08 52.373 268.729 52.373 268.264V267.877ZM58.8418 264.777V267.467C59.1777 267.467 59.4141 267.402 59.5508 267.273C59.6875 267.145 59.8867 266.77 60.1484 266.148C60.3945 265.559 60.6152 265.182 60.8105 265.018C61.002 264.857 61.3066 264.777 61.7246 264.777H62.1113V265.65L61.8242 265.645C61.543 265.645 61.3633 265.686 61.2852 265.768C61.2031 265.854 61.0781 266.109 60.9102 266.535C60.7539 266.941 60.6094 267.223 60.4766 267.379C60.3438 267.535 60.1367 267.678 59.8555 267.807C60.3125 267.928 60.7578 268.35 61.1914 269.072L62.3516 271H61.1914L60.0605 269.072C59.8301 268.682 59.6289 268.426 59.457 268.305C59.2852 268.184 59.0801 268.123 58.8418 268.123V271H57.7637V268.123C57.5293 268.123 57.3262 268.184 57.1543 268.305C56.9824 268.422 56.7812 268.678 56.5508 269.072L55.4199 271H54.2598L55.4141 269.072C55.8516 268.35 56.2988 267.928 56.7559 267.807C56.4434 267.662 56.2246 267.506 56.0996 267.338C55.9746 267.166 55.7871 266.76 55.5371 266.119C55.4512 265.904 55.3594 265.771 55.2617 265.721C55.1602 265.67 55.0098 265.645 54.8105 265.645C54.7598 265.645 54.6562 265.646 54.5 265.65V264.777H54.6465C55.0527 264.777 55.3379 264.803 55.502 264.854C55.6699 264.9 55.8184 265.004 55.9473 265.164C56.0801 265.32 56.252 265.648 56.4629 266.148C56.7207 266.762 56.916 267.135 57.0488 267.268C57.1855 267.4 57.4238 267.467 57.7637 267.467V264.777H58.8418ZM63.1074 264.777H64.1621V269.523L67.0859 264.777H68.2227V271H67.168V266.283L64.2441 271H63.1074V264.777ZM69.2422 264.777H74.2988V265.65H72.2949V271H71.2461V265.65H69.2422V264.777ZM79.4258 268.996L80.5156 269.131C80.3438 269.768 80.0254 270.262 79.5605 270.613C79.0957 270.965 78.502 271.141 77.7793 271.141C76.8691 271.141 76.1465 270.861 75.6113 270.303C75.0801 269.74 74.8145 268.953 74.8145 267.941C74.8145 266.895 75.084 266.082 75.623 265.504C76.1621 264.926 76.8613 264.637 77.7207 264.637C78.5527 264.637 79.2324 264.92 79.7598 265.486C80.2871 266.053 80.5508 266.85 80.5508 267.877C80.5508 267.939 80.5488 268.033 80.5449 268.158H75.9043C75.9434 268.842 76.1367 269.365 76.4844 269.729C76.832 270.092 77.2656 270.273 77.7852 270.273C78.1719 270.273 78.502 270.172 78.7754 269.969C79.0488 269.766 79.2656 269.441 79.4258 268.996ZM75.9629 267.291H79.4375C79.3906 266.768 79.2578 266.375 79.0391 266.113C78.7031 265.707 78.2676 265.504 77.7324 265.504C77.248 265.504 76.8398 265.666 76.5078 265.99C76.1797 266.314 75.998 266.748 75.9629 267.291ZM85.1855 264.777H86.2402V269.523L89.1641 264.777H90.3008V271H89.2461V266.283L86.3223 271H85.1855V264.777ZM91.8945 264.777H92.9492V267.367H95.873V264.777H96.9277V271H95.873V268.24H92.9492V271H91.8945V264.777ZM102.143 262.41H103.197V265.381C103.416 265.131 103.656 264.945 103.918 264.824C104.18 264.699 104.461 264.637 104.762 264.637C105.5 264.637 106.084 264.945 106.514 265.562C106.947 266.176 107.164 266.949 107.164 267.883C107.164 268.855 106.932 269.643 106.467 270.244C106.002 270.842 105.424 271.141 104.732 271.141C104.506 271.141 104.275 271.105 104.041 271.035C103.807 270.965 103.525 270.773 103.197 270.461V273.385H102.143V270.461C101.932 270.688 101.697 270.857 101.439 270.971C101.186 271.084 100.91 271.141 100.613 271.141C99.9609 271.141 99.3906 270.855 98.9023 270.285C98.4141 269.711 98.1699 268.891 98.1699 267.824C98.1699 266.922 98.3906 266.166 98.832 265.557C99.2734 264.943 99.8672 264.637 100.613 264.637C100.926 264.637 101.209 264.699 101.463 264.824C101.717 264.945 101.943 265.131 102.143 265.381V262.41ZM103.191 267.912C103.191 268.85 103.32 269.48 103.578 269.805C103.836 270.125 104.158 270.285 104.545 270.285C104.975 270.285 105.34 270.088 105.641 269.693C105.945 269.295 106.098 268.678 106.098 267.842C106.098 267.053 105.957 266.465 105.676 266.078C105.398 265.691 105.041 265.498 104.604 265.498C104.135 265.498 103.781 265.699 103.543 266.102C103.309 266.504 103.191 267.107 103.191 267.912ZM99.2422 267.795C99.2422 268.674 99.3887 269.307 99.6816 269.693C99.9785 270.08 100.346 270.273 100.783 270.273C101.24 270.273 101.582 270.082 101.809 269.699C102.035 269.312 102.148 268.734 102.148 267.965C102.148 267.145 102.029 266.529 101.791 266.119C101.553 265.709 101.193 265.504 100.713 265.504C100.279 265.504 99.9258 265.705 99.6523 266.107C99.3789 266.506 99.2422 267.068 99.2422 267.795ZM108.008 267.889C108.008 266.736 108.328 265.883 108.969 265.328C109.504 264.867 110.156 264.637 110.926 264.637C111.781 264.637 112.48 264.918 113.023 265.48C113.566 266.039 113.838 266.812 113.838 267.801C113.838 268.602 113.717 269.232 113.475 269.693C113.236 270.15 112.887 270.506 112.426 270.76C111.969 271.014 111.469 271.141 110.926 271.141C110.055 271.141 109.35 270.861 108.811 270.303C108.275 269.744 108.008 268.939 108.008 267.889ZM109.092 267.889C109.092 268.686 109.266 269.283 109.613 269.682C109.961 270.076 110.398 270.273 110.926 270.273C111.449 270.273 111.885 270.074 112.232 269.676C112.58 269.277 112.754 268.67 112.754 267.854C112.754 267.084 112.578 266.502 112.227 266.107C111.879 265.709 111.445 265.51 110.926 265.51C110.398 265.51 109.961 265.707 109.613 266.102C109.266 266.496 109.092 267.092 109.092 267.889ZM115.08 273.385V264.777H116.041V265.586C116.268 265.27 116.523 265.033 116.809 264.877C117.094 264.717 117.439 264.637 117.846 264.637C118.377 264.637 118.846 264.773 119.252 265.047C119.658 265.32 119.965 265.707 120.172 266.207C120.379 266.703 120.482 267.248 120.482 267.842C120.482 268.479 120.367 269.053 120.137 269.564C119.91 270.072 119.578 270.463 119.141 270.736C118.707 271.006 118.25 271.141 117.77 271.141C117.418 271.141 117.102 271.066 116.82 270.918C116.543 270.77 116.314 270.582 116.135 270.355V273.385H115.08ZM116.035 267.924C116.035 268.725 116.197 269.316 116.521 269.699C116.846 270.082 117.238 270.273 117.699 270.273C118.168 270.273 118.568 270.076 118.9 269.682C119.236 269.283 119.404 268.668 119.404 267.836C119.404 267.043 119.24 266.449 118.912 266.055C118.588 265.66 118.199 265.463 117.746 265.463C117.297 265.463 116.898 265.674 116.551 266.096C116.207 266.514 116.035 267.123 116.035 267.924ZM121.789 264.777H123.43L125.064 269.758L126.881 264.777H128.398V271H127.344V265.99L125.504 271H124.561L122.82 265.75V271H121.789V264.777ZM134.07 270.232C133.68 270.564 133.303 270.799 132.939 270.936C132.58 271.072 132.193 271.141 131.779 271.141C131.096 271.141 130.57 270.975 130.203 270.643C129.836 270.307 129.652 269.879 129.652 269.359C129.652 269.055 129.721 268.777 129.857 268.527C129.998 268.273 130.18 268.07 130.402 267.918C130.629 267.766 130.883 267.65 131.164 267.572C131.371 267.518 131.684 267.465 132.102 267.414C132.953 267.312 133.58 267.191 133.982 267.051C133.986 266.906 133.988 266.814 133.988 266.775C133.988 266.346 133.889 266.043 133.689 265.867C133.42 265.629 133.02 265.51 132.488 265.51C131.992 265.51 131.625 265.598 131.387 265.773C131.152 265.945 130.979 266.252 130.865 266.693L129.834 266.553C129.928 266.111 130.082 265.756 130.297 265.486C130.512 265.213 130.822 265.004 131.229 264.859C131.635 264.711 132.105 264.637 132.641 264.637C133.172 264.637 133.604 264.699 133.936 264.824C134.268 264.949 134.512 265.107 134.668 265.299C134.824 265.486 134.934 265.725 134.996 266.014C135.031 266.193 135.049 266.518 135.049 266.986V268.393C135.049 269.373 135.07 269.994 135.113 270.256C135.16 270.514 135.25 270.762 135.383 271H134.281C134.172 270.781 134.102 270.525 134.07 270.232ZM133.982 267.877C133.6 268.033 133.025 268.166 132.26 268.275C131.826 268.338 131.52 268.408 131.34 268.486C131.16 268.564 131.021 268.68 130.924 268.832C130.826 268.98 130.777 269.146 130.777 269.33C130.777 269.611 130.883 269.846 131.094 270.033C131.309 270.221 131.621 270.314 132.031 270.314C132.438 270.314 132.799 270.227 133.115 270.051C133.432 269.871 133.664 269.627 133.812 269.318C133.926 269.08 133.982 268.729 133.982 268.264V267.877ZM136.707 264.777H137.762V270.133H140.68V264.777H141.734V270.133H142.414V272.764H141.547V271H136.707V264.777ZM143.568 264.777H144.623V269.523L147.547 264.777H148.684V271H147.629V266.283L144.705 271H143.568V264.777ZM150.283 264.777H151.338V267.379H152.615C152.709 266.488 152.986 265.809 153.447 265.34C153.912 264.871 154.514 264.637 155.252 264.637C155.881 264.637 156.377 264.764 156.74 265.018C157.104 265.271 157.402 265.621 157.637 266.066C157.875 266.512 157.994 267.111 157.994 267.865C157.994 268.939 157.75 269.754 157.262 270.309C156.773 270.863 156.111 271.141 155.275 271.141C154.498 271.141 153.875 270.883 153.406 270.367C152.938 269.852 152.674 269.145 152.615 268.246H151.338V271H150.283V264.777ZM155.311 265.533C154.795 265.533 154.393 265.732 154.104 266.131C153.818 266.525 153.676 267.08 153.676 267.795C153.676 268.65 153.82 269.277 154.109 269.676C154.398 270.074 154.785 270.273 155.27 270.273C155.75 270.273 156.143 270.09 156.447 269.723C156.756 269.352 156.91 268.756 156.91 267.936C156.91 267.135 156.777 266.535 156.512 266.137C156.246 265.734 155.846 265.533 155.311 265.533ZM159.547 271V269.799H160.748V271C160.748 271.441 160.67 271.797 160.514 272.066C160.357 272.34 160.109 272.551 159.77 272.699L159.477 272.248C159.699 272.15 159.863 272.006 159.969 271.814C160.074 271.627 160.133 271.355 160.145 271H159.547ZM165.945 264.777H167V267.467C167.336 267.467 167.57 267.402 167.703 267.273C167.84 267.145 168.039 266.77 168.301 266.148C168.508 265.656 168.676 265.332 168.805 265.176C168.934 265.02 169.082 264.914 169.25 264.859C169.418 264.805 169.688 264.777 170.059 264.777H170.27V265.65L169.977 265.645C169.699 265.645 169.521 265.686 169.443 265.768C169.361 265.854 169.236 266.109 169.068 266.535C168.908 266.941 168.762 267.223 168.629 267.379C168.496 267.535 168.291 267.678 168.014 267.807C168.467 267.928 168.912 268.35 169.35 269.072L170.504 271H169.344L168.219 269.072C167.988 268.686 167.787 268.432 167.615 268.311C167.443 268.186 167.238 268.123 167 268.123V271H165.945V264.777ZM170.949 267.889C170.949 266.736 171.27 265.883 171.91 265.328C172.445 264.867 173.098 264.637 173.867 264.637C174.723 264.637 175.422 264.918 175.965 265.48C176.508 266.039 176.779 266.812 176.779 267.801C176.779 268.602 176.658 269.232 176.416 269.693C176.178 270.15 175.828 270.506 175.367 270.76C174.91 271.014 174.41 271.141 173.867 271.141C172.996 271.141 172.291 270.861 171.752 270.303C171.217 269.744 170.949 268.939 170.949 267.889ZM172.033 267.889C172.033 268.686 172.207 269.283 172.555 269.682C172.902 270.076 173.34 270.273 173.867 270.273C174.391 270.273 174.826 270.074 175.174 269.676C175.521 269.277 175.695 268.67 175.695 267.854C175.695 267.084 175.52 266.502 175.168 266.107C174.82 265.709 174.387 265.51 173.867 265.51C173.34 265.51 172.902 265.707 172.555 266.102C172.207 266.496 172.033 267.092 172.033 267.889ZM177.184 264.777H182.24V265.65H180.236V271H179.188V265.65H177.184V264.777ZM182.715 267.889C182.715 266.736 183.035 265.883 183.676 265.328C184.211 264.867 184.863 264.637 185.633 264.637C186.488 264.637 187.188 264.918 187.73 265.48C188.273 266.039 188.545 266.812 188.545 267.801C188.545 268.602 188.424 269.232 188.182 269.693C187.943 270.15 187.594 270.506 187.133 270.76C186.676 271.014 186.176 271.141 185.633 271.141C184.762 271.141 184.057 270.861 183.518 270.303C182.982 269.744 182.715 268.939 182.715 267.889ZM183.799 267.889C183.799 268.686 183.973 269.283 184.32 269.682C184.668 270.076 185.105 270.273 185.633 270.273C186.156 270.273 186.592 270.074 186.939 269.676C187.287 269.277 187.461 268.67 187.461 267.854C187.461 267.084 187.285 266.502 186.934 266.107C186.586 265.709 186.152 265.51 185.633 265.51C185.105 265.51 184.668 265.707 184.32 266.102C183.973 266.496 183.799 267.092 183.799 267.889ZM189.787 273.385V264.777H190.748V265.586C190.975 265.27 191.23 265.033 191.516 264.877C191.801 264.717 192.146 264.637 192.553 264.637C193.084 264.637 193.553 264.773 193.959 265.047C194.365 265.32 194.672 265.707 194.879 266.207C195.086 266.703 195.189 267.248 195.189 267.842C195.189 268.479 195.074 269.053 194.844 269.564C194.617 270.072 194.285 270.463 193.848 270.736C193.414 271.006 192.957 271.141 192.477 271.141C192.125 271.141 191.809 271.066 191.527 270.918C191.25 270.77 191.021 270.582 190.842 270.355V273.385H189.787ZM190.742 267.924C190.742 268.725 190.904 269.316 191.229 269.699C191.553 270.082 191.945 270.273 192.406 270.273C192.875 270.273 193.275 270.076 193.607 269.682C193.943 269.283 194.111 268.668 194.111 267.836C194.111 267.043 193.947 266.449 193.619 266.055C193.295 265.66 192.906 265.463 192.453 265.463C192.004 265.463 191.605 265.674 191.258 266.096C190.914 266.514 190.742 267.123 190.742 267.924ZM200.527 270.232C200.137 270.564 199.76 270.799 199.396 270.936C199.037 271.072 198.65 271.141 198.236 271.141C197.553 271.141 197.027 270.975 196.66 270.643C196.293 270.307 196.109 269.879 196.109 269.359C196.109 269.055 196.178 268.777 196.314 268.527C196.455 268.273 196.637 268.07 196.859 267.918C197.086 267.766 197.34 267.65 197.621 267.572C197.828 267.518 198.141 267.465 198.559 267.414C199.41 267.312 200.037 267.191 200.439 267.051C200.443 266.906 200.445 266.814 200.445 266.775C200.445 266.346 200.346 266.043 200.146 265.867C199.877 265.629 199.477 265.51 198.945 265.51C198.449 265.51 198.082 265.598 197.844 265.773C197.609 265.945 197.436 266.252 197.322 266.693L196.291 266.553C196.385 266.111 196.539 265.756 196.754 265.486C196.969 265.213 197.279 265.004 197.686 264.859C198.092 264.711 198.562 264.637 199.098 264.637C199.629 264.637 200.061 264.699 200.393 264.824C200.725 264.949 200.969 265.107 201.125 265.299C201.281 265.486 201.391 265.725 201.453 266.014C201.488 266.193 201.506 266.518 201.506 266.986V268.393C201.506 269.373 201.527 269.994 201.57 270.256C201.617 270.514 201.707 270.762 201.84 271H200.738C200.629 270.781 200.559 270.525 200.527 270.232ZM200.439 267.877C200.057 268.033 199.482 268.166 198.717 268.275C198.283 268.338 197.977 268.408 197.797 268.486C197.617 268.564 197.479 268.68 197.381 268.832C197.283 268.98 197.234 269.146 197.234 269.33C197.234 269.611 197.34 269.846 197.551 270.033C197.766 270.221 198.078 270.314 198.488 270.314C198.895 270.314 199.256 270.227 199.572 270.051C199.889 269.871 200.121 269.627 200.27 269.318C200.383 269.08 200.439 268.729 200.439 268.264V267.877ZM208.045 264.777V271H206.996V268.574H206.387C206.016 268.574 205.738 268.623 205.555 268.721C205.375 268.814 205.111 269.121 204.764 269.641L203.844 271H202.537L203.674 269.324C204.021 268.812 204.367 268.523 204.711 268.457C204.109 268.375 203.662 268.158 203.369 267.807C203.08 267.455 202.936 267.051 202.936 266.594C202.936 266.055 203.125 265.617 203.504 265.281C203.887 264.945 204.439 264.777 205.162 264.777H208.045ZM206.996 265.65H205.496C204.867 265.65 204.461 265.748 204.277 265.943C204.098 266.139 204.008 266.367 204.008 266.629C204.008 267 204.141 267.273 204.406 267.449C204.676 267.621 205.15 267.707 205.83 267.707H206.996V265.65ZM217.549 262.205L218.48 262.217C218.438 262.635 218.344 262.926 218.199 263.09C218.059 263.254 217.875 263.359 217.648 263.406C217.426 263.453 216.986 263.477 216.33 263.477C215.459 263.477 214.865 263.561 214.549 263.729C214.232 263.896 214.004 264.166 213.863 264.537C213.727 264.904 213.65 265.379 213.635 265.961C213.9 265.566 214.211 265.271 214.566 265.076C214.922 264.877 215.322 264.777 215.768 264.777C216.584 264.777 217.26 265.059 217.795 265.621C218.33 266.18 218.598 266.938 218.598 267.895C218.598 268.621 218.463 269.217 218.193 269.682C217.924 270.146 217.604 270.506 217.232 270.76C216.865 271.014 216.363 271.141 215.727 271.141C214.988 271.141 214.414 270.973 214.004 270.637C213.594 270.297 213.279 269.863 213.061 269.336C212.842 268.809 212.732 267.891 212.732 266.582C212.732 264.938 213.01 263.83 213.564 263.26C214.123 262.689 214.98 262.404 216.137 262.404C216.855 262.404 217.264 262.393 217.361 262.369C217.459 262.346 217.521 262.291 217.549 262.205ZM217.496 267.865C217.496 267.217 217.342 266.686 217.033 266.271C216.729 265.857 216.297 265.65 215.738 265.65C215.156 265.65 214.707 265.869 214.391 266.307C214.074 266.744 213.916 267.328 213.916 268.059C213.916 268.781 214.09 269.334 214.438 269.717C214.789 270.1 215.221 270.291 215.732 270.291C216.256 270.291 216.68 270.07 217.004 269.629C217.332 269.184 217.496 268.596 217.496 267.865ZM219.553 273.396L219.436 272.406C219.666 272.469 219.867 272.5 220.039 272.5C220.273 272.5 220.461 272.461 220.602 272.383C220.742 272.305 220.857 272.195 220.947 272.055C221.014 271.949 221.121 271.688 221.27 271.27C221.289 271.211 221.32 271.125 221.363 271.012L219.002 264.777H220.139L221.434 268.381C221.602 268.838 221.752 269.318 221.885 269.822C222.006 269.338 222.15 268.865 222.318 268.404L223.648 264.777H224.703L222.336 271.105C222.082 271.789 221.885 272.26 221.744 272.518C221.557 272.865 221.342 273.119 221.1 273.279C220.857 273.443 220.568 273.525 220.232 273.525C220.029 273.525 219.803 273.482 219.553 273.396ZM226.033 264.777H230.369V270.133H231.043V272.764H230.176V271H225.277V272.764H224.41V270.133H224.967C225.709 269.125 226.064 267.34 226.033 264.777ZM226.912 265.65C226.834 267.67 226.521 269.164 225.975 270.133H229.32V265.65H226.912ZM236.469 268.996L237.559 269.131C237.387 269.768 237.068 270.262 236.604 270.613C236.139 270.965 235.545 271.141 234.822 271.141C233.912 271.141 233.189 270.861 232.654 270.303C232.123 269.74 231.857 268.953 231.857 267.941C231.857 266.895 232.127 266.082 232.666 265.504C233.205 264.926 233.904 264.637 234.764 264.637C235.596 264.637 236.275 264.92 236.803 265.486C237.33 266.053 237.594 266.85 237.594 267.877C237.594 267.939 237.592 268.033 237.588 268.158H232.947C232.986 268.842 233.18 269.365 233.527 269.729C233.875 270.092 234.309 270.273 234.828 270.273C235.215 270.273 235.545 270.172 235.818 269.969C236.092 269.766 236.309 269.441 236.469 268.996ZM233.006 267.291H236.48C236.434 266.768 236.301 266.375 236.082 266.113C235.746 265.707 235.311 265.504 234.775 265.504C234.291 265.504 233.883 265.666 233.551 265.99C233.223 266.314 233.041 266.748 233.006 267.291ZM237.922 264.777H242.979V265.65H240.975V271H239.926V265.65H237.922V264.777ZM35.791 276.777H36.8457V281.523L39.7695 276.777H40.9062V283H39.8516V278.283L36.9277 283H35.791V276.777ZM46.5547 280.721L47.5918 280.855C47.4785 281.57 47.1875 282.131 46.7188 282.537C46.2539 282.939 45.6816 283.141 45.002 283.141C44.1504 283.141 43.4648 282.863 42.9453 282.309C42.4297 281.75 42.1719 280.951 42.1719 279.912C42.1719 279.24 42.2832 278.652 42.5059 278.148C42.7285 277.645 43.0664 277.268 43.5195 277.018C43.9766 276.764 44.4727 276.637 45.0078 276.637C45.6836 276.637 46.2363 276.809 46.666 277.152C47.0957 277.492 47.3711 277.977 47.4922 278.605L46.4668 278.764C46.3691 278.346 46.1953 278.031 45.9453 277.82C45.6992 277.609 45.4004 277.504 45.0488 277.504C44.5176 277.504 44.0859 277.695 43.7539 278.078C43.4219 278.457 43.2559 279.059 43.2559 279.883C43.2559 280.719 43.416 281.326 43.7363 281.705C44.0566 282.084 44.4746 282.273 44.9902 282.273C45.4043 282.273 45.75 282.146 46.0273 281.893C46.3047 281.639 46.4805 281.248 46.5547 280.721ZM48.5 276.777H53.4102V283H52.3555V277.65H49.5547V283H48.5V276.777ZM54.6055 279.889C54.6055 278.736 54.9258 277.883 55.5664 277.328C56.1016 276.867 56.7539 276.637 57.5234 276.637C58.3789 276.637 59.0781 276.918 59.6211 277.48C60.1641 278.039 60.4355 278.812 60.4355 279.801C60.4355 280.602 60.3145 281.232 60.0723 281.693C59.834 282.15 59.4844 282.506 59.0234 282.76C58.5664 283.014 58.0664 283.141 57.5234 283.141C56.6523 283.141 55.9473 282.861 55.4082 282.303C54.873 281.744 54.6055 280.939 54.6055 279.889ZM55.6895 279.889C55.6895 280.686 55.8633 281.283 56.2109 281.682C56.5586 282.076 56.9961 282.273 57.5234 282.273C58.0469 282.273 58.4824 282.074 58.8301 281.676C59.1777 281.277 59.3516 280.67 59.3516 279.854C59.3516 279.084 59.1758 278.502 58.8242 278.107C58.4766 277.709 58.043 277.51 57.5234 277.51C56.9961 277.51 56.5586 277.707 56.2109 278.102C55.8633 278.496 55.6895 279.092 55.6895 279.889ZM61.9238 276.777H66.8223V283H65.7734V277.65H62.9785V280.75C62.9785 281.473 62.9551 281.949 62.9082 282.18C62.8613 282.41 62.7324 282.611 62.5215 282.783C62.3105 282.955 62.0059 283.041 61.6074 283.041C61.3613 283.041 61.0781 283.025 60.7578 282.994V282.115H61.2207C61.4395 282.115 61.5957 282.094 61.6895 282.051C61.7832 282.004 61.8457 281.932 61.877 281.834C61.9082 281.736 61.9238 281.418 61.9238 280.879V276.777ZM68.3984 276.777H69.4531V279.209H70.7891C71.6602 279.209 72.3301 279.379 72.7988 279.719C73.2715 280.055 73.5078 280.52 73.5078 281.113C73.5078 281.633 73.3105 282.078 72.916 282.449C72.5254 282.816 71.8984 283 71.0352 283H68.3984V276.777ZM69.4531 282.133H70.5605C71.2285 282.133 71.7051 282.051 71.9902 281.887C72.2754 281.723 72.418 281.467 72.418 281.119C72.418 280.85 72.3125 280.609 72.1016 280.398C71.8906 280.188 71.4238 280.082 70.7012 280.082H69.4531V282.133ZM76.0508 280.188V279.361C76.4961 279.357 76.7988 279.34 76.959 279.309C77.123 279.277 77.2773 279.184 77.4219 279.027C77.5664 278.871 77.6387 278.676 77.6387 278.441C77.6387 278.156 77.543 277.93 77.3516 277.762C77.1641 277.59 76.9199 277.504 76.6191 277.504C76.0254 277.504 75.6094 277.854 75.3711 278.553L74.3691 278.389C74.6816 277.221 75.4355 276.637 76.6309 276.637C77.2949 276.637 77.8145 276.818 78.1895 277.182C78.5684 277.545 78.7578 277.979 78.7578 278.482C78.7578 278.99 78.5117 279.395 78.0195 279.695C78.332 279.863 78.5664 280.078 78.7227 280.34C78.8789 280.598 78.957 280.904 78.957 281.26C78.957 281.818 78.7539 282.271 78.3477 282.619C77.9414 282.967 77.373 283.141 76.6426 283.141C75.2246 283.141 74.4023 282.51 74.1758 281.248L75.166 281.037C75.2559 281.436 75.4375 281.744 75.7109 281.963C75.9883 282.182 76.3047 282.291 76.6602 282.291C77.0156 282.291 77.3105 282.191 77.5449 281.992C77.7832 281.789 77.9023 281.531 77.9023 281.219C77.9023 280.977 77.8281 280.766 77.6797 280.586C77.5312 280.406 77.373 280.295 77.2051 280.252C77.0371 280.205 76.7324 280.182 76.291 280.182C76.2559 280.182 76.1758 280.184 76.0508 280.188ZM79.6484 279.889C79.6484 278.736 79.9688 277.883 80.6094 277.328C81.1445 276.867 81.7969 276.637 82.5664 276.637C83.4219 276.637 84.1211 276.918 84.6641 277.48C85.207 278.039 85.4785 278.812 85.4785 279.801C85.4785 280.602 85.3574 281.232 85.1152 281.693C84.877 282.15 84.5273 282.506 84.0664 282.76C83.6094 283.014 83.1094 283.141 82.5664 283.141C81.6953 283.141 80.9902 282.861 80.4512 282.303C79.916 281.744 79.6484 280.939 79.6484 279.889ZM80.7324 279.889C80.7324 280.686 80.9062 281.283 81.2539 281.682C81.6016 282.076 82.0391 282.273 82.5664 282.273C83.0898 282.273 83.5254 282.074 83.873 281.676C84.2207 281.277 84.3945 280.67 84.3945 279.854C84.3945 279.084 84.2188 278.502 83.8672 278.107C83.5195 277.709 83.0859 277.51 82.5664 277.51C82.0391 277.51 81.6016 277.707 81.2539 278.102C80.9062 278.496 80.7324 279.092 80.7324 279.889ZM86.7266 276.777H89.1582C89.7559 276.777 90.1992 276.828 90.4883 276.93C90.7812 277.027 91.0312 277.209 91.2383 277.475C91.4492 277.74 91.5547 278.059 91.5547 278.43C91.5547 278.727 91.4922 278.986 91.3672 279.209C91.2461 279.428 91.0625 279.611 90.8164 279.76C91.1094 279.857 91.3516 280.041 91.543 280.311C91.7383 280.576 91.8359 280.893 91.8359 281.26C91.7969 281.85 91.5859 282.287 91.2031 282.572C90.8203 282.857 90.2637 283 89.5332 283H86.7266V276.777ZM87.7812 279.396H88.9062C89.3555 279.396 89.6641 279.373 89.832 279.326C90 279.279 90.1504 279.186 90.2832 279.045C90.416 278.9 90.4824 278.729 90.4824 278.529C90.4824 278.201 90.3652 277.973 90.1309 277.844C89.9004 277.715 89.5039 277.65 88.9414 277.65H87.7812V279.396ZM87.7812 282.133H89.1699C89.7676 282.133 90.1777 282.064 90.4004 281.928C90.623 281.787 90.7402 281.547 90.752 281.207C90.752 281.008 90.6875 280.824 90.5586 280.656C90.4297 280.484 90.2617 280.377 90.0547 280.334C89.8477 280.287 89.5156 280.264 89.0586 280.264H87.7812V282.133ZM97.0156 282.232C96.625 282.564 96.248 282.799 95.8848 282.936C95.5254 283.072 95.1387 283.141 94.7246 283.141C94.041 283.141 93.5156 282.975 93.1484 282.643C92.7812 282.307 92.5977 281.879 92.5977 281.359C92.5977 281.055 92.666 280.777 92.8027 280.527C92.9434 280.273 93.125 280.07 93.3477 279.918C93.5742 279.766 93.8281 279.65 94.1094 279.572C94.3164 279.518 94.6289 279.465 95.0469 279.414C95.8984 279.312 96.5254 279.191 96.9277 279.051C96.9316 278.906 96.9336 278.814 96.9336 278.775C96.9336 278.346 96.834 278.043 96.6348 277.867C96.3652 277.629 95.9648 277.51 95.4336 277.51C94.9375 277.51 94.5703 277.598 94.332 277.773C94.0977 277.945 93.9238 278.252 93.8105 278.693L92.7793 278.553C92.873 278.111 93.0273 277.756 93.2422 277.486C93.457 277.213 93.7676 277.004 94.1738 276.859C94.5801 276.711 95.0508 276.637 95.5859 276.637C96.1172 276.637 96.5488 276.699 96.8809 276.824C97.2129 276.949 97.457 277.107 97.6133 277.299C97.7695 277.486 97.8789 277.725 97.9414 278.014C97.9766 278.193 97.9941 278.518 97.9941 278.986V280.393C97.9941 281.373 98.0156 281.994 98.0586 282.256C98.1055 282.514 98.1953 282.762 98.3281 283H97.2266C97.1172 282.781 97.0469 282.525 97.0156 282.232ZM96.9277 279.877C96.5449 280.033 95.9707 280.166 95.2051 280.275C94.7715 280.338 94.4648 280.408 94.2852 280.486C94.1055 280.564 93.9668 280.68 93.8691 280.832C93.7715 280.98 93.7227 281.146 93.7227 281.33C93.7227 281.611 93.8281 281.846 94.0391 282.033C94.2539 282.221 94.5664 282.314 94.9766 282.314C95.3828 282.314 95.7441 282.227 96.0605 282.051C96.377 281.871 96.6094 281.627 96.7578 281.318C96.8711 281.08 96.9277 280.729 96.9277 280.264V279.877ZM98.7969 276.777H103.854V277.65H101.85V283H100.801V277.65H98.7969V276.777ZM104.844 276.777H105.898V279.209H107.234C108.105 279.209 108.775 279.379 109.244 279.719C109.717 280.055 109.953 280.52 109.953 281.113C109.953 281.633 109.756 282.078 109.361 282.449C108.971 282.816 108.344 283 107.48 283H104.844V276.777ZM105.898 282.133H107.006C107.674 282.133 108.15 282.051 108.436 281.887C108.721 281.723 108.863 281.467 108.863 281.119C108.863 280.85 108.758 280.609 108.547 280.398C108.336 280.188 107.869 280.082 107.146 280.082H105.898V282.133ZM115.18 280.721L116.217 280.855C116.104 281.57 115.812 282.131 115.344 282.537C114.879 282.939 114.307 283.141 113.627 283.141C112.775 283.141 112.09 282.863 111.57 282.309C111.055 281.75 110.797 280.951 110.797 279.912C110.797 279.24 110.908 278.652 111.131 278.148C111.354 277.645 111.691 277.268 112.145 277.018C112.602 276.764 113.098 276.637 113.633 276.637C114.309 276.637 114.861 276.809 115.291 277.152C115.721 277.492 115.996 277.977 116.117 278.605L115.092 278.764C114.994 278.346 114.82 278.031 114.57 277.82C114.324 277.609 114.025 277.504 113.674 277.504C113.143 277.504 112.711 277.695 112.379 278.078C112.047 278.457 111.881 279.059 111.881 279.883C111.881 280.719 112.041 281.326 112.361 281.705C112.682 282.084 113.1 282.273 113.615 282.273C114.029 282.273 114.375 282.146 114.652 281.893C114.93 281.639 115.105 281.248 115.18 280.721ZM122.018 276.777V283H120.969V280.574H120.359C119.988 280.574 119.711 280.623 119.527 280.721C119.348 280.814 119.084 281.121 118.736 281.641L117.816 283H116.51L117.646 281.324C117.994 280.812 118.34 280.523 118.684 280.457C118.082 280.375 117.635 280.158 117.342 279.807C117.053 279.455 116.908 279.051 116.908 278.594C116.908 278.055 117.098 277.617 117.477 277.281C117.859 276.945 118.412 276.777 119.135 276.777H122.018ZM120.969 277.65H119.469C118.84 277.65 118.434 277.748 118.25 277.943C118.07 278.139 117.98 278.367 117.98 278.629C117.98 279 118.113 279.273 118.379 279.449C118.648 279.621 119.123 279.707 119.803 279.707H120.969V277.65ZM127.795 276.777H132.131V282.133H132.805V284.764H131.938V283H127.039V284.764H126.172V282.133H126.729C127.471 281.125 127.826 279.34 127.795 276.777ZM128.674 277.65C128.596 279.67 128.283 281.164 127.736 282.133H131.082V277.65H128.674ZM134.486 276.777H139.385V283H138.336V277.65H135.541V280.75C135.541 281.473 135.518 281.949 135.471 282.18C135.424 282.41 135.295 282.611 135.084 282.783C134.873 282.955 134.568 283.041 134.17 283.041C133.924 283.041 133.641 283.025 133.32 282.994V282.115H133.783C134.002 282.115 134.158 282.094 134.252 282.051C134.346 282.004 134.408 281.932 134.439 281.834C134.471 281.736 134.486 281.418 134.486 280.879V276.777ZM145.877 276.777V283H144.828V280.574H144.219C143.848 280.574 143.57 280.623 143.387 280.721C143.207 280.814 142.943 281.121 142.596 281.641L141.676 283H140.369L141.506 281.324C141.854 280.812 142.199 280.523 142.543 280.457C141.941 280.375 141.494 280.158 141.201 279.807C140.912 279.455 140.768 279.051 140.768 278.594C140.768 278.055 140.957 277.617 141.336 277.281C141.719 276.945 142.271 276.777 142.994 276.777H145.877ZM144.828 277.65H143.328C142.699 277.65 142.293 277.748 142.109 277.943C141.93 278.139 141.84 278.367 141.84 278.629C141.84 279 141.973 279.273 142.238 279.449C142.508 279.621 142.982 279.707 143.662 279.707H144.828V277.65ZM150.822 276.777H151.877V281.523L154.801 276.777H155.938V283H154.883V278.283L151.959 283H150.822V276.777ZM158.357 276.777H162.693V282.133H163.367V284.764H162.5V283H157.602V284.764H156.734V282.133H157.291C158.033 281.125 158.389 279.34 158.357 276.777ZM159.236 277.65C159.158 279.67 158.846 281.164 158.299 282.133H161.645V277.65H159.236ZM168.793 280.996L169.883 281.131C169.711 281.768 169.393 282.262 168.928 282.613C168.463 282.965 167.869 283.141 167.146 283.141C166.236 283.141 165.514 282.861 164.979 282.303C164.447 281.74 164.182 280.953 164.182 279.941C164.182 278.895 164.451 278.082 164.99 277.504C165.529 276.926 166.229 276.637 167.088 276.637C167.92 276.637 168.6 276.92 169.127 277.486C169.654 278.053 169.918 278.85 169.918 279.877C169.918 279.939 169.916 280.033 169.912 280.158H165.271C165.311 280.842 165.504 281.365 165.852 281.729C166.199 282.092 166.633 282.273 167.152 282.273C167.539 282.273 167.869 282.172 168.143 281.969C168.416 281.766 168.633 281.441 168.793 280.996ZM165.33 279.291H168.805C168.758 278.768 168.625 278.375 168.406 278.113C168.07 277.707 167.635 277.504 167.1 277.504C166.615 277.504 166.207 277.666 165.875 277.99C165.547 278.314 165.365 278.748 165.33 279.291ZM171.219 276.777H172.273V279.367H175.197V276.777H176.252V283H175.197V280.24H172.273V283H171.219V276.777ZM177.277 276.777H182.334V277.65H180.33V283H179.281V277.65H177.277V276.777ZM183.342 276.777H184.396V281.523L187.32 276.777H188.457V283H187.402V278.283L184.479 283H183.342V276.777ZM193.666 274.41H194.721V277.381C194.939 277.131 195.18 276.945 195.441 276.824C195.703 276.699 195.984 276.637 196.285 276.637C197.023 276.637 197.607 276.945 198.037 277.562C198.471 278.176 198.688 278.949 198.688 279.883C198.688 280.855 198.455 281.643 197.99 282.244C197.525 282.842 196.947 283.141 196.256 283.141C196.029 283.141 195.799 283.105 195.564 283.035C195.33 282.965 195.049 282.773 194.721 282.461V285.385H193.666V282.461C193.455 282.688 193.221 282.857 192.963 282.971C192.709 283.084 192.434 283.141 192.137 283.141C191.484 283.141 190.914 282.855 190.426 282.285C189.938 281.711 189.693 280.891 189.693 279.824C189.693 278.922 189.914 278.166 190.355 277.557C190.797 276.943 191.391 276.637 192.137 276.637C192.449 276.637 192.732 276.699 192.986 276.824C193.24 276.945 193.467 277.131 193.666 277.381V274.41ZM194.715 279.912C194.715 280.85 194.844 281.48 195.102 281.805C195.359 282.125 195.682 282.285 196.068 282.285C196.498 282.285 196.863 282.088 197.164 281.693C197.469 281.295 197.621 280.678 197.621 279.842C197.621 279.053 197.48 278.465 197.199 278.078C196.922 277.691 196.564 277.498 196.127 277.498C195.658 277.498 195.305 277.699 195.066 278.102C194.832 278.504 194.715 279.107 194.715 279.912ZM190.766 279.795C190.766 280.674 190.912 281.307 191.205 281.693C191.502 282.08 191.869 282.273 192.307 282.273C192.764 282.273 193.105 282.082 193.332 281.699C193.559 281.312 193.672 280.734 193.672 279.965C193.672 279.145 193.553 278.529 193.314 278.119C193.076 277.709 192.717 277.504 192.236 277.504C191.803 277.504 191.449 277.705 191.176 278.107C190.902 278.506 190.766 279.068 190.766 279.795ZM199.924 276.777H200.979V281.523L203.902 276.777H205.039V283H203.984V278.283L201.061 283H199.924V276.777ZM206.621 276.777H207.676V279.467C208.012 279.467 208.246 279.402 208.379 279.273C208.516 279.145 208.715 278.77 208.977 278.148C209.184 277.656 209.352 277.332 209.48 277.176C209.609 277.02 209.758 276.914 209.926 276.859C210.094 276.805 210.363 276.777 210.734 276.777H210.945V277.65L210.652 277.645C210.375 277.645 210.197 277.686 210.119 277.768C210.037 277.854 209.912 278.109 209.744 278.535C209.584 278.941 209.438 279.223 209.305 279.379C209.172 279.535 208.967 279.678 208.689 279.807C209.143 279.928 209.588 280.35 210.025 281.072L211.18 283H210.02L208.895 281.072C208.664 280.686 208.463 280.432 208.291 280.311C208.119 280.186 207.914 280.123 207.676 280.123V283H206.621V276.777ZM216.207 282.232C215.816 282.564 215.439 282.799 215.076 282.936C214.717 283.072 214.33 283.141 213.916 283.141C213.232 283.141 212.707 282.975 212.34 282.643C211.973 282.307 211.789 281.879 211.789 281.359C211.789 281.055 211.857 280.777 211.994 280.527C212.135 280.273 212.316 280.07 212.539 279.918C212.766 279.766 213.02 279.65 213.301 279.572C213.508 279.518 213.82 279.465 214.238 279.414C215.09 279.312 215.717 279.191 216.119 279.051C216.123 278.906 216.125 278.814 216.125 278.775C216.125 278.346 216.025 278.043 215.826 277.867C215.557 277.629 215.156 277.51 214.625 277.51C214.129 277.51 213.762 277.598 213.523 277.773C213.289 277.945 213.115 278.252 213.002 278.693L211.971 278.553C212.064 278.111 212.219 277.756 212.434 277.486C212.648 277.213 212.959 277.004 213.365 276.859C213.771 276.711 214.242 276.637 214.777 276.637C215.309 276.637 215.74 276.699 216.072 276.824C216.404 276.949 216.648 277.107 216.805 277.299C216.961 277.486 217.07 277.725 217.133 278.014C217.168 278.193 217.186 278.518 217.186 278.986V280.393C217.186 281.373 217.207 281.994 217.25 282.256C217.297 282.514 217.387 282.762 217.52 283H216.418C216.309 282.781 216.238 282.525 216.207 282.232ZM216.119 279.877C215.736 280.033 215.162 280.166 214.396 280.275C213.963 280.338 213.656 280.408 213.477 280.486C213.297 280.564 213.158 280.68 213.061 280.832C212.963 280.98 212.914 281.146 212.914 281.33C212.914 281.611 213.02 281.846 213.23 282.033C213.445 282.221 213.758 282.314 214.168 282.314C214.574 282.314 214.936 282.227 215.252 282.051C215.568 281.871 215.801 281.627 215.949 281.318C216.062 281.08 216.119 280.729 216.119 280.264V279.877ZM218.844 276.777H219.898V282.133H222.816V276.777H223.871V282.133H224.551V284.764H223.684V283H218.844V276.777ZM225.705 276.777H226.76V281.523L229.684 276.777H230.82V283H229.766V278.283L226.842 283H225.705V276.777ZM232.408 276.777H233.463V281.523L236.387 276.777H237.523V283H236.469V278.283L233.545 283H232.408V276.777ZM242.539 283V274.41H245.762C246.418 274.41 246.943 274.498 247.338 274.674C247.736 274.846 248.047 275.113 248.27 275.477C248.496 275.836 248.609 276.213 248.609 276.607C248.609 276.975 248.51 277.32 248.311 277.645C248.111 277.969 247.811 278.23 247.408 278.43C247.928 278.582 248.326 278.842 248.604 279.209C248.885 279.576 249.025 280.01 249.025 280.51C249.025 280.912 248.939 281.287 248.768 281.635C248.6 281.979 248.391 282.244 248.141 282.432C247.891 282.619 247.576 282.762 247.197 282.859C246.822 282.953 246.361 283 245.814 283H242.539ZM243.676 278.02H245.533C246.037 278.02 246.398 277.986 246.617 277.92C246.906 277.834 247.123 277.691 247.268 277.492C247.416 277.293 247.49 277.043 247.49 276.742C247.49 276.457 247.422 276.207 247.285 275.992C247.148 275.773 246.953 275.625 246.699 275.547C246.445 275.465 246.01 275.424 245.393 275.424H243.676V278.02ZM243.676 281.986H245.814C246.182 281.986 246.439 281.973 246.588 281.945C246.85 281.898 247.068 281.82 247.244 281.711C247.42 281.602 247.564 281.443 247.678 281.236C247.791 281.025 247.848 280.783 247.848 280.51C247.848 280.189 247.766 279.912 247.602 279.678C247.438 279.439 247.209 279.273 246.916 279.18C246.627 279.082 246.209 279.033 245.662 279.033H243.676V281.986ZM254.516 282.232C254.125 282.564 253.748 282.799 253.385 282.936C253.025 283.072 252.639 283.141 252.225 283.141C251.541 283.141 251.016 282.975 250.648 282.643C250.281 282.307 250.098 281.879 250.098 281.359C250.098 281.055 250.166 280.777 250.303 280.527C250.443 280.273 250.625 280.07 250.848 279.918C251.074 279.766 251.328 279.65 251.609 279.572C251.816 279.518 252.129 279.465 252.547 279.414C253.398 279.312 254.025 279.191 254.428 279.051C254.432 278.906 254.434 278.814 254.434 278.775C254.434 278.346 254.334 278.043 254.135 277.867C253.865 277.629 253.465 277.51 252.934 277.51C252.438 277.51 252.07 277.598 251.832 277.773C251.598 277.945 251.424 278.252 251.311 278.693L250.279 278.553C250.373 278.111 250.527 277.756 250.742 277.486C250.957 277.213 251.268 277.004 251.674 276.859C252.08 276.711 252.551 276.637 253.086 276.637C253.617 276.637 254.049 276.699 254.381 276.824C254.713 276.949 254.957 277.107 255.113 277.299C255.27 277.486 255.379 277.725 255.441 278.014C255.477 278.193 255.494 278.518 255.494 278.986V280.393C255.494 281.373 255.516 281.994 255.559 282.256C255.605 282.514 255.695 282.762 255.828 283H254.727C254.617 282.781 254.547 282.525 254.516 282.232ZM254.428 279.877C254.045 280.033 253.471 280.166 252.705 280.275C252.271 280.338 251.965 280.408 251.785 280.486C251.605 280.564 251.467 280.68 251.369 280.832C251.271 280.98 251.223 281.146 251.223 281.33C251.223 281.611 251.328 281.846 251.539 282.033C251.754 282.221 252.066 282.314 252.477 282.314C252.883 282.314 253.244 282.227 253.561 282.051C253.877 281.871 254.109 281.627 254.258 281.318C254.371 281.08 254.428 280.729 254.428 280.264V279.877ZM261.195 280.721L262.232 280.855C262.119 281.57 261.828 282.131 261.359 282.537C260.895 282.939 260.322 283.141 259.643 283.141C258.791 283.141 258.105 282.863 257.586 282.309C257.07 281.75 256.812 280.951 256.812 279.912C256.812 279.24 256.924 278.652 257.146 278.148C257.369 277.645 257.707 277.268 258.16 277.018C258.617 276.764 259.113 276.637 259.648 276.637C260.324 276.637 260.877 276.809 261.307 277.152C261.736 277.492 262.012 277.977 262.133 278.605L261.107 278.764C261.01 278.346 260.836 278.031 260.586 277.82C260.34 277.609 260.041 277.504 259.689 277.504C259.158 277.504 258.727 277.695 258.395 278.078C258.062 278.457 257.896 279.059 257.896 279.883C257.896 280.719 258.057 281.326 258.377 281.705C258.697 282.084 259.115 282.273 259.631 282.273C260.045 282.273 260.391 282.146 260.668 281.893C260.945 281.639 261.121 281.248 261.195 280.721ZM263.41 283V281.799H264.611V283C264.611 283.441 264.533 283.797 264.377 284.066C264.221 284.34 263.973 284.551 263.633 284.699L263.34 284.248C263.562 284.15 263.727 284.006 263.832 283.814C263.938 283.627 263.996 283.355 264.008 283H263.41ZM35.7852 288.777H36.8398V291.467C37.1758 291.467 37.4102 291.402 37.543 291.273C37.6797 291.145 37.8789 290.77 38.1406 290.148C38.3477 289.656 38.5156 289.332 38.6445 289.176C38.7734 289.02 38.9219 288.914 39.0898 288.859C39.2578 288.805 39.5273 288.777 39.8984 288.777H40.1094V289.65L39.8164 289.645C39.5391 289.645 39.3613 289.686 39.2832 289.768C39.2012 289.854 39.0762 290.109 38.9082 290.535C38.748 290.941 38.6016 291.223 38.4688 291.379C38.3359 291.535 38.1309 291.678 37.8535 291.807C38.3066 291.928 38.752 292.35 39.1895 293.072L40.3438 295H39.1836L38.0586 293.072C37.8281 292.686 37.627 292.432 37.4551 292.311C37.2832 292.186 37.0781 292.123 36.8398 292.123V295H35.7852V288.777ZM45.3711 294.232C44.9805 294.564 44.6035 294.799 44.2402 294.936C43.8809 295.072 43.4941 295.141 43.0801 295.141C42.3965 295.141 41.8711 294.975 41.5039 294.643C41.1367 294.307 40.9531 293.879 40.9531 293.359C40.9531 293.055 41.0215 292.777 41.1582 292.527C41.2988 292.273 41.4805 292.07 41.7031 291.918C41.9297 291.766 42.1836 291.65 42.4648 291.572C42.6719 291.518 42.9844 291.465 43.4023 291.414C44.2539 291.312 44.8809 291.191 45.2832 291.051C45.2871 290.906 45.2891 290.814 45.2891 290.775C45.2891 290.346 45.1895 290.043 44.9902 289.867C44.7207 289.629 44.3203 289.51 43.7891 289.51C43.293 289.51 42.9258 289.598 42.6875 289.773C42.4531 289.945 42.2793 290.252 42.166 290.693L41.1348 290.553C41.2285 290.111 41.3828 289.756 41.5977 289.486C41.8125 289.213 42.123 289.004 42.5293 288.859C42.9355 288.711 43.4062 288.637 43.9414 288.637C44.4727 288.637 44.9043 288.699 45.2363 288.824C45.5684 288.949 45.8125 289.107 45.9688 289.299C46.125 289.486 46.2344 289.725 46.2969 290.014C46.332 290.193 46.3496 290.518 46.3496 290.986V292.393C46.3496 293.373 46.3711 293.994 46.4141 294.256C46.4609 294.514 46.5508 294.762 46.6836 295H45.582C45.4727 294.781 45.4023 294.525 45.3711 294.232ZM45.2832 291.877C44.9004 292.033 44.3262 292.166 43.5605 292.275C43.127 292.338 42.8203 292.408 42.6406 292.486C42.4609 292.564 42.3223 292.68 42.2246 292.832C42.127 292.98 42.0781 293.146 42.0781 293.33C42.0781 293.611 42.1836 293.846 42.3945 294.033C42.6094 294.221 42.9219 294.314 43.332 294.314C43.7383 294.314 44.0996 294.227 44.416 294.051C44.7324 293.871 44.9648 293.627 45.1133 293.318C45.2266 293.08 45.2832 292.729 45.2832 292.264V291.877ZM47.9844 288.777H49.0391V291.467C49.375 291.467 49.6094 291.402 49.7422 291.273C49.8789 291.145 50.0781 290.77 50.3398 290.148C50.5469 289.656 50.7148 289.332 50.8438 289.176C50.9727 289.02 51.1211 288.914 51.2891 288.859C51.457 288.805 51.7266 288.777 52.0977 288.777H52.3086V289.65L52.0156 289.645C51.7383 289.645 51.5605 289.686 51.4824 289.768C51.4004 289.854 51.2754 290.109 51.1074 290.535C50.9473 290.941 50.8008 291.223 50.668 291.379C50.5352 291.535 50.3301 291.678 50.0527 291.807C50.5059 291.928 50.9512 292.35 51.3887 293.072L52.543 295H51.3828L50.2578 293.072C50.0273 292.686 49.8262 292.432 49.6543 292.311C49.4824 292.186 49.2773 292.123 49.0391 292.123V295H47.9844V288.777ZM57.4121 288.777H61.748V294.133H62.4219V296.764H61.5547V295H56.6562V296.764H55.7891V294.133H56.3457C57.0879 293.125 57.4434 291.34 57.4121 288.777ZM58.291 289.65C58.2129 291.67 57.9004 293.164 57.3535 294.133H60.6992V289.65H58.291ZM67.8477 292.996L68.9375 293.131C68.7656 293.768 68.4473 294.262 67.9824 294.613C67.5176 294.965 66.9238 295.141 66.2012 295.141C65.291 295.141 64.5684 294.861 64.0332 294.303C63.502 293.74 63.2363 292.953 63.2363 291.941C63.2363 290.895 63.5059 290.082 64.0449 289.504C64.584 288.926 65.2832 288.637 66.1426 288.637C66.9746 288.637 67.6543 288.92 68.1816 289.486C68.709 290.053 68.9727 290.85 68.9727 291.877C68.9727 291.939 68.9707 292.033 68.9668 292.158H64.3262C64.3652 292.842 64.5586 293.365 64.9062 293.729C65.2539 294.092 65.6875 294.273 66.207 294.273C66.5938 294.273 66.9238 294.172 67.1973 293.969C67.4707 293.766 67.6875 293.441 67.8477 292.996ZM64.3848 291.291H67.8594C67.8125 290.768 67.6797 290.375 67.4609 290.113C67.125 289.707 66.6895 289.504 66.1543 289.504C65.6699 289.504 65.2617 289.666 64.9297 289.99C64.6016 290.314 64.4199 290.748 64.3848 291.291ZM70.2676 297.385V288.777H71.2285V289.586C71.4551 289.27 71.7109 289.033 71.9961 288.877C72.2812 288.717 72.627 288.637 73.0332 288.637C73.5645 288.637 74.0332 288.773 74.4395 289.047C74.8457 289.32 75.1523 289.707 75.3594 290.207C75.5664 290.703 75.6699 291.248 75.6699 291.842C75.6699 292.479 75.5547 293.053 75.3242 293.564C75.0977 294.072 74.7656 294.463 74.3281 294.736C73.8945 295.006 73.4375 295.141 72.957 295.141C72.6055 295.141 72.2891 295.066 72.0078 294.918C71.7305 294.77 71.502 294.582 71.3223 294.355V297.385H70.2676ZM71.2227 291.924C71.2227 292.725 71.3848 293.316 71.709 293.699C72.0332 294.082 72.4258 294.273 72.8867 294.273C73.3555 294.273 73.7559 294.076 74.0879 293.682C74.4238 293.283 74.5918 292.668 74.5918 291.836C74.5918 291.043 74.4277 290.449 74.0996 290.055C73.7754 289.66 73.3867 289.463 72.9336 289.463C72.4844 289.463 72.0859 289.674 71.7383 290.096C71.3945 290.514 71.2227 291.123 71.2227 291.924ZM80.709 288.777V291.467C81.0449 291.467 81.2812 291.402 81.418 291.273C81.5547 291.145 81.7539 290.77 82.0156 290.148C82.2617 289.559 82.4824 289.182 82.6777 289.018C82.8691 288.857 83.1738 288.777 83.5918 288.777H83.9785V289.65L83.6914 289.645C83.4102 289.645 83.2305 289.686 83.1523 289.768C83.0703 289.854 82.9453 290.109 82.7773 290.535C82.6211 290.941 82.4766 291.223 82.3438 291.379C82.2109 291.535 82.0039 291.678 81.7227 291.807C82.1797 291.928 82.625 292.35 83.0586 293.072L84.2188 295H83.0586L81.9277 293.072C81.6973 292.682 81.4961 292.426 81.3242 292.305C81.1523 292.184 80.9473 292.123 80.709 292.123V295H79.6309V292.123C79.3965 292.123 79.1934 292.184 79.0215 292.305C78.8496 292.422 78.6484 292.678 78.418 293.072L77.2871 295H76.127L77.2812 293.072C77.7188 292.35 78.166 291.928 78.623 291.807C78.3105 291.662 78.0918 291.506 77.9668 291.338C77.8418 291.166 77.6543 290.76 77.4043 290.119C77.3184 289.904 77.2266 289.771 77.1289 289.721C77.0273 289.67 76.877 289.645 76.6777 289.645C76.627 289.645 76.5234 289.646 76.3672 289.65V288.777H76.5137C76.9199 288.777 77.2051 288.803 77.3691 288.854C77.5371 288.9 77.6855 289.004 77.8145 289.164C77.9473 289.32 78.1191 289.648 78.3301 290.148C78.5879 290.762 78.7832 291.135 78.916 291.268C79.0527 291.4 79.291 291.467 79.6309 291.467V288.777H80.709ZM89.0352 294.232C88.6445 294.564 88.2676 294.799 87.9043 294.936C87.5449 295.072 87.1582 295.141 86.7441 295.141C86.0605 295.141 85.5352 294.975 85.168 294.643C84.8008 294.307 84.6172 293.879 84.6172 293.359C84.6172 293.055 84.6855 292.777 84.8223 292.527C84.9629 292.273 85.1445 292.07 85.3672 291.918C85.5938 291.766 85.8477 291.65 86.1289 291.572C86.3359 291.518 86.6484 291.465 87.0664 291.414C87.918 291.312 88.5449 291.191 88.9473 291.051C88.9512 290.906 88.9531 290.814 88.9531 290.775C88.9531 290.346 88.8535 290.043 88.6543 289.867C88.3848 289.629 87.9844 289.51 87.4531 289.51C86.957 289.51 86.5898 289.598 86.3516 289.773C86.1172 289.945 85.9434 290.252 85.8301 290.693L84.7988 290.553C84.8926 290.111 85.0469 289.756 85.2617 289.486C85.4766 289.213 85.7871 289.004 86.1934 288.859C86.5996 288.711 87.0703 288.637 87.6055 288.637C88.1367 288.637 88.5684 288.699 88.9004 288.824C89.2324 288.949 89.4766 289.107 89.6328 289.299C89.7891 289.486 89.8984 289.725 89.9609 290.014C89.9961 290.193 90.0137 290.518 90.0137 290.986V292.393C90.0137 293.373 90.0352 293.994 90.0781 294.256C90.125 294.514 90.2148 294.762 90.3477 295H89.2461C89.1367 294.781 89.0664 294.525 89.0352 294.232ZM88.9473 291.877C88.5645 292.033 87.9902 292.166 87.2246 292.275C86.791 292.338 86.4844 292.408 86.3047 292.486C86.125 292.564 85.9863 292.68 85.8887 292.832C85.791 292.98 85.7422 293.146 85.7422 293.33C85.7422 293.611 85.8477 293.846 86.0586 294.033C86.2734 294.221 86.5859 294.314 86.9961 294.314C87.4023 294.314 87.7637 294.227 88.0801 294.051C88.3965 293.871 88.6289 293.627 88.7773 293.318C88.8906 293.08 88.9473 292.729 88.9473 292.264V291.877ZM90.8164 288.777H95.873V289.65H93.8691V295H92.8203V289.65H90.8164V288.777ZM101 292.996L102.09 293.131C101.918 293.768 101.6 294.262 101.135 294.613C100.67 294.965 100.076 295.141 99.3535 295.141C98.4434 295.141 97.7207 294.861 97.1855 294.303C96.6543 293.74 96.3887 292.953 96.3887 291.941C96.3887 290.895 96.6582 290.082 97.1973 289.504C97.7363 288.926 98.4355 288.637 99.2949 288.637C100.127 288.637 100.807 288.92 101.334 289.486C101.861 290.053 102.125 290.85 102.125 291.877C102.125 291.939 102.123 292.033 102.119 292.158H97.4785C97.5176 292.842 97.7109 293.365 98.0586 293.729C98.4062 294.092 98.8398 294.273 99.3594 294.273C99.7461 294.273 100.076 294.172 100.35 293.969C100.623 293.766 100.84 293.441 101 292.996ZM97.5371 291.291H101.012C100.965 290.768 100.832 290.375 100.613 290.113C100.277 289.707 99.8418 289.504 99.3066 289.504C98.8223 289.504 98.4141 289.666 98.082 289.99C97.7539 290.314 97.5723 290.748 97.5371 291.291ZM103.537 288.777H108.436V295H107.387V289.65H104.592V292.75C104.592 293.473 104.568 293.949 104.521 294.18C104.475 294.41 104.346 294.611 104.135 294.783C103.924 294.955 103.619 295.041 103.221 295.041C102.975 295.041 102.691 295.025 102.371 294.994V294.115H102.834C103.053 294.115 103.209 294.094 103.303 294.051C103.396 294.004 103.459 293.932 103.49 293.834C103.521 293.736 103.537 293.418 103.537 292.879V288.777ZM114.928 288.777V295H113.879V292.574H113.27C112.898 292.574 112.621 292.623 112.438 292.721C112.258 292.814 111.994 293.121 111.646 293.641L110.727 295H109.42L110.557 293.324C110.904 292.812 111.25 292.523 111.594 292.457C110.992 292.375 110.545 292.158 110.252 291.807C109.963 291.455 109.818 291.051 109.818 290.594C109.818 290.055 110.008 289.617 110.387 289.281C110.77 288.945 111.322 288.777 112.045 288.777H114.928ZM113.879 289.65H112.379C111.75 289.65 111.344 289.748 111.16 289.943C110.98 290.139 110.891 290.367 110.891 290.629C110.891 291 111.023 291.273 111.289 291.449C111.559 291.621 112.033 291.707 112.713 291.707H113.879V289.65ZM119.867 288.777H120.922V291.467C121.258 291.467 121.492 291.402 121.625 291.273C121.762 291.145 121.961 290.77 122.223 290.148C122.43 289.656 122.598 289.332 122.727 289.176C122.855 289.02 123.004 288.914 123.172 288.859C123.34 288.805 123.609 288.777 123.98 288.777H124.191V289.65L123.898 289.645C123.621 289.645 123.443 289.686 123.365 289.768C123.283 289.854 123.158 290.109 122.99 290.535C122.83 290.941 122.684 291.223 122.551 291.379C122.418 291.535 122.213 291.678 121.936 291.807C122.389 291.928 122.834 292.35 123.271 293.072L124.426 295H123.266L122.141 293.072C121.91 292.686 121.709 292.432 121.537 292.311C121.365 292.186 121.16 292.123 120.922 292.123V295H119.867V288.777ZM129.453 294.232C129.062 294.564 128.686 294.799 128.322 294.936C127.963 295.072 127.576 295.141 127.162 295.141C126.479 295.141 125.953 294.975 125.586 294.643C125.219 294.307 125.035 293.879 125.035 293.359C125.035 293.055 125.104 292.777 125.24 292.527C125.381 292.273 125.562 292.07 125.785 291.918C126.012 291.766 126.266 291.65 126.547 291.572C126.754 291.518 127.066 291.465 127.484 291.414C128.336 291.312 128.963 291.191 129.365 291.051C129.369 290.906 129.371 290.814 129.371 290.775C129.371 290.346 129.271 290.043 129.072 289.867C128.803 289.629 128.402 289.51 127.871 289.51C127.375 289.51 127.008 289.598 126.77 289.773C126.535 289.945 126.361 290.252 126.248 290.693L125.217 290.553C125.311 290.111 125.465 289.756 125.68 289.486C125.895 289.213 126.205 289.004 126.611 288.859C127.018 288.711 127.488 288.637 128.023 288.637C128.555 288.637 128.986 288.699 129.318 288.824C129.65 288.949 129.895 289.107 130.051 289.299C130.207 289.486 130.316 289.725 130.379 290.014C130.414 290.193 130.432 290.518 130.432 290.986V292.393C130.432 293.373 130.453 293.994 130.496 294.256C130.543 294.514 130.633 294.762 130.766 295H129.664C129.555 294.781 129.484 294.525 129.453 294.232ZM129.365 291.877C128.982 292.033 128.408 292.166 127.643 292.275C127.209 292.338 126.902 292.408 126.723 292.486C126.543 292.564 126.404 292.68 126.307 292.832C126.209 292.98 126.16 293.146 126.16 293.33C126.16 293.611 126.266 293.846 126.477 294.033C126.691 294.221 127.004 294.314 127.414 294.314C127.82 294.314 128.182 294.227 128.498 294.051C128.814 293.871 129.047 293.627 129.195 293.318C129.309 293.08 129.365 292.729 129.365 292.264V291.877ZM132.072 297.385V288.777H133.033V289.586C133.26 289.27 133.516 289.033 133.801 288.877C134.086 288.717 134.432 288.637 134.838 288.637C135.369 288.637 135.838 288.773 136.244 289.047C136.65 289.32 136.957 289.707 137.164 290.207C137.371 290.703 137.475 291.248 137.475 291.842C137.475 292.479 137.359 293.053 137.129 293.564C136.902 294.072 136.57 294.463 136.133 294.736C135.699 295.006 135.242 295.141 134.762 295.141C134.41 295.141 134.094 295.066 133.812 294.918C133.535 294.77 133.307 294.582 133.127 294.355V297.385H132.072ZM133.027 291.924C133.027 292.725 133.189 293.316 133.514 293.699C133.838 294.082 134.23 294.273 134.691 294.273C135.16 294.273 135.561 294.076 135.893 293.682C136.229 293.283 136.396 292.668 136.396 291.836C136.396 291.043 136.232 290.449 135.904 290.055C135.58 289.66 135.191 289.463 134.738 289.463C134.289 289.463 133.891 289.674 133.543 290.096C133.199 290.514 133.027 291.123 133.027 291.924ZM137.914 288.777H142.971V289.65H140.967V295H139.918V289.65H137.914V288.777ZM149.902 288.777H150.957V295H149.902V288.777ZM144.002 288.777H145.057V291.209H146.393C147.264 291.209 147.934 291.379 148.402 291.719C148.875 292.055 149.111 292.52 149.111 293.113C149.111 293.633 148.914 294.078 148.52 294.449C148.129 294.816 147.502 295 146.639 295H144.002V288.777ZM145.057 294.133H146.164C146.832 294.133 147.309 294.051 147.594 293.887C147.879 293.723 148.021 293.467 148.021 293.119C148.021 292.85 147.916 292.609 147.705 292.398C147.494 292.188 147.027 292.082 146.305 292.082H145.057V294.133Z" fill="black"/>
<path d="M36.102 207.966H37.4298V212.36C38.0366 212.36 38.4633 212.244 38.7097 212.011C38.9561 211.774 39.2709 211.208 39.6542 210.314C39.9326 209.657 40.1607 209.194 40.3387 208.924C40.5212 208.651 40.779 208.422 41.1121 208.24C41.4452 208.053 41.8125 207.959 42.214 207.959C42.7251 207.959 42.9943 207.964 43.0217 207.973V209.123C42.976 209.123 42.8871 209.12 42.7547 209.116C42.6087 209.111 42.5197 209.109 42.4878 209.109C42.0635 209.109 41.7486 209.212 41.5433 209.417C41.3334 209.622 41.0938 210.06 40.8246 210.731C40.487 211.58 40.2018 212.116 39.9691 212.34C39.7363 212.559 39.458 212.734 39.134 212.867C39.782 213.045 40.4208 213.642 41.0505 214.66L43.1175 218H41.468L39.7911 215.276C39.3302 214.523 38.9447 214.007 38.6344 213.729C38.3241 213.446 37.9226 213.305 37.4298 213.305V218H36.102V207.966ZM43.6856 213.113C43.6856 211.448 44.1328 210.145 45.0271 209.205C45.9214 208.26 47.0759 207.788 48.4904 207.788C49.4166 207.788 50.2517 208.009 50.9954 208.452C51.7392 208.895 52.305 209.513 52.6928 210.307C53.0853 211.096 53.2815 211.993 53.2815 212.997C53.2815 214.014 53.0761 214.925 52.6655 215.728C52.2548 216.531 51.673 217.14 50.9201 217.555C50.1673 217.966 49.355 218.171 48.4835 218.171C47.539 218.171 46.6948 217.943 45.9511 217.487C45.2073 217.03 44.6438 216.408 44.2605 215.618C43.8772 214.829 43.6856 213.994 43.6856 213.113ZM45.0545 213.134C45.0545 214.343 45.3784 215.296 46.0264 215.995C46.6789 216.688 47.4956 217.035 48.4767 217.035C49.476 217.035 50.2973 216.684 50.9407 215.981C51.5886 215.278 51.9126 214.281 51.9126 212.99C51.9126 212.173 51.7734 211.461 51.4951 210.854C51.2213 210.243 50.8175 209.771 50.2836 209.438C49.7543 209.1 49.1588 208.931 48.4972 208.931C47.5572 208.931 46.7473 209.255 46.0674 209.903C45.3921 210.546 45.0545 211.623 45.0545 213.134ZM55.5949 207.966H61.7001V216.816H62.6036V220.341H61.4195V218H54.7872V220.341H53.6032V216.816H54.3834C55.1911 215.598 55.5949 213.136 55.5949 209.431V207.966ZM60.3723 209.15H56.8748V209.663C56.8748 210.517 56.7972 211.685 56.6421 213.168C56.4915 214.646 56.1926 215.862 55.7455 216.816H60.3723V209.15ZM63.7808 213.113C63.7808 211.448 64.228 210.145 65.1223 209.205C66.0167 208.26 67.1711 207.788 68.5856 207.788C69.5119 207.788 70.3469 208.009 71.0907 208.452C71.8344 208.895 72.4002 209.513 72.7881 210.307C73.1805 211.096 73.3767 211.993 73.3767 212.997C73.3767 214.014 73.1714 214.925 72.7607 215.728C72.35 216.531 71.7683 217.14 71.0154 217.555C70.2625 217.966 69.4503 218.171 68.5788 218.171C67.6342 218.171 66.7901 217.943 66.0463 217.487C65.3026 217.03 64.739 216.408 64.3558 215.618C63.9725 214.829 63.7808 213.994 63.7808 213.113ZM65.1497 213.134C65.1497 214.343 65.4737 215.296 66.1216 215.995C66.7741 216.688 67.5909 217.035 68.5719 217.035C69.5712 217.035 70.3925 216.684 71.0359 215.981C71.6839 215.278 72.0078 214.281 72.0078 212.99C72.0078 212.173 71.8687 211.461 71.5903 210.854C71.3165 210.243 70.9127 209.771 70.3789 209.438C69.8496 209.1 69.2541 208.931 68.5925 208.931C67.6525 208.931 66.8426 209.255 66.1627 209.903C65.4874 210.546 65.1497 211.623 65.1497 213.134ZM75.0399 218V207.966H78.8043C79.5709 207.966 80.1846 208.069 80.6455 208.274C81.1109 208.475 81.4737 208.787 81.7338 209.212C81.9984 209.632 82.1307 210.072 82.1307 210.533C82.1307 210.962 82.0144 211.365 81.7817 211.744C81.549 212.123 81.1976 212.429 80.7276 212.661C81.3345 212.839 81.7999 213.143 82.1239 213.572C82.4524 214.001 82.6167 214.507 82.6167 215.091C82.6167 215.561 82.5163 215.999 82.3155 216.405C82.1193 216.807 81.8752 217.117 81.5832 217.336C81.2912 217.555 80.9238 217.722 80.4812 217.836C80.0432 217.945 79.5048 218 78.8659 218H75.0399ZM76.3677 212.182H78.5374C79.126 212.182 79.5481 212.143 79.8036 212.066C80.1413 211.965 80.3945 211.799 80.5634 211.566C80.7368 211.334 80.8235 211.041 80.8235 210.69C80.8235 210.357 80.7436 210.065 80.5839 209.814C80.4242 209.559 80.196 209.385 79.8995 209.294C79.6029 209.198 79.0941 209.15 78.3731 209.15H76.3677V212.182ZM76.3677 216.816H78.8659C79.2949 216.816 79.596 216.8 79.7694 216.768C80.0751 216.713 80.3307 216.622 80.536 216.494C80.7413 216.366 80.9101 216.182 81.0425 215.94C81.1748 215.693 81.241 215.411 81.241 215.091C81.241 214.717 81.1451 214.393 80.9535 214.119C80.7619 213.841 80.4949 213.647 80.1527 213.537C79.815 213.423 79.3268 213.366 78.688 213.366H76.3677V216.816ZM83.5749 213.113C83.5749 211.448 84.0221 210.145 84.9164 209.205C85.8108 208.26 86.9652 207.788 88.3797 207.788C89.306 207.788 90.141 208.009 90.8848 208.452C91.6285 208.895 92.1943 209.513 92.5822 210.307C92.9746 211.096 93.1708 211.993 93.1708 212.997C93.1708 214.014 92.9655 214.925 92.5548 215.728C92.1441 216.531 91.5624 217.14 90.8095 217.555C90.0566 217.966 89.2444 218.171 88.3729 218.171C87.4283 218.171 86.5842 217.943 85.8404 217.487C85.0967 217.03 84.5331 216.408 84.1498 215.618C83.7666 214.829 83.5749 213.994 83.5749 213.113ZM84.9438 213.134C84.9438 214.343 85.2678 215.296 85.9157 215.995C86.5682 216.688 87.385 217.035 88.366 217.035C89.3653 217.035 90.1866 216.684 90.83 215.981C91.4779 215.278 91.8019 214.281 91.8019 212.99C91.8019 212.173 91.6627 211.461 91.3844 210.854C91.1106 210.243 90.7068 209.771 90.1729 209.438C89.6436 209.1 89.0482 208.931 88.3865 208.931C87.4466 208.931 86.6367 209.255 85.9568 209.903C85.2815 210.546 84.9438 211.623 84.9438 213.134ZM94.9161 218V207.966H102.171V209.15H96.244V212.223H101.795V213.401H96.244V216.816H102.404V218H94.9161ZM115.299 214.482L116.627 214.817C116.348 215.908 115.846 216.741 115.121 217.316C114.4 217.886 113.517 218.171 112.472 218.171C111.391 218.171 110.51 217.952 109.83 217.514C109.155 217.071 108.639 216.433 108.283 215.598C107.932 214.763 107.756 213.866 107.756 212.908C107.756 211.863 107.955 210.953 108.352 210.177C108.753 209.397 109.321 208.806 110.056 208.404C110.795 207.998 111.607 207.795 112.493 207.795C113.496 207.795 114.341 208.05 115.025 208.562C115.71 209.073 116.186 209.791 116.456 210.718L115.148 211.026C114.916 210.295 114.578 209.764 114.135 209.431C113.693 209.098 113.136 208.931 112.465 208.931C111.694 208.931 111.048 209.116 110.528 209.486C110.013 209.855 109.65 210.352 109.44 210.978C109.23 211.598 109.125 212.239 109.125 212.901C109.125 213.754 109.248 214.5 109.495 215.139C109.746 215.773 110.134 216.248 110.658 216.563C111.183 216.878 111.751 217.035 112.363 217.035C113.106 217.035 113.736 216.82 114.252 216.392C114.767 215.963 115.116 215.326 115.299 214.482ZM118.536 207.966H124.819V218H123.492V209.15H119.864V214.318C119.864 215.367 119.814 216.136 119.714 216.624C119.618 217.113 119.412 217.494 119.098 217.767C118.783 218.037 118.383 218.171 117.9 218.171C117.608 218.171 117.256 218.116 116.846 218.007L117.072 216.83C117.291 216.921 117.478 216.966 117.633 216.966C117.934 216.966 118.16 216.855 118.31 216.631C118.461 216.403 118.536 215.869 118.536 215.03V207.966ZM126.599 213.113C126.599 211.448 127.046 210.145 127.941 209.205C128.835 208.26 129.989 207.788 131.404 207.788C132.33 207.788 133.165 208.009 133.909 208.452C134.653 208.895 135.218 209.513 135.606 210.307C135.999 211.096 136.195 211.993 136.195 212.997C136.195 214.014 135.99 214.925 135.579 215.728C135.168 216.531 134.586 217.14 133.834 217.555C133.081 217.966 132.268 218.171 131.397 218.171C130.452 218.171 129.608 217.943 128.864 217.487C128.121 217.03 127.557 216.408 127.174 215.618C126.791 214.829 126.599 213.994 126.599 213.113ZM127.968 213.134C127.968 214.343 128.292 215.296 128.94 215.995C129.592 216.688 130.409 217.035 131.39 217.035C132.389 217.035 133.211 216.684 133.854 215.981C134.502 215.278 134.826 214.281 134.826 212.99C134.826 212.173 134.687 211.461 134.408 210.854C134.135 210.243 133.731 209.771 133.197 209.438C132.668 209.1 132.072 208.931 131.411 208.931C130.471 208.931 129.661 209.255 128.981 209.903C128.306 210.546 127.968 211.623 127.968 213.134ZM137.858 218V207.966H141.623C142.389 207.966 143.003 208.069 143.464 208.274C143.929 208.475 144.292 208.787 144.552 209.212C144.817 209.632 144.949 210.072 144.949 210.533C144.949 210.962 144.833 211.365 144.6 211.744C144.367 212.123 144.016 212.429 143.546 212.661C144.153 212.839 144.618 213.143 144.942 213.572C145.271 214.001 145.435 214.507 145.435 215.091C145.435 215.561 145.334 215.999 145.134 216.405C144.938 216.807 144.693 217.117 144.401 217.336C144.109 217.555 143.742 217.722 143.299 217.836C142.861 217.945 142.323 218 141.684 218H137.858ZM139.186 212.182H141.356C141.944 212.182 142.366 212.143 142.622 212.066C142.959 211.965 143.213 211.799 143.382 211.566C143.555 211.334 143.642 211.041 143.642 210.69C143.642 210.357 143.562 210.065 143.402 209.814C143.242 209.559 143.014 209.385 142.718 209.294C142.421 209.198 141.912 209.15 141.191 209.15H139.186V212.182ZM139.186 216.816H141.684C142.113 216.816 142.414 216.8 142.588 216.768C142.893 216.713 143.149 216.622 143.354 216.494C143.559 216.366 143.728 216.182 143.861 215.94C143.993 215.693 144.059 215.411 144.059 215.091C144.059 214.717 143.963 214.393 143.772 214.119C143.58 213.841 143.313 213.647 142.971 213.537C142.633 213.423 142.145 213.366 141.506 213.366H139.186V216.816ZM146.393 213.113C146.393 211.448 146.84 210.145 147.735 209.205C148.629 208.26 149.783 207.788 151.198 207.788C152.124 207.788 152.959 208.009 153.703 208.452C154.447 208.895 155.013 209.513 155.4 210.307C155.793 211.096 155.989 211.993 155.989 212.997C155.989 214.014 155.784 214.925 155.373 215.728C154.962 216.531 154.381 217.14 153.628 217.555C152.875 217.966 152.063 218.171 151.191 218.171C150.246 218.171 149.402 217.943 148.659 217.487C147.915 217.03 147.351 216.408 146.968 215.618C146.585 214.829 146.393 213.994 146.393 213.113ZM147.762 213.134C147.762 214.343 148.086 215.296 148.734 215.995C149.386 216.688 150.203 217.035 151.184 217.035C152.183 217.035 153.005 216.684 153.648 215.981C154.296 215.278 154.62 214.281 154.62 212.99C154.62 212.173 154.481 211.461 154.203 210.854C153.929 210.243 153.525 209.771 152.991 209.438C152.462 209.1 151.866 208.931 151.205 208.931C150.265 208.931 149.455 209.255 148.775 209.903C148.1 210.546 147.762 211.623 147.762 213.134Z" fill="black"/>
<rect x="35.4" y="227.965" width="258.783" height="25.8783" stroke="black" stroke-width="1.07826"/>
<path d="M61.8174 228.504L61.8174 254.383" stroke="black" stroke-width="1.07826"/>
<path d="M139.452 228.504L139.452 254.383" stroke="black" stroke-width="1.07826"/>
<path d="M87.6956 228.504L87.6956 254.383" stroke="black" stroke-width="1.07826"/>
<path d="M165.33 228.504L165.33 254.383" stroke="black" stroke-width="1.07826"/>
<path d="M113.574 228.504L113.574 254.383" stroke="black" stroke-width="1.07826"/>
<path d="M191.209 228.504L191.209 254.383" stroke="black" stroke-width="1.07826"/>
<path d="M217.087 228.504L217.087 254.383" stroke="black" stroke-width="1.07826"/>
<path d="M242.965 228.504L242.965 254.383" stroke="black" stroke-width="1.07826"/>
<path d="M268.844 228.504L268.844 254.383" stroke="black" stroke-width="1.07826"/>
<path d="M52.0001 238C50.4998 236.001 47.9317 235.281 45.8639 236.364C43.7404 237.476 42.5522 241.037 42.4243 243.277C41.964 251.332 49.4998 248.999 51.4998 245.499" stroke="#536FD0" stroke-width="1.07826" stroke-linecap="round" stroke-linejoin="round"/>
<path d="M178.508 235.204C178.092 239.417 177.904 252.122 177.904 247.889" stroke="#536FD0" stroke-width="1.07826" stroke-linecap="round" stroke-linejoin="round"/>
<path d="M122.804 235.204C122.387 239.417 122.2 252.122 122.2 247.889" stroke="#536FD0" stroke-width="1.07826" stroke-linecap="round" stroke-linejoin="round"/>
<path d="M72.1258 235.204C71.7091 239.417 71.5217 252.122 71.5217 247.889" stroke="#536FD0" stroke-width="1.07826" stroke-linecap="round" stroke-linejoin="round"/>
<path d="M148.682 235.204C148.266 239.417 148.078 252.122 148.078 247.889" stroke="#536FD0" stroke-width="1.07826" stroke-linecap="round" stroke-linejoin="round"/>
<path d="M97.4995 234.5V249" stroke="#536FD0" stroke-width="1.07826" stroke-linecap="round" stroke-linejoin="round"/>
<path d="M172.77 237.319C176.682 236.712 180.631 236.368 184.549 235.809" stroke="#536FD0" stroke-width="1.07826" stroke-linecap="round" stroke-linejoin="round"/>
<path d="M71.5217 235.564C73.445 235.262 75.4681 234.974 77.4177 234.974" stroke="#536FD0" stroke-width="1.07826" stroke-linecap="round" stroke-linejoin="round"/>
<path d="M148.078 235.564C150.001 235.262 152.024 234.974 153.974 234.974" stroke="#536FD0" stroke-width="1.07826" stroke-linecap="round" stroke-linejoin="round"/>
<path d="M71.8464 242.033C73.7697 241.731 75.7928 241.443 77.7424 241.443" stroke="#536FD0" stroke-width="1.07826" stroke-linecap="round" stroke-linejoin="round"/>
<path d="M148.403 242.033C150.326 241.731 152.349 241.443 154.299 241.443" stroke="#536FD0" stroke-width="1.07826" stroke-linecap="round" stroke-linejoin="round"/>
<path d="M71.8464 248.503C73.7697 248.201 75.7928 247.913 77.7424 247.913" stroke="#536FD0" stroke-width="1.07826" stroke-linecap="round" stroke-linejoin="round"/>
<path d="M148.403 248.503C150.326 248.201 152.349 247.913 154.299 247.913" stroke="#536FD0" stroke-width="1.07826" stroke-linecap="round" stroke-linejoin="round"/>
<path d="M103.5 235L98.0398 241.551L105 249" stroke="#536FD0" stroke-width="1.07826" stroke-linecap="round" stroke-linejoin="round"/>
<path d="M122.748 235.169C123.693 234.972 124.675 234.788 125.647 234.88C126.481 234.959 127.837 235.507 128.349 236.201C129.095 237.213 129.716 238.223 129.081 239.493C128.372 240.91 127.237 241.693 125.74 242.026C125.323 242.119 124.849 241.949 124.44 242.07C123.939 242.219 123.371 242.146 122.846 242.146" stroke="#536FD0" stroke-width="1.07826" stroke-linecap="round" stroke-linejoin="round"/>
</svg>
