<svg width="343" height="390" viewBox="0 0 343 390" fill="none" xmlns="http://www.w3.org/2000/svg">
<path d="M0 12C0 5.37258 5.37258 0 12 0H331C337.627 0 343 5.37258 343 12V378C343 384.627 337.627 390 331 390H12C5.37258 390 0 384.627 0 378V12Z" fill="#F3F4F5"/>
<path d="M0 12C0 5.37258 5.37258 0 12 0H331C337.627 0 343 5.37258 343 12V378C343 384.627 337.627 390 331 390H12C5.37258 390 0 384.627 0 378V12Z" stroke="#F3F4F5"/>
<path d="M22.4907 79.1094H25.9604C29.5298 79.1094 31.5884 80.7197 31.5884 83.4424V83.4756C31.5884 85.999 29.4136 87.6426 26.0767 87.6426C22.6899 87.6426 20.5151 86.2812 20.2163 83.8906L20.1997 83.7578H17.2446L17.2612 83.9736C17.5601 87.8086 20.9468 90.3984 26.1099 90.3984C30.9741 90.3984 34.6431 87.4268 34.6431 83.5586V83.5254C34.6431 80.2881 32.7173 77.9971 29.5298 77.582V77.4492C32.1528 76.8018 33.9458 74.5605 33.9458 71.9043V71.8711C33.9458 68.2188 30.7583 65.6455 26.1597 65.6455C21.3452 65.6455 18.1909 68.0195 17.9087 71.9541L17.8921 72.1865H20.8472L20.8804 71.9375C21.1792 69.7129 23.0386 68.4014 26.0435 68.4014C29.1147 68.4014 30.8911 69.8125 30.8911 72.1367V72.1699C30.8911 74.6602 28.8823 76.4199 25.8276 76.4199H22.4907V79.1094ZM42.9771 90.332C45.2847 90.332 47.3599 89.0869 48.3726 87.1943H48.439V90H51.3276V78.0635C51.3276 74.6104 48.771 72.4023 44.687 72.4023C40.6196 72.4023 38.146 74.6934 37.897 77.5322L37.8804 77.7148H40.6694L40.7026 77.5654C41.0347 76.0215 42.4292 74.959 44.6538 74.959C47.061 74.959 48.439 76.2373 48.439 78.3457V79.79L43.4917 80.0723C39.5239 80.3047 37.2329 82.1475 37.2329 85.0859V85.1191C37.2329 88.2568 39.5405 90.332 42.9771 90.332ZM40.188 85.1191V85.0859C40.188 83.4756 41.5161 82.4463 43.8237 82.3135L48.439 82.0312V83.4424C48.439 85.9492 46.3472 87.8252 43.6245 87.8252C41.5493 87.8252 40.188 86.7793 40.188 85.1191ZM62.2847 90H69.7222C73.3911 90 75.6489 88.0908 75.6489 85.0527V85.0195C75.6489 82.9111 74.2212 81.3838 72.0464 81.085V80.9521C73.6401 80.6201 74.8853 78.9932 74.8853 77.2168V77.1836C74.8853 74.4443 72.9097 72.7344 69.6724 72.7344H62.2847V90ZM65.1733 79.9561V75.125H69.2407C71.0503 75.125 72.0132 75.9385 72.0132 77.4824V77.5156C72.0132 79.1758 70.9839 79.9561 68.8091 79.9561H65.1733ZM65.1733 87.6094V82.3467H68.9585C71.4819 82.3467 72.6938 83.1768 72.6938 84.9531V84.9863C72.6938 86.7129 71.5649 87.6094 69.4731 87.6094H65.1733ZM78.9526 90H85.0786C89.0298 90 91.5698 87.7256 91.5698 84.1396V84.1064C91.5698 80.5205 89.0298 78.2461 85.0786 78.2461H81.8413V72.7344H78.9526V90ZM93.7612 90H96.6499V72.7344H93.7612V90ZM85.0288 80.6367C87.2202 80.6367 88.6147 81.998 88.6147 84.1064V84.1396C88.6147 86.2314 87.2368 87.6094 85.0288 87.6094H81.8413V80.6367H85.0288ZM100.734 90H103.589L112.189 77.167H112.322V90H115.21V72.7344H112.355L103.755 85.5674H103.623V72.7344H100.734V90ZM130.368 75.125V72.7344H119.261V90H122.15V75.125H130.368ZM133.522 95.8105H136.411V87.1113H136.477C137.556 89.1035 139.565 90.332 142.005 90.332C146.338 90.332 149.293 86.8291 149.293 81.3838V81.3672C149.293 75.9219 146.372 72.4023 141.956 72.4023C139.482 72.4023 137.556 73.6475 136.477 75.6562H136.411V72.7344H133.522V95.8105ZM141.391 87.7754C138.486 87.7754 136.394 85.2354 136.394 81.3838V81.3672C136.394 77.499 138.469 74.959 141.391 74.959C144.446 74.959 146.338 77.3994 146.338 81.3672V81.3838C146.338 85.3184 144.446 87.7754 141.391 87.7754ZM152.531 90H158.657C162.608 90 165.148 87.7256 165.148 84.1396V84.1064C165.148 80.5205 162.608 78.2461 158.657 78.2461H155.419V72.7344H152.531V90ZM167.339 90H170.228V72.7344H167.339V90ZM158.607 80.6367C160.798 80.6367 162.193 81.998 162.193 84.1064V84.1396C162.193 86.2314 160.815 87.6094 158.607 87.6094H155.419V80.6367H158.607ZM174.312 90H195.628V72.7344H192.74V87.6094H186.415V72.7344H183.526V87.6094H177.201V72.7344H174.312V90ZM207.631 94.7314V90H221.029V94.7314H223.718V87.6094H220.979V72.7344H209.092L208.428 82.3135C208.262 84.6377 207.648 86.7793 206.386 87.6094H204.942V94.7314H207.631ZM218.09 87.6094H209.64V87.543C210.503 86.4307 210.952 84.5547 211.101 82.3799L211.632 75.125H218.09V87.6094ZM233.43 90.332C237.199 90.332 240.021 88.0742 240.585 85.2188L240.619 85.0527H237.78L237.73 85.2021C237.232 86.6797 235.688 87.7754 233.497 87.7754C230.425 87.7754 228.466 85.7002 228.4 82.1475H240.834V81.085C240.834 75.9053 237.962 72.4023 233.248 72.4023C228.533 72.4023 225.478 76.0713 225.478 81.417V81.4336C225.478 86.8623 228.466 90.332 233.43 90.332ZM233.231 74.959C235.754 74.959 237.614 76.5361 237.896 79.8896H228.45C228.765 76.6689 230.724 74.959 233.231 74.959ZM255.411 90H258.299V72.7344H255.411V79.8564H246.96V72.7344H244.072V90H246.96V82.2471H255.411V90ZM269.489 90.332C273.257 90.332 276.08 88.0742 276.644 85.2188L276.677 85.0527H273.838L273.789 85.2021C273.291 86.6797 271.747 87.7754 269.555 87.7754C266.484 87.7754 264.525 85.7002 264.458 82.1475H276.893V81.085C276.893 75.9053 274.021 72.4023 269.306 72.4023C264.591 72.4023 261.537 76.0713 261.537 81.417V81.4336C261.537 86.8623 264.525 90.332 269.489 90.332ZM269.29 74.959C271.813 74.959 273.672 76.5361 273.955 79.8896H264.508C264.824 76.6689 266.783 74.959 269.29 74.959ZM291.237 75.125V72.7344H280.13V90H283.019V75.125H291.237ZM29.3638 126H32.2524V108.734H29.3638V115.856H20.9136V108.734H18.0249V126H20.9136V118.247H29.3638V126ZM43.4419 126.332C47.2104 126.332 50.0327 124.074 50.5972 121.219L50.6304 121.053H47.7915L47.7417 121.202C47.2437 122.68 45.6997 123.775 43.5083 123.775C40.437 123.775 38.478 121.7 38.4116 118.147H50.8462V117.085C50.8462 111.905 47.9741 108.402 43.2593 108.402C38.5444 108.402 35.4897 112.071 35.4897 117.417V117.434C35.4897 122.862 38.478 126.332 43.4419 126.332ZM43.2427 110.959C45.7661 110.959 47.6255 112.536 47.9077 115.89H38.4614C38.7769 112.669 40.7358 110.959 43.2427 110.959ZM68.4604 126.332C73.4575 126.332 76.5288 122.979 76.5288 117.55V117.517C76.5288 112.387 73.5571 109.1 68.8921 109.1C66.2026 109.1 64.0278 110.162 62.8823 112.204H62.8159L62.8491 111.972C63.563 106.975 65.0073 104.933 69.7388 104.75L71.0171 104.7C73.0093 104.617 74.8354 104.186 75.3833 103.688V101.164C74.4038 101.679 72.5444 102.027 70.8843 102.094L69.606 102.144C62.8989 102.409 60.3755 106.36 60.3755 115.873V115.906C60.3755 122.763 63.1646 126.332 68.4604 126.332ZM68.4604 123.775C65.2065 123.775 63.3306 121.518 63.3306 117.55V117.517C63.3306 113.765 65.2065 111.656 68.4604 111.656C71.6978 111.656 73.5737 113.765 73.5737 117.517V117.55C73.5737 121.518 71.6978 123.775 68.4604 123.775ZM86.8716 126.332C90.6401 126.332 93.4624 124.074 94.0269 121.219L94.0601 121.053H91.2212L91.1714 121.202C90.6733 122.68 89.1294 123.775 86.938 123.775C83.8667 123.775 81.9077 121.7 81.8413 118.147H94.2759V117.085C94.2759 111.905 91.4038 108.402 86.689 108.402C81.9741 108.402 78.9194 112.071 78.9194 117.417V117.434C78.9194 122.862 81.9077 126.332 86.8716 126.332ZM86.6724 110.959C89.1958 110.959 91.0552 112.536 91.3374 115.89H81.8911C82.2065 112.669 84.1655 110.959 86.6724 110.959ZM97.5298 131.811H100.418V123.111H100.485C101.564 125.104 103.573 126.332 106.013 126.332C110.346 126.332 113.301 122.829 113.301 117.384V117.367C113.301 111.922 110.379 108.402 105.963 108.402C103.49 108.402 101.564 109.647 100.485 111.656H100.418V108.734H97.5298V131.811ZM105.399 123.775C102.494 123.775 100.402 121.235 100.402 117.384V117.367C100.402 113.499 102.477 110.959 105.399 110.959C108.454 110.959 110.346 113.399 110.346 117.367V117.384C110.346 121.318 108.454 123.775 105.399 123.775ZM117.717 131.811C120.838 131.811 122.349 130.383 123.578 127.079L130.318 108.734H127.28L122.499 123.111H122.432L117.667 108.734H114.58L120.988 126.017L120.639 126.996C119.942 128.955 118.929 129.42 117.103 129.42C116.754 129.42 116.422 129.37 116.173 129.32V131.678C116.539 131.744 117.153 131.811 117.717 131.811ZM145.542 108.734H131.53V111.125H137.091V126H139.98V111.125H145.542V108.734Z" fill="#BB3AF7"/>
<path d="M25.0029 41V31.1357H16.9775V41H18.5088V32.4551H23.4717V41H25.0029ZM27.6512 41H29.1824V37.6299H31.3221C33.2635 37.6299 34.5965 36.3105 34.5965 34.3828V34.3691C34.5965 32.4346 33.2635 31.1357 31.3221 31.1357H27.6512V41ZM30.9461 32.4277C32.2723 32.4277 33.0379 33.1455 33.0379 34.376V34.3896C33.0379 35.627 32.2723 36.3447 30.9461 36.3447H29.1824V32.4277H30.9461ZM35.276 41H36.8824L37.7916 38.334H41.5924L42.4947 41H44.1012L40.5191 31.1357H38.8648L35.276 41ZM39.6783 32.7695H39.7057L41.1754 37.1035H38.2018L39.6783 32.7695ZM46.0248 41H49.9828C52.0814 41 53.3461 39.9473 53.3461 38.2109V38.1973C53.3461 36.8916 52.4369 35.9277 51.0355 35.791V35.7568C52.0746 35.6133 52.8607 34.6494 52.8607 33.6104V33.5967C52.8607 32.1064 51.7123 31.1357 49.9623 31.1357H46.0248V41ZM49.5932 32.3867C50.6938 32.3867 51.3295 32.8857 51.3295 33.7881V33.8018C51.3295 34.7793 50.598 35.3262 49.2719 35.3262H47.5561V32.3867H49.5932ZM49.5795 36.5088C51.0287 36.5088 51.7807 37.0557 51.7807 38.1152V38.1289C51.7807 39.1953 51.0424 39.749 49.6684 39.749H47.5561V36.5088H49.5795ZM55.5021 41H56.9104L61.9963 33.6582H62.0305V41H63.548V31.1357H62.133L57.0539 38.4844H57.0197V31.1357H55.5021V41ZM66.1348 41.0752C67.8643 41.0752 68.6436 39.8379 68.7939 37.2402L69.0879 32.4551H72.5059V41H74.0371V31.1357H67.7002L67.3721 37.1582C67.2695 38.915 66.8936 39.6875 65.9639 39.6875C65.8271 39.6875 65.6426 39.667 65.5605 39.6465V41C65.6904 41.041 65.9023 41.0752 66.1348 41.0752ZM80.9578 41.1641C83.8084 41.1641 85.5789 39.2021 85.5789 36.0713V36.0576C85.5789 32.9336 83.8016 30.9717 80.9578 30.9717C78.1209 30.9717 76.3367 32.9268 76.3367 36.0576V36.0713C76.3367 39.209 78.1141 41.1641 80.9578 41.1641ZM80.9578 39.8105C79.0848 39.8105 77.8953 38.3682 77.8953 36.0713V36.0576C77.8953 33.7607 79.0916 32.3252 80.9578 32.3252C82.8309 32.3252 84.0135 33.7676 84.0135 36.0576V36.0713C84.0135 38.3477 82.8514 39.8105 80.9578 39.8105ZM94.7309 41.1641C96.8568 41.1641 98.3539 39.7764 98.3539 37.7734V37.7598C98.3539 35.873 96.9936 34.5127 95.1068 34.5127C94.1361 34.5127 93.3158 34.8887 92.8715 35.5518H92.8373L93.1381 32.4277H97.7797V31.1357H91.9008L91.4154 36.8232H92.7553C92.8852 36.6045 93.0424 36.4131 93.227 36.2559C93.6234 35.9004 94.1498 35.7227 94.7582 35.7227C95.9818 35.7227 96.85 36.5771 96.8568 37.7871V37.8008C96.8568 39.0244 95.9887 39.8857 94.7445 39.8857C93.6439 39.8857 92.8373 39.2021 92.7074 38.3135L92.7006 38.2588H91.2377L91.2445 38.3408C91.3812 39.9678 92.7553 41.1641 94.7309 41.1641ZM103.566 31.1357H102.205L99.5324 43.3926H100.9L103.566 31.1357ZM105.578 41H107.185L111.471 32.4619V31.1357H104.758V32.4277H109.96V32.4619L105.578 41Z" fill="#BB3AF7"/>
<g clip-path="url(#clip0)">
<path d="M307.715 198H40.8089C38.4526 198 36.5839 199.948 36.5839 202.303V294.037C36.5839 295.417 36.0151 296.716 35.0401 297.69L26.2651 306.376C25.6964 306.945 26.1026 308 26.9151 308H307.715C310.071 308 312.021 306.052 312.021 303.697V202.303C312.021 199.948 310.071 198 307.715 198Z" fill="white"/>
<path d="M68.9811 235.424V224.79H62.5624V235.424H61.0999V223.41H70.5248V235.424H68.9811Z" fill="#787878"/>
<path d="M74.2626 235.018C73.6938 234.613 73.2063 234.125 72.8813 233.476C72.5563 232.827 72.3938 232.015 72.3938 231.122C72.3938 230.229 72.5563 229.417 72.8813 228.768C73.2063 228.118 73.6938 227.55 74.2626 227.225C74.8313 226.9 75.5626 226.657 76.3751 226.657C77.1876 226.657 77.8376 226.819 78.4876 227.225C79.0563 227.55 79.5438 228.118 79.8688 228.768C80.1938 229.417 80.3563 230.229 80.3563 231.122C80.3563 232.015 80.1938 232.827 79.8688 233.476C79.5438 234.125 79.0563 234.694 78.4876 235.018C77.9188 235.343 77.1876 235.587 76.3751 235.587C75.5626 235.587 74.9126 235.424 74.2626 235.018ZM77.7563 233.963C78.1626 233.72 78.4063 233.314 78.6501 232.827C78.8938 232.339 78.975 231.771 78.975 231.122C78.975 230.472 78.8938 229.904 78.6501 229.417C78.4063 228.93 78.1626 228.605 77.7563 228.362C77.3501 228.118 76.9438 227.956 76.4563 227.956C75.9688 227.956 75.4813 228.118 75.1563 228.362C74.8313 228.605 74.5063 229.011 74.2626 229.417C74.0188 229.823 73.9376 230.472 73.9376 231.122C73.9376 231.771 74.0188 232.339 74.2626 232.827C74.5063 233.314 74.7501 233.638 75.1563 233.963C75.5626 234.288 75.9688 234.369 76.4563 234.369C76.9438 234.369 77.3501 234.207 77.7563 233.963Z" fill="#787878"/>
<path d="M83.3624 235.343C82.8749 235.181 82.4687 234.856 82.1437 234.531C81.8187 234.207 81.6562 233.801 81.575 233.314V233.232H83.0374V233.314C83.1187 233.638 83.3625 233.963 83.6875 234.125C84.0125 234.288 84.4187 234.45 84.9875 234.45C85.5562 234.45 86.0437 234.288 86.45 234.044C86.8562 233.801 87.0187 233.476 87.0187 232.989C87.0187 232.502 86.8562 232.177 86.5312 231.934C86.2062 231.69 85.7187 231.609 85.0687 231.609H83.7687V230.391H85.0687C85.6375 230.391 86.0437 230.31 86.3687 230.066C86.6937 229.823 86.775 229.498 86.775 229.092C86.775 228.686 86.6125 228.362 86.3687 228.118C86.125 227.875 85.7187 227.793 85.15 227.793C84.6625 227.793 84.2562 227.875 83.9312 228.118C83.6062 228.362 83.3624 228.605 83.3624 228.93V229.011H81.9812V228.93C82.0625 228.443 82.2249 228.037 82.5499 227.712C82.8749 227.387 83.2 227.063 83.6875 226.9C84.175 226.738 84.6625 226.657 85.3125 226.657C85.9625 226.657 86.45 226.738 86.9375 226.982C87.425 227.225 87.75 227.469 87.9937 227.793C88.2375 228.118 88.4 228.605 88.4 229.092C88.4 229.579 88.2375 229.985 87.9937 230.31C87.75 230.635 87.3437 230.878 86.9375 230.959V231.041C87.3437 231.122 87.5875 231.284 87.9125 231.446C88.1562 231.609 88.4 231.852 88.4812 232.096C88.5625 232.339 88.6437 232.664 88.6437 232.989C88.6437 233.557 88.4812 233.963 88.2375 234.369C87.9937 234.775 87.5875 235.1 87.0187 235.343C86.45 235.587 85.8812 235.668 85.2312 235.668C84.4187 235.587 83.85 235.506 83.3624 235.343Z" fill="#787878"/>
<path d="M89.5374 237.779V234.207H90.2686C90.5936 233.963 90.8374 233.638 90.9999 233.151C91.1624 232.664 91.2436 232.096 91.3249 231.528L91.6499 226.738H97.5811V234.207H98.9624V237.779H97.5811V235.424H90.8374V237.779H89.5374ZM96.1999 227.956H92.9499L92.6249 231.609C92.6249 232.177 92.5436 232.664 92.3811 233.07C92.2186 233.476 92.1374 233.882 91.8936 234.125H96.1186V227.956H96.1999Z" fill="#787878"/>
<path d="M100.587 226.738H102.05V228.199C102.212 227.875 102.456 227.55 102.7 227.306C102.944 227.063 103.269 226.9 103.594 226.738C103.919 226.576 104.325 226.576 104.731 226.576C105.462 226.576 106.112 226.738 106.681 227.144C107.25 227.55 107.656 228.037 107.981 228.686C108.306 229.336 108.469 230.148 108.469 231.041C108.469 231.934 108.306 232.745 107.981 233.395C107.656 234.044 107.25 234.613 106.681 234.937C106.112 235.343 105.462 235.506 104.731 235.506C104.325 235.506 103.919 235.424 103.594 235.343C103.269 235.262 102.944 235.018 102.619 234.775C102.375 234.531 102.131 234.207 101.969 233.882V238.266H100.506V226.738H100.587ZM105.869 233.963C106.275 233.72 106.519 233.314 106.762 232.827C107.006 232.339 107.087 231.771 107.087 231.122C107.087 230.472 107.006 229.904 106.762 229.417C106.519 228.93 106.275 228.605 105.869 228.28C105.462 227.956 105.056 227.875 104.569 227.875C104.081 227.875 103.675 228.037 103.269 228.28C102.862 228.524 102.619 228.93 102.375 229.417C102.131 229.904 102.05 230.472 102.05 231.122C102.05 231.771 102.131 232.339 102.375 232.827C102.619 233.314 102.862 233.72 103.269 233.963C103.675 234.207 104.081 234.369 104.569 234.369C105.056 234.288 105.462 234.207 105.869 233.963Z" fill="#787878"/>
<path d="M111.312 235.262C110.906 235.018 110.581 234.775 110.337 234.369C110.094 233.963 110.012 233.557 110.012 232.989C110.012 232.258 110.256 231.69 110.825 231.203C111.394 230.716 112.125 230.554 113.181 230.472L116.35 230.31V231.446L113.344 231.609C112.775 231.609 112.287 231.771 111.962 232.015C111.637 232.258 111.475 232.583 111.475 232.989C111.475 233.395 111.637 233.72 111.962 233.963C112.287 234.207 112.694 234.369 113.181 234.369C113.669 234.369 114.075 234.288 114.4 234.044C114.725 233.882 115.05 233.557 115.294 233.232C115.537 232.908 115.619 232.502 115.619 232.096V229.579C115.619 229.092 115.456 228.605 115.131 228.362C114.806 228.118 114.319 227.875 113.75 227.875C113.181 227.875 112.775 227.956 112.369 228.199C112.044 228.443 111.8 228.768 111.719 229.173V229.255H110.337V229.173C110.419 228.686 110.581 228.28 110.825 227.875C111.069 227.469 111.475 227.144 111.962 226.982C112.45 226.819 113.019 226.657 113.75 226.657C114.4 226.657 115.05 226.738 115.537 226.982C116.025 227.225 116.431 227.55 116.675 227.956C116.919 228.362 117.081 228.849 117.081 229.498V235.506H115.619V234.125C115.456 234.45 115.212 234.694 114.969 234.937C114.725 235.181 114.4 235.343 113.994 235.506C113.669 235.668 113.262 235.668 112.856 235.668C112.206 235.587 111.719 235.506 111.312 235.262Z" fill="#787878"/>
<path d="M119.194 226.738H122.931C123.744 226.738 124.394 226.9 124.881 227.306C125.369 227.712 125.612 228.28 125.612 228.93C125.612 229.336 125.45 229.742 125.206 230.148C124.962 230.472 124.556 230.716 124.231 230.797V230.878C124.637 230.959 124.881 231.041 125.206 231.203C125.531 231.365 125.694 231.609 125.856 231.852C126.019 232.096 126.1 232.421 126.1 232.827C126.1 233.557 125.856 234.207 125.287 234.613C124.719 235.1 124.069 235.262 123.094 235.262H119.356V226.738H119.194ZM122.444 230.391C123.012 230.391 123.419 230.31 123.662 230.066C123.906 229.823 124.069 229.579 124.069 229.173C124.069 228.768 123.987 228.524 123.744 228.28C123.5 228.118 123.175 227.956 122.687 227.956H120.656V230.391H122.444ZM122.769 234.207C123.256 234.207 123.662 234.125 123.987 233.882C124.231 233.638 124.394 233.314 124.394 232.908C124.394 232.502 124.231 232.096 123.906 231.934C123.581 231.69 123.094 231.609 122.525 231.609H120.656V234.288H122.769V234.207Z" fill="#787878"/>
<path d="M129.919 233.72C129.756 234.288 129.512 234.775 129.106 235.1C128.781 235.424 128.294 235.587 127.644 235.587C127.481 235.587 127.4 235.587 127.319 235.587C127.237 235.587 127.156 235.587 127.075 235.506V234.207C127.075 234.207 127.156 234.207 127.237 234.207C127.319 234.207 127.4 234.207 127.481 234.207C127.806 234.207 128.05 234.125 128.212 233.882C128.375 233.638 128.537 233.395 128.619 232.989C128.7 232.583 128.781 232.177 128.781 231.609L129.106 226.819H135.2V235.506H133.737V228.037H130.406L130.162 231.69C130.162 232.421 130.081 233.07 129.919 233.72Z" fill="#787878"/>
<path d="M142.35 232.34H140.725L138.531 235.424H136.825L139.262 232.096C138.612 231.934 138.206 231.609 137.8 231.203C137.394 230.797 137.312 230.229 137.312 229.661C137.312 229.092 137.475 228.524 137.719 228.118C137.962 227.712 138.369 227.387 138.856 227.144C139.344 226.9 139.912 226.819 140.562 226.819H143.812V235.506H142.35V232.34ZM142.35 231.122V227.956H140.562C139.994 227.956 139.587 228.118 139.262 228.362C138.937 228.686 138.775 229.092 138.775 229.579C138.775 229.985 138.937 230.391 139.262 230.635C139.587 230.878 139.994 231.041 140.562 231.041H142.35V231.122Z" fill="#787878"/>
<path d="M147.469 235.018C146.9 234.613 146.412 234.125 146.087 233.476C145.762 232.827 145.6 232.015 145.6 231.122C145.6 230.229 145.762 229.417 146.087 228.768C146.412 228.118 146.9 227.55 147.469 227.144C148.037 226.738 148.769 226.576 149.5 226.576C150.231 226.576 150.962 226.738 151.531 227.144C152.1 227.55 152.506 228.037 152.831 228.686C153.156 229.336 153.319 230.066 153.319 230.959V231.528H146.331V230.391H152.587L151.856 231.447V230.878C151.856 230.229 151.775 229.661 151.531 229.173C151.287 228.686 151.044 228.443 150.719 228.199C150.394 227.956 149.987 227.875 149.5 227.875C149.012 227.875 148.606 227.956 148.281 228.199C147.956 228.443 147.631 228.768 147.387 229.173C147.144 229.579 147.062 230.148 147.062 230.797V231.365C147.062 232.015 147.144 232.502 147.387 232.908C147.631 233.314 147.875 233.638 148.281 233.882C148.687 234.125 149.094 234.207 149.662 234.207C150.069 234.207 150.394 234.125 150.637 234.044C150.881 233.963 151.206 233.801 151.369 233.557C151.531 233.314 151.694 233.151 151.775 232.908V232.827H153.237V232.908C153.156 233.232 152.994 233.557 152.831 233.882C152.669 234.207 152.344 234.45 152.019 234.694C151.694 234.937 151.369 235.1 150.962 235.262C150.556 235.424 150.15 235.424 149.662 235.424C148.769 235.587 148.037 235.424 147.469 235.018Z" fill="#787878"/>
<path d="M155.106 235.424V226.738H156.894L159.981 233.476H160.062L163.15 226.738H164.856V235.424H163.394V229.255H163.312L160.55 235.181H159.412L156.65 229.255H156.569V235.424H155.106Z" fill="#787878"/>
<path d="M167.131 233.72H168.675L167.456 237.779H166.4L167.131 233.72Z" fill="#787878"/>
<path d="M174.769 223.41H176.231V235.424H174.769V223.41ZM175.5 234.125H179.075C179.969 234.125 180.619 233.963 181.106 233.557C181.594 233.151 181.838 232.664 181.838 232.015C181.838 231.528 181.756 231.122 181.513 230.878C181.269 230.635 180.944 230.31 180.538 230.148C180.131 229.985 179.563 229.904 178.913 229.904H175.5V228.605H178.506C179.4 228.605 180.05 228.443 180.538 228.118C181.025 227.793 181.269 227.306 181.269 226.657C181.269 226.089 181.106 225.601 180.7 225.277C180.294 224.952 179.725 224.79 178.994 224.79H175.5V223.491H179.319C179.969 223.491 180.619 223.653 181.106 223.897C181.594 224.14 182 224.465 182.325 224.952C182.65 225.439 182.731 225.926 182.731 226.494C182.731 226.9 182.65 227.306 182.488 227.712C182.325 228.118 182 228.443 181.675 228.686C181.35 228.93 180.944 229.092 180.538 229.173C181.106 229.255 181.594 229.417 182 229.661C182.406 229.904 182.731 230.31 182.975 230.716C183.219 231.122 183.3 231.609 183.3 232.177C183.3 232.908 183.138 233.476 182.813 233.963C182.488 234.45 182 234.856 181.431 235.1C180.863 235.343 180.131 235.506 179.238 235.506H175.5V234.125Z" fill="#787878"/>
<path d="M185.169 226.738H186.631V229.498H188.256C189.231 229.498 190.044 229.742 190.612 230.31C191.181 230.878 191.506 231.528 191.506 232.421C191.506 233.314 191.181 234.044 190.612 234.531C190.044 235.018 189.231 235.343 188.256 235.343H185.169V226.738ZM186.55 230.716V234.207H188.175C188.744 234.207 189.15 234.044 189.475 233.72C189.8 233.395 189.962 232.989 189.962 232.421C189.962 231.934 189.8 231.447 189.475 231.122C189.15 230.797 188.744 230.635 188.175 230.635H186.55V230.716ZM192.562 226.738H194.025V235.424H192.562V226.738Z" fill="#787878"/>
<path d="M199.875 226.738H203.612C204.425 226.738 205.075 226.9 205.562 227.306C206.05 227.712 206.294 228.28 206.294 228.93C206.294 229.336 206.131 229.742 205.887 230.148C205.644 230.472 205.237 230.716 204.912 230.797V230.878C205.319 230.959 205.562 231.041 205.887 231.203C206.212 231.365 206.375 231.609 206.537 231.852C206.7 232.096 206.781 232.421 206.781 232.827C206.781 233.557 206.537 234.207 205.969 234.613C205.4 235.1 204.75 235.262 203.775 235.262H199.875V226.738ZM203.206 230.391C203.775 230.391 204.181 230.31 204.425 230.066C204.669 229.823 204.831 229.579 204.831 229.173C204.831 228.768 204.75 228.524 204.506 228.28C204.262 228.118 203.937 227.956 203.45 227.956H201.419V230.391H203.206ZM203.531 234.207C204.019 234.207 204.425 234.125 204.75 233.882C204.994 233.638 205.156 233.314 205.156 232.908C205.156 232.502 204.994 232.096 204.669 231.934C204.344 231.69 203.856 231.609 203.287 231.609H201.419V234.288H203.531V234.207Z" fill="#787878"/>
<path d="M208.406 226.738H209.869V229.498H211.494C212.469 229.498 213.281 229.742 213.85 230.31C214.419 230.878 214.744 231.528 214.744 232.421C214.744 233.314 214.419 234.044 213.85 234.531C213.281 235.018 212.469 235.343 211.494 235.343H208.406V226.738ZM209.869 230.716V234.207H211.494C212.063 234.207 212.469 234.044 212.794 233.72C213.119 233.395 213.281 232.989 213.281 232.421C213.281 231.934 213.119 231.447 212.794 231.122C212.469 230.797 212.063 230.635 211.494 230.635H209.869V230.716ZM215.881 226.738H217.344V235.424H215.881V226.738Z" fill="#787878"/>
<path d="M219.537 226.738H221V233.151H221.731L220.756 233.72L225.469 226.738H226.931V235.424H225.469V229.011H224.737L225.712 228.443L221 235.424H219.537V226.738Z" fill="#787878"/>
<path d="M230.425 227.956V235.424H228.962V226.738H234.569V227.956H230.425Z" fill="#787878"/>
<path d="M236.194 226.738H237.656V228.199C237.819 227.875 238.063 227.55 238.306 227.306C238.55 227.063 238.875 226.9 239.2 226.738C239.525 226.576 239.931 226.576 240.338 226.576C241.069 226.576 241.719 226.738 242.288 227.144C242.856 227.55 243.263 228.037 243.588 228.686C243.913 229.336 244.075 230.148 244.075 231.041C244.075 231.934 243.913 232.745 243.588 233.395C243.263 234.044 242.856 234.613 242.288 234.937C241.719 235.343 241.069 235.506 240.338 235.506C239.931 235.506 239.525 235.424 239.2 235.343C238.875 235.262 238.55 235.018 238.225 234.775C237.981 234.531 237.738 234.207 237.575 233.882V238.266H236.113V226.738H236.194ZM241.475 233.963C241.881 233.72 242.125 233.314 242.369 232.827C242.613 232.339 242.694 231.771 242.694 231.122C242.694 230.472 242.613 229.904 242.369 229.417C242.125 228.93 241.881 228.605 241.475 228.28C241.069 227.956 240.663 227.875 240.175 227.875C239.688 227.875 239.281 228.037 238.875 228.28C238.469 228.524 238.225 228.93 237.981 229.417C237.738 229.904 237.656 230.472 237.656 231.122C237.656 231.771 237.738 232.339 237.981 232.827C238.225 233.314 238.469 233.72 238.875 233.963C239.281 234.207 239.688 234.369 240.175 234.369C240.663 234.288 241.069 234.207 241.475 233.963Z" fill="#787878"/>
<path d="M246.919 235.262C246.512 235.018 246.187 234.775 245.944 234.369C245.7 233.963 245.619 233.557 245.619 232.989C245.619 232.258 245.862 231.69 246.431 231.203C247 230.716 247.731 230.554 248.787 230.472L251.956 230.31V231.446L248.95 231.609C248.381 231.609 247.894 231.771 247.569 232.015C247.244 232.258 247.081 232.583 247.081 232.989C247.081 233.395 247.244 233.72 247.569 233.963C247.894 234.207 248.3 234.369 248.787 234.369C249.275 234.369 249.681 234.288 250.006 234.044C250.331 233.882 250.656 233.557 250.9 233.232C251.144 232.908 251.225 232.502 251.225 232.096V229.579C251.225 229.092 251.062 228.605 250.737 228.362C250.412 228.118 249.925 227.875 249.356 227.875C248.787 227.875 248.381 227.956 247.975 228.199C247.65 228.443 247.406 228.768 247.325 229.173V229.255H245.944V229.173C246.025 228.686 246.187 228.28 246.431 227.875C246.675 227.469 247.081 227.144 247.569 226.982C248.056 226.819 248.625 226.657 249.356 226.657C250.006 226.657 250.656 226.738 251.144 226.982C251.631 227.225 252.037 227.55 252.281 227.956C252.525 228.362 252.687 228.849 252.687 229.498V235.506H251.225V234.125C251.062 234.45 250.819 234.694 250.575 234.937C250.331 235.181 250.006 235.343 249.6 235.506C249.275 235.668 248.869 235.668 248.462 235.668C247.812 235.587 247.325 235.506 246.919 235.262Z" fill="#787878"/>
<path d="M256.831 233.72C256.669 234.288 256.425 234.775 256.019 235.1C255.694 235.424 255.206 235.587 254.556 235.587C254.394 235.587 254.313 235.587 254.231 235.587C254.15 235.587 254.069 235.587 253.988 235.506V234.207C253.988 234.207 254.069 234.207 254.15 234.207C254.231 234.207 254.313 234.207 254.394 234.207C254.719 234.207 254.963 234.125 255.125 233.882C255.288 233.638 255.45 233.395 255.531 232.989C255.613 232.583 255.694 232.177 255.694 231.609L256.019 226.819H262.113V235.506H260.813V228.037H257.481L257.238 231.69C257.156 232.421 257.075 233.07 256.831 233.72Z" fill="#787878"/>
<path d="M264.469 226.738H265.931V233.151H266.663L265.688 233.72L270.4 226.738H271.863V235.424H270.4V229.011H269.669L270.644 228.443L265.931 235.424H264.469V226.738Z" fill="#787878"/>
<path d="M274.381 235.262C274.219 235.1 274.137 234.856 274.137 234.613C274.137 234.369 274.219 234.125 274.381 233.963C274.544 233.801 274.787 233.72 275.031 233.72C275.275 233.72 275.519 233.801 275.681 233.963C275.844 234.125 275.925 234.369 275.925 234.613C275.925 234.856 275.844 235.1 275.681 235.262C275.519 235.424 275.275 235.506 275.031 235.506C274.787 235.506 274.544 235.424 274.381 235.262ZM274.3 223.41H275.762L275.681 231.447H274.381L274.3 223.41Z" fill="#787878"/>
<path d="M65.9746 255.882V252.066C65.7308 252.31 65.4058 252.472 64.9996 252.635C64.5933 252.797 64.1871 252.797 63.7808 252.797C62.7246 252.797 61.9933 252.554 61.4246 251.985C60.8558 251.417 60.6121 250.686 60.6121 249.793V247.196H62.0746V249.631C62.0746 250.28 62.2371 250.686 62.5621 251.011C62.8871 251.336 63.3746 251.498 64.0246 251.498C64.4308 251.498 64.7558 251.417 65.1621 251.336C65.5683 251.255 65.8121 251.092 65.9746 250.849V247.196H67.4371V255.882H65.9746Z" fill="#787878"/>
<path d="M75.9687 248.413H73.1249V255.882H71.6624V248.413H68.8999V247.196H75.9687V248.413Z" fill="#787878"/>
<path d="M78.8124 255.476C78.2436 255.07 77.7561 254.583 77.4311 253.934C77.1061 253.284 76.9436 252.472 76.9436 251.579C76.9436 250.686 77.1061 249.875 77.4311 249.225C77.7561 248.576 78.2436 248.007 78.8124 247.683C79.3811 247.358 80.1124 247.114 80.9249 247.114C81.7374 247.114 82.3874 247.277 83.0374 247.683C83.6061 248.007 84.0936 248.576 84.4186 249.225C84.7436 249.875 84.9061 250.686 84.9061 251.579C84.9061 252.472 84.7436 253.284 84.4186 253.934C84.0936 254.583 83.6061 255.151 83.0374 255.476C82.4686 255.801 81.7374 256.044 80.9249 256.044C80.1124 256.044 79.3811 255.882 78.8124 255.476ZM82.2249 254.421C82.6311 254.177 82.8749 253.771 83.1186 253.284C83.3624 252.797 83.4436 252.229 83.4436 251.579C83.4436 250.93 83.3624 250.362 83.1186 249.875C82.8749 249.388 82.6311 249.063 82.2249 248.819C81.8186 248.576 81.4124 248.413 80.9249 248.413C80.4374 248.413 79.9499 248.576 79.6249 248.819C79.2999 249.063 78.9749 249.469 78.7311 249.875C78.4874 250.28 78.4061 250.93 78.4061 251.579C78.4061 252.229 78.4874 252.797 78.7311 253.284C78.9749 253.771 79.2186 254.096 79.6249 254.421C80.0311 254.745 80.4374 254.827 80.9249 254.827C81.4124 254.827 81.8186 254.664 82.2249 254.421Z" fill="#787878"/>
<path d="M87.3436 254.745C86.6936 253.852 86.2874 252.554 86.2874 250.849C86.2874 249.225 86.4499 247.926 86.7749 246.952C87.0999 245.978 87.5874 245.247 88.2374 244.76C88.8874 244.273 89.7811 244.03 90.9186 243.948H91.5686C91.9749 243.948 92.3811 243.867 92.7874 243.786C93.1936 243.705 93.5186 243.624 93.7624 243.461V244.76C93.5999 244.923 93.3561 245.004 92.9499 245.085C92.5436 245.166 92.0561 245.247 91.5686 245.247H90.9186C90.1061 245.247 89.5374 245.41 89.0499 245.653C88.5624 245.897 88.2374 246.303 87.9936 246.79C87.7499 247.277 87.5874 248.007 87.4249 248.819V248.9C87.7499 248.413 88.1561 248.007 88.6436 247.764C89.1311 247.52 89.7811 247.358 90.4311 247.358C91.2436 247.358 91.8936 247.52 92.4624 247.845C93.0311 248.17 93.4374 248.657 93.7624 249.306C94.0874 249.956 94.2499 250.686 94.2499 251.579C94.2499 252.472 94.0874 253.284 93.7624 253.934C93.4374 254.583 92.9499 255.07 92.3811 255.476C91.8124 255.801 91.0811 256.044 90.1874 256.044C89.0499 256.044 88.0749 255.638 87.3436 254.745ZM91.8124 254.421C92.2186 254.177 92.4624 253.852 92.7061 253.365C92.8686 252.878 93.0311 252.31 93.0311 251.661C93.0311 251.011 92.9499 250.524 92.7061 250.037C92.5436 249.631 92.2186 249.225 91.8124 249.063C91.4061 248.9 90.9999 248.738 90.4311 248.738C89.8624 248.738 89.4561 248.819 89.0499 249.063C88.6436 249.306 88.3999 249.631 88.1561 250.037C87.9936 250.443 87.8311 251.011 87.8311 251.661C87.8311 252.31 87.9124 252.878 88.1561 253.365C88.3186 253.852 88.6436 254.177 89.0499 254.421C89.4561 254.664 89.8624 254.827 90.4311 254.827C90.9999 254.827 91.4061 254.664 91.8124 254.421Z" fill="#787878"/>
<path d="M96.2 247.196H97.6624V249.956H99.2874C100.262 249.956 101.075 250.199 101.644 250.768C102.212 251.336 102.537 251.985 102.537 252.878C102.537 253.771 102.212 254.502 101.644 254.989C101.075 255.476 100.262 255.801 99.2874 255.801H96.2V247.196ZM97.6624 251.173V254.664H99.2874C99.8562 254.664 100.262 254.502 100.587 254.177C100.912 253.852 101.075 253.447 101.075 252.878C101.075 252.391 100.912 251.904 100.587 251.579C100.262 251.255 99.8562 251.092 99.2874 251.092H97.6624V251.173ZM103.675 247.196H105.137V255.882H103.675V247.196Z" fill="#787878"/>
<path d="M112.206 255.801C111.719 255.638 111.312 255.314 110.987 254.989C110.662 254.664 110.5 254.258 110.419 253.771V253.69H111.881V253.771C111.962 254.096 112.206 254.421 112.531 254.583C112.856 254.745 113.262 254.908 113.831 254.908C114.4 254.908 114.887 254.745 115.294 254.502C115.7 254.258 115.862 253.934 115.862 253.447C115.862 252.959 115.7 252.635 115.375 252.391C115.05 252.148 114.562 252.066 113.912 252.066H112.612V250.849H113.912C114.481 250.849 114.887 250.768 115.212 250.524C115.537 250.28 115.619 249.956 115.619 249.55C115.619 249.144 115.456 248.819 115.212 248.576C114.969 248.332 114.562 248.251 113.994 248.251C113.506 248.251 113.1 248.332 112.775 248.576C112.45 248.819 112.206 249.063 112.206 249.388V249.469H110.825V249.388C110.906 248.9 111.069 248.495 111.394 248.17C111.719 247.845 112.044 247.52 112.531 247.358C113.019 247.196 113.506 247.114 114.156 247.114C114.806 247.114 115.294 247.196 115.781 247.439C116.269 247.683 116.594 247.926 116.837 248.251C117.081 248.576 117.244 249.063 117.244 249.55C117.244 250.037 117.081 250.443 116.837 250.768C116.594 251.092 116.187 251.336 115.781 251.417V251.498C116.187 251.579 116.431 251.742 116.756 251.904C117 252.066 117.244 252.31 117.325 252.554C117.406 252.797 117.487 253.122 117.487 253.447C117.487 254.015 117.325 254.421 117.081 254.827C116.837 255.233 116.431 255.557 115.862 255.801C115.294 256.044 114.725 256.126 114.075 256.126C113.262 256.044 112.694 255.963 112.206 255.801Z" fill="#787878"/>
<path d="M120.169 255.72C119.762 255.476 119.437 255.233 119.194 254.827C118.95 254.421 118.869 254.015 118.869 253.447C118.869 252.716 119.112 252.148 119.681 251.661C120.25 251.173 120.981 251.011 122.037 250.93L125.125 250.768V251.904L122.119 252.066C121.55 252.066 121.062 252.229 120.737 252.472C120.412 252.716 120.25 253.041 120.25 253.447C120.25 253.852 120.412 254.177 120.737 254.421C121.062 254.664 121.469 254.827 121.956 254.827C122.444 254.827 122.85 254.745 123.175 254.502C123.5 254.34 123.825 254.015 124.069 253.69C124.312 253.365 124.394 252.959 124.394 252.554V250.037C124.394 249.55 124.231 249.063 123.906 248.819C123.581 248.576 123.094 248.332 122.525 248.332C121.956 248.332 121.55 248.413 121.144 248.657C120.819 248.9 120.575 249.225 120.494 249.631V249.712H119.112V249.631C119.194 249.144 119.356 248.738 119.6 248.332C119.844 247.926 120.25 247.602 120.737 247.439C121.225 247.277 121.794 247.114 122.525 247.114C123.175 247.114 123.825 247.196 124.312 247.439C124.8 247.683 125.206 248.007 125.45 248.413C125.694 248.819 125.856 249.306 125.856 249.956V255.963H124.394V254.583C124.231 254.908 123.987 255.151 123.744 255.395C123.5 255.638 123.175 255.801 122.769 255.963C122.444 256.126 122.037 256.126 121.631 256.126C121.062 256.044 120.575 255.963 120.169 255.72Z" fill="#787878"/>
<path d="M128.7 254.745C128.05 253.852 127.644 252.554 127.644 250.849C127.644 249.225 127.806 247.926 128.131 246.952C128.456 245.978 128.944 245.247 129.594 244.76C130.244 244.273 131.138 244.03 132.275 243.948H132.925C133.331 243.948 133.738 243.867 134.144 243.786C134.55 243.705 134.875 243.624 135.119 243.461V244.76C134.956 244.923 134.713 245.004 134.306 245.085C133.9 245.166 133.413 245.247 132.925 245.247H132.275C131.463 245.247 130.894 245.41 130.406 245.653C129.919 245.897 129.594 246.303 129.35 246.79C129.106 247.277 128.944 248.007 128.781 248.819V248.9C129.106 248.413 129.513 248.007 130 247.764C130.488 247.52 131.138 247.358 131.788 247.358C132.6 247.358 133.25 247.52 133.819 247.845C134.388 248.17 134.794 248.657 135.119 249.306C135.444 249.956 135.606 250.686 135.606 251.579C135.606 252.472 135.444 253.284 135.119 253.934C134.794 254.583 134.306 255.07 133.738 255.476C133.169 255.801 132.438 256.044 131.544 256.044C130.406 256.044 129.431 255.638 128.7 254.745ZM133.169 254.421C133.575 254.177 133.819 253.852 134.063 253.365C134.225 252.878 134.388 252.31 134.388 251.661C134.388 251.011 134.306 250.524 134.063 250.037C133.9 249.631 133.575 249.225 133.169 249.063C132.763 248.9 132.356 248.738 131.788 248.738C131.219 248.738 130.813 248.819 130.406 249.063C130 249.306 129.756 249.631 129.513 250.037C129.35 250.443 129.188 251.011 129.188 251.661C129.188 252.31 129.269 252.878 129.513 253.365C129.675 253.852 130 254.177 130.406 254.421C130.813 254.664 131.219 254.827 131.788 254.827C132.356 254.827 132.763 254.664 133.169 254.421Z" fill="#787878"/>
<path d="M137.556 247.196H139.019V248.657C139.181 248.332 139.425 248.007 139.669 247.764C139.912 247.52 140.237 247.358 140.562 247.196C140.887 247.033 141.294 247.033 141.7 247.033C142.431 247.033 143.081 247.196 143.65 247.601C144.219 248.007 144.625 248.494 144.95 249.144C145.275 249.793 145.437 250.605 145.437 251.498C145.437 252.391 145.275 253.203 144.95 253.852C144.625 254.502 144.219 255.07 143.65 255.395C143.081 255.801 142.431 255.963 141.7 255.963C141.294 255.963 140.887 255.882 140.562 255.801C140.237 255.72 139.912 255.476 139.587 255.232C139.344 254.989 139.1 254.664 138.937 254.339V258.723H137.475V247.196H137.556ZM142.837 254.421C143.244 254.177 143.487 253.771 143.731 253.284C143.975 252.797 144.056 252.229 144.056 251.579C144.056 250.93 143.975 250.362 143.731 249.875C143.487 249.387 143.244 249.063 142.837 248.738C142.431 248.413 142.025 248.332 141.537 248.332C141.05 248.332 140.644 248.494 140.237 248.738C139.831 248.982 139.587 249.387 139.344 249.875C139.1 250.362 139.019 250.93 139.019 251.579C139.019 252.229 139.1 252.797 139.344 253.284C139.587 253.771 139.831 254.177 140.237 254.421C140.644 254.664 141.05 254.827 141.537 254.827C142.025 254.745 142.512 254.664 142.837 254.421Z" fill="#787878"/>
<path d="M148.281 255.72C147.875 255.476 147.55 255.233 147.306 254.827C147.062 254.421 146.981 254.015 146.981 253.447C146.981 252.716 147.225 252.148 147.794 251.661C148.362 251.173 149.094 251.011 150.15 250.93L153.319 250.768V251.904L150.312 252.066C149.744 252.066 149.256 252.229 148.931 252.472C148.606 252.716 148.444 253.041 148.444 253.447C148.444 253.852 148.606 254.177 148.931 254.421C149.256 254.664 149.662 254.827 150.15 254.827C150.637 254.827 151.044 254.745 151.369 254.502C151.694 254.34 152.019 254.015 152.262 253.69C152.506 253.365 152.587 252.959 152.587 252.554V250.037C152.587 249.55 152.425 249.063 152.1 248.819C151.775 248.576 151.287 248.332 150.719 248.332C150.15 248.332 149.744 248.413 149.337 248.657C149.012 248.9 148.769 249.225 148.687 249.631V249.712H147.306V249.631C147.387 249.144 147.55 248.738 147.794 248.332C148.037 247.926 148.444 247.602 148.931 247.439C149.419 247.277 149.987 247.114 150.719 247.114C151.369 247.114 152.019 247.196 152.506 247.439C152.994 247.683 153.4 248.007 153.644 248.413C153.887 248.819 154.05 249.306 154.05 249.956V255.963H152.587V254.583C152.425 254.908 152.181 255.151 151.937 255.395C151.694 255.638 151.369 255.801 150.962 255.963C150.637 256.126 150.231 256.126 149.825 256.126C149.256 256.044 148.687 255.963 148.281 255.72Z" fill="#787878"/>
<path d="M162.337 248.413H159.575V255.882H158.112V248.413H155.35V247.196H162.419V248.413H162.337Z" fill="#787878"/>
<path d="M163.881 247.196H165.344V249.956H166.969C167.944 249.956 168.756 250.199 169.325 250.768C169.894 251.336 170.219 251.985 170.219 252.878C170.219 253.771 169.894 254.502 169.325 254.989C168.756 255.476 167.944 255.801 166.969 255.801H163.881V247.196ZM165.344 251.173V254.664H166.969C167.537 254.664 167.944 254.502 168.269 254.177C168.594 253.852 168.756 253.447 168.756 252.878C168.756 252.391 168.594 251.904 168.269 251.579C167.944 251.255 167.537 251.092 166.969 251.092H165.344V251.173Z" fill="#787878"/>
<path d="M175.662 247.196H179.4C180.212 247.196 180.862 247.358 181.35 247.764C181.837 248.17 182.081 248.738 182.081 249.387C182.081 249.793 181.919 250.199 181.675 250.605C181.431 250.93 181.025 251.173 180.7 251.255V251.336C181.106 251.417 181.35 251.498 181.675 251.661C182 251.823 182.162 252.066 182.325 252.31C182.487 252.554 182.569 252.878 182.569 253.284C182.569 254.015 182.325 254.664 181.756 255.07C181.187 255.557 180.537 255.72 179.562 255.72H175.825V247.196H175.662ZM178.912 250.849C179.481 250.849 179.887 250.768 180.131 250.524C180.375 250.28 180.537 250.037 180.537 249.631C180.537 249.225 180.456 248.982 180.212 248.738C179.969 248.576 179.644 248.413 179.156 248.413H177.125V250.849H178.912ZM179.237 254.664C179.725 254.664 180.131 254.583 180.456 254.34C180.7 254.096 180.862 253.771 180.862 253.365C180.862 252.959 180.7 252.554 180.375 252.391C180.05 252.148 179.562 252.066 178.994 252.066H177.125V254.745H179.237V254.664Z" fill="#787878"/>
<path d="M184.113 247.196H185.575V249.956H187.2C188.175 249.956 188.988 250.199 189.556 250.768C190.125 251.336 190.45 251.985 190.45 252.878C190.45 253.771 190.125 254.502 189.556 254.989C188.988 255.476 188.175 255.801 187.2 255.801H184.113V247.196ZM185.575 251.173V254.664H187.2C187.769 254.664 188.175 254.502 188.5 254.177C188.825 253.852 188.988 253.447 188.988 252.878C188.988 252.391 188.825 251.904 188.5 251.579C188.175 251.255 187.769 251.092 187.2 251.092H185.575V251.173ZM191.588 247.196H193.05V255.882H191.588V247.196Z" fill="#787878"/>
<path d="M195.244 247.196H196.706V253.609H197.437L196.462 254.177L201.175 247.196H202.637V255.882H201.175V249.469H200.444L201.419 248.9L196.706 255.882H195.244V247.196Z" fill="#787878"/>
<path d="M206.213 248.413V255.882H204.75V247.196H210.356V248.413H206.213Z" fill="#787878"/>
<path d="M211.9 247.196H213.362V248.657C213.525 248.332 213.769 248.007 214.012 247.764C214.256 247.52 214.581 247.358 214.906 247.196C215.231 247.033 215.637 247.033 216.044 247.033C216.775 247.033 217.425 247.196 217.994 247.601C218.562 248.007 218.969 248.494 219.294 249.144C219.619 249.793 219.781 250.605 219.781 251.498C219.781 252.391 219.619 253.203 219.294 253.852C218.969 254.502 218.562 255.07 217.994 255.395C217.425 255.801 216.775 255.963 216.044 255.963C215.637 255.963 215.231 255.882 214.906 255.801C214.581 255.72 214.256 255.476 213.931 255.232C213.687 254.989 213.444 254.664 213.281 254.339V258.723H211.819V247.196H211.9ZM217.181 254.421C217.587 254.177 217.831 253.771 218.075 253.284C218.319 252.797 218.4 252.229 218.4 251.579C218.4 250.93 218.319 250.362 218.075 249.875C217.831 249.387 217.587 249.063 217.181 248.738C216.775 248.413 216.369 248.332 215.881 248.332C215.394 248.332 214.987 248.494 214.581 248.738C214.175 248.982 213.931 249.387 213.687 249.875C213.444 250.362 213.362 250.93 213.362 251.579C213.362 252.229 213.444 252.797 213.687 253.284C213.931 253.771 214.175 254.177 214.581 254.421C214.987 254.664 215.394 254.827 215.881 254.827C216.369 254.745 216.775 254.664 217.181 254.421Z" fill="#787878"/>
<path d="M221.65 247.196H223.112V249.956H224.737C225.712 249.956 226.525 250.199 227.094 250.768C227.662 251.336 227.987 251.985 227.987 252.878C227.987 253.771 227.662 254.502 227.094 254.989C226.525 255.476 225.712 255.801 224.737 255.801H221.65V247.196ZM223.112 251.173V254.664H224.737C225.306 254.664 225.712 254.502 226.037 254.177C226.362 253.852 226.525 253.447 226.525 252.878C226.525 252.391 226.362 251.904 226.037 251.579C225.712 251.255 225.306 251.092 224.737 251.092H223.112V251.173ZM229.044 247.196H230.506V255.882H229.044V247.196Z" fill="#787878"/>
<path d="M232.781 247.196H234.244V254.664H237.413V247.196H238.875V254.664H242.044V247.196H243.506V255.882H232.781V247.196Z" fill="#787878"/>
<path d="M62.3187 275.934C61.75 275.528 61.2625 275.041 60.9375 274.391C60.6124 273.742 60.45 272.93 60.45 272.037C60.45 271.144 60.6124 270.332 60.9375 269.683C61.2625 269.033 61.75 268.465 62.3187 268.14C62.8875 267.816 63.6187 267.572 64.4312 267.572C65.2437 267.572 65.8937 267.734 66.5437 268.14C67.1125 268.465 67.6 269.033 67.925 269.683C68.25 270.332 68.4125 271.144 68.4125 272.037C68.4125 272.93 68.25 273.742 67.925 274.391C67.6 275.041 67.1125 275.609 66.5437 275.934C65.975 276.258 65.2437 276.502 64.4312 276.502C63.6187 276.502 62.8875 276.339 62.3187 275.934ZM65.7312 274.878C66.1375 274.635 66.3812 274.229 66.625 273.742C66.8687 273.255 66.95 272.686 66.95 272.037C66.95 271.387 66.8687 270.819 66.625 270.332C66.3812 269.845 66.1375 269.52 65.7312 269.277C65.325 269.033 64.9187 268.871 64.4312 268.871C63.9437 268.871 63.4562 269.033 63.1312 269.277C62.8062 269.52 62.4812 269.926 62.2374 270.332C61.9937 270.738 61.9125 271.387 61.9125 272.037C61.9125 272.686 61.9937 273.255 62.2374 273.742C62.4812 274.229 62.725 274.554 63.1312 274.878C63.5375 275.203 63.9437 275.284 64.4312 275.284C64.9187 275.284 65.4062 275.122 65.7312 274.878Z" fill="#787878"/>
<path d="M76.375 268.871H73.6125V276.339H72.15V268.871H69.3875V267.653H76.375V268.871Z" fill="#787878"/>
<path d="M77.8374 267.653H84.9062V276.339H83.4437V268.871H79.2999V276.339H77.8374V267.653Z" fill="#787878"/>
<path d="M87.1813 267.653H88.5625V269.114C88.725 268.79 88.9688 268.465 89.2125 268.221C89.4563 267.978 89.7813 267.816 90.1063 267.653C90.4313 267.491 90.8375 267.491 91.2438 267.491C91.975 267.491 92.625 267.653 93.1938 268.059C93.7625 268.465 94.1688 268.952 94.4938 269.601C94.8188 270.251 94.9813 271.063 94.9813 271.956C94.9813 272.849 94.8188 273.661 94.4938 274.31C94.1688 274.959 93.7625 275.528 93.1938 275.852C92.625 276.258 91.975 276.421 91.2438 276.421C90.8375 276.421 90.4313 276.339 90.1063 276.258C89.7813 276.177 89.4563 275.934 89.1313 275.69C88.8875 275.447 88.6438 275.122 88.4813 274.797V279.181H87.0188V267.653H87.1813ZM92.3813 274.878C92.7875 274.635 93.0313 274.229 93.275 273.742C93.5188 273.255 93.6 272.686 93.6 272.037C93.6 271.387 93.5188 270.819 93.275 270.332C93.0313 269.845 92.7875 269.52 92.3813 269.196C91.975 268.871 91.5688 268.79 91.0813 268.79C90.5938 268.79 90.1875 268.952 89.7813 269.196C89.375 269.439 89.1313 269.845 88.8875 270.332C88.6438 270.819 88.5625 271.387 88.5625 272.037C88.5625 272.686 88.6438 273.255 88.8875 273.742C89.1313 274.229 89.375 274.635 89.7813 274.878C90.1875 275.122 90.5938 275.284 91.0813 275.284C91.5688 275.203 92.0563 275.122 92.3813 274.878Z" fill="#787878"/>
<path d="M97.8249 276.177C97.4187 275.934 97.0936 275.69 96.8499 275.284C96.6061 274.878 96.5249 274.472 96.5249 273.904C96.5249 273.173 96.7687 272.605 97.3374 272.118C97.9062 271.631 98.6374 271.469 99.6936 271.387L102.862 271.225V272.362L99.8561 272.524C99.2874 272.524 98.7999 272.686 98.4749 272.93C98.1499 273.173 97.9874 273.498 97.9874 273.904C97.9874 274.31 98.1499 274.635 98.4749 274.878C98.7999 275.122 99.2061 275.284 99.6936 275.284C100.181 275.284 100.587 275.203 100.912 274.959C101.237 274.797 101.562 274.472 101.806 274.148C102.05 273.823 102.131 273.417 102.131 273.011V270.494C102.131 270.007 101.969 269.52 101.644 269.277C101.319 269.033 100.831 268.79 100.262 268.79C99.6936 268.79 99.2874 268.871 98.8811 269.114C98.5561 269.358 98.3124 269.683 98.2311 270.089V270.17H96.8499V270.089C96.9311 269.601 97.0937 269.196 97.3374 268.79C97.5812 268.384 97.9874 268.059 98.4749 267.897C98.9624 267.734 99.5311 267.572 100.262 267.572C100.912 267.572 101.562 267.653 102.05 267.897C102.537 268.14 102.944 268.465 103.187 268.871C103.431 269.277 103.594 269.764 103.594 270.413V276.421H102.131V275.041C101.969 275.365 101.725 275.609 101.481 275.852C101.237 276.096 100.912 276.258 100.506 276.421C100.181 276.583 99.7749 276.583 99.3686 276.583C98.7999 276.502 98.3124 276.421 97.8249 276.177Z" fill="#787878"/>
<path d="M105.706 267.653H109.444C110.256 267.653 110.906 267.815 111.394 268.221C111.881 268.627 112.125 269.196 112.125 269.845C112.125 270.251 111.963 270.657 111.719 271.063C111.475 271.387 111.069 271.631 110.744 271.712V271.875C111.15 271.956 111.394 272.037 111.719 272.199C112.044 272.362 112.206 272.605 112.369 272.849C112.531 273.092 112.613 273.417 112.613 273.823C112.613 274.554 112.369 275.203 111.8 275.609C111.231 276.096 110.581 276.258 109.606 276.258H105.869V267.653H105.706ZM109.038 271.306C109.606 271.306 110.013 271.225 110.256 270.982C110.5 270.738 110.663 270.494 110.663 270.089C110.663 269.683 110.581 269.439 110.338 269.196C110.094 269.033 109.769 268.871 109.281 268.871H107.25V271.306H109.038ZM109.363 275.122C109.85 275.122 110.256 275.041 110.581 274.797C110.825 274.554 110.988 274.229 110.988 273.823C110.988 273.417 110.825 273.011 110.5 272.849C110.175 272.605 109.688 272.524 109.119 272.524H107.25V275.122H109.363Z" fill="#787878"/>
<path d="M114.238 267.653H115.7V270.413H117.325C118.3 270.413 119.113 270.657 119.681 271.225C120.25 271.793 120.575 272.443 120.575 273.336C120.575 274.229 120.25 274.959 119.681 275.446C119.113 275.934 118.3 276.258 117.325 276.258H114.238V267.653ZM115.7 271.631V275.122H117.325C117.894 275.122 118.3 274.959 118.625 274.635C118.95 274.31 119.113 273.904 119.113 273.336C119.113 272.849 118.95 272.362 118.625 272.037C118.3 271.712 117.894 271.55 117.325 271.55H115.7V271.631Z" fill="#787878"/>
<path d="M127.481 268.871H124.719V276.339H123.256V268.871H120.494V267.653H127.562V268.871H127.481Z" fill="#787878"/>
<path d="M130.244 275.934C129.675 275.528 129.187 275.041 128.862 274.391C128.537 273.742 128.375 272.93 128.375 272.037C128.375 271.144 128.537 270.332 128.862 269.683C129.187 269.033 129.675 268.465 130.244 268.059C130.813 267.653 131.544 267.491 132.275 267.491C133.006 267.491 133.737 267.653 134.306 268.059C134.875 268.465 135.281 268.952 135.606 269.601C135.931 270.251 136.094 270.982 136.094 271.875V272.443H129.106V271.306H135.362L134.631 272.362V271.793C134.631 271.144 134.55 270.576 134.306 270.089C134.062 269.601 133.819 269.358 133.494 269.114C133.169 268.871 132.762 268.79 132.275 268.79C131.787 268.79 131.381 268.871 131.056 269.114C130.731 269.358 130.406 269.683 130.162 270.089C129.919 270.494 129.838 271.063 129.838 271.712V272.28C129.838 272.93 129.919 273.417 130.162 273.823C130.406 274.229 130.65 274.554 131.056 274.797C131.462 275.041 131.869 275.122 132.437 275.122C132.844 275.122 133.169 275.041 133.412 274.959C133.656 274.878 133.981 274.716 134.144 274.472C134.306 274.229 134.469 274.066 134.55 273.823V273.742H136.012V273.823C135.931 274.148 135.769 274.472 135.606 274.797C135.444 275.122 135.119 275.365 134.794 275.609C134.469 275.852 134.144 276.015 133.737 276.177C133.331 276.34 132.925 276.34 132.437 276.34C131.544 276.502 130.894 276.34 130.244 275.934Z" fill="#787878"/>
<path d="M142.837 276.177C142.35 275.934 141.944 275.69 141.7 275.284C141.456 274.878 141.212 274.472 141.212 273.904V273.823H142.675V273.904C142.756 274.31 143 274.635 143.325 274.878C143.65 275.122 144.137 275.203 144.706 275.203C145.112 275.203 145.437 275.122 145.681 275.041C145.925 274.959 146.169 274.797 146.331 274.635C146.494 274.472 146.575 274.229 146.575 273.985C146.575 273.661 146.494 273.417 146.331 273.255C146.169 273.092 145.762 272.93 145.275 272.768L143.894 272.443C143.081 272.28 142.431 271.956 142.106 271.55C141.781 271.144 141.537 270.657 141.537 270.007C141.537 269.52 141.7 269.033 141.944 268.708C142.187 268.303 142.594 268.059 143.081 267.816C143.569 267.572 144.137 267.491 144.706 267.491C145.356 267.491 145.925 267.572 146.331 267.816C146.819 268.059 147.144 268.384 147.469 268.708C147.794 269.033 147.875 269.52 147.956 270.007V270.089H146.575V270.007C146.494 269.601 146.331 269.277 146.006 268.952C145.681 268.627 145.275 268.546 144.706 268.546C144.381 268.546 144.056 268.627 143.812 268.708C143.569 268.79 143.325 268.952 143.244 269.114C143.081 269.277 143 269.52 143 269.764C143 270.089 143.081 270.332 143.325 270.494C143.569 270.657 143.894 270.9 144.381 270.982L145.762 271.306C146.656 271.55 147.225 271.793 147.631 272.199C148.037 272.605 148.2 273.092 148.2 273.661C148.2 274.148 148.037 274.635 147.794 275.041C147.469 275.447 147.062 275.771 146.575 275.934C146.087 276.177 145.519 276.258 144.869 276.258C143.894 276.502 143.325 276.421 142.837 276.177Z" fill="#787878"/>
<path d="M149.5 267.653H150.963V268.952C151.125 268.546 151.45 268.14 151.856 267.897C152.262 267.653 152.75 267.491 153.319 267.491C153.725 267.491 154.05 267.572 154.375 267.653C154.7 267.734 154.944 267.978 155.188 268.221C155.431 268.465 155.594 268.79 155.756 269.114C155.919 268.79 156.163 268.465 156.406 268.221C156.65 267.978 156.975 267.816 157.3 267.653C157.625 267.491 158.031 267.491 158.438 267.491C159.006 267.491 159.494 267.572 159.9 267.816C160.306 268.059 160.631 268.384 160.875 268.79C161.119 269.196 161.2 269.683 161.2 270.332V276.34H159.738V270.657C159.738 270.089 159.575 269.601 159.25 269.277C158.925 268.952 158.519 268.79 157.95 268.79C157.544 268.79 157.219 268.871 156.894 269.033C156.569 269.196 156.406 269.439 156.163 269.764C155.919 270.089 155.919 270.413 155.919 270.819V276.34H154.456V270.576C154.456 270.089 154.294 269.601 153.969 269.277C153.644 268.952 153.237 268.79 152.669 268.79C152.262 268.79 151.938 268.871 151.613 269.033C151.288 269.196 151.044 269.439 150.881 269.764C150.719 270.089 150.637 270.413 150.637 270.819V276.258H149.5V267.653Z" fill="#787878"/>
<path d="M164.531 276.177C164.044 275.934 163.638 275.69 163.394 275.284C163.15 274.878 162.906 274.472 162.906 273.904V273.823H164.369V273.904C164.45 274.31 164.694 274.635 165.019 274.878C165.344 275.122 165.831 275.203 166.4 275.203C166.806 275.203 167.131 275.122 167.375 275.041C167.619 274.959 167.863 274.797 168.025 274.635C168.188 274.472 168.269 274.229 168.269 273.985C168.269 273.661 168.188 273.417 168.025 273.255C167.863 273.092 167.456 272.93 166.969 272.768L165.588 272.443C164.775 272.28 164.125 271.956 163.8 271.55C163.475 271.144 163.231 270.657 163.231 270.007C163.231 269.52 163.394 269.033 163.637 268.708C163.881 268.303 164.288 268.059 164.775 267.816C165.263 267.572 165.831 267.491 166.4 267.491C167.05 267.491 167.619 267.572 168.025 267.816C168.513 268.059 168.837 268.384 169.162 268.708C169.487 269.033 169.569 269.52 169.65 270.007V270.089H168.269V270.007C168.188 269.601 168.025 269.277 167.7 268.952C167.375 268.627 166.969 268.546 166.4 268.546C166.075 268.546 165.75 268.627 165.506 268.708C165.262 268.79 165.019 268.952 164.937 269.114C164.775 269.277 164.694 269.52 164.694 269.764C164.694 270.089 164.775 270.332 165.019 270.494C165.263 270.657 165.587 270.9 166.075 270.982L167.456 271.306C168.35 271.55 168.919 271.793 169.325 272.199C169.731 272.605 169.894 273.092 169.894 273.661C169.894 274.148 169.731 274.635 169.488 275.041C169.163 275.447 168.756 275.771 168.269 275.934C167.781 276.177 167.212 276.258 166.562 276.258C165.669 276.502 165.019 276.421 164.531 276.177Z" fill="#787878"/>
<path d="M180.781 272.443H176.556V276.339H175.094V267.653H176.556V271.225H180.781V267.653H182.244V276.339H180.781V272.443Z" fill="#787878"/>
<path d="M185.413 276.177C185.006 275.934 184.681 275.69 184.438 275.284C184.194 274.878 184.113 274.472 184.113 273.904C184.113 273.173 184.356 272.605 184.925 272.118C185.494 271.631 186.225 271.469 187.281 271.387L190.45 271.225V272.362L187.444 272.524C186.875 272.524 186.388 272.686 186.063 272.93C185.738 273.173 185.575 273.498 185.575 273.904C185.575 274.31 185.738 274.635 186.063 274.878C186.388 275.122 186.794 275.284 187.281 275.284C187.769 275.284 188.175 275.203 188.5 274.959C188.825 274.797 189.15 274.472 189.394 274.148C189.638 273.823 189.719 273.417 189.719 273.011V270.494C189.719 270.007 189.556 269.52 189.231 269.277C188.906 269.033 188.419 268.79 187.85 268.79C187.281 268.79 186.875 268.871 186.469 269.114C186.144 269.358 185.9 269.683 185.819 270.089V270.17H184.438V270.089C184.519 269.601 184.681 269.196 184.925 268.79C185.169 268.384 185.575 268.059 186.063 267.897C186.55 267.734 187.119 267.572 187.85 267.572C188.5 267.572 189.15 267.653 189.638 267.897C190.125 268.14 190.531 268.465 190.775 268.871C191.019 269.277 191.181 269.764 191.181 270.413V276.421H189.719V275.041C189.556 275.365 189.313 275.609 189.069 275.852C188.825 276.096 188.5 276.258 188.094 276.421C187.769 276.583 187.363 276.583 186.956 276.583C186.306 276.502 185.819 276.421 185.413 276.177Z" fill="#787878"/>
<path d="M202.637 272.443H198.412V276.339H196.95V267.653H198.412V271.225H202.637V267.653H204.1V276.339H202.637V272.443Z" fill="#787878"/>
<path d="M207.756 275.934C207.187 275.528 206.7 275.041 206.375 274.391C206.05 273.742 205.887 272.93 205.887 272.037C205.887 271.144 206.05 270.332 206.375 269.683C206.7 269.033 207.187 268.465 207.756 268.14C208.325 267.816 209.056 267.572 209.869 267.572C210.681 267.572 211.331 267.734 211.981 268.14C212.55 268.465 213.037 269.033 213.362 269.683C213.687 270.332 213.85 271.144 213.85 272.037C213.85 272.93 213.687 273.742 213.362 274.391C213.037 275.041 212.55 275.609 211.981 275.934C211.412 276.258 210.681 276.502 209.869 276.502C209.056 276.502 208.406 276.339 207.756 275.934ZM211.25 274.878C211.656 274.635 211.9 274.229 212.144 273.742C212.387 273.255 212.469 272.686 212.469 272.037C212.469 271.387 212.387 270.819 212.144 270.332C211.9 269.845 211.656 269.52 211.25 269.277C210.844 269.033 210.437 268.871 209.95 268.871C209.462 268.871 208.975 269.033 208.65 269.277C208.325 269.52 208 269.926 207.756 270.332C207.512 270.738 207.431 271.387 207.431 272.037C207.431 272.686 207.512 273.255 207.756 273.742C208 274.229 208.244 274.554 208.65 274.878C209.056 275.203 209.462 275.284 209.95 275.284C210.437 275.284 210.844 275.122 211.25 274.878Z" fill="#787878"/>
<path d="M215.719 276.339V267.653H217.506L220.594 274.391H220.675L223.762 267.653H225.469V276.339H224.006V270.17H223.925L221.162 276.096H220.025L217.262 270.17H217.181V276.339H215.719Z" fill="#787878"/>
<path d="M229.044 275.934C228.475 275.528 227.988 275.041 227.663 274.391C227.338 273.742 227.175 272.93 227.175 272.037C227.175 271.144 227.338 270.332 227.663 269.683C227.988 269.033 228.475 268.465 229.044 268.059C229.613 267.653 230.344 267.491 231.075 267.491C231.806 267.491 232.538 267.653 233.106 268.059C233.675 268.465 234.081 268.952 234.406 269.601C234.731 270.251 234.894 270.982 234.894 271.875V272.443H227.906V271.306H234.163L233.431 272.362V271.793C233.431 271.144 233.35 270.576 233.106 270.089C232.863 269.601 232.619 269.358 232.294 269.114C231.969 268.871 231.563 268.79 231.075 268.79C230.588 268.79 230.181 268.871 229.856 269.114C229.531 269.358 229.206 269.683 228.963 270.089C228.719 270.494 228.638 271.063 228.638 271.712V272.28C228.638 272.93 228.719 273.417 228.963 273.823C229.206 274.229 229.45 274.554 229.856 274.797C230.263 275.041 230.669 275.122 231.238 275.122C231.644 275.122 231.969 275.041 232.213 274.959C232.456 274.878 232.781 274.716 232.944 274.472C233.106 274.229 233.269 274.066 233.35 273.823V273.742H234.813V273.823C234.731 274.148 234.569 274.472 234.406 274.797C234.244 275.122 233.919 275.365 233.594 275.609C233.269 275.852 232.944 276.015 232.538 276.177C232.131 276.34 231.725 276.34 231.238 276.34C230.344 276.502 229.613 276.34 229.044 275.934Z" fill="#787878"/>
<path d="M236.681 267.653H238.144V269.114C238.306 268.79 238.55 268.465 238.794 268.221C239.037 267.978 239.362 267.816 239.687 267.653C240.012 267.491 240.419 267.491 240.825 267.491C241.556 267.491 242.206 267.653 242.775 268.059C243.344 268.465 243.75 268.952 244.075 269.601C244.4 270.251 244.562 271.063 244.562 271.956C244.562 272.849 244.4 273.661 244.075 274.31C243.75 274.959 243.344 275.528 242.775 275.852C242.206 276.258 241.556 276.421 240.825 276.421C240.419 276.421 240.012 276.339 239.687 276.258C239.362 276.177 239.037 275.934 238.712 275.69C238.469 275.447 238.225 275.122 238.062 274.797V279.181H236.6V267.653H236.681ZM241.962 274.878C242.369 274.635 242.612 274.229 242.856 273.742C243.1 273.255 243.181 272.686 243.181 272.037C243.181 271.387 243.1 270.819 242.856 270.332C242.612 269.845 242.369 269.52 241.962 269.196C241.556 268.871 241.15 268.79 240.662 268.79C240.175 268.79 239.769 268.952 239.362 269.196C238.956 269.439 238.712 269.845 238.469 270.332C238.225 270.819 238.144 271.387 238.144 272.037C238.144 272.686 238.225 273.255 238.469 273.742C238.712 274.229 238.956 274.635 239.362 274.878C239.769 275.122 240.175 275.284 240.662 275.284C241.15 275.203 241.556 275.122 241.962 274.878Z" fill="#787878"/>
<path d="M253.094 265.948L249.844 268.14V266.598L253.012 264.325H254.475V276.34H253.012V265.948H253.094Z" fill="#787878"/>
<path d="M256.994 275.284L261.219 270.9C261.788 270.332 262.194 269.845 262.438 269.52C262.681 269.196 262.925 268.79 263.006 268.546C263.088 268.221 263.169 267.978 263.169 267.572C263.169 267.166 263.088 266.76 262.844 266.517C262.681 266.192 262.356 265.948 262.031 265.786C261.706 265.624 261.3 265.542 260.894 265.542C260.406 265.542 259.919 265.624 259.513 265.867C259.106 266.111 258.781 266.354 258.619 266.679C258.456 267.004 258.294 267.41 258.294 267.815H256.831V267.734C256.831 267.004 256.994 266.435 257.4 265.867C257.806 265.299 258.213 264.893 258.863 264.568C259.513 264.244 260.163 264.081 260.894 264.081C261.625 264.081 262.275 264.244 262.844 264.487C263.413 264.731 263.819 265.218 264.144 265.705C264.469 266.192 264.631 266.76 264.631 267.41C264.631 267.815 264.55 268.303 264.388 268.708C264.225 269.114 263.9 269.601 263.494 270.089C263.088 270.576 262.519 271.225 261.788 271.956L258.456 275.365L258.863 274.472V275.365L258.456 274.959H264.794V276.258H256.831V275.284H256.994Z" fill="#787878"/>
<path d="M268.369 276.096C267.719 275.852 267.231 275.447 266.906 274.959C266.581 274.472 266.337 273.904 266.256 273.255V273.173H267.719V273.255C267.8 273.823 268.044 274.31 268.531 274.716C269.019 275.122 269.669 275.284 270.481 275.284C270.969 275.284 271.456 275.203 271.862 275.041C272.269 274.878 272.594 274.635 272.756 274.31C272.919 273.985 273.081 273.579 273.081 273.173C273.081 272.443 272.837 271.875 272.35 271.469C271.862 271.063 271.212 270.9 270.319 270.9H268.937V269.602H270.4C270.887 269.602 271.294 269.52 271.7 269.358C272.106 269.196 272.35 268.952 272.594 268.627C272.837 268.303 272.919 267.978 272.919 267.572C272.919 267.166 272.837 266.76 272.675 266.517C272.512 266.273 272.269 266.03 271.862 265.867C271.537 265.705 271.131 265.624 270.644 265.624C270.156 265.624 269.75 265.705 269.344 265.867C268.937 266.03 268.694 266.273 268.45 266.517C268.206 266.76 268.125 267.166 268.044 267.572V267.653H266.5V267.572C266.581 266.923 266.744 266.354 267.15 265.867C267.556 265.38 267.962 264.974 268.531 264.731C269.1 264.487 269.75 264.325 270.481 264.325C271.212 264.325 271.944 264.487 272.512 264.731C273.081 264.974 273.487 265.38 273.812 265.786C274.137 266.192 274.3 266.76 274.3 267.41C274.3 267.897 274.219 268.303 273.975 268.709C273.731 269.114 273.487 269.439 273.081 269.683C272.675 269.926 272.269 270.089 271.781 270.251C272.675 270.332 273.406 270.657 273.894 271.144C274.462 271.631 274.706 272.362 274.706 273.173C274.706 273.823 274.544 274.472 274.137 274.959C273.731 275.447 273.244 275.934 272.675 276.177C272.106 276.421 271.294 276.664 270.562 276.664C269.669 276.583 268.937 276.421 268.369 276.096Z" fill="#787878"/>
<path d="M276.737 276.177C276.575 276.015 276.494 275.771 276.494 275.528C276.494 275.284 276.575 275.041 276.737 274.878C276.9 274.716 277.144 274.635 277.387 274.635C277.631 274.635 277.875 274.716 278.037 274.878C278.2 275.041 278.281 275.284 278.281 275.528C278.281 275.771 278.2 276.015 278.037 276.177C277.875 276.339 277.631 276.421 277.387 276.421C277.144 276.421 276.9 276.339 276.737 276.177Z" fill="#787878"/>
</g>
<defs>
<clipPath id="clip0">
<rect width="286" height="110" fill="white" transform="translate(26 198)"/>
</clipPath>
</defs>
</svg>
