<svg width="343" height="482" viewBox="0 0 343 482" fill="none" xmlns="http://www.w3.org/2000/svg">
<g clip-path="url(#clip0)">
<path d="M0 12C0 5.37258 5.37258 0 12 0H331C337.627 0 343 5.37258 343 12V470C343 476.627 337.627 482 331 482H12C5.37258 482 0 476.627 0 470V12Z" fill="#F3F4F5"/>
<path d="M0 12C0 5.37258 5.37258 0 12 0H331C337.627 0 343 5.37258 343 12V470C343 476.627 337.627 482 331 482H12C5.37258 482 0 476.627 0 470V12Z" stroke="#F3F4F5"/>
<path d="M22.4912 79.1094H25.9609C29.5303 79.1094 31.5889 80.7197 31.5889 83.4424V83.4756C31.5889 85.999 29.4141 87.6426 26.0771 87.6426C22.6904 87.6426 20.5156 86.2812 20.2168 83.8906L20.2002 83.7578H17.2451L17.2617 83.9736C17.5605 87.8086 20.9473 90.3984 26.1104 90.3984C30.9746 90.3984 34.6436 87.4268 34.6436 83.5586V83.5254C34.6436 80.2881 32.7178 77.9971 29.5303 77.582V77.4492C32.1533 76.8018 33.9463 74.5605 33.9463 71.9043V71.8711C33.9463 68.2188 30.7588 65.6455 26.1602 65.6455C21.3457 65.6455 18.1914 68.0195 17.9092 71.9541L17.8926 72.1865H20.8477L20.8809 71.9375C21.1797 69.7129 23.0391 68.4014 26.0439 68.4014C29.1152 68.4014 30.8916 69.8125 30.8916 72.1367V72.1699C30.8916 74.6602 28.8828 76.4199 25.8281 76.4199H22.4912V79.1094ZM42.9775 90.332C45.2852 90.332 47.3604 89.0869 48.373 87.1943H48.4395V90H51.3281V78.0635C51.3281 74.6104 48.7715 72.4023 44.6875 72.4023C40.6201 72.4023 38.1465 74.6934 37.8975 77.5322L37.8809 77.7148H40.6699L40.7031 77.5654C41.0352 76.0215 42.4297 74.959 44.6543 74.959C47.0615 74.959 48.4395 76.2373 48.4395 78.3457V79.79L43.4922 80.0723C39.5244 80.3047 37.2334 82.1475 37.2334 85.0859V85.1191C37.2334 88.2568 39.541 90.332 42.9775 90.332ZM40.1885 85.1191V85.0859C40.1885 83.4756 41.5166 82.4463 43.8242 82.3135L48.4395 82.0312V83.4424C48.4395 85.9492 46.3477 87.8252 43.625 87.8252C41.5498 87.8252 40.1885 86.7793 40.1885 85.1191ZM62.2852 90H69.7227C73.3916 90 75.6494 88.0908 75.6494 85.0527V85.0195C75.6494 82.9111 74.2217 81.3838 72.0469 81.085V80.9521C73.6406 80.6201 74.8857 78.9932 74.8857 77.2168V77.1836C74.8857 74.4443 72.9102 72.7344 69.6729 72.7344H62.2852V90ZM65.1738 79.9561V75.125H69.2412C71.0508 75.125 72.0137 75.9385 72.0137 77.4824V77.5156C72.0137 79.1758 70.9844 79.9561 68.8096 79.9561H65.1738ZM65.1738 87.6094V82.3467H68.959C71.4824 82.3467 72.6943 83.1768 72.6943 84.9531V84.9863C72.6943 86.7129 71.5654 87.6094 69.4736 87.6094H65.1738ZM78.9531 90H85.0791C89.0303 90 91.5703 87.7256 91.5703 84.1396V84.1064C91.5703 80.5205 89.0303 78.2461 85.0791 78.2461H81.8418V72.7344H78.9531V90ZM93.7617 90H96.6504V72.7344H93.7617V90ZM85.0293 80.6367C87.2207 80.6367 88.6152 81.998 88.6152 84.1064V84.1396C88.6152 86.2314 87.2373 87.6094 85.0293 87.6094H81.8418V80.6367H85.0293ZM100.734 90H103.59L112.189 77.167H112.322V90H115.211V72.7344H112.355L103.756 85.5674H103.623V72.7344H100.734V90ZM130.368 75.125V72.7344H119.262V90H122.15V75.125H130.368ZM133.522 95.8105H136.411V87.1113H136.478C137.557 89.1035 139.565 90.332 142.006 90.332C146.339 90.332 149.294 86.8291 149.294 81.3838V81.3672C149.294 75.9219 146.372 72.4023 141.956 72.4023C139.482 72.4023 137.557 73.6475 136.478 75.6562H136.411V72.7344H133.522V95.8105ZM141.392 87.7754C138.486 87.7754 136.395 85.2354 136.395 81.3838V81.3672C136.395 77.499 138.47 74.959 141.392 74.959C144.446 74.959 146.339 77.3994 146.339 81.3672V81.3838C146.339 85.3184 144.446 87.7754 141.392 87.7754ZM152.531 90H158.657C162.608 90 165.148 87.7256 165.148 84.1396V84.1064C165.148 80.5205 162.608 78.2461 158.657 78.2461H155.42V72.7344H152.531V90ZM167.34 90H170.229V72.7344H167.34V90ZM158.607 80.6367C160.799 80.6367 162.193 81.998 162.193 84.1064V84.1396C162.193 86.2314 160.815 87.6094 158.607 87.6094H155.42V80.6367H158.607ZM174.312 90H195.629V72.7344H192.74V87.6094H186.415V72.7344H183.526V87.6094H177.201V72.7344H174.312V90ZM207.632 94.7314V90H221.029V94.7314H223.719V87.6094H220.979V72.7344H209.093L208.429 82.3135C208.263 84.6377 207.648 86.7793 206.387 87.6094H204.942V94.7314H207.632ZM218.091 87.6094H209.641V87.543C210.504 86.4307 210.952 84.5547 211.102 82.3799L211.633 75.125H218.091V87.6094ZM233.431 90.332C237.199 90.332 240.021 88.0742 240.586 85.2188L240.619 85.0527H237.78L237.73 85.2021C237.232 86.6797 235.688 87.7754 233.497 87.7754C230.426 87.7754 228.467 85.7002 228.4 82.1475H240.835V81.085C240.835 75.9053 237.963 72.4023 233.248 72.4023C228.533 72.4023 225.479 76.0713 225.479 81.417V81.4336C225.479 86.8623 228.467 90.332 233.431 90.332ZM233.231 74.959C235.755 74.959 237.614 76.5361 237.896 79.8896H228.45C228.766 76.6689 230.725 74.959 233.231 74.959ZM255.411 90H258.3V72.7344H255.411V79.8564H246.961V72.7344H244.072V90H246.961V82.2471H255.411V90ZM269.489 90.332C273.258 90.332 276.08 88.0742 276.645 85.2188L276.678 85.0527H273.839L273.789 85.2021C273.291 86.6797 271.747 87.7754 269.556 87.7754C266.484 87.7754 264.525 85.7002 264.459 82.1475H276.894V81.085C276.894 75.9053 274.021 72.4023 269.307 72.4023C264.592 72.4023 261.537 76.0713 261.537 81.417V81.4336C261.537 86.8623 264.525 90.332 269.489 90.332ZM269.29 74.959C271.813 74.959 273.673 76.5361 273.955 79.8896H264.509C264.824 76.6689 266.783 74.959 269.29 74.959ZM291.237 75.125V72.7344H280.131V90H283.02V75.125H291.237ZM29.3643 126H32.2529V108.734H29.3643V115.856H20.9141V108.734H18.0254V126H20.9141V118.247H29.3643V126ZM43.4424 126.332C47.2109 126.332 50.0332 124.074 50.5977 121.219L50.6309 121.053H47.792L47.7422 121.202C47.2441 122.68 45.7002 123.775 43.5088 123.775C40.4375 123.775 38.4785 121.7 38.4121 118.147H50.8467V117.085C50.8467 111.905 47.9746 108.402 43.2598 108.402C38.5449 108.402 35.4902 112.071 35.4902 117.417V117.434C35.4902 122.862 38.4785 126.332 43.4424 126.332ZM43.2432 110.959C45.7666 110.959 47.626 112.536 47.9082 115.89H38.4619C38.7773 112.669 40.7363 110.959 43.2432 110.959ZM68.4609 126.332C73.458 126.332 76.5293 122.979 76.5293 117.55V117.517C76.5293 112.387 73.5576 109.1 68.8926 109.1C66.2031 109.1 64.0283 110.162 62.8828 112.204H62.8164L62.8496 111.972C63.5635 106.975 65.0078 104.933 69.7393 104.75L71.0176 104.7C73.0098 104.617 74.8359 104.186 75.3838 103.688V101.164C74.4043 101.679 72.5449 102.027 70.8848 102.094L69.6064 102.144C62.8994 102.409 60.376 106.36 60.376 115.873V115.906C60.376 122.763 63.165 126.332 68.4609 126.332ZM68.4609 123.775C65.207 123.775 63.3311 121.518 63.3311 117.55V117.517C63.3311 113.765 65.207 111.656 68.4609 111.656C71.6982 111.656 73.5742 113.765 73.5742 117.517V117.55C73.5742 121.518 71.6982 123.775 68.4609 123.775ZM86.8721 126.332C90.6406 126.332 93.4629 124.074 94.0273 121.219L94.0605 121.053H91.2217L91.1719 121.202C90.6738 122.68 89.1299 123.775 86.9385 123.775C83.8672 123.775 81.9082 121.7 81.8418 118.147H94.2764V117.085C94.2764 111.905 91.4043 108.402 86.6895 108.402C81.9746 108.402 78.9199 112.071 78.9199 117.417V117.434C78.9199 122.862 81.9082 126.332 86.8721 126.332ZM86.6729 110.959C89.1963 110.959 91.0557 112.536 91.3379 115.89H81.8916C82.207 112.669 84.166 110.959 86.6729 110.959ZM97.5303 131.811H100.419V123.111H100.485C101.564 125.104 103.573 126.332 106.014 126.332C110.347 126.332 113.302 122.829 113.302 117.384V117.367C113.302 111.922 110.38 108.402 105.964 108.402C103.49 108.402 101.564 109.647 100.485 111.656H100.419V108.734H97.5303V131.811ZM105.399 123.775C102.494 123.775 100.402 121.235 100.402 117.384V117.367C100.402 113.499 102.478 110.959 105.399 110.959C108.454 110.959 110.347 113.399 110.347 117.367V117.384C110.347 121.318 108.454 123.775 105.399 123.775ZM117.718 131.811C120.839 131.811 122.35 130.383 123.578 127.079L130.318 108.734H127.28L122.499 123.111H122.433L117.668 108.734H114.58L120.988 126.017L120.64 126.996C119.942 128.955 118.93 129.42 117.104 129.42C116.755 129.42 116.423 129.37 116.174 129.32V131.678C116.539 131.744 117.153 131.811 117.718 131.811ZM145.542 108.734H131.53V111.125H137.092V126H139.98V111.125H145.542V108.734Z" fill="#BB3AF7"/>
<path d="M293 390.75H50C31.6365 390.75 16.75 405.637 16.75 424C16.75 442.363 31.6365 457.25 50 457.25H293C311.363 457.25 326.25 442.363 326.25 424C326.25 405.637 311.363 390.75 293 390.75Z" stroke="#BB3AF7" stroke-width="1.5"/>
<path d="M129.595 424.52H131.656C133.563 424.52 134.681 425.36 134.681 426.775V426.796C134.681 428.139 133.512 429 131.717 429C129.872 429 128.713 428.283 128.559 427.011L128.549 426.919H125.985L125.996 427.042C126.119 429.544 128.364 431.256 131.707 431.256C134.999 431.256 137.377 429.431 137.377 426.95V426.929C137.377 424.96 136.147 423.545 134.158 423.31V423.228C135.809 422.858 136.926 421.505 136.926 419.864V419.844C136.926 417.537 134.845 415.947 131.758 415.947C128.569 415.947 126.488 417.537 126.354 420.1L126.344 420.223H128.836L128.856 420.09C129.01 418.9 130.036 418.203 131.687 418.203C133.378 418.203 134.353 418.931 134.353 420.141V420.162C134.353 421.484 133.276 422.366 131.615 422.366H129.595V424.52ZM142.484 431.185C143.909 431.185 145.119 430.467 145.755 429.329H145.806V431H148.359V423.525C148.359 421.341 146.616 419.905 143.889 419.905C141.13 419.905 139.469 421.351 139.305 423.279L139.295 423.402H141.664L141.684 423.31C141.848 422.51 142.597 421.946 143.807 421.946C145.088 421.946 145.806 422.612 145.806 423.709V424.458L142.966 424.632C140.341 424.796 138.833 425.955 138.833 427.883V427.903C138.833 429.841 140.3 431.185 142.484 431.185ZM141.387 427.801V427.791C141.387 426.929 142.074 426.386 143.325 426.304L145.806 426.15V426.97C145.806 428.262 144.709 429.236 143.243 429.236C142.115 429.236 141.387 428.693 141.387 427.801ZM150.595 431H153.148V422.1H157.619V431H160.182V420.131H150.595V431ZM167.268 431.215C170.457 431.215 172.528 429.093 172.528 425.565V425.545C172.528 422.038 170.426 419.905 167.268 419.905C164.099 419.905 162.007 422.059 162.007 425.545V425.565C162.007 429.083 164.068 431.215 167.268 431.215ZM167.278 429.154C165.658 429.154 164.612 427.852 164.612 425.565V425.545C164.612 423.289 165.668 421.977 167.268 421.977C168.877 421.977 169.934 423.279 169.934 425.545V425.565C169.934 427.842 168.898 429.154 167.278 429.154ZM176.783 431V423.566H176.855L179.911 430.498H181.715L184.771 423.566H184.853V431H187.293V420.131H184.084L180.885 427.719H180.803L177.614 420.131H174.343V431H176.783ZM196.707 431H199.26V420.131H196.707V424.417H192.133V420.131H189.58V431H192.133V426.396H196.707V431ZM201.536 431H204.089V426.406H205.709C206.017 429.431 207.924 431.215 210.857 431.215C214.077 431.215 216.056 429.113 216.056 425.576V425.555C216.056 422.028 214.066 419.905 210.857 419.905C208.037 419.905 206.15 421.587 205.75 424.407H204.089V420.131H201.536V431ZM210.857 429.154C209.206 429.154 208.263 427.842 208.263 425.576V425.555C208.263 423.289 209.216 421.977 210.857 421.977C212.487 421.977 213.441 423.289 213.441 425.555V425.576C213.441 427.842 212.498 429.154 210.857 429.154Z" fill="black"/>
<path d="M307.715 198H40.8089C38.4526 198 36.5839 199.948 36.5839 202.303V294.037C36.5839 295.417 36.0151 296.716 35.0401 297.69L26.2651 306.376C25.6964 306.945 26.1026 308 26.9151 308H307.715C310.071 308 312.021 306.052 312.021 303.697V202.303C312.021 199.948 310.071 198 307.715 198Z" fill="white"/>
<path d="M68.9809 235.424V224.789H62.5621V235.424H61.0996V223.409H70.5246V235.424H68.9809Z" fill="#787878"/>
<path d="M74.2613 235.018C73.6926 234.612 73.2051 234.125 72.8801 233.475C72.5551 232.826 72.3926 232.014 72.3926 231.121C72.3926 230.228 72.5551 229.416 72.8801 228.767C73.2051 228.118 73.6926 227.549 74.2613 227.225C74.8301 226.9 75.5613 226.656 76.3738 226.656C77.1863 226.656 77.8363 226.819 78.4863 227.225C79.0551 227.549 79.5426 228.118 79.8676 228.767C80.1926 229.416 80.3551 230.228 80.3551 231.121C80.3551 232.014 80.1926 232.826 79.8676 233.475C79.5426 234.125 79.0551 234.693 78.4863 235.018C77.9176 235.343 77.1863 235.586 76.3738 235.586C75.5613 235.586 74.9113 235.424 74.2613 235.018ZM77.7551 233.963C78.1613 233.719 78.4051 233.313 78.6488 232.826C78.8926 232.339 78.9738 231.771 78.9738 231.121C78.9738 230.472 78.8926 229.903 78.6488 229.416C78.4051 228.929 78.1613 228.605 77.7551 228.361C77.3488 228.118 76.9426 227.955 76.4551 227.955C75.9676 227.955 75.4801 228.118 75.1551 228.361C74.8301 228.605 74.5051 229.01 74.2613 229.416C74.0176 229.822 73.9363 230.472 73.9363 231.121C73.9363 231.771 74.0176 232.339 74.2613 232.826C74.5051 233.313 74.7488 233.638 75.1551 233.963C75.5613 234.287 75.9676 234.368 76.4551 234.368C76.9426 234.368 77.3488 234.206 77.7551 233.963Z" fill="#787878"/>
<path d="M83.3617 235.343C82.8742 235.18 82.468 234.856 82.143 234.531C81.818 234.206 81.6555 233.8 81.5742 233.313V233.232H83.0367V233.313C83.118 233.638 83.3617 233.963 83.6867 234.125C84.0117 234.287 84.418 234.45 84.9867 234.45C85.5555 234.45 86.043 234.287 86.4492 234.044C86.8555 233.8 87.018 233.475 87.018 232.988C87.018 232.501 86.8555 232.177 86.5305 231.933C86.2055 231.689 85.718 231.608 85.068 231.608H83.768V230.391H85.068C85.6367 230.391 86.043 230.309 86.368 230.066C86.693 229.822 86.7742 229.498 86.7742 229.092C86.7742 228.686 86.6117 228.361 86.368 228.118C86.1242 227.874 85.718 227.793 85.1492 227.793C84.6617 227.793 84.2555 227.874 83.9305 228.118C83.6055 228.361 83.3617 228.605 83.3617 228.929V229.01H81.9805V228.929C82.0617 228.442 82.2242 228.036 82.5492 227.712C82.8742 227.387 83.1992 227.062 83.6867 226.9C84.1742 226.737 84.6617 226.656 85.3117 226.656C85.9617 226.656 86.4492 226.737 86.9367 226.981C87.4242 227.225 87.7492 227.468 87.993 227.793C88.2367 228.118 88.3992 228.605 88.3992 229.092C88.3992 229.579 88.2367 229.985 87.993 230.309C87.7492 230.634 87.343 230.878 86.9367 230.959V231.04C87.343 231.121 87.5867 231.284 87.9117 231.446C88.1555 231.608 88.3992 231.852 88.4805 232.095C88.5617 232.339 88.643 232.664 88.643 232.988C88.643 233.557 88.4805 233.963 88.2367 234.368C87.993 234.774 87.5867 235.099 87.018 235.343C86.4492 235.586 85.8805 235.667 85.2305 235.667C84.418 235.586 83.8492 235.505 83.3617 235.343Z" fill="#787878"/>
<path d="M89.5371 237.778V234.206H90.2684C90.5934 233.962 90.8371 233.638 90.9996 233.151C91.1621 232.664 91.2434 232.095 91.3246 231.527L91.6496 226.737H97.5809V234.206H98.9621V237.778H97.5809V235.424H90.8371V237.778H89.5371ZM96.1996 227.955H92.9496L92.6246 231.608C92.6246 232.176 92.5434 232.664 92.3809 233.069C92.2184 233.475 92.1371 233.881 91.8934 234.125H96.1184V227.955H96.1996Z" fill="#787878"/>
<path d="M100.587 226.738H102.05V228.199C102.212 227.874 102.456 227.549 102.7 227.306C102.943 227.062 103.268 226.9 103.593 226.738C103.918 226.575 104.325 226.575 104.731 226.575C105.462 226.575 106.112 226.738 106.681 227.143C107.25 227.549 107.656 228.036 107.981 228.686C108.306 229.335 108.468 230.147 108.468 231.04C108.468 231.933 108.306 232.745 107.981 233.394C107.656 234.044 107.25 234.612 106.681 234.937C106.112 235.343 105.462 235.505 104.731 235.505C104.325 235.505 103.918 235.424 103.593 235.343C103.268 235.262 102.943 235.018 102.618 234.774C102.375 234.531 102.131 234.206 101.968 233.881V238.265H100.506V226.738H100.587ZM105.868 233.963C106.275 233.719 106.518 233.313 106.762 232.826C107.006 232.339 107.087 231.771 107.087 231.121C107.087 230.472 107.006 229.904 106.762 229.417C106.518 228.929 106.275 228.605 105.868 228.28C105.462 227.955 105.056 227.874 104.568 227.874C104.081 227.874 103.675 228.036 103.268 228.28C102.862 228.524 102.618 228.929 102.375 229.417C102.131 229.904 102.05 230.472 102.05 231.121C102.05 231.771 102.131 232.339 102.375 232.826C102.618 233.313 102.862 233.719 103.268 233.963C103.675 234.206 104.081 234.369 104.568 234.369C105.056 234.287 105.462 234.206 105.868 233.963Z" fill="#787878"/>
<path d="M111.312 235.261C110.905 235.018 110.58 234.774 110.337 234.368C110.093 233.963 110.012 233.557 110.012 232.988C110.012 232.258 110.255 231.689 110.824 231.202C111.393 230.715 112.124 230.553 113.18 230.472L116.349 230.309V231.446L113.343 231.608C112.774 231.608 112.287 231.771 111.962 232.014C111.637 232.258 111.474 232.582 111.474 232.988C111.474 233.394 111.637 233.719 111.962 233.963C112.287 234.206 112.693 234.368 113.18 234.368C113.668 234.368 114.074 234.287 114.399 234.044C114.724 233.881 115.049 233.557 115.293 233.232C115.537 232.907 115.618 232.501 115.618 232.095V229.579C115.618 229.092 115.455 228.605 115.13 228.361C114.805 228.118 114.318 227.874 113.749 227.874C113.18 227.874 112.774 227.955 112.368 228.199C112.043 228.442 111.799 228.767 111.718 229.173V229.254H110.337V229.173C110.418 228.686 110.58 228.28 110.824 227.874C111.068 227.468 111.474 227.143 111.962 226.981C112.449 226.819 113.018 226.656 113.749 226.656C114.399 226.656 115.049 226.737 115.537 226.981C116.024 227.225 116.43 227.549 116.674 227.955C116.918 228.361 117.08 228.848 117.08 229.498V235.505H115.618V234.125C115.455 234.45 115.212 234.693 114.968 234.937C114.724 235.18 114.399 235.343 113.993 235.505C113.668 235.667 113.262 235.667 112.855 235.667C112.205 235.586 111.718 235.505 111.312 235.261Z" fill="#787878"/>
<path d="M119.193 226.737H122.931C123.743 226.737 124.393 226.9 124.881 227.306C125.368 227.711 125.612 228.28 125.612 228.929C125.612 229.335 125.45 229.741 125.206 230.147C124.962 230.472 124.556 230.715 124.231 230.796V230.878C124.637 230.959 124.881 231.04 125.206 231.202C125.531 231.365 125.693 231.608 125.856 231.852C126.018 232.095 126.1 232.42 126.1 232.826C126.1 233.556 125.856 234.206 125.287 234.612C124.718 235.099 124.068 235.261 123.093 235.261H119.356V226.737H119.193ZM122.443 230.39C123.012 230.39 123.418 230.309 123.662 230.066C123.906 229.822 124.068 229.579 124.068 229.173C124.068 228.767 123.987 228.523 123.743 228.28C123.5 228.117 123.175 227.955 122.687 227.955H120.656V230.39H122.443ZM122.768 234.206C123.256 234.206 123.662 234.125 123.987 233.881C124.231 233.638 124.393 233.313 124.393 232.907C124.393 232.501 124.231 232.095 123.906 231.933C123.581 231.689 123.093 231.608 122.525 231.608H120.656V234.287H122.768V234.206Z" fill="#787878"/>
<path d="M129.918 233.719C129.755 234.287 129.512 234.774 129.105 235.099C128.78 235.424 128.293 235.586 127.643 235.586C127.48 235.586 127.399 235.586 127.318 235.586C127.237 235.586 127.155 235.586 127.074 235.505V234.206C127.074 234.206 127.155 234.206 127.237 234.206C127.318 234.206 127.399 234.206 127.48 234.206C127.805 234.206 128.049 234.125 128.212 233.881C128.374 233.638 128.537 233.394 128.618 232.988C128.699 232.582 128.78 232.176 128.78 231.608L129.105 226.818H135.199V235.505H133.737V228.036H130.405L130.162 231.689C130.162 232.42 130.08 233.069 129.918 233.719Z" fill="#787878"/>
<path d="M142.349 232.339H140.724L138.53 235.424H136.824L139.262 232.095C138.612 231.933 138.205 231.608 137.799 231.202C137.393 230.796 137.312 230.228 137.312 229.66C137.312 229.091 137.474 228.523 137.718 228.117C137.962 227.711 138.368 227.387 138.855 227.143C139.343 226.9 139.912 226.818 140.562 226.818H143.812V235.505H142.349V232.339ZM142.349 231.121V227.955H140.562C139.993 227.955 139.587 228.117 139.262 228.361C138.937 228.686 138.774 229.091 138.774 229.579C138.774 229.984 138.937 230.39 139.262 230.634C139.587 230.877 139.993 231.04 140.562 231.04H142.349V231.121Z" fill="#787878"/>
<path d="M147.468 235.018C146.9 234.612 146.412 234.125 146.087 233.476C145.762 232.826 145.6 232.014 145.6 231.121C145.6 230.228 145.762 229.417 146.087 228.767C146.412 228.118 146.9 227.549 147.468 227.143C148.037 226.738 148.768 226.575 149.5 226.575C150.231 226.575 150.962 226.738 151.531 227.143C152.1 227.549 152.506 228.036 152.831 228.686C153.156 229.335 153.318 230.066 153.318 230.959V231.527H146.331V230.391H152.587L151.856 231.446V230.878C151.856 230.228 151.775 229.66 151.531 229.173C151.287 228.686 151.043 228.442 150.718 228.199C150.393 227.955 149.987 227.874 149.5 227.874C149.012 227.874 148.606 227.955 148.281 228.199C147.956 228.442 147.631 228.767 147.387 229.173C147.143 229.579 147.062 230.147 147.062 230.797V231.365C147.062 232.014 147.143 232.501 147.387 232.907C147.631 233.313 147.875 233.638 148.281 233.881C148.687 234.125 149.093 234.206 149.662 234.206C150.068 234.206 150.393 234.125 150.637 234.044C150.881 233.963 151.206 233.8 151.368 233.557C151.531 233.313 151.693 233.151 151.775 232.907V232.826H153.237V232.907C153.156 233.232 152.993 233.557 152.831 233.881C152.668 234.206 152.343 234.45 152.018 234.693C151.693 234.937 151.368 235.099 150.962 235.262C150.556 235.424 150.15 235.424 149.662 235.424C148.768 235.586 148.037 235.424 147.468 235.018Z" fill="#787878"/>
<path d="M155.105 235.424V226.737H156.893L159.98 233.475H160.062L163.149 226.737H164.855V235.424H163.393V229.254H163.312L160.549 235.18H159.412L156.649 229.254H156.568V235.424H155.105Z" fill="#787878"/>
<path d="M167.13 233.719H168.673L167.455 237.778H166.398L167.13 233.719Z" fill="#787878"/>
<path d="M174.768 223.409H176.23V235.424H174.768V223.409ZM175.499 234.125H179.074C179.968 234.125 180.618 233.963 181.105 233.557C181.593 233.151 181.836 232.664 181.836 232.014C181.836 231.527 181.755 231.121 181.511 230.878C181.268 230.634 180.943 230.31 180.536 230.147C180.13 229.985 179.561 229.904 178.911 229.904H175.499V228.605H178.505C179.399 228.605 180.049 228.442 180.536 228.118C181.024 227.793 181.268 227.306 181.268 226.656C181.268 226.088 181.105 225.601 180.699 225.276C180.293 224.952 179.724 224.789 178.993 224.789H175.499V223.49H179.318C179.968 223.49 180.618 223.653 181.105 223.896C181.593 224.14 181.999 224.465 182.324 224.952C182.649 225.439 182.73 225.926 182.73 226.494C182.73 226.9 182.649 227.306 182.486 227.712C182.324 228.118 181.999 228.442 181.674 228.686C181.349 228.929 180.943 229.092 180.536 229.173C181.105 229.254 181.593 229.417 181.999 229.66C182.405 229.904 182.73 230.31 182.974 230.715C183.218 231.121 183.299 231.608 183.299 232.177C183.299 232.907 183.136 233.476 182.811 233.963C182.486 234.45 181.999 234.856 181.43 235.099C180.861 235.343 180.13 235.505 179.236 235.505H175.499V234.125Z" fill="#787878"/>
<path d="M185.168 226.737H186.63V229.497H188.255C189.23 229.497 190.043 229.741 190.612 230.309C191.18 230.878 191.505 231.527 191.505 232.42C191.505 233.313 191.18 234.044 190.612 234.531C190.043 235.018 189.23 235.342 188.255 235.342H185.168V226.737ZM186.549 230.715V234.206H188.174C188.743 234.206 189.149 234.044 189.474 233.719C189.799 233.394 189.962 232.988 189.962 232.42C189.962 231.933 189.799 231.446 189.474 231.121C189.149 230.796 188.743 230.634 188.174 230.634H186.549V230.715ZM192.562 226.737H194.024V235.424H192.562V226.737Z" fill="#787878"/>
<path d="M199.875 226.737H203.612C204.425 226.737 205.075 226.9 205.562 227.306C206.05 227.711 206.294 228.28 206.294 228.929C206.294 229.335 206.131 229.741 205.887 230.147C205.644 230.472 205.237 230.715 204.912 230.796V230.878C205.319 230.959 205.562 231.04 205.887 231.202C206.212 231.365 206.375 231.608 206.537 231.852C206.7 232.095 206.781 232.42 206.781 232.826C206.781 233.556 206.537 234.206 205.969 234.612C205.4 235.099 204.75 235.261 203.775 235.261H199.875V226.737ZM203.206 230.39C203.775 230.39 204.181 230.309 204.425 230.066C204.669 229.822 204.831 229.579 204.831 229.173C204.831 228.767 204.75 228.523 204.506 228.28C204.262 228.117 203.937 227.955 203.45 227.955H201.419V230.39H203.206ZM203.531 234.206C204.019 234.206 204.425 234.125 204.75 233.881C204.994 233.638 205.156 233.313 205.156 232.907C205.156 232.501 204.994 232.095 204.669 231.933C204.344 231.689 203.856 231.608 203.287 231.608H201.419V234.287H203.531V234.206Z" fill="#787878"/>
<path d="M208.406 226.737H209.869V229.497H211.494C212.469 229.497 213.281 229.741 213.85 230.309C214.419 230.878 214.744 231.527 214.744 232.42C214.744 233.313 214.419 234.044 213.85 234.531C213.281 235.018 212.469 235.342 211.494 235.342H208.406V226.737ZM209.869 230.715V234.206H211.494C212.063 234.206 212.469 234.044 212.794 233.719C213.119 233.394 213.281 232.988 213.281 232.42C213.281 231.933 213.119 231.446 212.794 231.121C212.469 230.796 212.063 230.634 211.494 230.634H209.869V230.715ZM215.881 226.737H217.344V235.424H215.881V226.737Z" fill="#787878"/>
<path d="M219.537 226.737H221V233.151H221.731L220.756 233.719L225.468 226.737H226.931V235.424H225.468V229.01H224.737L225.712 228.442L221 235.424H219.537V226.737Z" fill="#787878"/>
<path d="M230.423 227.955V235.424H228.961V226.737H234.567V227.955H230.423Z" fill="#787878"/>
<path d="M236.193 226.738H237.655V228.199C237.818 227.874 238.061 227.549 238.305 227.306C238.549 227.062 238.874 226.9 239.199 226.738C239.524 226.575 239.93 226.575 240.336 226.575C241.068 226.575 241.718 226.738 242.286 227.143C242.855 227.549 243.261 228.036 243.586 228.686C243.911 229.335 244.074 230.147 244.074 231.04C244.074 231.933 243.911 232.745 243.586 233.394C243.261 234.044 242.855 234.612 242.286 234.937C241.718 235.343 241.068 235.505 240.336 235.505C239.93 235.505 239.524 235.424 239.199 235.343C238.874 235.262 238.549 235.018 238.224 234.774C237.98 234.531 237.736 234.206 237.574 233.881V238.265H236.111V226.738H236.193ZM241.474 233.963C241.88 233.719 242.124 233.313 242.368 232.826C242.611 232.339 242.693 231.771 242.693 231.121C242.693 230.472 242.611 229.904 242.368 229.417C242.124 228.929 241.88 228.605 241.474 228.28C241.068 227.955 240.661 227.874 240.174 227.874C239.686 227.874 239.28 228.036 238.874 228.28C238.468 228.524 238.224 228.929 237.98 229.417C237.736 229.904 237.655 230.472 237.655 231.121C237.655 231.771 237.736 232.339 237.98 232.826C238.224 233.313 238.468 233.719 238.874 233.963C239.28 234.206 239.686 234.369 240.174 234.369C240.661 234.287 241.068 234.206 241.474 233.963Z" fill="#787878"/>
<path d="M246.917 235.261C246.511 235.018 246.186 234.774 245.942 234.368C245.698 233.963 245.617 233.557 245.617 232.988C245.617 232.258 245.861 231.689 246.43 231.202C246.998 230.715 247.73 230.553 248.786 230.472L251.955 230.309V231.446L248.948 231.608C248.38 231.608 247.892 231.771 247.567 232.014C247.242 232.258 247.08 232.582 247.08 232.988C247.08 233.394 247.242 233.719 247.567 233.963C247.892 234.206 248.298 234.368 248.786 234.368C249.273 234.368 249.68 234.287 250.005 234.044C250.33 233.881 250.655 233.557 250.898 233.232C251.142 232.907 251.223 232.501 251.223 232.095V229.579C251.223 229.092 251.061 228.605 250.736 228.361C250.411 228.118 249.923 227.874 249.355 227.874C248.786 227.874 248.38 227.955 247.973 228.199C247.648 228.442 247.405 228.767 247.323 229.173V229.254H245.942V229.173C246.023 228.686 246.186 228.28 246.43 227.874C246.673 227.468 247.08 227.143 247.567 226.981C248.055 226.819 248.623 226.656 249.355 226.656C250.005 226.656 250.655 226.737 251.142 226.981C251.63 227.225 252.036 227.549 252.28 227.955C252.523 228.361 252.686 228.848 252.686 229.498V235.505H251.223V234.125C251.061 234.45 250.817 234.693 250.573 234.937C250.33 235.18 250.005 235.343 249.598 235.505C249.273 235.667 248.867 235.667 248.461 235.667C247.811 235.586 247.323 235.505 246.917 235.261Z" fill="#787878"/>
<path d="M256.83 233.719C256.668 234.287 256.424 234.774 256.018 235.099C255.693 235.424 255.205 235.586 254.555 235.586C254.393 235.586 254.311 235.586 254.23 235.586C254.149 235.586 254.068 235.586 253.986 235.505V234.206C253.986 234.206 254.068 234.206 254.149 234.206C254.23 234.206 254.311 234.206 254.393 234.206C254.718 234.206 254.961 234.125 255.124 233.881C255.286 233.638 255.449 233.394 255.53 232.988C255.611 232.582 255.693 232.176 255.693 231.608L256.018 226.818H262.111V235.505H260.811V228.036H257.48L257.236 231.689C257.155 232.42 257.074 233.069 256.83 233.719Z" fill="#787878"/>
<path d="M264.469 226.737H265.931V233.151H266.663L265.688 233.719L270.4 226.737H271.863V235.424H270.4V229.01H269.669L270.644 228.442L265.931 235.424H264.469V226.737Z" fill="#787878"/>
<path d="M274.38 235.262C274.218 235.099 274.137 234.856 274.137 234.612C274.137 234.369 274.218 234.125 274.38 233.963C274.543 233.8 274.787 233.719 275.03 233.719C275.274 233.719 275.518 233.8 275.68 233.963C275.843 234.125 275.924 234.369 275.924 234.612C275.924 234.856 275.843 235.099 275.68 235.262C275.518 235.424 275.274 235.505 275.03 235.505C274.787 235.505 274.543 235.424 274.38 235.262ZM274.299 223.409H275.762L275.68 231.446H274.38L274.299 223.409Z" fill="#787878"/>
<path d="M65.9738 255.882V252.066C65.7301 252.31 65.4051 252.472 64.9988 252.634C64.5926 252.797 64.1863 252.797 63.7801 252.797C62.7238 252.797 61.9926 252.553 61.4238 251.985C60.8551 251.417 60.6113 250.686 60.6113 249.793V247.195H62.0738V249.631C62.0738 250.28 62.2363 250.686 62.5613 251.011C62.8863 251.336 63.3738 251.498 64.0238 251.498C64.4301 251.498 64.7551 251.417 65.1613 251.336C65.5676 251.254 65.8113 251.092 65.9738 250.848V247.195H67.4363V255.882H65.9738Z" fill="#787878"/>
<path d="M75.9672 248.413H73.1234V255.882H71.6609V248.413H68.8984V247.195H75.9672V248.413Z" fill="#787878"/>
<path d="M78.8121 255.476C78.2434 255.07 77.7559 254.583 77.4309 253.933C77.1059 253.284 76.9434 252.472 76.9434 251.579C76.9434 250.686 77.1059 249.874 77.4309 249.225C77.7559 248.576 78.2434 248.007 78.8121 247.683C79.3809 247.358 80.1121 247.114 80.9246 247.114C81.7371 247.114 82.3871 247.277 83.0371 247.683C83.6059 248.007 84.0934 248.576 84.4184 249.225C84.7434 249.874 84.9059 250.686 84.9059 251.579C84.9059 252.472 84.7434 253.284 84.4184 253.933C84.0934 254.583 83.6059 255.151 83.0371 255.476C82.4684 255.801 81.7371 256.044 80.9246 256.044C80.1121 256.044 79.3809 255.882 78.8121 255.476ZM82.2246 254.421C82.6309 254.177 82.8746 253.771 83.1184 253.284C83.3621 252.797 83.4434 252.229 83.4434 251.579C83.4434 250.93 83.3621 250.361 83.1184 249.874C82.8746 249.387 82.6309 249.063 82.2246 248.819C81.8184 248.576 81.4121 248.413 80.9246 248.413C80.4371 248.413 79.9496 248.576 79.6246 248.819C79.2996 249.063 78.9746 249.468 78.7309 249.874C78.4871 250.28 78.4059 250.93 78.4059 251.579C78.4059 252.229 78.4871 252.797 78.7309 253.284C78.9746 253.771 79.2184 254.096 79.6246 254.421C80.0309 254.745 80.4371 254.826 80.9246 254.826C81.4121 254.826 81.8184 254.664 82.2246 254.421Z" fill="#787878"/>
<path d="M87.3434 254.745C86.6934 253.852 86.2871 252.553 86.2871 250.848C86.2871 249.225 86.4496 247.926 86.7746 246.952C87.0996 245.978 87.5871 245.247 88.2371 244.76C88.8871 244.273 89.7809 244.029 90.9184 243.948H91.5684C91.9746 243.948 92.3809 243.867 92.7871 243.786C93.1934 243.704 93.5184 243.623 93.7621 243.461V244.76C93.5996 244.922 93.3559 245.003 92.9496 245.085C92.5434 245.166 92.0559 245.247 91.5684 245.247H90.9184C90.1059 245.247 89.5371 245.409 89.0496 245.653C88.5621 245.896 88.2371 246.302 87.9934 246.789C87.7496 247.276 87.5871 248.007 87.4246 248.819V248.9C87.7496 248.413 88.1559 248.007 88.6434 247.764C89.1309 247.52 89.7809 247.358 90.4309 247.358C91.2434 247.358 91.8934 247.52 92.4621 247.845C93.0309 248.169 93.4371 248.657 93.7621 249.306C94.0871 249.955 94.2496 250.686 94.2496 251.579C94.2496 252.472 94.0871 253.284 93.7621 253.933C93.4371 254.583 92.9496 255.07 92.3809 255.476C91.8121 255.8 91.0809 256.044 90.1871 256.044C89.0496 256.044 88.0746 255.638 87.3434 254.745ZM91.8121 254.42C92.2184 254.177 92.4621 253.852 92.7059 253.365C92.8684 252.878 93.0309 252.31 93.0309 251.66C93.0309 251.011 92.9496 250.524 92.7059 250.037C92.5434 249.631 92.2184 249.225 91.8121 249.062C91.4059 248.9 90.9996 248.738 90.4309 248.738C89.8621 248.738 89.4559 248.819 89.0496 249.062C88.6434 249.306 88.3996 249.631 88.1559 250.037C87.9934 250.442 87.8309 251.011 87.8309 251.66C87.8309 252.31 87.9121 252.878 88.1559 253.365C88.3184 253.852 88.6434 254.177 89.0496 254.42C89.4559 254.664 89.8621 254.826 90.4309 254.826C90.9996 254.826 91.4059 254.664 91.8121 254.42Z" fill="#787878"/>
<path d="M96.1992 247.195H97.6617V249.955H99.2867C100.262 249.955 101.074 250.199 101.643 250.767C102.212 251.336 102.537 251.985 102.537 252.878C102.537 253.771 102.212 254.502 101.643 254.989C101.074 255.476 100.262 255.8 99.2867 255.8H96.1992V247.195ZM97.6617 251.173V254.664H99.2867C99.8555 254.664 100.262 254.502 100.587 254.177C100.912 253.852 101.074 253.446 101.074 252.878C101.074 252.391 100.912 251.904 100.587 251.579C100.262 251.254 99.8555 251.092 99.2867 251.092H97.6617V251.173ZM103.674 247.195H105.137V255.882H103.674V247.195Z" fill="#787878"/>
<path d="M112.205 255.801C111.718 255.638 111.312 255.314 110.987 254.989C110.662 254.664 110.499 254.258 110.418 253.771V253.69H111.88V253.771C111.962 254.096 112.205 254.421 112.53 254.583C112.855 254.745 113.262 254.908 113.83 254.908C114.399 254.908 114.887 254.745 115.293 254.502C115.699 254.258 115.862 253.933 115.862 253.446C115.862 252.959 115.699 252.635 115.374 252.391C115.049 252.147 114.562 252.066 113.912 252.066H112.612V250.849H113.912C114.48 250.849 114.887 250.767 115.212 250.524C115.537 250.28 115.618 249.956 115.618 249.55C115.618 249.144 115.455 248.819 115.212 248.576C114.968 248.332 114.562 248.251 113.993 248.251C113.505 248.251 113.099 248.332 112.774 248.576C112.449 248.819 112.205 249.063 112.205 249.387V249.469H110.824V249.387C110.905 248.9 111.068 248.494 111.393 248.17C111.718 247.845 112.043 247.52 112.53 247.358C113.018 247.195 113.505 247.114 114.155 247.114C114.805 247.114 115.293 247.195 115.78 247.439C116.268 247.683 116.593 247.926 116.837 248.251C117.08 248.576 117.243 249.063 117.243 249.55C117.243 250.037 117.08 250.443 116.837 250.767C116.593 251.092 116.187 251.336 115.78 251.417V251.498C116.187 251.579 116.43 251.742 116.755 251.904C116.999 252.066 117.243 252.31 117.324 252.553C117.405 252.797 117.487 253.122 117.487 253.446C117.487 254.015 117.324 254.421 117.08 254.826C116.837 255.232 116.43 255.557 115.862 255.801C115.293 256.044 114.724 256.125 114.074 256.125C113.262 256.044 112.693 255.963 112.205 255.801Z" fill="#787878"/>
<path d="M120.167 255.719C119.761 255.476 119.436 255.232 119.192 254.826C118.948 254.421 118.867 254.015 118.867 253.446C118.867 252.716 119.111 252.147 119.68 251.66C120.248 251.173 120.98 251.011 122.036 250.93L125.123 250.767V251.904L122.117 252.066C121.548 252.066 121.061 252.229 120.736 252.472C120.411 252.716 120.248 253.04 120.248 253.446C120.248 253.852 120.411 254.177 120.736 254.421C121.061 254.664 121.467 254.826 121.955 254.826C122.442 254.826 122.848 254.745 123.173 254.502C123.498 254.339 123.823 254.015 124.067 253.69C124.311 253.365 124.392 252.959 124.392 252.553V250.037C124.392 249.55 124.23 249.063 123.905 248.819C123.58 248.576 123.092 248.332 122.523 248.332C121.955 248.332 121.548 248.413 121.142 248.657C120.817 248.9 120.573 249.225 120.492 249.631V249.712H119.111V249.631C119.192 249.144 119.355 248.738 119.598 248.332C119.842 247.926 120.248 247.601 120.736 247.439C121.223 247.277 121.792 247.114 122.523 247.114C123.173 247.114 123.823 247.195 124.311 247.439C124.798 247.683 125.205 248.007 125.448 248.413C125.692 248.819 125.855 249.306 125.855 249.956V255.963H124.392V254.583C124.23 254.908 123.986 255.151 123.742 255.395C123.498 255.638 123.173 255.801 122.767 255.963C122.442 256.125 122.036 256.125 121.63 256.125C121.061 256.044 120.573 255.963 120.167 255.719Z" fill="#787878"/>
<path d="M128.699 254.745C128.049 253.852 127.643 252.553 127.643 250.848C127.643 249.225 127.805 247.926 128.13 246.952C128.455 245.978 128.943 245.247 129.593 244.76C130.243 244.273 131.136 244.029 132.274 243.948H132.924C133.33 243.948 133.736 243.867 134.143 243.786C134.549 243.704 134.874 243.623 135.118 243.461V244.76C134.955 244.922 134.711 245.003 134.305 245.085C133.899 245.166 133.411 245.247 132.924 245.247H132.274C131.461 245.247 130.893 245.409 130.405 245.653C129.918 245.896 129.593 246.302 129.349 246.789C129.105 247.276 128.943 248.007 128.78 248.819V248.9C129.105 248.413 129.511 248.007 129.999 247.764C130.486 247.52 131.136 247.358 131.786 247.358C132.599 247.358 133.249 247.52 133.818 247.845C134.386 248.169 134.793 248.657 135.118 249.306C135.443 249.955 135.605 250.686 135.605 251.579C135.605 252.472 135.443 253.284 135.118 253.933C134.793 254.583 134.305 255.07 133.736 255.476C133.168 255.8 132.436 256.044 131.543 256.044C130.405 256.044 129.43 255.638 128.699 254.745ZM133.168 254.42C133.574 254.177 133.818 253.852 134.061 253.365C134.224 252.878 134.386 252.31 134.386 251.66C134.386 251.011 134.305 250.524 134.061 250.037C133.899 249.631 133.574 249.225 133.168 249.062C132.761 248.9 132.355 248.738 131.786 248.738C131.218 248.738 130.811 248.819 130.405 249.062C129.999 249.306 129.755 249.631 129.511 250.037C129.349 250.442 129.186 251.011 129.186 251.66C129.186 252.31 129.268 252.878 129.511 253.365C129.674 253.852 129.999 254.177 130.405 254.42C130.811 254.664 131.218 254.826 131.786 254.826C132.355 254.826 132.761 254.664 133.168 254.42Z" fill="#787878"/>
<path d="M137.556 247.196H139.018V248.657C139.181 248.332 139.425 248.007 139.668 247.764C139.912 247.52 140.237 247.358 140.562 247.196C140.887 247.033 141.293 247.033 141.7 247.033C142.431 247.033 143.081 247.196 143.65 247.601C144.218 248.007 144.625 248.494 144.95 249.144C145.275 249.793 145.437 250.605 145.437 251.498C145.437 252.391 145.275 253.203 144.95 253.852C144.625 254.502 144.218 255.07 143.65 255.395C143.081 255.801 142.431 255.963 141.7 255.963C141.293 255.963 140.887 255.882 140.562 255.801C140.237 255.72 139.912 255.476 139.587 255.232C139.343 254.989 139.1 254.664 138.937 254.339V258.723H137.475V247.196H137.556ZM142.837 254.421C143.243 254.177 143.487 253.771 143.731 253.284C143.975 252.797 144.056 252.229 144.056 251.579C144.056 250.93 143.975 250.362 143.731 249.875C143.487 249.387 143.243 249.063 142.837 248.738C142.431 248.413 142.025 248.332 141.537 248.332C141.05 248.332 140.643 248.494 140.237 248.738C139.831 248.982 139.587 249.387 139.343 249.875C139.1 250.362 139.018 250.93 139.018 251.579C139.018 252.229 139.1 252.797 139.343 253.284C139.587 253.771 139.831 254.177 140.237 254.421C140.643 254.664 141.05 254.827 141.537 254.827C142.025 254.745 142.512 254.664 142.837 254.421Z" fill="#787878"/>
<path d="M148.28 255.719C147.874 255.476 147.549 255.232 147.305 254.826C147.062 254.421 146.98 254.015 146.98 253.446C146.98 252.716 147.224 252.147 147.793 251.66C148.362 251.173 149.093 251.011 150.149 250.93L153.318 250.767V251.904L150.312 252.066C149.743 252.066 149.255 252.229 148.93 252.472C148.605 252.716 148.443 253.04 148.443 253.446C148.443 253.852 148.605 254.177 148.93 254.421C149.255 254.664 149.662 254.826 150.149 254.826C150.637 254.826 151.043 254.745 151.368 254.502C151.693 254.339 152.018 254.015 152.262 253.69C152.505 253.365 152.587 252.959 152.587 252.553V250.037C152.587 249.55 152.424 249.063 152.099 248.819C151.774 248.576 151.287 248.332 150.718 248.332C150.149 248.332 149.743 248.413 149.337 248.657C149.012 248.9 148.768 249.225 148.687 249.631V249.712H147.305V249.631C147.387 249.144 147.549 248.738 147.793 248.332C148.037 247.926 148.443 247.601 148.93 247.439C149.418 247.277 149.987 247.114 150.718 247.114C151.368 247.114 152.018 247.195 152.505 247.439C152.993 247.683 153.399 248.007 153.643 248.413C153.887 248.819 154.049 249.306 154.049 249.956V255.963H152.587V254.583C152.424 254.908 152.18 255.151 151.937 255.395C151.693 255.638 151.368 255.801 150.962 255.963C150.637 256.125 150.23 256.125 149.824 256.125C149.255 256.044 148.687 255.963 148.28 255.719Z" fill="#787878"/>
<path d="M162.337 248.413H159.575V255.882H158.112V248.413H155.35V247.195H162.418V248.413H162.337Z" fill="#787878"/>
<path d="M163.881 247.195H165.343V249.955H166.968C167.943 249.955 168.756 250.199 169.325 250.767C169.893 251.336 170.218 251.985 170.218 252.878C170.218 253.771 169.893 254.502 169.325 254.989C168.756 255.476 167.943 255.8 166.968 255.8H163.881V247.195ZM165.343 251.173V254.664H166.968C167.537 254.664 167.943 254.502 168.268 254.177C168.593 253.852 168.756 253.446 168.756 252.878C168.756 252.391 168.593 251.904 168.268 251.579C167.943 251.254 167.537 251.092 166.968 251.092H165.343V251.173Z" fill="#787878"/>
<path d="M175.662 247.195H179.4C180.212 247.195 180.862 247.358 181.35 247.764C181.837 248.169 182.081 248.738 182.081 249.387C182.081 249.793 181.918 250.199 181.675 250.605C181.431 250.93 181.025 251.173 180.7 251.254V251.336C181.106 251.417 181.35 251.498 181.675 251.66C182 251.823 182.162 252.066 182.325 252.31C182.487 252.553 182.568 252.878 182.568 253.284C182.568 254.015 182.325 254.664 181.756 255.07C181.187 255.557 180.537 255.719 179.562 255.719H175.825V247.195H175.662ZM178.912 250.848C179.481 250.848 179.887 250.767 180.131 250.524C180.375 250.28 180.537 250.037 180.537 249.631C180.537 249.225 180.456 248.981 180.212 248.738C179.968 248.575 179.643 248.413 179.156 248.413H177.125V250.848H178.912ZM179.237 254.664C179.725 254.664 180.131 254.583 180.456 254.339C180.7 254.096 180.862 253.771 180.862 253.365C180.862 252.959 180.7 252.553 180.375 252.391C180.05 252.147 179.562 252.066 178.993 252.066H177.125V254.745H179.237V254.664Z" fill="#787878"/>
<path d="M184.111 247.195H185.574V249.955H187.199C188.174 249.955 188.986 250.199 189.555 250.767C190.124 251.336 190.449 251.985 190.449 252.878C190.449 253.771 190.124 254.502 189.555 254.989C188.986 255.476 188.174 255.8 187.199 255.8H184.111V247.195ZM185.574 251.173V254.664H187.199C187.768 254.664 188.174 254.502 188.499 254.177C188.824 253.852 188.986 253.446 188.986 252.878C188.986 252.391 188.824 251.904 188.499 251.579C188.174 251.254 187.768 251.092 187.199 251.092H185.574V251.173ZM191.586 247.195H193.049V255.882H191.586V247.195Z" fill="#787878"/>
<path d="M195.242 247.195H196.705V253.609H197.436L196.461 254.177L201.173 247.195H202.636V255.882H201.173V249.468H200.442L201.417 248.9L196.705 255.882H195.242V247.195Z" fill="#787878"/>
<path d="M206.213 248.413V255.882H204.75V247.195H210.356V248.413H206.213Z" fill="#787878"/>
<path d="M211.9 247.196H213.362V248.657C213.525 248.332 213.768 248.007 214.012 247.764C214.256 247.52 214.581 247.358 214.906 247.196C215.231 247.033 215.637 247.033 216.043 247.033C216.775 247.033 217.425 247.196 217.993 247.601C218.562 248.007 218.968 248.494 219.293 249.144C219.618 249.793 219.781 250.605 219.781 251.498C219.781 252.391 219.618 253.203 219.293 253.852C218.968 254.502 218.562 255.07 217.993 255.395C217.425 255.801 216.775 255.963 216.043 255.963C215.637 255.963 215.231 255.882 214.906 255.801C214.581 255.72 214.256 255.476 213.931 255.232C213.687 254.989 213.443 254.664 213.281 254.339V258.723H211.818V247.196H211.9ZM217.181 254.421C217.587 254.177 217.831 253.771 218.075 253.284C218.318 252.797 218.4 252.229 218.4 251.579C218.4 250.93 218.318 250.362 218.075 249.875C217.831 249.387 217.587 249.063 217.181 248.738C216.775 248.413 216.368 248.332 215.881 248.332C215.393 248.332 214.987 248.494 214.581 248.738C214.175 248.982 213.931 249.387 213.687 249.875C213.443 250.362 213.362 250.93 213.362 251.579C213.362 252.229 213.443 252.797 213.687 253.284C213.931 253.771 214.175 254.177 214.581 254.421C214.987 254.664 215.393 254.827 215.881 254.827C216.368 254.745 216.775 254.664 217.181 254.421Z" fill="#787878"/>
<path d="M221.648 247.195H223.111V249.955H224.736C225.711 249.955 226.523 250.199 227.092 250.767C227.661 251.336 227.986 251.985 227.986 252.878C227.986 253.771 227.661 254.502 227.092 254.989C226.523 255.476 225.711 255.8 224.736 255.8H221.648V247.195ZM223.111 251.173V254.664H224.736C225.305 254.664 225.711 254.502 226.036 254.177C226.361 253.852 226.523 253.446 226.523 252.878C226.523 252.391 226.361 251.904 226.036 251.579C225.711 251.254 225.305 251.092 224.736 251.092H223.111V251.173ZM229.042 247.195H230.505V255.882H229.042V247.195Z" fill="#787878"/>
<path d="M232.781 247.195H234.244V254.664H237.413V247.195H238.875V254.664H242.044V247.195H243.506V255.882H232.781V247.195Z" fill="#787878"/>
<path d="M62.318 275.933C61.7492 275.527 61.2617 275.04 60.9367 274.39C60.6117 273.741 60.4492 272.929 60.4492 272.036C60.4492 271.143 60.6117 270.331 60.9367 269.682C61.2617 269.033 61.7492 268.464 62.318 268.14C62.8867 267.815 63.618 267.571 64.4305 267.571C65.243 267.571 65.893 267.734 66.543 268.14C67.1117 268.464 67.5992 269.033 67.9242 269.682C68.2492 270.331 68.4117 271.143 68.4117 272.036C68.4117 272.929 68.2492 273.741 67.9242 274.39C67.5992 275.04 67.1117 275.608 66.543 275.933C65.9742 276.258 65.243 276.501 64.4305 276.501C63.618 276.501 62.8867 276.339 62.318 275.933ZM65.7305 274.878C66.1367 274.634 66.3805 274.228 66.6242 273.741C66.868 273.254 66.9492 272.686 66.9492 272.036C66.9492 271.387 66.868 270.819 66.6242 270.331C66.3805 269.844 66.1367 269.52 65.7305 269.276C65.3242 269.033 64.918 268.87 64.4305 268.87C63.943 268.87 63.4555 269.033 63.1305 269.276C62.8055 269.52 62.4805 269.926 62.2367 270.331C61.993 270.737 61.9117 271.387 61.9117 272.036C61.9117 272.686 61.993 273.254 62.2367 273.741C62.4805 274.228 62.7242 274.553 63.1305 274.878C63.5367 275.202 63.943 275.283 64.4305 275.283C64.918 275.283 65.4055 275.121 65.7305 274.878Z" fill="#787878"/>
<path d="M76.3742 268.87H73.6117V276.339H72.1492V268.87H69.3867V267.652H76.3742V268.87Z" fill="#787878"/>
<path d="M77.8359 267.652H84.9047V276.339H83.4422V268.87H79.2984V276.339H77.8359V267.652Z" fill="#787878"/>
<path d="M87.1801 267.653H88.5613V269.114C88.7238 268.789 88.9676 268.464 89.2113 268.221C89.4551 267.977 89.7801 267.815 90.1051 267.653C90.4301 267.49 90.8363 267.49 91.2426 267.49C91.9738 267.49 92.6238 267.653 93.1926 268.059C93.7613 268.464 94.1676 268.951 94.4926 269.601C94.8176 270.25 94.9801 271.062 94.9801 271.955C94.9801 272.848 94.8176 273.66 94.4926 274.309C94.1676 274.959 93.7613 275.527 93.1926 275.852C92.6238 276.258 91.9738 276.42 91.2426 276.42C90.8363 276.42 90.4301 276.339 90.1051 276.258C89.7801 276.177 89.4551 275.933 89.1301 275.689C88.8863 275.446 88.6426 275.121 88.4801 274.797V279.18H87.0176V267.653H87.1801ZM92.3801 274.878C92.7863 274.634 93.0301 274.228 93.2738 273.741C93.5176 273.254 93.5988 272.686 93.5988 272.036C93.5988 271.387 93.5176 270.819 93.2738 270.332C93.0301 269.844 92.7863 269.52 92.3801 269.195C91.9738 268.87 91.5676 268.789 91.0801 268.789C90.5926 268.789 90.1863 268.951 89.7801 269.195C89.3738 269.439 89.1301 269.844 88.8863 270.332C88.6426 270.819 88.5613 271.387 88.5613 272.036C88.5613 272.686 88.6426 273.254 88.8863 273.741C89.1301 274.228 89.3738 274.634 89.7801 274.878C90.1863 275.121 90.5926 275.284 91.0801 275.284C91.5676 275.202 92.0551 275.121 92.3801 274.878Z" fill="#787878"/>
<path d="M97.8234 276.176C97.4172 275.933 97.0922 275.689 96.8484 275.283C96.6047 274.878 96.5234 274.472 96.5234 273.903C96.5234 273.173 96.7672 272.604 97.3359 272.117C97.9047 271.63 98.6359 271.468 99.6922 271.387L102.861 271.224V272.361L99.8547 272.523C99.2859 272.523 98.7984 272.686 98.4734 272.929C98.1484 273.173 97.9859 273.497 97.9859 273.903C97.9859 274.309 98.1484 274.634 98.4734 274.878C98.7984 275.121 99.2047 275.283 99.6922 275.283C100.18 275.283 100.586 275.202 100.911 274.959C101.236 274.796 101.561 274.472 101.805 274.147C102.048 273.822 102.13 273.416 102.13 273.01V270.494C102.13 270.007 101.967 269.52 101.642 269.276C101.317 269.033 100.83 268.789 100.261 268.789C99.6922 268.789 99.2859 268.87 98.8797 269.114C98.5547 269.357 98.3109 269.682 98.2297 270.088V270.169H96.8484V270.088C96.9297 269.601 97.0922 269.195 97.3359 268.789C97.5797 268.383 97.9859 268.058 98.4734 267.896C98.9609 267.734 99.5297 267.571 100.261 267.571C100.911 267.571 101.561 267.652 102.048 267.896C102.536 268.14 102.942 268.464 103.186 268.87C103.43 269.276 103.592 269.763 103.592 270.413V276.42H102.13V275.04C101.967 275.365 101.723 275.608 101.48 275.852C101.236 276.095 100.911 276.258 100.505 276.42C100.18 276.582 99.7734 276.582 99.3672 276.582C98.7984 276.501 98.3109 276.42 97.8234 276.176Z" fill="#787878"/>
<path d="M105.705 267.652H109.443C110.255 267.652 110.905 267.815 111.393 268.221C111.88 268.627 112.124 269.195 112.124 269.844C112.124 270.25 111.961 270.656 111.718 271.062C111.474 271.387 111.068 271.63 110.743 271.711V271.874C111.149 271.955 111.393 272.036 111.718 272.198C112.043 272.361 112.205 272.604 112.368 272.848C112.53 273.091 112.611 273.416 112.611 273.822C112.611 274.553 112.368 275.202 111.799 275.608C111.23 276.095 110.58 276.258 109.605 276.258H105.868V267.652H105.705ZM109.036 271.305C109.605 271.305 110.011 271.224 110.255 270.981C110.499 270.737 110.661 270.494 110.661 270.088C110.661 269.682 110.58 269.438 110.336 269.195C110.093 269.032 109.768 268.87 109.28 268.87H107.249V271.305H109.036ZM109.361 275.121C109.849 275.121 110.255 275.04 110.58 274.796C110.824 274.553 110.986 274.228 110.986 273.822C110.986 273.416 110.824 273.01 110.499 272.848C110.174 272.604 109.686 272.523 109.118 272.523H107.249V275.121H109.361Z" fill="#787878"/>
<path d="M114.236 267.652H115.699V270.412H117.324C118.299 270.412 119.111 270.656 119.68 271.224C120.249 271.793 120.574 272.442 120.574 273.335C120.574 274.228 120.249 274.959 119.68 275.446C119.111 275.933 118.299 276.258 117.324 276.258H114.236V267.652ZM115.699 271.63V275.121H117.324C117.893 275.121 118.299 274.959 118.624 274.634C118.949 274.309 119.111 273.903 119.111 273.335C119.111 272.848 118.949 272.361 118.624 272.036C118.299 271.711 117.893 271.549 117.324 271.549H115.699V271.63Z" fill="#787878"/>
<path d="M127.48 268.87H124.717V276.339H123.255V268.87H120.492V267.652H127.561V268.87H127.48Z" fill="#787878"/>
<path d="M130.244 275.933C129.675 275.527 129.187 275.04 128.862 274.391C128.537 273.741 128.375 272.929 128.375 272.036C128.375 271.143 128.537 270.332 128.862 269.682C129.187 269.033 129.675 268.464 130.244 268.059C130.813 267.653 131.544 267.49 132.275 267.49C133.006 267.49 133.737 267.653 134.306 268.059C134.875 268.464 135.281 268.951 135.606 269.601C135.931 270.25 136.094 270.981 136.094 271.874V272.442H129.106V271.306H135.362L134.631 272.361V271.793C134.631 271.143 134.55 270.575 134.306 270.088C134.062 269.601 133.819 269.357 133.494 269.114C133.169 268.87 132.762 268.789 132.275 268.789C131.787 268.789 131.381 268.87 131.056 269.114C130.731 269.357 130.406 269.682 130.162 270.088C129.919 270.494 129.838 271.062 129.838 271.712V272.28C129.838 272.929 129.919 273.416 130.162 273.822C130.406 274.228 130.65 274.553 131.056 274.797C131.462 275.04 131.869 275.121 132.437 275.121C132.844 275.121 133.169 275.04 133.412 274.959C133.656 274.878 133.981 274.715 134.144 274.472C134.306 274.228 134.469 274.066 134.55 273.822V273.741H136.012V273.822C135.931 274.147 135.769 274.472 135.606 274.797C135.444 275.121 135.119 275.365 134.794 275.608C134.469 275.852 134.144 276.014 133.737 276.177C133.331 276.339 132.925 276.339 132.437 276.339C131.544 276.501 130.894 276.339 130.244 275.933Z" fill="#787878"/>
<path d="M142.836 276.177C142.348 275.933 141.942 275.689 141.698 275.284C141.455 274.878 141.211 274.472 141.211 273.904V273.822H142.673V273.904C142.755 274.309 142.998 274.634 143.323 274.878C143.648 275.121 144.136 275.202 144.705 275.202C145.111 275.202 145.436 275.121 145.68 275.04C145.923 274.959 146.167 274.797 146.33 274.634C146.492 274.472 146.573 274.228 146.573 273.985C146.573 273.66 146.492 273.416 146.33 273.254C146.167 273.092 145.761 272.929 145.273 272.767L143.892 272.442C143.08 272.28 142.43 271.955 142.105 271.549C141.78 271.143 141.536 270.656 141.536 270.007C141.536 269.52 141.698 269.033 141.942 268.708C142.186 268.302 142.592 268.059 143.08 267.815C143.567 267.571 144.136 267.49 144.705 267.49C145.355 267.49 145.923 267.571 146.33 267.815C146.817 268.059 147.142 268.383 147.467 268.708C147.792 269.033 147.873 269.52 147.955 270.007V270.088H146.573V270.007C146.492 269.601 146.33 269.276 146.005 268.951C145.68 268.627 145.273 268.546 144.705 268.546C144.38 268.546 144.055 268.627 143.811 268.708C143.567 268.789 143.323 268.951 143.242 269.114C143.08 269.276 142.998 269.52 142.998 269.763C142.998 270.088 143.08 270.332 143.323 270.494C143.567 270.656 143.892 270.9 144.38 270.981L145.761 271.306C146.655 271.549 147.223 271.793 147.63 272.199C148.036 272.605 148.198 273.092 148.198 273.66C148.198 274.147 148.036 274.634 147.792 275.04C147.467 275.446 147.061 275.771 146.573 275.933C146.086 276.177 145.517 276.258 144.867 276.258C143.892 276.501 143.323 276.42 142.836 276.177Z" fill="#787878"/>
<path d="M149.5 267.653H150.963V268.951C151.125 268.546 151.45 268.14 151.856 267.896C152.262 267.653 152.75 267.49 153.319 267.49C153.725 267.49 154.05 267.571 154.375 267.653C154.7 267.734 154.944 267.977 155.188 268.221C155.431 268.464 155.594 268.789 155.756 269.114C155.919 268.789 156.163 268.464 156.406 268.221C156.65 267.977 156.975 267.815 157.3 267.653C157.625 267.49 158.031 267.49 158.438 267.49C159.006 267.49 159.494 267.571 159.9 267.815C160.306 268.059 160.631 268.383 160.875 268.789C161.119 269.195 161.2 269.682 161.2 270.332V276.339H159.738V270.656C159.738 270.088 159.575 269.601 159.25 269.276C158.925 268.951 158.519 268.789 157.95 268.789C157.544 268.789 157.219 268.87 156.894 269.033C156.569 269.195 156.406 269.439 156.163 269.763C155.919 270.088 155.919 270.413 155.919 270.819V276.339H154.456V270.575C154.456 270.088 154.294 269.601 153.969 269.276C153.644 268.951 153.237 268.789 152.669 268.789C152.262 268.789 151.938 268.87 151.613 269.033C151.288 269.195 151.044 269.439 150.881 269.763C150.719 270.088 150.637 270.413 150.637 270.819V276.258H149.5V267.653Z" fill="#787878"/>
<path d="M164.531 276.177C164.044 275.933 163.638 275.689 163.394 275.284C163.15 274.878 162.906 274.472 162.906 273.904V273.822H164.369V273.904C164.45 274.309 164.694 274.634 165.019 274.878C165.344 275.121 165.831 275.202 166.4 275.202C166.806 275.202 167.131 275.121 167.375 275.04C167.619 274.959 167.863 274.797 168.025 274.634C168.188 274.472 168.269 274.228 168.269 273.985C168.269 273.66 168.188 273.416 168.025 273.254C167.863 273.092 167.456 272.929 166.969 272.767L165.588 272.442C164.775 272.28 164.125 271.955 163.8 271.549C163.475 271.143 163.231 270.656 163.231 270.007C163.231 269.52 163.394 269.033 163.637 268.708C163.881 268.302 164.288 268.059 164.775 267.815C165.263 267.571 165.831 267.49 166.4 267.49C167.05 267.49 167.619 267.571 168.025 267.815C168.513 268.059 168.837 268.383 169.162 268.708C169.487 269.033 169.569 269.52 169.65 270.007V270.088H168.269V270.007C168.188 269.601 168.025 269.276 167.7 268.951C167.375 268.627 166.969 268.546 166.4 268.546C166.075 268.546 165.75 268.627 165.506 268.708C165.262 268.789 165.019 268.951 164.937 269.114C164.775 269.276 164.694 269.52 164.694 269.763C164.694 270.088 164.775 270.332 165.019 270.494C165.263 270.656 165.587 270.9 166.075 270.981L167.456 271.306C168.35 271.549 168.919 271.793 169.325 272.199C169.731 272.605 169.894 273.092 169.894 273.66C169.894 274.147 169.731 274.634 169.488 275.04C169.163 275.446 168.756 275.771 168.269 275.933C167.781 276.177 167.212 276.258 166.562 276.258C165.669 276.501 165.019 276.42 164.531 276.177Z" fill="#787878"/>
<path d="M180.781 272.442H176.556V276.339H175.094V267.652H176.556V271.224H180.781V267.652H182.244V276.339H180.781V272.442Z" fill="#787878"/>
<path d="M185.411 276.176C185.005 275.933 184.68 275.689 184.436 275.283C184.193 274.878 184.111 274.472 184.111 273.903C184.111 273.173 184.355 272.604 184.924 272.117C185.493 271.63 186.224 271.468 187.28 271.387L190.449 271.224V272.361L187.443 272.523C186.874 272.523 186.386 272.686 186.061 272.929C185.736 273.173 185.574 273.497 185.574 273.903C185.574 274.309 185.736 274.634 186.061 274.878C186.386 275.121 186.793 275.283 187.28 275.283C187.768 275.283 188.174 275.202 188.499 274.959C188.824 274.796 189.149 274.472 189.393 274.147C189.636 273.822 189.718 273.416 189.718 273.01V270.494C189.718 270.007 189.555 269.52 189.23 269.276C188.905 269.033 188.418 268.789 187.849 268.789C187.28 268.789 186.874 268.87 186.468 269.114C186.143 269.357 185.899 269.682 185.818 270.088V270.169H184.436V270.088C184.518 269.601 184.68 269.195 184.924 268.789C185.168 268.383 185.574 268.058 186.061 267.896C186.549 267.734 187.118 267.571 187.849 267.571C188.499 267.571 189.149 267.652 189.636 267.896C190.124 268.14 190.53 268.464 190.774 268.87C191.018 269.276 191.18 269.763 191.18 270.413V276.42H189.718V275.04C189.555 275.365 189.311 275.608 189.068 275.852C188.824 276.095 188.499 276.258 188.093 276.42C187.768 276.582 187.361 276.582 186.955 276.582C186.305 276.501 185.818 276.42 185.411 276.176Z" fill="#787878"/>
<path d="M202.637 272.442H198.412V276.339H196.949V267.652H198.412V271.224H202.637V267.652H204.099V276.339H202.637V272.442Z" fill="#787878"/>
<path d="M207.755 275.933C207.187 275.527 206.699 275.04 206.374 274.39C206.049 273.741 205.887 272.929 205.887 272.036C205.887 271.143 206.049 270.331 206.374 269.682C206.699 269.033 207.187 268.464 207.755 268.14C208.324 267.815 209.055 267.571 209.868 267.571C210.68 267.571 211.33 267.734 211.98 268.14C212.549 268.464 213.037 269.033 213.362 269.682C213.687 270.331 213.849 271.143 213.849 272.036C213.849 272.929 213.687 273.741 213.362 274.39C213.037 275.04 212.549 275.608 211.98 275.933C211.412 276.258 210.68 276.501 209.868 276.501C209.055 276.501 208.405 276.339 207.755 275.933ZM211.249 274.878C211.655 274.634 211.899 274.228 212.143 273.741C212.387 273.254 212.468 272.686 212.468 272.036C212.468 271.387 212.387 270.819 212.143 270.331C211.899 269.844 211.655 269.52 211.249 269.276C210.843 269.033 210.437 268.87 209.949 268.87C209.462 268.87 208.974 269.033 208.649 269.276C208.324 269.52 207.999 269.926 207.755 270.331C207.512 270.737 207.43 271.387 207.43 272.036C207.43 272.686 207.512 273.254 207.755 273.741C207.999 274.228 208.243 274.553 208.649 274.878C209.055 275.202 209.462 275.283 209.949 275.283C210.437 275.283 210.843 275.121 211.249 274.878Z" fill="#787878"/>
<path d="M215.719 276.339V267.652H217.506L220.594 274.39H220.675L223.762 267.652H225.469V276.339H224.006V270.169H223.925L221.162 276.095H220.025L217.262 270.169H217.181V276.339H215.719Z" fill="#787878"/>
<path d="M229.043 275.933C228.474 275.527 227.986 275.04 227.661 274.391C227.336 273.741 227.174 272.929 227.174 272.036C227.174 271.143 227.336 270.332 227.661 269.682C227.986 269.033 228.474 268.464 229.043 268.059C229.611 267.653 230.343 267.49 231.074 267.49C231.805 267.49 232.536 267.653 233.105 268.059C233.674 268.464 234.08 268.951 234.405 269.601C234.73 270.25 234.893 270.981 234.893 271.874V272.442H227.905V271.306H234.161L233.43 272.361V271.793C233.43 271.143 233.349 270.575 233.105 270.088C232.861 269.601 232.618 269.357 232.293 269.114C231.968 268.87 231.561 268.789 231.074 268.789C230.586 268.789 230.18 268.87 229.855 269.114C229.53 269.357 229.205 269.682 228.961 270.088C228.718 270.494 228.636 271.062 228.636 271.712V272.28C228.636 272.929 228.718 273.416 228.961 273.822C229.205 274.228 229.449 274.553 229.855 274.797C230.261 275.04 230.668 275.121 231.236 275.121C231.643 275.121 231.968 275.04 232.211 274.959C232.455 274.878 232.78 274.715 232.943 274.472C233.105 274.228 233.268 274.066 233.349 273.822V273.741H234.811V273.822C234.73 274.147 234.568 274.472 234.405 274.797C234.243 275.121 233.918 275.365 233.593 275.608C233.268 275.852 232.943 276.014 232.536 276.177C232.13 276.339 231.724 276.339 231.236 276.339C230.343 276.501 229.611 276.339 229.043 275.933Z" fill="#787878"/>
<path d="M236.681 267.653H238.143V269.114C238.306 268.789 238.55 268.464 238.793 268.221C239.037 267.977 239.362 267.815 239.687 267.653C240.012 267.49 240.418 267.49 240.825 267.49C241.556 267.49 242.206 267.653 242.775 268.059C243.343 268.464 243.75 268.951 244.075 269.601C244.4 270.25 244.562 271.062 244.562 271.955C244.562 272.848 244.4 273.66 244.075 274.309C243.75 274.959 243.343 275.527 242.775 275.852C242.206 276.258 241.556 276.42 240.825 276.42C240.418 276.42 240.012 276.339 239.687 276.258C239.362 276.177 239.037 275.933 238.712 275.689C238.468 275.446 238.225 275.121 238.062 274.797V279.18H236.6V267.653H236.681ZM241.962 274.878C242.368 274.634 242.612 274.228 242.856 273.741C243.1 273.254 243.181 272.686 243.181 272.036C243.181 271.387 243.1 270.819 242.856 270.332C242.612 269.844 242.368 269.52 241.962 269.195C241.556 268.87 241.15 268.789 240.662 268.789C240.175 268.789 239.768 268.951 239.362 269.195C238.956 269.439 238.712 269.844 238.468 270.332C238.225 270.819 238.143 271.387 238.143 272.036C238.143 272.686 238.225 273.254 238.468 273.741C238.712 274.228 238.956 274.634 239.362 274.878C239.768 275.121 240.175 275.284 240.662 275.284C241.15 275.202 241.556 275.121 241.962 274.878Z" fill="#787878"/>
<path d="M253.094 265.948L249.844 268.14V266.597L253.012 264.324H254.475V276.339H253.012V265.948H253.094Z" fill="#787878"/>
<path d="M256.993 275.284L261.218 270.9C261.786 270.332 262.193 269.845 262.436 269.52C262.68 269.195 262.924 268.79 263.005 268.546C263.086 268.221 263.168 267.978 263.168 267.572C263.168 267.166 263.086 266.76 262.843 266.516C262.68 266.192 262.355 265.948 262.03 265.786C261.705 265.623 261.299 265.542 260.893 265.542C260.405 265.542 259.918 265.623 259.511 265.867C259.105 266.111 258.78 266.354 258.618 266.679C258.455 267.004 258.293 267.409 258.293 267.815H256.83V267.734C256.83 267.004 256.993 266.435 257.399 265.867C257.805 265.299 258.211 264.893 258.861 264.568C259.511 264.243 260.161 264.081 260.893 264.081C261.624 264.081 262.274 264.243 262.843 264.487C263.411 264.731 263.818 265.218 264.143 265.705C264.468 266.192 264.63 266.76 264.63 267.409C264.63 267.815 264.549 268.302 264.386 268.708C264.224 269.114 263.899 269.601 263.493 270.088C263.086 270.576 262.518 271.225 261.786 271.956L258.455 275.365L258.861 274.472V275.365L258.455 274.959H264.793V276.258H256.83V275.284H256.993Z" fill="#787878"/>
<path d="M268.368 276.095C267.718 275.852 267.231 275.446 266.906 274.959C266.581 274.472 266.337 273.904 266.256 273.254V273.173H267.718V273.254C267.8 273.822 268.043 274.309 268.531 274.715C269.018 275.121 269.668 275.284 270.481 275.284C270.968 275.284 271.456 275.202 271.862 275.04C272.268 274.878 272.593 274.634 272.756 274.309C272.918 273.985 273.081 273.579 273.081 273.173C273.081 272.442 272.837 271.874 272.35 271.468C271.862 271.062 271.212 270.9 270.318 270.9H268.937V269.601H270.4C270.887 269.601 271.293 269.52 271.7 269.357C272.106 269.195 272.35 268.952 272.593 268.627C272.837 268.302 272.918 267.977 272.918 267.571C272.918 267.166 272.837 266.76 272.675 266.516C272.512 266.273 272.268 266.029 271.862 265.867C271.537 265.704 271.131 265.623 270.643 265.623C270.156 265.623 269.75 265.704 269.343 265.867C268.937 266.029 268.693 266.273 268.45 266.516C268.206 266.76 268.125 267.166 268.043 267.571V267.653H266.5V267.571C266.581 266.922 266.743 266.354 267.15 265.867C267.556 265.38 267.962 264.974 268.531 264.73C269.1 264.487 269.75 264.324 270.481 264.324C271.212 264.324 271.943 264.487 272.512 264.73C273.081 264.974 273.487 265.38 273.812 265.785C274.137 266.191 274.3 266.76 274.3 267.409C274.3 267.896 274.218 268.302 273.975 268.708C273.731 269.114 273.487 269.439 273.081 269.682C272.675 269.926 272.268 270.088 271.781 270.25C272.675 270.332 273.406 270.656 273.893 271.143C274.462 271.631 274.706 272.361 274.706 273.173C274.706 273.822 274.543 274.472 274.137 274.959C273.731 275.446 273.243 275.933 272.675 276.177C272.106 276.42 271.293 276.664 270.562 276.664C269.668 276.583 268.937 276.42 268.368 276.095Z" fill="#787878"/>
<path d="M276.736 276.176C276.573 276.014 276.492 275.77 276.492 275.527C276.492 275.283 276.573 275.04 276.736 274.877C276.898 274.715 277.142 274.634 277.386 274.634C277.63 274.634 277.873 274.715 278.036 274.877C278.198 275.04 278.28 275.283 278.28 275.527C278.28 275.77 278.198 276.014 278.036 276.176C277.873 276.339 277.63 276.42 277.386 276.42C277.142 276.42 276.898 276.339 276.736 276.176Z" fill="#787878"/>
<path d="M26.0029 41V31.1357H17.9775V41H19.5088V32.4551H24.4717V41H26.0029ZM28.6512 41H30.1824V37.6299H32.3221C34.2635 37.6299 35.5965 36.3105 35.5965 34.3828V34.3691C35.5965 32.4346 34.2635 31.1357 32.3221 31.1357H28.6512V41ZM31.9461 32.4277C33.2723 32.4277 34.0379 33.1455 34.0379 34.376V34.3896C34.0379 35.627 33.2723 36.3447 31.9461 36.3447H30.1824V32.4277H31.9461ZM36.276 41H37.8824L38.7916 38.334H42.5924L43.4947 41H45.1012L41.5191 31.1357H39.8648L36.276 41ZM40.6783 32.7695H40.7057L42.1754 37.1035H39.2018L40.6783 32.7695ZM47.0248 41H50.9828C53.0814 41 54.3461 39.9473 54.3461 38.2109V38.1973C54.3461 36.8916 53.4369 35.9277 52.0355 35.791V35.7568C53.0746 35.6133 53.8607 34.6494 53.8607 33.6104V33.5967C53.8607 32.1064 52.7123 31.1357 50.9623 31.1357H47.0248V41ZM50.5932 32.3867C51.6938 32.3867 52.3295 32.8857 52.3295 33.7881V33.8018C52.3295 34.7793 51.598 35.3262 50.2719 35.3262H48.5561V32.3867H50.5932ZM50.5795 36.5088C52.0287 36.5088 52.7807 37.0557 52.7807 38.1152V38.1289C52.7807 39.1953 52.0424 39.749 50.6684 39.749H48.5561V36.5088H50.5795ZM56.5021 41H57.9104L62.9963 33.6582H63.0305V41H64.548V31.1357H63.133L58.0539 38.4844H58.0197V31.1357H56.5021V41ZM67.1348 41.0752C68.8643 41.0752 69.6436 39.8379 69.7939 37.2402L70.0879 32.4551H73.5059V41H75.0371V31.1357H68.7002L68.3721 37.1582C68.2695 38.915 67.8936 39.6875 66.9639 39.6875C66.8271 39.6875 66.6426 39.667 66.5605 39.6465V41C66.6904 41.041 66.9023 41.0752 67.1348 41.0752ZM81.9578 41.1641C84.8084 41.1641 86.5789 39.2021 86.5789 36.0713V36.0576C86.5789 32.9336 84.8016 30.9717 81.9578 30.9717C79.1209 30.9717 77.3367 32.9268 77.3367 36.0576V36.0713C77.3367 39.209 79.1141 41.1641 81.9578 41.1641ZM81.9578 39.8105C80.0848 39.8105 78.8953 38.3682 78.8953 36.0713V36.0576C78.8953 33.7607 80.0916 32.3252 81.9578 32.3252C83.8309 32.3252 85.0135 33.7676 85.0135 36.0576V36.0713C85.0135 38.3477 83.8514 39.8105 81.9578 39.8105ZM95.7309 41.1641C97.8568 41.1641 99.3539 39.7764 99.3539 37.7734V37.7598C99.3539 35.873 97.9936 34.5127 96.1068 34.5127C95.1361 34.5127 94.3158 34.8887 93.8715 35.5518H93.8373L94.1381 32.4277H98.7797V31.1357H92.9008L92.4154 36.8232H93.7553C93.8852 36.6045 94.0424 36.4131 94.227 36.2559C94.6234 35.9004 95.1498 35.7227 95.7582 35.7227C96.9818 35.7227 97.85 36.5771 97.8568 37.7871V37.8008C97.8568 39.0244 96.9887 39.8857 95.7445 39.8857C94.6439 39.8857 93.8373 39.2021 93.7074 38.3135L93.7006 38.2588H92.2377L92.2445 38.3408C92.3812 39.9678 93.7553 41.1641 95.7309 41.1641ZM104.566 31.1357H103.205L100.532 43.3926H101.9L104.566 31.1357ZM106.578 41H108.185L112.471 32.4619V31.1357H105.758V32.4277H110.96V32.4619L106.578 41Z" fill="#BB3AF7"/>
</g>
<defs>
<clipPath id="clip0">
<rect width="343" height="482" fill="white"/>
</clipPath>
</defs>
</svg>
