<svg width="343" height="390" viewBox="0 0 343 390" fill="none" xmlns="http://www.w3.org/2000/svg">
<path d="M0 12C0 5.37258 5.37258 0 12 0H331C337.627 0 343 5.37258 343 12V378C343 384.627 337.627 390 331 390H12C5.37258 390 0 384.627 0 378V12Z" fill="#F3F4F5"/>
<path d="M0 12C0 5.37258 5.37258 0 12 0H331C337.627 0 343 5.37258 343 12V378C343 384.627 337.627 390 331 390H12C5.37258 390 0 384.627 0 378V12Z" stroke="#F3F4F5"/>
<path d="M37.2827 90V66.0439H18.4897V90H21.478V68.7334H34.2944V90H37.2827ZM48.9204 90.332C52.689 90.332 55.5112 88.0742 56.0757 85.2188L56.1089 85.0527H53.27L53.2202 85.2021C52.7222 86.6797 51.1782 87.7754 48.9868 87.7754C45.9155 87.7754 43.9565 85.7002 43.8901 82.1475H56.3247V81.085C56.3247 75.9053 53.4526 72.4023 48.7378 72.4023C44.0229 72.4023 40.9683 76.0713 40.9683 81.417V81.4336C40.9683 86.8623 43.9565 90.332 48.9204 90.332ZM48.7212 74.959C51.2446 74.959 53.104 76.5361 53.3862 79.8896H43.9399C44.2554 76.6689 46.2144 74.959 48.7212 74.959ZM59.5786 95.8105H62.4673V87.1113H62.5337C63.6128 89.1035 65.6216 90.332 68.062 90.332C72.395 90.332 75.3501 86.8291 75.3501 81.3838V81.3672C75.3501 75.9219 72.4282 72.4023 68.0122 72.4023C65.5386 72.4023 63.6128 73.6475 62.5337 75.6562H62.4673V72.7344H59.5786V95.8105ZM67.4478 87.7754C64.5425 87.7754 62.4507 85.2354 62.4507 81.3838V81.3672C62.4507 77.499 64.5259 74.959 67.4478 74.959C70.5024 74.959 72.395 77.3994 72.395 81.3672V81.3838C72.395 85.3184 70.5024 87.7754 67.4478 87.7754ZM85.7095 90.332C89.478 90.332 92.3003 88.0742 92.8647 85.2188L92.8979 85.0527H90.0591L90.0093 85.2021C89.5112 86.6797 87.9673 87.7754 85.7759 87.7754C82.7046 87.7754 80.7456 85.7002 80.6792 82.1475H93.1138V81.085C93.1138 75.9053 90.2417 72.4023 85.5269 72.4023C80.812 72.4023 77.7573 76.0713 77.7573 81.417V81.4336C77.7573 86.8623 80.7456 90.332 85.7095 90.332ZM85.5103 74.959C88.0337 74.959 89.8931 76.5361 90.1753 79.8896H80.729C81.0444 76.6689 83.0034 74.959 85.5103 74.959ZM96.3511 90H103.789C107.458 90 109.715 88.0908 109.715 85.0527V85.0195C109.715 82.9111 108.288 81.3838 106.113 81.085V80.9521C107.707 80.6201 108.952 78.9932 108.952 77.2168V77.1836C108.952 74.4443 106.976 72.7344 103.739 72.7344H96.3511V90ZM99.2397 79.9561V75.125H103.307C105.117 75.125 106.08 75.9385 106.08 77.4824V77.5156C106.08 79.1758 105.05 79.9561 102.875 79.9561H99.2397ZM99.2397 87.6094V82.3467H103.025C105.548 82.3467 106.76 83.1768 106.76 84.9531V84.9863C106.76 86.7129 105.631 87.6094 103.54 87.6094H99.2397ZM120.191 90.332C124.956 90.332 128.176 86.8789 128.176 81.3672V81.334C128.176 75.8223 124.939 72.4023 120.174 72.4023C115.41 72.4023 112.189 75.8389 112.189 81.334V81.3672C112.189 86.8623 115.393 90.332 120.191 90.332ZM120.208 87.7754C117.153 87.7754 115.144 85.4346 115.144 81.3672V81.334C115.144 77.2998 117.169 74.959 120.174 74.959C123.229 74.959 125.221 77.2832 125.221 81.334V81.3672C125.221 85.418 123.246 87.7754 120.208 87.7754ZM132.028 94.7314V90H145.425V94.7314H148.115V87.6094H145.375V72.7344H133.489L132.825 82.3135C132.659 84.6377 132.044 86.7793 130.783 87.6094H129.338V94.7314H132.028ZM142.487 87.6094H134.037V87.543C134.9 86.4307 135.348 84.5547 135.498 82.3799L136.029 75.125H142.487V87.6094ZM169.016 90H171.905V72.7344H169.016V79.8564H160.566V72.7344H157.677V90H160.566V82.2471H169.016V90ZM181.036 90.332C183.343 90.332 185.418 89.0869 186.431 87.1943H186.498V90H189.386V78.0635C189.386 74.6104 186.83 72.4023 182.746 72.4023C178.678 72.4023 176.205 74.6934 175.956 77.5322L175.939 77.7148H178.728L178.761 77.5654C179.093 76.0215 180.488 74.959 182.712 74.959C185.12 74.959 186.498 76.2373 186.498 78.3457V79.79L181.55 80.0723C177.583 80.3047 175.292 82.1475 175.292 85.0859V85.1191C175.292 88.2568 177.599 90.332 181.036 90.332ZM178.247 85.1191V85.0859C178.247 83.4756 179.575 82.4463 181.882 82.3135L186.498 82.0312V83.4424C186.498 85.9492 184.406 87.8252 181.683 87.8252C179.608 87.8252 178.247 86.7793 178.247 85.1191ZM18.0415 131.811H20.9302V123.111H20.9966C22.0757 125.104 24.0845 126.332 26.5249 126.332C30.8579 126.332 33.813 122.829 33.813 117.384V117.367C33.813 111.922 30.8911 108.402 26.4751 108.402C24.0015 108.402 22.0757 109.647 20.9966 111.656H20.9302V108.734H18.0415V131.811ZM25.9106 123.775C23.0054 123.775 20.9136 121.235 20.9136 117.384V117.367C20.9136 113.499 22.9888 110.959 25.9106 110.959C28.9653 110.959 30.8579 113.399 30.8579 117.367V117.384C30.8579 121.318 28.9653 123.775 25.9106 123.775ZM44.1724 126.332C47.9409 126.332 50.7632 124.074 51.3276 121.219L51.3608 121.053H48.522L48.4722 121.202C47.9741 122.68 46.4302 123.775 44.2388 123.775C41.1675 123.775 39.2085 121.7 39.1421 118.147H51.5767V117.085C51.5767 111.905 48.7046 108.402 43.9897 108.402C39.2749 108.402 36.2202 112.071 36.2202 117.417V117.434C36.2202 122.862 39.2085 126.332 44.1724 126.332ZM43.9731 110.959C46.4966 110.959 48.356 112.536 48.6382 115.89H39.1919C39.5073 112.669 41.4663 110.959 43.9731 110.959ZM60.5747 126.332C64.6089 126.332 67.3149 124.174 67.3149 120.97V120.937C67.3149 118.944 66.0864 117.566 63.8618 117.085V116.952C65.6216 116.554 66.8335 115.01 66.8335 113.167V113.134C66.8335 110.212 64.5259 108.402 60.7573 108.402C57.1714 108.402 54.6646 110.195 54.2661 112.984L54.2495 113.101H57.0552L57.0718 113.018C57.3374 111.673 58.7817 110.793 60.7573 110.793C62.7993 110.793 64.0112 111.756 64.0112 113.366V113.399C64.0112 115.109 62.8657 115.973 60.5747 115.973H57.9849V118.363H60.5747C63.2144 118.363 64.4761 119.227 64.4761 121.069V121.103C64.4761 122.846 62.9653 123.941 60.5747 123.941C58.5161 123.941 57.1382 123.128 56.7231 121.684L56.6733 121.518H53.7515L53.7681 121.65C54.1167 124.473 56.8228 126.332 60.5747 126.332ZM77.7407 126.332C81.5093 126.332 84.3315 124.074 84.896 121.219L84.9292 121.053H82.0903L82.0405 121.202C81.5425 122.68 79.9985 123.775 77.8071 123.775C74.7358 123.775 72.7769 121.7 72.7104 118.147H85.145V117.085C85.145 111.905 82.2729 108.402 77.5581 108.402C72.8433 108.402 69.7886 112.071 69.7886 117.417V117.434C69.7886 122.862 72.7769 126.332 77.7407 126.332ZM77.5415 110.959C80.0649 110.959 81.9243 112.536 82.2065 115.89H72.7603C73.0757 112.669 75.0347 110.959 77.5415 110.959ZM88.3989 131.811H91.2876V123.111H91.354C92.4331 125.104 94.4419 126.332 96.8823 126.332C101.215 126.332 104.17 122.829 104.17 117.384V117.367C104.17 111.922 101.249 108.402 96.8325 108.402C94.3589 108.402 92.4331 109.647 91.354 111.656H91.2876V108.734H88.3989V131.811ZM96.2681 123.775C93.3628 123.775 91.271 121.235 91.271 117.384V117.367C91.271 113.499 93.3462 110.959 96.2681 110.959C99.3228 110.959 101.215 113.399 101.215 117.367V117.384C101.215 121.318 99.3228 123.775 96.2681 123.775ZM107.408 126H114.845C118.514 126 120.772 124.091 120.772 121.053V121.02C120.772 118.911 119.344 117.384 117.169 117.085V116.952C118.763 116.62 120.008 114.993 120.008 113.217V113.184C120.008 110.444 118.033 108.734 114.795 108.734H107.408V126ZM110.296 115.956V111.125H114.364C116.173 111.125 117.136 111.938 117.136 113.482V113.516C117.136 115.176 116.107 115.956 113.932 115.956H110.296ZM110.296 123.609V118.347H114.082C116.605 118.347 117.817 119.177 117.817 120.953V120.986C117.817 122.713 116.688 123.609 114.596 123.609H110.296ZM135.415 126H138.303V108.734H135.415V115.856H126.964V108.734H124.076V126H126.964V118.247H135.415V126ZM142.371 126H148.497C152.448 126 154.988 123.726 154.988 120.14V120.106C154.988 116.521 152.448 114.246 148.497 114.246H145.259V108.734H142.371V126ZM157.179 126H160.068V108.734H157.179V126ZM148.447 116.637C150.638 116.637 152.033 117.998 152.033 120.106V120.14C152.033 122.231 150.655 123.609 148.447 123.609H145.259V116.637H148.447ZM171.589 106.775C174.793 106.775 176.669 104.7 176.669 102.077V102.027H174.295V102.11C174.295 103.588 173.333 104.85 171.606 104.85C169.813 104.85 168.917 103.588 168.917 102.11V102.027H166.542V102.077C166.542 104.7 168.418 106.775 171.589 106.775ZM164.152 126H167.007L175.607 113.167H175.74V126H178.628V108.734H175.773L167.173 121.567H167.041V108.734H164.152V126ZM196.824 126.332C200.725 126.332 203.564 123.792 204.029 120.505L204.045 120.389H201.207L201.173 120.521C200.692 122.447 199.181 123.775 196.824 123.775C193.835 123.775 191.777 121.401 191.777 117.384V117.367C191.777 113.449 193.786 110.959 196.791 110.959C199.331 110.959 200.725 112.486 201.157 114.213L201.19 114.346H204.012L203.996 114.213C203.63 111.258 201.09 108.402 196.791 108.402C191.993 108.402 188.822 111.889 188.822 117.334V117.351C188.822 122.846 191.926 126.332 196.824 126.332ZM220.182 126V108.734H217.293V116.006C216.497 116.803 214.953 117.334 213.425 117.334C210.786 117.334 209.474 116.122 209.474 113.665V108.734H206.585V113.864C206.585 117.533 208.727 119.891 212.877 119.891C214.521 119.891 216.148 119.409 217.227 118.446H217.293V126H220.182ZM228.201 105.879C229.13 105.879 229.861 105.132 229.861 104.202C229.861 103.272 229.13 102.542 228.201 102.542C227.271 102.542 226.524 103.272 226.524 104.202C226.524 105.132 227.271 105.879 228.201 105.879ZM234.376 105.879C235.323 105.879 236.053 105.132 236.053 104.202C236.053 103.272 235.323 102.542 234.376 102.542C233.463 102.542 232.716 103.272 232.716 104.202C232.716 105.132 233.463 105.879 234.376 105.879ZM231.372 126.332C235.14 126.332 237.962 124.074 238.527 121.219L238.56 121.053H235.721L235.671 121.202C235.173 122.68 233.629 123.775 231.438 123.775C228.367 123.775 226.408 121.7 226.341 118.147H238.776V117.085C238.776 111.905 235.904 108.402 231.189 108.402C226.474 108.402 223.419 112.071 223.419 117.417V117.434C223.419 122.862 226.408 126.332 231.372 126.332ZM231.172 110.959C233.696 110.959 235.555 112.536 235.837 115.89H226.391C226.707 112.669 228.666 110.959 231.172 110.959ZM253.983 108.734H239.971V111.125H245.533V126H248.421V111.125H253.983V108.734ZM262.549 117.633H288.929V114.943H262.549V117.633ZM20.9136 162V149.748H21.0298L26.5747 161.502H28.7827L34.3442 149.748H34.4604V162H37.3491V144.734H33.9624L27.8032 158.182H27.6704L21.561 144.734H18.0249V162H20.9136ZM48.5718 162.332C53.3364 162.332 56.5571 158.879 56.5571 153.367V153.334C56.5571 147.822 53.3198 144.402 48.5552 144.402C43.7905 144.402 40.5698 147.839 40.5698 153.334V153.367C40.5698 158.862 43.7739 162.332 48.5718 162.332ZM48.5884 159.775C45.5337 159.775 43.5249 157.435 43.5249 153.367V153.334C43.5249 149.3 45.5503 146.959 48.5552 146.959C51.6099 146.959 53.6021 149.283 53.6021 153.334V153.367C53.6021 157.418 51.6265 159.775 48.5884 159.775ZM59.7612 162H81.0776V144.734H78.189V159.609H71.8638V144.734H68.9751V159.609H62.6499V144.734H59.7612V162ZM92.2505 162.332C96.019 162.332 98.8413 160.074 99.4058 157.219L99.439 157.053H96.6001L96.5503 157.202C96.0522 158.68 94.5083 159.775 92.3169 159.775C89.2456 159.775 87.2866 157.7 87.2202 154.147H99.6548V153.085C99.6548 147.905 96.7827 144.402 92.0679 144.402C87.353 144.402 84.2983 148.071 84.2983 153.417V153.434C84.2983 158.862 87.2866 162.332 92.2505 162.332ZM92.0513 146.959C94.5747 146.959 96.4341 148.536 96.7163 151.89H87.27C87.5854 148.669 89.5444 146.959 92.0513 146.959ZM114.231 162H117.12V144.734H114.231V151.856H105.781V144.734H102.892V162H105.781V154.247H114.231V162ZM132.526 162H135.415V144.734H132.526V151.856H124.076V144.734H121.187V162H124.076V154.247H132.526V162ZM139.482 162H142.337L150.937 149.167H151.07V162H153.958V144.734H151.103L142.503 157.567H142.371V144.734H139.482V162ZM161.562 154.031L168.452 162H172.104L164.168 152.902L171.872 144.734H168.369L161.562 152.039H160.898V144.734H158.009V162H160.898V154.031H161.562ZM182.463 166.731V162H195.861V166.731H198.55V159.609H195.811V144.734H183.924L183.26 154.313C183.094 156.638 182.48 158.779 181.218 159.609H179.774V166.731H182.463ZM192.922 159.609H184.472V159.543C185.335 158.431 185.784 156.555 185.933 154.38L186.464 147.125H192.922V159.609ZM208.262 162.332C212.031 162.332 214.853 160.074 215.417 157.219L215.451 157.053H212.612L212.562 157.202C212.064 158.68 210.52 159.775 208.329 159.775C205.257 159.775 203.298 157.7 203.232 154.147H215.667V153.085C215.667 147.905 212.794 144.402 208.08 144.402C203.365 144.402 200.31 148.071 200.31 153.417V153.434C200.31 158.862 203.298 162.332 208.262 162.332ZM208.063 146.959C210.586 146.959 212.446 148.536 212.728 151.89H203.282C203.597 148.669 205.556 146.959 208.063 146.959ZM230.243 162H233.131V144.734H230.243V151.856H221.792V144.734H218.904V162H221.792V154.247H230.243V162ZM237.199 162H243.325C247.276 162 249.816 159.726 249.816 156.14V156.106C249.816 152.521 247.276 150.246 243.325 150.246H240.087V144.734H237.199V162ZM243.275 152.637C245.466 152.637 246.861 153.998 246.861 156.106V156.14C246.861 158.231 245.483 159.609 243.275 159.609H240.087V152.637H243.275ZM264.077 147.125V144.734H252.97V162H255.859V147.125H264.077ZM267.214 162H270.07L278.669 149.167H278.802V162H281.691V144.734H278.835L270.236 157.567H270.103V144.734H267.214V162ZM23.7856 198.332C27.8198 198.332 30.5259 196.174 30.5259 192.97V192.937C30.5259 190.944 29.2974 189.566 27.0728 189.085V188.952C28.8325 188.554 30.0444 187.01 30.0444 185.167V185.134C30.0444 182.212 27.7368 180.402 23.9683 180.402C20.3823 180.402 17.8755 182.195 17.4771 184.984L17.4604 185.101H20.2661L20.2827 185.018C20.5483 183.673 21.9927 182.793 23.9683 182.793C26.0103 182.793 27.2222 183.756 27.2222 185.366V185.399C27.2222 187.109 26.0767 187.973 23.7856 187.973H21.1958V190.363H23.7856C26.4253 190.363 27.687 191.227 27.687 193.069V193.103C27.687 194.846 26.1763 195.941 23.7856 195.941C21.7271 195.941 20.3491 195.128 19.9341 193.684L19.8843 193.518H16.9624L16.979 193.65C17.3276 196.473 20.0337 198.332 23.7856 198.332ZM38.8931 198.332C41.2007 198.332 43.2759 197.087 44.2886 195.194H44.355V198H47.2437V186.063C47.2437 182.61 44.687 180.402 40.603 180.402C36.5356 180.402 34.062 182.693 33.813 185.532L33.7964 185.715H36.5854L36.6187 185.565C36.9507 184.021 38.3452 182.959 40.5698 182.959C42.9771 182.959 44.355 184.237 44.355 186.346V187.79L39.4077 188.072C35.4399 188.305 33.1489 190.147 33.1489 193.086V193.119C33.1489 196.257 35.4565 198.332 38.8931 198.332ZM36.104 193.119V193.086C36.104 191.476 37.4321 190.446 39.7397 190.313L44.355 190.031V191.442C44.355 193.949 42.2632 195.825 39.5405 195.825C37.4653 195.825 36.104 194.779 36.104 193.119ZM58.6323 198.332C63.6294 198.332 66.7007 194.979 66.7007 189.55V189.517C66.7007 184.387 63.729 181.1 59.064 181.1C56.3745 181.1 54.1997 182.162 53.0542 184.204H52.9878L53.021 183.972C53.7349 178.975 55.1792 176.933 59.9106 176.75L61.189 176.7C63.1812 176.617 65.0073 176.186 65.5552 175.688V173.164C64.5757 173.679 62.7163 174.027 61.0562 174.094L59.7778 174.144C53.0708 174.409 50.5474 178.36 50.5474 187.873V187.906C50.5474 194.763 53.3364 198.332 58.6323 198.332ZM58.6323 195.775C55.3784 195.775 53.5024 193.518 53.5024 189.55V189.517C53.5024 185.765 55.3784 183.656 58.6323 183.656C61.8696 183.656 63.7456 185.765 63.7456 189.517V189.55C63.7456 193.518 61.8696 195.775 58.6323 195.775ZM77.0435 198.332C80.812 198.332 83.6343 196.074 84.1987 193.219L84.2319 193.053H81.3931L81.3433 193.202C80.8452 194.68 79.3013 195.775 77.1099 195.775C74.0386 195.775 72.0796 193.7 72.0132 190.147H84.4478V189.085C84.4478 183.905 81.5757 180.402 76.8608 180.402C72.146 180.402 69.0913 184.071 69.0913 189.417V189.434C69.0913 194.862 72.0796 198.332 77.0435 198.332ZM76.8442 182.959C79.3677 182.959 81.2271 184.536 81.5093 187.89H72.063C72.3784 184.669 74.3374 182.959 76.8442 182.959ZM87.7017 203.811H90.5903V195.111H90.6567C91.7358 197.104 93.7446 198.332 96.1851 198.332C100.518 198.332 103.473 194.829 103.473 189.384V189.367C103.473 183.922 100.551 180.402 96.1353 180.402C93.6616 180.402 91.7358 181.647 90.6567 183.656H90.5903V180.734H87.7017V203.811ZM95.5708 195.775C92.6655 195.775 90.5737 193.235 90.5737 189.384V189.367C90.5737 185.499 92.6489 182.959 95.5708 182.959C98.6255 182.959 100.518 185.399 100.518 189.367V189.384C100.518 193.318 98.6255 195.775 95.5708 195.775ZM110.662 177.879C111.591 177.879 112.322 177.132 112.322 176.202C112.322 175.272 111.591 174.542 110.662 174.542C109.732 174.542 108.985 175.272 108.985 176.202C108.985 177.132 109.732 177.879 110.662 177.879ZM116.837 177.879C117.784 177.879 118.514 177.132 118.514 176.202C118.514 175.272 117.784 174.542 116.837 174.542C115.924 174.542 115.177 175.272 115.177 176.202C115.177 177.132 115.924 177.879 116.837 177.879ZM113.833 198.332C117.601 198.332 120.423 196.074 120.988 193.219L121.021 193.053H118.182L118.132 193.202C117.634 194.68 116.09 195.775 113.899 195.775C110.828 195.775 108.869 193.7 108.802 190.147H121.237V189.085C121.237 183.905 118.365 180.402 113.65 180.402C108.935 180.402 105.88 184.071 105.88 189.417V189.434C105.88 194.862 108.869 198.332 113.833 198.332ZM113.633 182.959C116.157 182.959 118.016 184.536 118.298 187.89H108.852C109.167 184.669 111.126 182.959 113.633 182.959ZM136.444 180.734H122.432V183.125H127.994V198H130.882V183.125H136.444V180.734Z" fill="#BB3AF7"/>
<path d="M25.0029 41V31.1357H16.9775V41H18.5088V32.4551H23.4717V41H25.0029ZM27.6512 41H29.1824V37.6299H31.3221C33.2635 37.6299 34.5965 36.3105 34.5965 34.3828V34.3691C34.5965 32.4346 33.2635 31.1357 31.3221 31.1357H27.6512V41ZM30.9461 32.4277C32.2723 32.4277 33.0379 33.1455 33.0379 34.376V34.3896C33.0379 35.627 32.2723 36.3447 30.9461 36.3447H29.1824V32.4277H30.9461ZM35.276 41H36.8824L37.7916 38.334H41.5924L42.4947 41H44.1012L40.5191 31.1357H38.8648L35.276 41ZM39.6783 32.7695H39.7057L41.1754 37.1035H38.2018L39.6783 32.7695ZM46.0248 41H49.9828C52.0814 41 53.3461 39.9473 53.3461 38.2109V38.1973C53.3461 36.8916 52.4369 35.9277 51.0355 35.791V35.7568C52.0746 35.6133 52.8607 34.6494 52.8607 33.6104V33.5967C52.8607 32.1064 51.7123 31.1357 49.9623 31.1357H46.0248V41ZM49.5932 32.3867C50.6938 32.3867 51.3295 32.8857 51.3295 33.7881V33.8018C51.3295 34.7793 50.598 35.3262 49.2719 35.3262H47.5561V32.3867H49.5932ZM49.5795 36.5088C51.0287 36.5088 51.7807 37.0557 51.7807 38.1152V38.1289C51.7807 39.1953 51.0424 39.749 49.6684 39.749H47.5561V36.5088H49.5795ZM55.5021 41H56.9104L61.9963 33.6582H62.0305V41H63.548V31.1357H62.133L57.0539 38.4844H57.0197V31.1357H55.5021V41ZM66.1348 41.0752C67.8643 41.0752 68.6436 39.8379 68.7939 37.2402L69.0879 32.4551H72.5059V41H74.0371V31.1357H67.7002L67.3721 37.1582C67.2695 38.915 66.8936 39.6875 65.9639 39.6875C65.8271 39.6875 65.6426 39.667 65.5605 39.6465V41C65.6904 41.041 65.9023 41.0752 66.1348 41.0752ZM80.9578 41.1641C83.8084 41.1641 85.5789 39.2021 85.5789 36.0713V36.0576C85.5789 32.9336 83.8016 30.9717 80.9578 30.9717C78.1209 30.9717 76.3367 32.9268 76.3367 36.0576V36.0713C76.3367 39.209 78.1141 41.1641 80.9578 41.1641ZM80.9578 39.8105C79.0848 39.8105 77.8953 38.3682 77.8953 36.0713V36.0576C77.8953 33.7607 79.0916 32.3252 80.9578 32.3252C82.8309 32.3252 84.0135 33.7676 84.0135 36.0576V36.0713C84.0135 38.3477 82.8514 39.8105 80.9578 39.8105ZM91.7504 41H93.3568L97.643 32.4619V31.1357H90.9301V32.4277H96.1322V32.4619L91.7504 41ZM102.964 31.1357H101.604L98.9309 43.3926H100.298L102.964 31.1357ZM104.977 41H106.583L110.869 32.4619V31.1357H104.156V32.4277H109.358V32.4619L104.977 41Z" fill="#BB3AF7"/>
<g clip-path="url(#clip0)">
<path d="M274.352 243H38.5239C36.5282 243 34.9455 244.654 34.9455 246.653V337.146C34.9455 338.317 34.4638 339.42 33.638 340.247L26.206 347.622C25.7243 348.104 26.0684 349 26.7565 349H274.352C276.348 349 278 347.346 278 345.347V246.653C278 244.654 276.348 243 274.352 243Z" fill="white"/>
<path d="M62.0592 269.328C61.8527 269.466 61.5775 269.603 61.371 269.672C61.0958 269.81 60.8205 269.879 60.5452 269.948C60.27 270.017 59.9259 270.017 59.513 270.017C58.6872 270.017 57.9303 269.879 57.3798 269.534C56.8292 269.19 56.3475 268.776 56.0723 268.156C55.797 267.536 55.5906 266.984 55.5906 266.295V263.607H56.8292V266.295C56.8292 266.847 56.8981 267.26 57.1045 267.674C57.3109 268.087 57.5862 268.363 57.9991 268.57C58.412 268.776 58.8937 268.914 59.4442 268.914C59.7883 268.914 60.1324 268.914 60.4764 268.845C60.8205 268.776 61.0958 268.707 61.371 268.57C61.6463 268.432 61.8527 268.294 61.9904 268.156V263.745H63.229V273.945H61.9904V269.328H62.0592Z" fill="#787878"/>
<path d="M70.5922 267.536H68.2524V273.876H67.0138V267.536H64.6741V266.502H70.661V267.536H70.5922Z" fill="#787878"/>
<path d="M73.0007 273.532C72.519 273.187 72.1061 272.774 71.8309 272.222C71.5556 271.671 71.418 270.913 71.418 270.155C71.418 269.397 71.5556 268.707 71.8309 268.156C72.1061 267.605 72.519 267.122 73.0007 266.847C73.4824 266.571 74.1017 266.364 74.7899 266.364C75.478 266.364 76.0286 266.502 76.5791 266.847C77.0608 267.122 77.4737 267.605 77.7489 268.156C78.0242 268.707 78.1618 269.397 78.1618 270.155C78.1618 270.913 78.0242 271.602 77.7489 272.153C77.4737 272.705 77.0608 273.187 76.5791 273.463C76.0974 273.739 75.478 273.945 74.7899 273.945C74.1017 273.945 73.5512 273.808 73.0007 273.532ZM75.8909 272.567C76.235 272.36 76.4415 272.016 76.6479 271.602C76.8543 271.189 76.9232 270.706 76.9232 270.155C76.9232 269.603 76.8543 269.121 76.6479 268.707C76.4415 268.294 76.235 268.018 75.8909 267.811C75.5469 267.605 75.2028 267.467 74.7899 267.467C74.377 267.467 73.9641 267.605 73.6889 267.811C73.4136 268.018 73.1383 268.363 72.9319 268.707C72.7254 269.052 72.6566 269.603 72.6566 270.155C72.6566 270.706 72.7254 271.189 72.9319 271.602C73.1383 272.016 73.3448 272.291 73.6889 272.567C74.0329 272.843 74.377 272.912 74.7899 272.912C75.2028 272.912 75.6157 272.774 75.8909 272.567Z" fill="#787878"/>
<path d="M80.295 272.843C79.7445 272.085 79.4004 270.982 79.4004 269.534C79.4004 268.156 79.538 267.053 79.8133 266.226C80.0885 265.399 80.5014 264.779 81.0519 264.365C81.6025 263.952 82.3594 263.745 83.3228 263.676H83.8734C84.2174 263.676 84.5615 263.607 84.9056 263.538C85.2497 263.469 85.5249 263.401 85.7314 263.263V264.365C85.5937 264.503 85.3873 264.572 85.0432 264.641C84.6991 264.71 84.2862 264.779 83.8734 264.779H83.3228C82.6347 264.779 82.153 264.917 81.7401 265.124C81.3272 265.33 81.0519 265.675 80.8455 266.088C80.6391 266.502 80.5014 267.122 80.3638 267.811V267.88C80.6391 267.467 80.9831 267.122 81.396 266.915C81.8089 266.709 82.3594 266.571 82.9099 266.571C83.5981 266.571 84.1486 266.709 84.6303 266.984C85.112 267.26 85.4561 267.674 85.7314 268.225C86.0066 268.776 86.1442 269.397 86.1442 270.155C86.1442 270.913 86.0066 271.602 85.7314 272.153C85.4561 272.705 85.0432 273.118 84.5615 273.463C84.0798 273.739 83.4605 273.945 82.7035 273.945C81.7401 273.945 80.9143 273.601 80.295 272.843ZM84.011 272.567C84.3551 272.36 84.5615 272.085 84.768 271.671C84.9056 271.257 85.0432 270.775 85.0432 270.224C85.0432 269.672 84.9744 269.259 84.768 268.845C84.6303 268.501 84.3551 268.156 84.011 268.018C83.6669 267.88 83.3228 267.743 82.8411 267.743C82.3594 267.743 82.0154 267.811 81.6713 268.018C81.3272 268.225 81.1208 268.501 80.9143 268.845C80.7767 269.19 80.6391 269.672 80.6391 270.224C80.6391 270.775 80.7079 271.257 80.9143 271.671C81.052 272.085 81.3272 272.36 81.6713 272.567C82.0154 272.774 82.3594 272.912 82.8411 272.912C83.3228 272.912 83.7357 272.774 84.011 272.567Z" fill="#787878"/>
<path d="M87.7959 266.502H89.0346V268.845H90.4109C91.2366 268.845 91.9248 269.052 92.4065 269.534C92.8882 270.017 93.1635 270.568 93.1635 271.326C93.1635 272.085 92.8882 272.705 92.4065 273.118C91.9248 273.532 91.2366 273.808 90.4109 273.808H87.7959V266.502ZM89.0346 269.879V272.843H90.4109C90.8926 272.843 91.2366 272.705 91.5119 272.429C91.7872 272.153 91.9248 271.809 91.9248 271.326C91.9248 270.913 91.7872 270.499 91.5119 270.224C91.2366 269.948 90.8926 269.81 90.4109 269.81H89.0346V269.879ZM94.1269 266.502H95.3655V273.876H94.1269V266.502Z" fill="#787878"/>
<path d="M101.559 273.532C101.077 273.187 100.664 272.774 100.389 272.222C100.114 271.671 99.9761 270.982 99.9761 270.224C99.9761 269.466 100.114 268.776 100.389 268.225C100.664 267.674 101.077 267.191 101.559 266.915C102.041 266.64 102.66 266.433 103.348 266.433C104.036 266.433 104.587 266.571 105.137 266.915C105.619 267.191 106.032 267.674 106.307 268.225C106.582 268.776 106.72 269.466 106.72 270.224C106.72 270.982 106.582 271.671 106.307 272.222C106.032 272.774 105.619 273.256 105.137 273.532C104.655 273.808 104.036 274.014 103.348 274.014C102.66 274.014 102.109 273.808 101.559 273.532ZM104.518 272.567C104.862 272.36 105.068 272.016 105.275 271.602C105.481 271.189 105.55 270.706 105.55 270.155C105.55 269.603 105.481 269.121 105.275 268.707C105.068 268.294 104.862 268.018 104.518 267.811C104.174 267.605 103.83 267.467 103.417 267.467C103.004 267.467 102.591 267.605 102.316 267.811C102.041 268.018 101.765 268.363 101.559 268.707C101.352 269.052 101.284 269.603 101.284 270.155C101.284 270.706 101.352 271.189 101.559 271.602C101.765 272.016 101.972 272.291 102.316 272.567C102.66 272.843 103.004 272.912 103.417 272.912C103.83 272.912 104.174 272.774 104.518 272.567Z" fill="#787878"/>
<path d="M108.853 272.843C108.303 272.085 107.958 270.982 107.958 269.534C107.958 268.156 108.096 267.053 108.371 266.226C108.647 265.399 109.06 264.779 109.61 264.365C110.161 263.952 110.918 263.745 111.881 263.676H112.431C112.776 263.676 113.12 263.607 113.464 263.538C113.808 263.469 114.083 263.401 114.289 263.263V264.365C114.152 264.503 113.945 264.572 113.601 264.641C113.257 264.71 112.844 264.779 112.431 264.779H111.881C111.193 264.779 110.711 264.917 110.298 265.124C109.885 265.33 109.61 265.675 109.404 266.088C109.197 266.502 109.06 267.122 108.922 267.811V267.88C109.197 267.467 109.541 267.122 109.954 266.915C110.367 266.709 110.918 266.571 111.468 266.571C112.156 266.571 112.707 266.709 113.188 266.984C113.67 267.26 114.014 267.674 114.289 268.225C114.565 268.776 114.702 269.397 114.702 270.155C114.702 270.913 114.565 271.602 114.289 272.153C114.014 272.705 113.601 273.118 113.12 273.463C112.638 273.739 112.019 273.945 111.262 273.945C110.298 273.945 109.472 273.601 108.853 272.843ZM112.569 272.567C112.913 272.36 113.12 272.085 113.326 271.671C113.464 271.257 113.601 270.775 113.601 270.224C113.601 269.672 113.532 269.259 113.326 268.845C113.188 268.501 112.913 268.156 112.569 268.018C112.225 267.88 111.881 267.743 111.399 267.743C110.918 267.743 110.573 267.811 110.229 268.018C109.885 268.225 109.679 268.501 109.472 268.845C109.335 269.19 109.197 269.672 109.197 270.224C109.197 270.775 109.266 271.257 109.472 271.671C109.61 272.085 109.885 272.36 110.229 272.567C110.573 272.774 110.918 272.912 111.399 272.912C111.881 272.912 112.294 272.774 112.569 272.567Z" fill="#787878"/>
<path d="M117.593 273.532C117.111 273.187 116.698 272.774 116.423 272.222C116.148 271.671 116.01 270.982 116.01 270.224C116.01 269.466 116.148 268.776 116.423 268.225C116.698 267.674 117.111 267.191 117.593 266.847C118.074 266.502 118.694 266.364 119.313 266.364C119.932 266.364 120.552 266.502 121.033 266.847C121.515 267.191 121.859 267.605 122.135 268.156C122.41 268.707 122.547 269.328 122.547 270.086V270.568H116.629V269.603H121.928L121.309 270.499V270.017C121.309 269.466 121.24 268.983 121.033 268.57C120.827 268.156 120.621 267.949 120.345 267.743C120.07 267.536 119.726 267.467 119.313 267.467C118.9 267.467 118.556 267.536 118.281 267.743C118.006 267.949 117.73 268.225 117.524 268.57C117.317 268.914 117.249 269.397 117.249 269.948V270.43C117.249 270.982 117.317 271.395 117.524 271.74C117.73 272.085 117.937 272.36 118.281 272.567C118.625 272.774 118.969 272.843 119.451 272.843C119.795 272.843 120.07 272.774 120.277 272.705C120.483 272.636 120.758 272.498 120.896 272.291C121.033 272.085 121.171 271.947 121.24 271.74V271.671H122.479V271.74C122.41 272.016 122.272 272.291 122.135 272.567C121.997 272.843 121.722 273.049 121.446 273.256C121.171 273.463 120.896 273.601 120.552 273.739C120.208 273.876 119.864 273.876 119.451 273.876C118.763 273.945 118.143 273.808 117.593 273.532Z" fill="#787878"/>
<path d="M125.162 273.739C124.749 273.601 124.405 273.325 124.13 273.049C123.855 272.774 123.717 272.429 123.648 272.016V271.947H124.887V272.016C124.956 272.291 125.162 272.567 125.438 272.705C125.713 272.843 126.057 272.981 126.539 272.981C127.02 272.981 127.433 272.843 127.777 272.636C128.121 272.429 128.259 272.153 128.259 271.74C128.259 271.326 128.121 271.051 127.846 270.844C127.571 270.637 127.158 270.568 126.607 270.568H125.506V269.534H126.607C127.089 269.534 127.433 269.466 127.709 269.259C127.984 269.052 128.053 268.776 128.053 268.432C128.053 268.087 127.915 267.811 127.709 267.605C127.502 267.398 127.158 267.329 126.676 267.329C126.263 267.329 125.919 267.398 125.644 267.605C125.369 267.811 125.162 268.018 125.162 268.294V268.363H123.993V268.294C124.061 267.88 124.199 267.536 124.474 267.26C124.749 266.984 125.025 266.709 125.438 266.571C125.851 266.433 126.263 266.364 126.814 266.364C127.364 266.364 127.777 266.433 128.19 266.64C128.603 266.847 128.878 267.053 129.085 267.329C129.291 267.605 129.429 268.018 129.429 268.432C129.429 268.845 129.291 269.19 129.085 269.466C128.878 269.741 128.534 269.948 128.19 270.017V270.086C128.534 270.155 128.741 270.293 129.016 270.43C129.222 270.568 129.429 270.775 129.498 270.982C129.567 271.189 129.635 271.464 129.635 271.74C129.635 272.222 129.498 272.567 129.291 272.912C129.085 273.256 128.741 273.532 128.259 273.739C127.777 273.945 127.296 274.014 126.745 274.014C126.057 273.945 125.575 273.876 125.162 273.739Z" fill="#787878"/>
<path d="M132.25 273.532C131.769 273.187 131.356 272.774 131.08 272.222C130.805 271.671 130.667 270.982 130.667 270.224C130.667 269.466 130.805 268.776 131.08 268.225C131.356 267.674 131.769 267.191 132.25 266.915C132.732 266.64 133.351 266.433 134.039 266.433C134.728 266.433 135.278 266.571 135.829 266.915C136.31 267.191 136.723 267.674 136.998 268.225C137.274 268.776 137.411 269.466 137.411 270.224C137.411 270.982 137.274 271.671 136.998 272.222C136.723 272.774 136.31 273.256 135.829 273.532C135.347 273.808 134.728 274.014 134.039 274.014C133.351 274.014 132.732 273.808 132.25 273.532ZM135.14 272.567C135.485 272.36 135.691 272.016 135.897 271.602C136.104 271.189 136.173 270.706 136.173 270.155C136.173 269.603 136.104 269.121 135.897 268.707C135.691 268.294 135.485 268.018 135.14 267.811C134.796 267.605 134.452 267.467 134.039 267.467C133.627 267.467 133.214 267.605 132.938 267.811C132.663 268.018 132.388 268.363 132.181 268.707C131.975 269.052 131.906 269.603 131.906 270.155C131.906 270.706 131.975 271.189 132.181 271.602C132.388 272.016 132.594 272.291 132.938 272.567C133.282 272.843 133.627 272.912 134.039 272.912C134.452 272.912 134.865 272.774 135.14 272.567Z" fill="#787878"/>
<path d="M138.925 266.502H144.912V273.876H143.674V267.536H140.164V273.876H138.925V266.502Z" fill="#787878"/>
<path d="M147.596 273.67C147.252 273.463 146.977 273.256 146.77 272.912C146.564 272.567 146.495 272.222 146.495 271.74C146.495 271.12 146.701 270.637 147.183 270.224C147.665 269.81 148.284 269.672 149.179 269.603L151.862 269.466V270.43L149.316 270.568C148.835 270.568 148.422 270.706 148.146 270.913C147.871 271.12 147.734 271.395 147.734 271.74C147.734 272.085 147.871 272.36 148.146 272.567C148.422 272.774 148.766 272.912 149.179 272.912C149.592 272.912 149.936 272.843 150.211 272.636C150.486 272.498 150.761 272.222 150.968 271.947C151.174 271.671 151.243 271.326 151.243 270.982V268.845C151.243 268.432 151.105 268.018 150.83 267.811C150.555 267.605 150.142 267.398 149.66 267.398C149.179 267.398 148.835 267.467 148.491 267.674C148.215 267.88 148.009 268.156 147.94 268.501V268.57H146.77V268.501C146.839 268.087 146.977 267.743 147.183 267.398C147.389 267.053 147.734 266.778 148.146 266.64C148.559 266.502 149.041 266.364 149.66 266.364C150.211 266.364 150.761 266.433 151.174 266.64C151.587 266.847 151.931 267.122 152.138 267.467C152.344 267.811 152.482 268.225 152.482 268.776V273.876H151.243V272.636C151.105 272.912 150.899 273.118 150.693 273.325C150.486 273.532 150.211 273.67 149.867 273.808C149.592 273.945 149.247 273.945 148.903 273.945C148.422 273.945 147.94 273.876 147.596 273.67Z" fill="#787878"/>
<path d="M155.51 273.532C155.028 273.187 154.615 272.774 154.34 272.222C154.065 271.671 153.927 270.982 153.927 270.224C153.927 269.466 154.065 268.776 154.34 268.225C154.615 267.674 155.028 267.191 155.51 266.915C155.991 266.64 156.611 266.433 157.299 266.433C157.918 266.433 158.469 266.571 158.882 266.778C159.295 266.984 159.639 267.329 159.914 267.674C160.189 268.018 160.327 268.432 160.396 268.845V268.914H159.226V268.845C159.157 268.501 158.95 268.156 158.606 267.88C158.331 267.605 157.849 267.467 157.368 267.467C156.955 267.467 156.542 267.605 156.267 267.811C155.991 268.018 155.716 268.363 155.51 268.776C155.303 269.19 155.234 269.672 155.234 270.224C155.234 270.775 155.303 271.257 155.51 271.671C155.716 272.085 155.923 272.36 156.267 272.636C156.611 272.843 156.955 272.981 157.368 272.981C157.849 272.981 158.262 272.843 158.606 272.567C158.95 272.291 159.157 271.947 159.226 271.533V271.464H160.464V271.533C160.396 272.016 160.258 272.429 159.983 272.774C159.707 273.118 159.363 273.463 158.95 273.67C158.538 273.876 157.987 274.014 157.437 274.014C156.611 273.945 155.991 273.808 155.51 273.532Z" fill="#787878"/>
<path d="M161.841 266.502H163.079V271.947H163.699L162.873 272.429L166.864 266.502H168.103V273.876H166.864V268.432H166.245L167.071 267.949L163.079 273.876H161.841V266.502Z" fill="#787878"/>
<path d="M175.191 267.536H172.851V273.876H171.612V267.536H169.272V266.502H175.259V267.536H175.191Z" fill="#787878"/>
<path d="M176.429 266.502H177.668V268.845H179.044C179.87 268.845 180.558 269.052 181.04 269.534C181.522 270.017 181.797 270.568 181.797 271.326C181.797 272.085 181.522 272.705 181.04 273.118C180.558 273.532 179.87 273.808 179.044 273.808H176.429V266.502ZM177.668 269.879V272.843H179.044C179.526 272.843 179.87 272.705 180.145 272.429C180.421 272.153 180.558 271.809 180.558 271.326C180.558 270.913 180.421 270.499 180.145 270.224C179.87 269.948 179.526 269.81 179.044 269.81H177.668V269.879Z" fill="#787878"/>
<path d="M56.8291 290.9C56.3474 290.555 55.9345 290.142 55.6592 289.59C55.384 289.039 55.2463 288.35 55.2463 287.592C55.2463 286.834 55.384 286.144 55.6592 285.593C55.9345 285.042 56.3474 284.559 56.8291 284.284C57.3108 284.008 57.9301 283.801 58.6183 283.801C59.2376 283.801 59.7881 283.939 60.201 284.146C60.6139 284.352 60.958 284.697 61.2332 285.042C61.5085 285.386 61.6461 285.8 61.7149 286.213V286.282H60.5451V286.213C60.4763 285.869 60.2698 285.524 59.9257 285.248C59.6505 284.973 59.1688 284.835 58.6871 284.835C58.2742 284.835 57.8613 284.973 57.586 285.18C57.3108 285.386 57.0355 285.731 56.8291 286.144C56.6226 286.558 56.5538 287.04 56.5538 287.592C56.5538 288.143 56.6226 288.626 56.8291 289.039C57.0355 289.453 57.242 289.728 57.586 290.004C57.9301 290.211 58.2742 290.349 58.6871 290.349C59.1688 290.349 59.5817 290.211 59.9257 289.935C60.2698 289.659 60.4763 289.315 60.5451 288.901V288.832H61.7838V288.901C61.7149 289.384 61.5773 289.797 61.302 290.142C61.0268 290.486 60.6827 290.831 60.2698 291.038C59.8569 291.245 59.3064 291.382 58.7559 291.382C57.9301 291.313 57.3108 291.176 56.8291 290.9Z" fill="#787878"/>
<path d="M63.7794 290.211C63.2288 289.453 62.8848 288.35 62.8848 286.902C62.8848 285.524 63.0224 284.421 63.2977 283.594C63.5729 282.767 63.9858 282.147 64.5363 281.733C65.0868 281.32 65.8438 281.113 66.8072 281.044H67.3577C67.7018 281.044 68.0459 280.975 68.39 280.906C68.734 280.837 69.0093 280.769 69.2157 280.631V281.733C69.0781 281.871 68.8717 281.94 68.5276 282.009C68.1835 282.078 67.7706 282.147 67.3577 282.147H66.8072C66.1191 282.147 65.6374 282.285 65.2245 282.492C64.8116 282.698 64.5363 283.043 64.3299 283.456C64.1234 283.87 63.9858 284.49 63.8482 285.179V285.248C64.1234 284.835 64.4675 284.49 64.8804 284.283C65.2933 284.077 65.8438 283.939 66.3943 283.939C67.0825 283.939 67.633 284.077 68.1147 284.352C68.5964 284.628 68.9405 285.042 69.2157 285.593C69.491 286.144 69.6286 286.765 69.6286 287.523C69.6286 288.281 69.491 288.97 69.2157 289.521C68.9405 290.073 68.5276 290.486 68.0459 290.831C67.5642 291.107 66.9448 291.313 66.1879 291.313C65.1557 291.313 64.3299 290.969 63.7794 290.211ZM67.4954 289.935C67.8394 289.728 68.0459 289.453 68.2523 289.039C68.39 288.625 68.5276 288.143 68.5276 287.592C68.5276 287.04 68.4588 286.627 68.2523 286.213C68.1147 285.869 67.8394 285.524 67.4954 285.386C67.1513 285.248 66.8072 285.111 66.3255 285.111C65.8438 285.111 65.4997 285.179 65.1557 285.386C64.8116 285.593 64.6051 285.869 64.3987 286.213C64.2611 286.558 64.1234 287.04 64.1234 287.592C64.1234 288.143 64.1922 288.625 64.3987 289.039C64.5363 289.453 64.8116 289.728 65.1557 289.935C65.4997 290.142 65.8438 290.28 66.3255 290.28C66.8072 290.28 67.1513 290.142 67.4954 289.935Z" fill="#787878"/>
<path d="M72.519 290.9C72.0373 290.555 71.6244 290.142 71.3492 289.59C71.0739 289.039 70.9363 288.35 70.9363 287.592C70.9363 286.834 71.0739 286.144 71.3492 285.593C71.6244 285.042 72.0373 284.559 72.519 284.215C73.0007 283.87 73.6201 283.732 74.2394 283.732C74.8587 283.732 75.4781 283.87 75.9598 284.215C76.4415 284.559 76.7855 284.973 77.0608 285.524C77.3361 286.075 77.4737 286.696 77.4737 287.454V287.936H71.5556V286.971H76.8544L76.235 287.798V287.316C76.235 286.765 76.1662 286.282 75.9598 285.869C75.7533 285.455 75.5469 285.248 75.2716 285.042C74.9964 284.835 74.6523 284.766 74.2394 284.766C73.8265 284.766 73.4824 284.835 73.2072 285.042C72.9319 285.248 72.6566 285.524 72.4502 285.869C72.2438 286.213 72.1749 286.696 72.1749 287.247V287.798C72.1749 288.35 72.2438 288.763 72.4502 289.108C72.6566 289.453 72.8631 289.728 73.2072 289.935C73.5512 290.142 73.8953 290.211 74.377 290.211C74.7211 290.211 74.9964 290.142 75.2028 290.073C75.4092 290.004 75.6845 289.866 75.8221 289.659C75.9598 289.453 76.0974 289.315 76.1662 289.108V289.039H77.4049V289.108C77.3361 289.384 77.1984 289.659 77.0608 289.935C76.9232 290.211 76.6479 290.417 76.3726 290.624C76.0974 290.831 75.8221 290.969 75.4781 291.107C75.134 291.244 74.7899 291.244 74.377 291.244C73.6201 291.313 73.0007 291.176 72.519 290.9Z" fill="#787878"/>
<path d="M78.9875 283.87H80.2262V285.111C80.3638 284.835 80.5703 284.559 80.7767 284.352C80.9832 284.146 81.2584 284.008 81.5337 283.87C81.809 283.732 82.153 283.732 82.4971 283.732C83.1164 283.732 83.667 283.87 84.1487 284.215C84.6304 284.559 84.9744 284.973 85.2497 285.524C85.525 286.075 85.6626 286.765 85.6626 287.523C85.6626 288.281 85.525 288.97 85.2497 289.521C84.9744 290.073 84.6304 290.555 84.1487 290.831C83.667 291.176 83.1164 291.313 82.4971 291.313C82.153 291.313 81.809 291.244 81.5337 291.176C81.2584 291.107 80.9832 290.9 80.7079 290.693C80.5015 290.486 80.295 290.211 80.1574 289.935V293.657H78.9875V283.87ZM83.4605 289.935C83.8046 289.728 84.011 289.384 84.2175 288.97C84.4239 288.557 84.4927 288.074 84.4927 287.523C84.4927 286.971 84.4239 286.489 84.2175 286.075C84.011 285.662 83.8046 285.386 83.4605 285.111C83.1164 284.835 82.7724 284.766 82.3595 284.766C81.9466 284.766 81.6025 284.904 81.2584 285.111C80.9144 285.317 80.7079 285.662 80.5015 286.075C80.295 286.489 80.2262 286.971 80.2262 287.523C80.2262 288.074 80.295 288.557 80.5015 288.97C80.7079 289.384 80.9144 289.728 81.2584 289.935C81.6025 290.142 81.9466 290.28 82.3595 290.28C82.7724 290.28 83.1164 290.142 83.4605 289.935Z" fill="#787878"/>
<path d="M88.4839 290.9C88.0022 290.555 87.5893 290.142 87.314 289.59C87.0388 289.039 86.9011 288.35 86.9011 287.592C86.9011 286.834 87.0388 286.144 87.314 285.593C87.5893 285.042 88.0022 284.559 88.4839 284.215C88.9656 283.87 89.5849 283.732 90.2042 283.732C90.8236 283.732 91.4429 283.87 91.9246 284.215C92.4063 284.559 92.7504 284.973 93.0256 285.524C93.3009 286.075 93.4385 286.696 93.4385 287.454V287.936H87.5205V286.971H92.8192L92.1999 287.798V287.316C92.1999 286.765 92.1311 286.282 91.9246 285.869C91.7182 285.455 91.5117 285.248 91.2365 285.042C90.9612 284.835 90.6171 284.766 90.2042 284.766C89.7914 284.766 89.4473 284.835 89.172 285.042C88.8968 285.248 88.6215 285.524 88.415 285.869C88.2086 286.213 88.1398 286.696 88.1398 287.247V287.798C88.1398 288.35 88.2086 288.763 88.415 289.108C88.6215 289.453 88.8279 289.728 89.172 289.935C89.5161 290.142 89.8602 290.211 90.3419 290.211C90.6859 290.211 90.9612 290.142 91.1676 290.073C91.3741 290.004 91.6493 289.866 91.787 289.659C91.9246 289.453 92.0622 289.315 92.1311 289.108V289.039H93.3697V289.108C93.3009 289.384 93.1633 289.659 93.0256 289.935C92.888 290.211 92.6128 290.417 92.3375 290.624C92.0622 290.831 91.787 290.969 91.4429 291.107C91.0988 291.244 90.7548 291.244 90.3419 291.244C89.5849 291.313 88.9656 291.176 88.4839 290.9Z" fill="#787878"/>
<path d="M93.8516 291.176L97.2923 287.109V287.454L93.9204 283.801H95.4343L98.2557 286.971H98.4622V283.801H99.632V286.971H99.8385L102.66 283.801H104.174L100.802 287.454V287.109L104.243 291.176H102.66L99.7696 287.73H99.5632V291.176H98.3933V287.73H98.2557L95.3655 291.176H93.8516Z" fill="#787878"/>
<path d="M106.238 290.9C105.757 290.555 105.344 290.142 105.068 289.59C104.793 289.039 104.656 288.35 104.656 287.592C104.656 286.834 104.793 286.144 105.068 285.593C105.344 285.042 105.757 284.559 106.238 284.215C106.72 283.87 107.339 283.732 107.959 283.732C108.578 283.732 109.197 283.87 109.679 284.215C110.161 284.559 110.505 284.973 110.78 285.524C111.055 286.075 111.193 286.696 111.193 287.454V287.936H105.275V286.971H110.574L109.954 287.798V287.316C109.954 286.765 109.885 286.282 109.679 285.869C109.473 285.455 109.266 285.248 108.991 285.042C108.716 284.835 108.372 284.766 107.959 284.766C107.546 284.766 107.202 284.835 106.926 285.042C106.651 285.248 106.376 285.524 106.169 285.869C105.963 286.213 105.894 286.696 105.894 287.247V287.798C105.894 288.35 105.963 288.763 106.169 289.108C106.376 289.453 106.582 289.728 106.926 289.935C107.27 290.142 107.615 290.211 108.096 290.211C108.44 290.211 108.716 290.142 108.922 290.073C109.128 290.004 109.404 289.866 109.541 289.659C109.679 289.453 109.817 289.315 109.885 289.108V289.039H111.124V289.108C111.055 289.384 110.918 289.659 110.78 289.935C110.642 290.211 110.367 290.417 110.092 290.624C109.817 290.831 109.541 290.969 109.197 291.107C108.853 291.244 108.509 291.244 108.096 291.244C107.339 291.313 106.72 291.176 106.238 290.9Z" fill="#787878"/>
<path d="M117.593 287.936H114.014V291.245H112.776V283.87H114.014V286.903H117.593V283.87H118.831V291.245H117.593V287.936Z" fill="#787878"/>
<path d="M120.689 283.87H121.928V289.315H122.547L121.721 289.797L125.713 283.87H126.951V291.245H125.713V285.731H125.093L125.919 285.248L121.928 291.176H120.689V283.87Z" fill="#787878"/>
<path d="M132.801 288.557H131.424L129.566 291.176H128.121L130.186 288.35C129.635 288.212 129.291 287.936 128.947 287.592C128.603 287.247 128.534 286.765 128.534 286.282C128.534 285.8 128.672 285.317 128.878 284.973C129.085 284.628 129.429 284.352 129.842 284.146C130.255 283.939 130.736 283.87 131.287 283.87H134.039V291.245H132.801V288.557ZM132.801 287.592V284.904H131.287C130.805 284.904 130.461 285.042 130.186 285.248C129.911 285.524 129.773 285.869 129.773 286.282C129.773 286.627 129.911 286.971 130.186 287.178C130.461 287.454 130.805 287.523 131.287 287.523H132.801V287.592Z" fill="#787878"/>
<path d="M135.966 289.728H137.274L136.242 293.174H135.347L135.966 289.728Z" fill="#787878"/>
<path d="M142.228 283.87H148.215V291.245H146.977V284.904H143.467V291.245H142.228V283.87Z" fill="#787878"/>
<path d="M151.312 290.9C150.83 290.555 150.417 290.142 150.142 289.59C149.867 289.039 149.729 288.35 149.729 287.592C149.729 286.834 149.867 286.144 150.142 285.593C150.417 285.042 150.83 284.559 151.312 284.215C151.794 283.87 152.413 283.732 153.032 283.732C153.652 283.732 154.271 283.87 154.753 284.215C155.234 284.559 155.578 284.973 155.854 285.524C156.129 286.075 156.267 286.696 156.267 287.454V287.936H150.349V286.971H155.647L155.028 287.867V287.385C155.028 286.834 154.959 286.351 154.753 285.938C154.546 285.524 154.34 285.317 154.065 285.111C153.789 284.904 153.445 284.835 153.032 284.835C152.619 284.835 152.275 284.904 152 285.111C151.725 285.317 151.45 285.593 151.243 285.938C151.037 286.282 150.968 286.765 150.968 287.316V287.798C150.968 288.35 151.037 288.763 151.243 289.108C151.45 289.453 151.656 289.728 152 289.935C152.344 290.142 152.688 290.211 153.17 290.211C153.514 290.211 153.789 290.142 153.996 290.073C154.202 290.004 154.477 289.866 154.615 289.659C154.753 289.453 154.89 289.315 154.959 289.108V289.039H156.198V289.108C156.129 289.384 155.991 289.659 155.854 289.935C155.716 290.211 155.441 290.417 155.166 290.624C154.89 290.831 154.615 290.969 154.271 291.107C153.927 291.244 153.583 291.244 153.17 291.244C152.413 291.313 151.794 291.176 151.312 290.9Z" fill="#787878"/>
<path d="M157.78 283.87H159.019V285.111C159.157 284.835 159.363 284.559 159.57 284.352C159.776 284.146 160.051 284.008 160.327 283.87C160.602 283.732 160.946 283.732 161.29 283.732C161.909 283.732 162.46 283.87 162.942 284.215C163.423 284.559 163.767 284.973 164.043 285.524C164.318 286.075 164.456 286.765 164.456 287.523C164.456 288.281 164.318 288.97 164.043 289.521C163.767 290.073 163.423 290.555 162.942 290.831C162.46 291.176 161.909 291.313 161.29 291.313C160.946 291.313 160.602 291.244 160.327 291.176C160.051 291.107 159.776 290.9 159.501 290.693C159.294 290.486 159.088 290.211 158.95 289.935V293.657H157.712V283.87H157.78ZM162.253 289.935C162.598 289.728 162.804 289.384 163.01 288.97C163.217 288.557 163.286 288.074 163.286 287.523C163.286 286.971 163.217 286.489 163.01 286.075C162.804 285.662 162.598 285.386 162.253 285.111C161.909 284.835 161.565 284.766 161.152 284.766C160.74 284.766 160.395 284.904 160.051 285.111C159.707 285.317 159.501 285.662 159.294 286.075C159.088 286.489 159.019 286.971 159.019 287.523C159.019 288.074 159.088 288.557 159.294 288.97C159.501 289.384 159.707 289.728 160.051 289.935C160.395 290.142 160.74 290.28 161.152 290.28C161.565 290.28 161.909 290.142 162.253 289.935Z" fill="#787878"/>
<path d="M167.277 290.9C166.795 290.555 166.382 290.142 166.107 289.59C165.832 289.039 165.694 288.35 165.694 287.592C165.694 286.834 165.832 286.144 166.107 285.593C166.382 285.042 166.795 284.559 167.277 284.215C167.759 283.87 168.378 283.732 168.997 283.732C169.617 283.732 170.236 283.87 170.718 284.215C171.2 284.559 171.544 284.973 171.819 285.524C172.094 286.075 172.232 286.696 172.232 287.454V287.936H166.314V286.971H171.612L170.993 287.867V287.385C170.993 286.834 170.924 286.351 170.718 285.938C170.511 285.524 170.305 285.317 170.03 285.111C169.754 284.904 169.41 284.835 168.997 284.835C168.585 284.835 168.24 284.904 167.965 285.111C167.69 285.317 167.415 285.593 167.208 285.938C167.002 286.282 166.933 286.765 166.933 287.316V287.798C166.933 288.35 167.002 288.763 167.208 289.108C167.415 289.453 167.621 289.728 167.965 289.935C168.309 290.142 168.653 290.211 169.135 290.211C169.479 290.211 169.754 290.142 169.961 290.073C170.167 290.004 170.443 289.866 170.58 289.659C170.718 289.453 170.855 289.315 170.924 289.108V289.039H172.163V289.108C172.094 289.384 171.956 289.659 171.819 289.935C171.681 290.211 171.406 290.417 171.131 290.624C170.855 290.831 170.58 290.969 170.236 291.107C169.892 291.244 169.548 291.244 169.135 291.244C168.378 291.313 167.759 291.176 167.277 290.9Z" fill="#787878"/>
<path d="M173.746 283.87H176.911C177.599 283.87 178.15 284.008 178.563 284.352C178.976 284.697 179.182 285.179 179.182 285.731C179.182 286.075 179.044 286.42 178.838 286.765C178.631 287.04 178.287 287.247 178.012 287.316V287.385C178.356 287.454 178.563 287.523 178.838 287.661C179.113 287.798 179.251 288.005 179.388 288.212C179.526 288.419 179.595 288.694 179.595 289.039C179.595 289.659 179.388 290.211 178.907 290.555C178.425 290.969 177.874 291.107 177.049 291.107H173.883V283.87H173.746ZM176.498 286.903C176.98 286.903 177.324 286.834 177.53 286.627C177.737 286.42 177.874 286.213 177.874 285.869C177.874 285.524 177.806 285.317 177.599 285.111C177.393 284.973 177.118 284.835 176.705 284.835H174.984V286.903H176.498ZM176.842 290.211C177.255 290.211 177.599 290.142 177.874 289.935C178.081 289.728 178.219 289.453 178.219 289.108C178.219 288.763 178.081 288.419 177.806 288.281C177.53 288.074 177.118 288.005 176.636 288.005H175.053V290.28H176.842V290.211Z" fill="#787878"/>
<path d="M182.21 290.9C181.728 290.555 181.315 290.142 181.04 289.59C180.765 289.039 180.627 288.35 180.627 287.592C180.627 286.834 180.765 286.144 181.04 285.593C181.315 285.042 181.728 284.559 182.21 284.215C182.691 283.87 183.311 283.732 183.93 283.732C184.549 283.732 185.169 283.87 185.65 284.215C186.132 284.559 186.476 284.973 186.751 285.524C187.027 286.075 187.164 286.696 187.164 287.454V287.936H181.246V286.971H186.545L185.926 287.867V287.385C185.926 286.834 185.857 286.351 185.65 285.938C185.444 285.524 185.238 285.317 184.962 285.111C184.687 284.904 184.343 284.835 183.93 284.835C183.517 284.835 183.173 284.904 182.898 285.111C182.623 285.317 182.347 285.593 182.141 285.938C181.934 286.282 181.866 286.765 181.866 287.316V287.798C181.866 288.35 181.934 288.763 182.141 289.108C182.347 289.453 182.554 289.728 182.898 289.935C183.242 290.142 183.586 290.211 184.068 290.211C184.412 290.211 184.687 290.142 184.893 290.073C185.1 290.004 185.375 289.866 185.513 289.659C185.65 289.453 185.788 289.315 185.857 289.108V289.039H187.096V289.108C187.027 289.384 186.889 289.659 186.751 289.935C186.614 290.211 186.339 290.417 186.063 290.624C185.788 290.831 185.513 290.969 185.169 291.107C184.825 291.244 184.481 291.244 184.068 291.244C183.311 291.313 182.691 291.176 182.21 290.9Z" fill="#787878"/>
<path d="M187.99 293.243V290.211H188.61C188.885 290.004 189.091 289.728 189.229 289.315C189.367 288.901 189.435 288.419 189.504 287.936L189.779 283.87H194.803V290.211H195.973V293.243H194.803V291.245H189.091V293.243H187.99ZM193.564 284.904H190.812L190.605 288.005C190.605 288.488 190.536 288.901 190.399 289.246C190.261 289.59 190.192 289.935 189.986 290.142H193.564V284.904Z" fill="#787878"/>
<path d="M197.211 283.87H198.45V289.315H199.069L198.244 289.797L202.235 283.87H203.474V291.245H202.235V285.731H201.616L202.441 285.248L198.45 291.176H197.211V283.87Z" fill="#787878"/>
<path d="M210.562 284.904H208.222V291.245H206.983V284.904H204.644V283.87H210.63V284.904H210.562Z" fill="#787878"/>
<path d="M212.901 290.9C212.419 290.555 212.007 290.142 211.731 289.59C211.456 289.039 211.318 288.35 211.318 287.592C211.318 286.834 211.456 286.144 211.731 285.593C212.007 285.042 212.419 284.559 212.901 284.215C213.383 283.87 214.002 283.732 214.621 283.732C215.241 283.732 215.86 283.87 216.342 284.215C216.824 284.559 217.168 284.973 217.443 285.524C217.718 286.075 217.856 286.696 217.856 287.454V287.936H211.938V286.971H217.236L216.617 287.798V287.316C216.617 286.765 216.548 286.282 216.342 285.869C216.135 285.455 215.929 285.248 215.654 285.042C215.378 284.835 215.034 284.766 214.621 284.766C214.209 284.766 213.865 284.835 213.589 285.042C213.314 285.248 213.039 285.524 212.832 285.869C212.626 286.213 212.557 286.696 212.557 287.247V287.798C212.557 288.35 212.626 288.763 212.832 289.108C213.039 289.453 213.245 289.728 213.589 289.935C213.933 290.142 214.277 290.211 214.759 290.211C215.103 290.211 215.378 290.142 215.585 290.073C215.791 290.004 216.067 289.866 216.204 289.659C216.342 289.453 216.479 289.315 216.548 289.108V289.039H217.787V289.108C217.718 289.384 217.581 289.659 217.443 289.935C217.305 290.211 217.03 290.417 216.755 290.624C216.479 290.831 216.204 290.969 215.86 291.107C215.516 291.244 215.172 291.244 214.759 291.244C214.002 291.313 213.383 291.176 212.901 290.9Z" fill="#787878"/>
<path d="M54.8335 310.611V307.579H55.4528C55.7281 307.372 55.9345 307.096 56.0722 306.683C56.2098 306.269 56.2786 305.787 56.3474 305.304L56.6227 301.238H61.6462V307.579H62.816V310.611H61.6462V308.612H55.9345V310.611H54.8335ZM60.4075 302.272H57.6549L57.4485 305.373C57.4485 305.856 57.3796 306.269 57.242 306.614C57.1044 306.958 57.0356 307.303 56.8291 307.51H60.4075V302.272Z" fill="#787878"/>
<path d="M65.1557 308.268C64.674 307.923 64.2611 307.51 63.9859 306.958C63.7106 306.407 63.573 305.718 63.573 304.96C63.573 304.202 63.7106 303.512 63.9859 302.961C64.2611 302.41 64.674 301.927 65.1557 301.583C65.6374 301.238 66.2568 301.1 66.8761 301.1C67.4954 301.1 68.1148 301.238 68.5965 301.583C69.0782 301.927 69.4223 302.341 69.6975 302.892C69.9728 303.443 70.1104 304.064 70.1104 304.822V305.304H64.1923V304.339H69.4911L68.8717 305.235V304.753C68.8717 304.202 68.8029 303.719 68.5965 303.306C68.39 302.892 68.1836 302.685 67.9083 302.479C67.6331 302.272 67.289 302.203 66.8761 302.203C66.4632 302.203 66.1191 302.272 65.8439 302.479C65.5686 302.685 65.2934 302.961 65.0869 303.306C64.8805 303.65 64.8117 304.133 64.8117 304.684V305.166C64.8117 305.718 64.8805 306.131 65.0869 306.476C65.2934 306.821 65.4998 307.096 65.8439 307.303C66.188 307.51 66.532 307.579 67.0137 307.579C67.3578 307.579 67.6331 307.51 67.8395 307.441C68.046 307.372 68.3212 307.234 68.4589 307.027C68.5965 306.821 68.7341 306.683 68.8029 306.476V306.407H70.0416V306.476C69.9728 306.752 69.8352 307.027 69.6975 307.303C69.5599 307.579 69.2846 307.785 69.0094 307.992C68.7341 308.199 68.4589 308.337 68.1148 308.475C67.7707 308.613 67.4266 308.613 67.0137 308.613C66.2568 308.681 65.7063 308.544 65.1557 308.268Z" fill="#787878"/>
<path d="M76.5102 305.304H72.9318V308.612H71.6931V301.238H72.9318V304.27H76.5102V301.238H77.7488V308.612H76.5102V305.304Z" fill="#787878"/>
<path d="M79.6069 301.238H80.8456V303.581H82.2219C83.0477 303.581 83.7358 303.788 84.2175 304.27C84.6992 304.753 84.9745 305.304 84.9745 306.062C84.9745 306.821 84.6992 307.441 84.2175 307.854C83.7358 308.268 83.0477 308.544 82.2219 308.544H79.6069V301.238ZM80.8456 304.615V307.579H82.2219C82.7036 307.579 83.0477 307.441 83.3229 307.165C83.5982 306.889 83.7358 306.545 83.7358 306.062C83.7358 305.649 83.5982 305.235 83.3229 304.96C83.0477 304.684 82.7036 304.546 82.2219 304.546H80.8456V304.615Z" fill="#787878"/>
<path d="M87.5207 302.272V308.612H86.282V301.238H91.0302V302.272H87.5207Z" fill="#787878"/>
<path d="M92.4065 301.238H93.6452V306.683H94.2645L93.4387 307.165L97.43 301.238H98.6687V308.612H97.43V303.168H96.8107L97.6364 302.685L93.6452 308.612H92.4065V301.238Z" fill="#787878"/>
<path d="M108.371 305.304H104.793V308.612H103.554V301.238H104.793V304.27H108.371V301.238H109.61V308.612H108.371V305.304Z" fill="#787878"/>
<path d="M112.294 308.406C111.95 308.199 111.675 307.992 111.468 307.648C111.262 307.303 111.193 306.958 111.193 306.476C111.193 305.856 111.399 305.373 111.881 304.96C112.363 304.546 112.982 304.408 113.877 304.339L116.56 304.202V305.166L114.014 305.304C113.533 305.304 113.12 305.442 112.844 305.649C112.569 305.856 112.432 306.131 112.432 306.476C112.432 306.821 112.569 307.096 112.844 307.303C113.12 307.51 113.464 307.648 113.877 307.648C114.29 307.648 114.634 307.579 114.909 307.372C115.184 307.234 115.459 306.958 115.666 306.683C115.872 306.407 115.941 306.062 115.941 305.718V303.581C115.941 303.168 115.803 302.754 115.528 302.547C115.253 302.341 114.84 302.134 114.358 302.134C113.877 302.134 113.533 302.203 113.188 302.41C112.913 302.616 112.707 302.892 112.638 303.237V303.306H111.468V303.237C111.537 302.823 111.675 302.479 111.881 302.134C112.087 301.789 112.432 301.514 112.844 301.376C113.257 301.238 113.739 301.1 114.358 301.1C114.909 301.1 115.459 301.169 115.872 301.376C116.285 301.583 116.629 301.858 116.836 302.203C117.042 302.547 117.18 302.961 117.18 303.512V308.613H115.941V307.441C115.803 307.717 115.597 307.923 115.391 308.13C115.184 308.337 114.909 308.475 114.565 308.613C114.29 308.75 113.945 308.75 113.601 308.75C113.051 308.681 112.638 308.613 112.294 308.406Z" fill="#787878"/>
<path d="M122.066 301.238H123.304V302.479C123.442 302.203 123.648 301.927 123.855 301.72C124.061 301.514 124.337 301.376 124.612 301.238C124.887 301.1 125.231 301.1 125.575 301.1C126.195 301.1 126.745 301.238 127.227 301.583C127.708 301.927 128.053 302.341 128.328 302.892C128.603 303.443 128.741 304.133 128.741 304.891C128.741 305.649 128.603 306.338 128.328 306.889C128.053 307.441 127.708 307.923 127.227 308.199C126.745 308.544 126.195 308.681 125.575 308.681C125.231 308.681 124.887 308.613 124.612 308.544C124.337 308.475 124.061 308.268 123.786 308.061C123.58 307.854 123.373 307.579 123.235 307.303V311.025H121.997V301.238H122.066ZM126.539 307.303C126.883 307.096 127.089 306.752 127.296 306.338C127.502 305.925 127.571 305.442 127.571 304.891C127.571 304.339 127.502 303.857 127.296 303.443C127.089 303.03 126.883 302.754 126.539 302.479C126.195 302.203 125.85 302.134 125.438 302.134C125.025 302.134 124.681 302.272 124.337 302.479C123.992 302.685 123.786 303.03 123.58 303.443C123.373 303.857 123.304 304.339 123.304 304.891C123.304 305.442 123.373 305.925 123.58 306.338C123.786 306.752 123.992 307.096 124.337 307.303C124.681 307.51 125.025 307.648 125.438 307.648C125.85 307.648 126.195 307.51 126.539 307.303Z" fill="#787878"/>
<path d="M131.493 308.268C131.011 307.923 130.599 307.51 130.323 306.958C130.048 306.407 129.91 305.718 129.91 304.96C129.91 304.202 130.048 303.512 130.323 302.961C130.599 302.41 131.011 301.927 131.493 301.583C131.975 301.238 132.594 301.1 133.214 301.1C133.833 301.1 134.452 301.238 134.934 301.583C135.416 301.927 135.76 302.341 136.035 302.892C136.31 303.443 136.448 304.064 136.448 304.822V305.304H130.53V304.339H135.828L135.209 305.235V304.753C135.209 304.202 135.14 303.719 134.934 303.306C134.727 302.892 134.521 302.685 134.246 302.479C133.97 302.272 133.626 302.203 133.214 302.203C132.801 302.203 132.457 302.272 132.181 302.479C131.906 302.685 131.631 302.961 131.424 303.306C131.218 303.65 131.149 304.133 131.149 304.684V305.166C131.149 305.718 131.218 306.131 131.424 306.476C131.631 306.821 131.837 307.096 132.181 307.303C132.525 307.51 132.869 307.579 133.351 307.579C133.695 307.579 133.97 307.51 134.177 307.441C134.383 307.372 134.659 307.234 134.796 307.027C134.934 306.821 135.072 306.683 135.14 306.476V306.407H136.379V306.476C136.31 306.752 136.173 307.027 136.035 307.303C135.897 307.579 135.622 307.785 135.347 307.992C135.072 308.199 134.796 308.337 134.452 308.475C134.108 308.613 133.764 308.613 133.351 308.613C132.663 308.681 132.044 308.544 131.493 308.268Z" fill="#787878"/>
<path d="M139.063 308.475C138.65 308.337 138.306 308.061 138.031 307.785C137.756 307.51 137.618 307.165 137.549 306.752V306.683H138.788V306.752C138.857 307.027 139.063 307.303 139.338 307.441C139.614 307.579 139.958 307.717 140.439 307.717C140.921 307.717 141.334 307.579 141.678 307.372C142.022 307.165 142.16 306.889 142.16 306.476C142.16 306.062 142.022 305.787 141.747 305.58C141.472 305.373 141.059 305.304 140.508 305.304H139.407V304.271H140.508C140.99 304.271 141.334 304.202 141.609 303.995C141.884 303.788 141.953 303.512 141.953 303.168C141.953 302.823 141.816 302.547 141.609 302.341C141.403 302.134 141.059 302.065 140.577 302.065C140.164 302.065 139.82 302.134 139.545 302.341C139.269 302.547 139.063 302.754 139.063 303.03V303.099H137.893V303.03C137.962 302.616 138.1 302.272 138.375 301.996C138.65 301.72 138.925 301.445 139.338 301.307C139.751 301.169 140.164 301.1 140.715 301.1C141.265 301.1 141.678 301.169 142.091 301.376C142.504 301.583 142.779 301.789 142.985 302.065C143.192 302.341 143.33 302.754 143.33 303.168C143.33 303.581 143.192 303.926 142.985 304.202C142.779 304.477 142.435 304.684 142.091 304.753V304.822C142.435 304.891 142.641 305.029 142.917 305.166C143.123 305.304 143.33 305.511 143.398 305.718C143.467 305.925 143.536 306.2 143.536 306.476C143.536 306.958 143.398 307.303 143.192 307.648C142.985 307.992 142.641 308.268 142.16 308.475C141.678 308.681 141.196 308.75 140.646 308.75C139.958 308.681 139.476 308.613 139.063 308.475Z" fill="#787878"/>
<path d="M146.082 308.268C145.6 307.923 145.187 307.51 144.912 306.958C144.637 306.407 144.499 305.718 144.499 304.96C144.499 304.202 144.637 303.512 144.912 302.961C145.187 302.41 145.6 301.927 146.082 301.583C146.564 301.238 147.183 301.1 147.802 301.1C148.422 301.1 149.041 301.238 149.523 301.583C150.004 301.927 150.349 302.341 150.624 302.892C150.899 303.443 151.037 304.064 151.037 304.822V305.304H145.119V304.339H150.417L149.798 305.235V304.753C149.798 304.202 149.729 303.719 149.523 303.306C149.316 302.892 149.11 302.685 148.835 302.479C148.559 302.272 148.215 302.203 147.802 302.203C147.389 302.203 147.045 302.272 146.77 302.479C146.495 302.685 146.22 302.961 146.013 303.306C145.807 303.65 145.738 304.133 145.738 304.684V305.166C145.738 305.718 145.807 306.131 146.013 306.476C146.22 306.821 146.426 307.096 146.77 307.303C147.114 307.51 147.458 307.579 147.94 307.579C148.284 307.579 148.559 307.51 148.766 307.441C148.972 307.372 149.247 307.234 149.385 307.027C149.523 306.821 149.66 306.683 149.729 306.476V306.407H150.968V306.476C150.899 306.752 150.761 307.027 150.624 307.303C150.486 307.579 150.211 307.785 149.936 307.992C149.66 308.199 149.385 308.337 149.041 308.475C148.697 308.613 148.353 308.613 147.94 308.613C147.183 308.681 146.633 308.544 146.082 308.268Z" fill="#787878"/>
<path d="M152.55 301.238H153.789V302.479C153.927 302.203 154.133 301.927 154.34 301.72C154.546 301.514 154.821 301.376 155.097 301.238C155.372 301.1 155.716 301.1 156.06 301.1C156.679 301.1 157.23 301.238 157.712 301.583C158.193 301.927 158.537 302.341 158.813 302.892C159.088 303.443 159.226 304.133 159.226 304.891C159.226 305.649 159.088 306.338 158.813 306.889C158.537 307.441 158.193 307.923 157.712 308.199C157.23 308.544 156.679 308.681 156.06 308.681C155.716 308.681 155.372 308.613 155.097 308.544C154.821 308.475 154.546 308.268 154.271 308.061C154.064 307.854 153.858 307.579 153.72 307.303V311.025H152.482V301.238H152.55ZM157.023 307.303C157.368 307.096 157.574 306.752 157.78 306.338C157.987 305.925 158.056 305.442 158.056 304.891C158.056 304.339 157.987 303.857 157.78 303.443C157.574 303.03 157.368 302.754 157.023 302.479C156.679 302.203 156.335 302.134 155.922 302.134C155.51 302.134 155.165 302.272 154.821 302.479C154.477 302.685 154.271 303.03 154.064 303.443C153.858 303.857 153.789 304.339 153.789 304.891C153.789 305.442 153.858 305.925 154.064 306.338C154.271 306.752 154.477 307.096 154.821 307.303C155.165 307.51 155.51 307.648 155.922 307.648C156.335 307.648 156.748 307.51 157.023 307.303Z" fill="#787878"/>
<path d="M160.808 301.238H163.974C164.662 301.238 165.212 301.376 165.625 301.72C166.038 302.065 166.245 302.547 166.245 303.099C166.245 303.443 166.107 303.788 165.901 304.133C165.694 304.408 165.35 304.615 165.075 304.684V304.753C165.419 304.822 165.625 304.891 165.901 305.029C166.176 305.166 166.314 305.373 166.451 305.58C166.589 305.787 166.658 306.062 166.658 306.407C166.658 307.027 166.451 307.579 165.969 307.923C165.488 308.337 164.937 308.475 164.111 308.475H160.946V301.238H160.808ZM163.561 304.27C164.043 304.27 164.387 304.202 164.593 303.995C164.8 303.788 164.937 303.581 164.937 303.237C164.937 302.892 164.868 302.685 164.662 302.479C164.456 302.341 164.18 302.203 163.767 302.203H162.047V304.27H163.561ZM163.836 307.579C164.249 307.579 164.593 307.51 164.868 307.303C165.075 307.096 165.213 306.821 165.213 306.476C165.213 306.131 165.075 305.787 164.8 305.649C164.524 305.442 164.111 305.373 163.63 305.373H162.047V307.648H163.836V307.579Z" fill="#787878"/>
<path d="M172.851 305.304H169.273V308.612H168.034V301.238H169.273V304.27H172.851V301.238H174.09V308.612H172.851V305.304Z" fill="#787878"/>
<path d="M175.948 301.238H177.186V303.581H178.563C179.388 303.581 180.077 303.788 180.558 304.27C181.04 304.753 181.315 305.304 181.315 306.062C181.315 306.821 181.04 307.441 180.558 307.854C180.077 308.268 179.388 308.544 178.563 308.544H175.948V301.238ZM177.186 304.615V307.579H178.563C179.044 307.579 179.388 307.441 179.664 307.165C179.939 306.889 180.077 306.545 180.077 306.062C180.077 305.649 179.939 305.235 179.664 304.96C179.388 304.684 179.044 304.546 178.563 304.546H177.186V304.615ZM182.279 301.238H183.517V308.612H182.279V301.238Z" fill="#787878"/>
<path d="M185.375 301.238H186.614V306.683H187.233L186.407 307.165L190.399 301.238H191.637V308.612H190.399V303.168H189.779L190.605 302.685L186.614 308.612H185.375V301.238ZM187.371 300.135C187.027 299.928 186.82 299.722 186.614 299.446C186.407 299.17 186.339 298.826 186.339 298.412H187.371V298.481C187.371 298.826 187.44 299.101 187.646 299.308C187.853 299.515 188.128 299.653 188.472 299.653C188.816 299.653 189.091 299.515 189.298 299.308C189.504 299.101 189.573 298.826 189.573 298.481V298.412H190.605C190.605 298.757 190.536 299.101 190.33 299.446C190.192 299.722 189.917 299.997 189.573 300.135C189.229 300.273 188.885 300.411 188.403 300.411C188.059 300.411 187.715 300.273 187.371 300.135Z" fill="#787878"/>
<path d="M197.762 308.268C197.28 307.923 196.867 307.51 196.592 306.958C196.317 306.407 196.179 305.718 196.179 304.96C196.179 304.202 196.317 303.512 196.592 302.961C196.867 302.41 197.28 301.927 197.762 301.652C198.244 301.376 198.863 301.169 199.551 301.169C200.17 301.169 200.721 301.307 201.134 301.514C201.547 301.72 201.891 302.065 202.166 302.41C202.441 302.754 202.579 303.168 202.648 303.581V303.65H201.478V303.581C201.409 303.237 201.203 302.892 200.859 302.616C200.583 302.341 200.102 302.203 199.62 302.203C199.207 302.203 198.794 302.341 198.519 302.547C198.244 302.754 197.968 303.099 197.762 303.512C197.555 303.926 197.487 304.408 197.487 304.96C197.487 305.511 197.555 305.994 197.762 306.407C197.968 306.821 198.175 307.096 198.519 307.372C198.863 307.579 199.207 307.717 199.62 307.717C200.102 307.717 200.515 307.579 200.859 307.303C201.203 307.027 201.409 306.683 201.478 306.269V306.2H202.717V306.269C202.648 306.752 202.51 307.165 202.235 307.51C201.96 307.854 201.616 308.199 201.203 308.406C200.79 308.613 200.239 308.75 199.689 308.75C198.863 308.681 198.244 308.544 197.762 308.268Z" fill="#787878"/>
<path d="M208.359 308.544V305.304C208.153 305.511 207.878 305.649 207.534 305.787C207.19 305.925 206.845 305.925 206.501 305.925C205.607 305.925 204.987 305.718 204.506 305.235C204.024 304.753 203.818 304.133 203.818 303.375V301.169H205.056V303.237C205.056 303.788 205.194 304.133 205.469 304.408C205.744 304.684 206.157 304.822 206.708 304.822C207.052 304.822 207.327 304.753 207.671 304.684C208.015 304.615 208.222 304.477 208.359 304.27V301.169H209.598V308.544H208.359Z" fill="#787878"/>
<path d="M212.695 308.268C212.213 307.923 211.8 307.51 211.525 306.958C211.25 306.407 211.112 305.718 211.112 304.96C211.112 304.202 211.25 303.512 211.525 302.961C211.8 302.41 212.213 301.927 212.695 301.583C213.176 301.238 213.796 301.1 214.415 301.1C215.034 301.1 215.654 301.238 216.136 301.583C216.617 301.927 216.961 302.341 217.237 302.892C217.512 303.443 217.649 304.064 217.649 304.822V305.304H211.731V304.339H217.03L216.411 305.235V304.753C216.411 304.202 216.342 303.719 216.136 303.306C215.929 302.892 215.723 302.685 215.447 302.479C215.172 302.272 214.828 302.203 214.415 302.203C214.002 302.203 213.658 302.272 213.383 302.479C213.108 302.685 212.832 302.961 212.626 303.306C212.42 303.65 212.351 304.133 212.351 304.684V305.166C212.351 305.718 212.42 306.131 212.626 306.476C212.832 306.821 213.039 307.096 213.383 307.303C213.727 307.51 214.071 307.579 214.553 307.579C214.897 307.579 215.172 307.51 215.379 307.441C215.585 307.372 215.86 307.234 215.998 307.027C216.136 306.821 216.273 306.683 216.342 306.476V306.407H217.581V306.476C217.512 306.752 217.374 307.027 217.237 307.303C217.099 307.579 216.824 307.785 216.548 307.992C216.273 308.199 215.998 308.337 215.654 308.475C215.31 308.613 214.966 308.613 214.553 308.613C213.865 308.681 213.245 308.544 212.695 308.268ZM212.695 299.791C212.557 299.653 212.488 299.515 212.488 299.308C212.488 299.101 212.557 298.964 212.695 298.826C212.832 298.688 212.97 298.619 213.177 298.619C213.383 298.619 213.521 298.688 213.658 298.826C213.796 298.964 213.865 299.101 213.865 299.308C213.865 299.515 213.796 299.653 213.658 299.791C213.521 299.929 213.383 299.997 213.177 299.997C212.97 299.997 212.832 299.929 212.695 299.791ZM215.31 299.791C215.172 299.653 215.103 299.515 215.103 299.308C215.103 299.101 215.172 298.964 215.31 298.826C215.447 298.688 215.585 298.619 215.791 298.619C215.998 298.619 216.136 298.688 216.273 298.826C216.411 298.964 216.48 299.101 216.48 299.308C216.48 299.515 216.411 299.653 216.273 299.791C216.136 299.929 215.998 299.997 215.791 299.997C215.585 299.997 215.447 299.929 215.31 299.791Z" fill="#787878"/>
<path d="M224.462 302.272H222.122V308.612H220.884V302.272H218.544V301.238H224.531V302.272H224.462Z" fill="#787878"/>
<path d="M224.669 308.406C224.531 308.268 224.462 308.061 224.462 307.854C224.462 307.648 224.531 307.441 224.669 307.303C224.806 307.165 225.013 307.096 225.219 307.096C225.426 307.096 225.632 307.165 225.77 307.303C225.907 307.441 225.976 307.648 225.976 307.854C225.976 308.061 225.907 308.268 225.77 308.406C225.632 308.544 225.426 308.613 225.219 308.613C225.013 308.613 224.806 308.613 224.669 308.406Z" fill="#787878"/>
<path d="M62.4719 325.912V316.883H57.0355V325.912H55.7969V315.711H63.7794V325.912H62.4719Z" fill="#787878"/>
<path d="M67.0136 325.636C66.5319 325.291 66.1191 324.878 65.8438 324.326C65.5685 323.775 65.4309 323.086 65.4309 322.328C65.4309 321.57 65.5685 320.88 65.8438 320.329C66.1191 319.778 66.5319 319.295 67.0136 319.019C67.4954 318.744 68.1147 318.537 68.8028 318.537C69.491 318.537 70.0415 318.675 70.592 319.019C71.0737 319.295 71.4866 319.778 71.7619 320.329C72.0371 320.88 72.1748 321.57 72.1748 322.328C72.1748 323.086 72.0371 323.775 71.7619 324.326C71.4866 324.878 71.0737 325.36 70.592 325.636C70.1103 325.98 69.491 326.118 68.8028 326.118C68.1147 326.118 67.4954 325.912 67.0136 325.636ZM69.9039 324.671C70.2479 324.464 70.4544 324.12 70.6608 323.706C70.8673 323.293 70.9361 322.81 70.9361 322.259C70.9361 321.707 70.8673 321.225 70.6608 320.811C70.4544 320.398 70.2479 320.122 69.9039 319.915C69.5598 319.709 69.2157 319.571 68.8028 319.571C68.3899 319.571 67.9771 319.709 67.7018 319.915C67.4265 320.122 67.1513 320.467 66.9448 320.811C66.7384 321.156 66.6008 321.707 66.6008 322.259C66.6008 322.81 66.6696 323.293 66.876 323.706C67.0825 324.12 67.2889 324.395 67.633 324.671C67.9771 324.947 68.3211 325.016 68.734 325.016C69.1469 325.016 69.5598 324.878 69.9039 324.671Z" fill="#787878"/>
<path d="M72.863 327.979V324.947H73.4824C73.7576 324.74 73.9641 324.464 74.1017 324.051C74.2393 323.637 74.3082 323.155 74.377 322.672L74.6522 318.606H79.6757V324.947H80.8456V327.979H79.6757V325.981H73.9641V327.979H72.863ZM78.437 319.64H75.6844L75.478 322.741C75.478 323.224 75.4092 323.637 75.2716 323.982C75.1339 324.326 75.0651 324.671 74.8587 324.878H78.437V319.64Z" fill="#787878"/>
<path d="M82.2219 318.606H83.4606V319.847C83.5982 319.571 83.8046 319.295 84.0111 319.088C84.2175 318.882 84.4928 318.744 84.768 318.606C85.0433 318.468 85.3874 318.468 85.7315 318.468C86.3508 318.468 86.9013 318.606 87.383 318.951C87.8647 319.295 88.2088 319.709 88.484 320.26C88.7593 320.811 88.8969 321.501 88.8969 322.259C88.8969 323.017 88.7593 323.706 88.484 324.257C88.2088 324.809 87.8647 325.291 87.383 325.567C86.9013 325.912 86.3508 326.049 85.7315 326.049C85.3874 326.049 85.0433 325.98 84.768 325.912C84.4928 325.843 84.2175 325.636 83.9423 325.429C83.7358 325.222 83.5294 324.947 83.3917 324.671V328.393H82.1531V318.606H82.2219ZM86.6949 324.671C87.0389 324.464 87.2454 324.12 87.4518 323.706C87.6583 323.293 87.7271 322.81 87.7271 322.259C87.7271 321.707 87.6583 321.225 87.4518 320.811C87.2454 320.398 87.0389 320.122 86.6949 319.847C86.3508 319.571 86.0067 319.502 85.5938 319.502C85.1809 319.502 84.8369 319.64 84.4928 319.847C84.1487 320.053 83.9423 320.398 83.7358 320.811C83.5294 321.225 83.4606 321.707 83.4606 322.259C83.4606 322.81 83.5294 323.293 83.7358 323.706C83.9423 324.12 84.1487 324.464 84.4928 324.671C84.8369 324.878 85.1809 325.016 85.5938 325.016C86.0067 325.016 86.3508 324.878 86.6949 324.671Z" fill="#787878"/>
<path d="M91.7182 325.636C91.2365 325.291 90.8237 324.878 90.5484 324.326C90.2731 323.775 90.1355 323.086 90.1355 322.328C90.1355 321.57 90.2731 320.88 90.5484 320.329C90.8237 319.778 91.2365 319.295 91.7182 319.019C92.1999 318.744 92.8193 318.537 93.5074 318.537C94.1956 318.537 94.7461 318.675 95.2966 319.019C95.7783 319.295 96.1912 319.778 96.4665 320.329C96.7417 320.88 96.8794 321.57 96.8794 322.328C96.8794 323.086 96.7417 323.775 96.4665 324.326C96.1912 324.878 95.7783 325.36 95.2966 325.636C94.8149 325.912 94.1956 326.118 93.5074 326.118C92.8193 326.118 92.2688 325.912 91.7182 325.636ZM94.6085 324.671C94.9525 324.464 95.159 324.12 95.3654 323.706C95.5719 323.293 95.6407 322.81 95.6407 322.259C95.6407 321.707 95.5719 321.225 95.3654 320.811C95.159 320.398 94.9525 320.122 94.6085 319.915C94.2644 319.709 93.9203 319.571 93.5074 319.571C93.0945 319.571 92.6816 319.709 92.4064 319.915C92.1311 320.122 91.8559 320.467 91.6494 320.811C91.443 321.156 91.3742 321.707 91.3742 322.259C91.3742 322.81 91.443 323.293 91.6494 323.706C91.8559 324.12 92.0623 324.395 92.4064 324.671C92.7505 324.947 93.0945 325.016 93.5074 325.016C93.9203 325.016 94.3332 324.878 94.6085 324.671Z" fill="#787878"/>
<path d="M99.0125 324.947C98.462 324.189 98.1179 323.086 98.1179 321.638C98.1179 320.26 98.2555 319.157 98.5308 318.33C98.8061 317.503 99.219 316.883 99.7695 316.469C100.32 316.056 101.077 315.849 102.04 315.78H102.591C102.935 315.78 103.279 315.711 103.623 315.642C103.967 315.573 104.242 315.505 104.449 315.367V316.469C104.311 316.607 104.105 316.676 103.761 316.745C103.417 316.814 103.004 316.883 102.591 316.883H102.04C101.352 316.883 100.871 317.021 100.458 317.228C100.045 317.434 99.7695 317.779 99.563 318.192C99.3566 318.606 99.219 319.226 99.0813 319.915V319.984C99.3566 319.571 99.7007 319.226 100.114 319.019C100.526 318.813 101.077 318.675 101.627 318.675C102.316 318.675 102.866 318.813 103.348 319.088C103.83 319.364 104.174 319.778 104.449 320.329C104.724 320.88 104.862 321.501 104.862 322.259C104.862 323.017 104.724 323.706 104.449 324.257C104.174 324.809 103.761 325.222 103.279 325.567C102.797 325.843 102.178 326.049 101.421 326.049C100.458 326.049 99.563 325.705 99.0125 324.947ZM102.729 324.671C103.073 324.464 103.279 324.189 103.485 323.775C103.623 323.361 103.761 322.879 103.761 322.328C103.761 321.776 103.692 321.363 103.485 320.949C103.348 320.605 103.073 320.26 102.729 320.122C102.384 319.984 102.04 319.847 101.559 319.847C101.077 319.847 100.733 319.915 100.389 320.122C100.045 320.329 99.8383 320.605 99.6318 320.949C99.4942 321.294 99.3566 321.776 99.3566 322.328C99.3566 322.879 99.4254 323.361 99.6318 323.775C99.7695 324.189 100.045 324.464 100.389 324.671C100.733 324.878 101.077 325.016 101.559 325.016C102.04 325.016 102.453 324.878 102.729 324.671Z" fill="#787878"/>
<path d="M111.33 322.672H107.752V325.981H106.513V318.606H107.752V321.639H111.33V318.606H112.569V325.981H111.33V322.672Z" fill="#787878"/>
<path d="M115.666 325.636C115.184 325.291 114.771 324.878 114.496 324.326C114.221 323.775 114.083 323.086 114.083 322.328C114.083 321.57 114.221 320.88 114.496 320.329C114.771 319.778 115.184 319.295 115.666 318.951C116.147 318.606 116.767 318.468 117.386 318.468C118.005 318.468 118.625 318.606 119.106 318.951C119.588 319.295 119.932 319.709 120.208 320.26C120.483 320.811 120.62 321.432 120.62 322.19V322.672H114.702V321.707H120.001L119.382 322.603V322.121C119.382 321.57 119.313 321.087 119.106 320.674C118.9 320.26 118.694 320.053 118.418 319.847C118.143 319.64 117.799 319.571 117.386 319.571C116.973 319.571 116.629 319.64 116.354 319.847C116.079 320.053 115.803 320.329 115.597 320.674C115.39 321.018 115.322 321.501 115.322 322.052V322.534C115.322 323.086 115.39 323.499 115.597 323.844C115.803 324.189 116.01 324.464 116.354 324.671C116.698 324.878 117.042 324.947 117.524 324.947C117.868 324.947 118.143 324.878 118.35 324.809C118.556 324.74 118.831 324.602 118.969 324.395C119.106 324.189 119.244 324.051 119.313 323.844V323.775H120.552V323.844C120.483 324.12 120.345 324.395 120.208 324.671C120.07 324.947 119.795 325.153 119.519 325.36C119.244 325.567 118.969 325.705 118.625 325.843C118.281 325.98 117.937 325.98 117.524 325.98C116.767 326.049 116.147 325.912 115.666 325.636Z" fill="#787878"/>
<path d="M123.373 325.636C122.891 325.291 122.478 324.878 122.203 324.326C121.928 323.775 121.79 323.086 121.79 322.328C121.79 321.57 121.928 320.88 122.203 320.329C122.478 319.778 122.891 319.295 123.373 318.951C123.855 318.606 124.474 318.468 125.093 318.468C125.713 318.468 126.332 318.606 126.814 318.951C127.295 319.295 127.64 319.709 127.915 320.26C128.19 320.811 128.328 321.432 128.328 322.19V322.672H122.41V321.707H127.708L127.089 322.603V322.121C127.089 321.57 127.02 321.087 126.814 320.674C126.607 320.26 126.401 320.053 126.126 319.847C125.85 319.64 125.506 319.571 125.093 319.571C124.681 319.571 124.336 319.64 124.061 319.847C123.786 320.053 123.511 320.329 123.304 320.674C123.098 321.018 123.029 321.501 123.029 322.052V322.534C123.029 323.086 123.098 323.499 123.304 323.844C123.511 324.189 123.717 324.464 124.061 324.671C124.405 324.878 124.749 324.947 125.231 324.947C125.575 324.947 125.85 324.878 126.057 324.809C126.263 324.74 126.539 324.602 126.676 324.395C126.814 324.189 126.951 324.051 127.02 323.844V323.775H128.259V323.844C128.19 324.12 128.052 324.395 127.915 324.671C127.777 324.947 127.502 325.153 127.227 325.36C126.951 325.567 126.676 325.705 126.332 325.843C125.988 325.98 125.644 325.98 125.231 325.98C124.543 326.049 123.924 325.912 123.373 325.636Z" fill="#787878"/>
<path d="M133.764 325.774C133.42 325.567 133.145 325.36 132.938 325.016C132.732 324.671 132.663 324.326 132.663 323.844C132.663 323.224 132.87 322.741 133.351 322.328C133.833 321.914 134.452 321.776 135.347 321.707L138.031 321.57V322.534L135.484 322.672C135.003 322.672 134.59 322.81 134.315 323.017C134.039 323.224 133.902 323.499 133.902 323.844C133.902 324.189 134.039 324.464 134.315 324.671C134.59 324.878 134.934 325.016 135.347 325.016C135.76 325.016 136.104 324.947 136.379 324.74C136.654 324.602 136.93 324.326 137.136 324.051C137.342 323.775 137.411 323.43 137.411 323.086V320.949C137.411 320.536 137.274 320.122 136.998 319.915C136.723 319.709 136.31 319.502 135.829 319.502C135.347 319.502 135.003 319.571 134.659 319.778C134.383 319.984 134.177 320.26 134.108 320.605V320.674H132.938V320.605C133.007 320.191 133.145 319.847 133.351 319.502C133.558 319.157 133.902 318.882 134.315 318.744C134.728 318.606 135.209 318.468 135.829 318.468C136.379 318.468 136.93 318.537 137.342 318.744C137.755 318.951 138.099 319.226 138.306 319.571C138.512 319.915 138.65 320.329 138.65 320.88V325.98H137.411V324.809C137.274 325.085 137.067 325.291 136.861 325.498C136.654 325.705 136.379 325.843 136.035 325.98C135.76 326.118 135.416 326.118 135.072 326.118C134.59 326.049 134.177 325.98 133.764 325.774Z" fill="#0071B2"/>
<path d="M140.302 315.711H141.54V325.912H140.302V315.711Z" fill="#0071B2"/>
<path d="M143.605 319.64H142.573V318.606H143.605V317.71C143.605 317.021 143.742 316.469 144.086 316.125C144.431 315.78 144.912 315.642 145.6 315.642C145.738 315.642 145.876 315.642 146.013 315.642C146.151 315.642 146.289 315.642 146.357 315.711V316.676C146.289 316.676 146.22 316.676 146.082 316.676C146.013 316.676 145.876 316.676 145.807 316.676C145.463 316.676 145.187 316.745 145.05 316.952C144.912 317.159 144.775 317.365 144.775 317.779V318.675H146.289V319.709H144.775V326.049H143.536V319.64H143.605Z" fill="#0071B2"/>
<path d="M148.284 325.774C147.94 325.567 147.665 325.36 147.458 325.016C147.252 324.671 147.183 324.326 147.183 323.844C147.183 323.224 147.39 322.741 147.871 322.328C148.353 321.914 148.972 321.776 149.867 321.707L152.551 321.57V322.534L150.005 322.672C149.523 322.672 149.11 322.81 148.835 323.017C148.559 323.224 148.422 323.499 148.422 323.844C148.422 324.189 148.559 324.464 148.835 324.671C149.11 324.878 149.454 325.016 149.867 325.016C150.28 325.016 150.624 324.947 150.899 324.74C151.174 324.602 151.45 324.326 151.656 324.051C151.863 323.775 151.931 323.43 151.931 323.086V320.949C151.931 320.536 151.794 320.122 151.518 319.915C151.243 319.709 150.83 319.502 150.349 319.502C149.867 319.502 149.523 319.571 149.179 319.778C148.903 319.984 148.697 320.26 148.628 320.605V320.674H147.458V320.605C147.527 320.191 147.665 319.847 147.871 319.502C148.078 319.157 148.422 318.882 148.835 318.744C149.248 318.606 149.729 318.468 150.349 318.468C150.899 318.468 151.45 318.537 151.863 318.744C152.275 318.951 152.619 319.226 152.826 319.571C153.032 319.915 153.17 320.329 153.17 320.88V325.98H151.931V324.809C151.794 325.085 151.587 325.291 151.381 325.498C151.174 325.705 150.899 325.843 150.555 325.98C150.28 326.118 149.936 326.118 149.592 326.118C149.041 326.049 148.628 325.98 148.284 325.774Z" fill="#0071B2"/>
<path d="M156.955 325.705C156.542 325.429 156.267 325.153 155.991 324.671V325.912H154.753V315.711H155.991V319.778C156.198 319.364 156.542 319.019 156.955 318.744C157.368 318.468 157.849 318.399 158.331 318.399C158.95 318.399 159.501 318.537 159.983 318.882C160.464 319.226 160.808 319.64 161.084 320.191C161.359 320.743 161.497 321.432 161.497 322.19C161.497 322.948 161.359 323.637 161.084 324.189C160.808 324.74 160.464 325.222 159.983 325.498C159.501 325.774 158.95 325.98 158.331 325.98C157.781 326.049 157.368 325.98 156.955 325.705ZM159.226 324.671C159.57 324.464 159.776 324.12 159.983 323.706C160.189 323.293 160.258 322.81 160.258 322.259C160.258 321.707 160.189 321.225 159.983 320.811C159.776 320.398 159.57 320.122 159.226 319.847C158.882 319.571 158.537 319.502 158.125 319.502C157.712 319.502 157.368 319.64 157.024 319.847C156.679 320.053 156.473 320.398 156.267 320.811C156.06 321.225 155.991 321.707 155.991 322.259C155.991 322.81 156.06 323.293 156.267 323.706C156.473 324.12 156.679 324.464 157.024 324.671C157.368 324.878 157.712 325.016 158.125 325.016C158.537 325.016 158.882 324.878 159.226 324.671Z" fill="#0071B2"/>
<path d="M163.561 325.774C163.217 325.567 162.942 325.36 162.735 325.016C162.529 324.671 162.46 324.326 162.46 323.844C162.46 323.224 162.666 322.741 163.148 322.328C163.63 321.914 164.249 321.776 165.144 321.707L167.828 321.57V322.534L165.281 322.672C164.8 322.672 164.387 322.81 164.112 323.017C163.836 323.224 163.699 323.499 163.699 323.844C163.699 324.189 163.836 324.464 164.112 324.671C164.387 324.878 164.731 325.016 165.144 325.016C165.557 325.016 165.901 324.947 166.176 324.74C166.451 324.602 166.726 324.326 166.933 324.051C167.139 323.775 167.208 323.43 167.208 323.086V320.949C167.208 320.536 167.071 320.122 166.795 319.915C166.52 319.709 166.107 319.502 165.625 319.502C165.144 319.502 164.8 319.571 164.456 319.778C164.18 319.984 163.974 320.26 163.905 320.605V320.674H162.735V320.605C162.804 320.191 162.942 319.847 163.148 319.502C163.355 319.157 163.699 318.882 164.112 318.744C164.524 318.606 165.006 318.468 165.625 318.468C166.176 318.468 166.726 318.537 167.139 318.744C167.552 318.951 167.896 319.226 168.103 319.571C168.309 319.915 168.447 320.329 168.447 320.88V325.98H167.208V324.809C167.071 325.085 166.864 325.291 166.658 325.498C166.451 325.705 166.176 325.843 165.832 325.98C165.557 326.118 165.213 326.118 164.868 326.118C164.387 326.049 163.974 325.98 163.561 325.774Z" fill="#0071B2"/>
<path d="M170.03 318.606H171.268V319.64C171.475 319.295 171.75 319.02 172.163 318.813C172.576 318.606 172.989 318.468 173.539 318.468C174.365 318.468 174.984 318.744 175.397 319.226C175.81 319.709 176.085 320.398 176.085 321.225V325.98H174.847V321.432C174.847 320.811 174.709 320.398 174.434 320.053C174.158 319.709 173.746 319.571 173.195 319.571C172.782 319.571 172.507 319.64 172.163 319.847C171.819 320.053 171.681 320.26 171.475 320.605C171.268 320.949 171.268 321.294 171.268 321.707V326.049H170.03V318.606Z" fill="#0071B2"/>
<path d="M177.806 315.711H179.044V325.912H177.806V315.711ZM178.769 321.845H179.044L182.279 318.606H183.793L180.283 322.052H180.145L178.7 323.43V321.845H178.769ZM179.595 322.397L180.421 321.57L183.793 325.912H182.347L179.595 322.397Z" fill="#0071B2"/>
<path d="M183.792 321.225H188.334V322.397H183.792V321.225Z" fill="#0071B2"/>
<path d="M189.848 318.606H191.018V319.778C191.156 319.364 191.362 319.02 191.706 318.813C192.05 318.606 192.395 318.468 192.807 318.468C192.945 318.468 193.014 318.468 193.083 318.468C193.151 318.468 193.22 318.468 193.289 318.468V319.64C193.22 319.64 193.151 319.571 193.014 319.571C192.876 319.571 192.739 319.571 192.601 319.571C192.257 319.571 191.982 319.64 191.775 319.778C191.569 319.915 191.362 320.122 191.225 320.398C191.087 320.674 191.018 320.949 191.018 321.294V325.912H189.78V318.606H189.848Z" fill="#0071B2"/>
<path d="M195.422 325.636C194.941 325.291 194.528 324.878 194.252 324.326C193.977 323.775 193.84 323.086 193.84 322.328C193.84 321.57 193.977 320.88 194.252 320.329C194.528 319.778 194.941 319.295 195.422 318.951C195.904 318.606 196.523 318.468 197.143 318.468C197.762 318.468 198.381 318.606 198.863 318.951C199.345 319.295 199.689 319.709 199.964 320.26C200.239 320.811 200.377 321.432 200.377 322.19V322.672H194.459V321.707H199.758L199.138 322.603V322.121C199.138 321.57 199.07 321.087 198.863 320.674C198.657 320.26 198.45 320.053 198.175 319.847C197.9 319.64 197.556 319.571 197.143 319.571C196.73 319.571 196.386 319.64 196.11 319.847C195.835 320.053 195.56 320.329 195.354 320.674C195.147 321.018 195.078 321.501 195.078 322.052V322.534C195.078 323.086 195.147 323.499 195.354 323.844C195.56 324.189 195.766 324.464 196.11 324.671C196.455 324.878 196.799 324.947 197.28 324.947C197.624 324.947 197.9 324.878 198.106 324.809C198.313 324.74 198.588 324.602 198.725 324.395C198.863 324.189 199.001 324.051 199.07 323.844V323.775H200.308V323.844C200.239 324.12 200.102 324.395 199.964 324.671C199.827 324.947 199.551 325.153 199.276 325.36C199.001 325.567 198.725 325.705 198.381 325.843C198.037 325.98 197.693 325.98 197.28 325.98C196.592 326.049 195.973 325.912 195.422 325.636Z" fill="#0071B2"/>
<path d="M202.785 325.774C202.373 325.567 202.029 325.36 201.822 325.016C201.616 324.671 201.409 324.326 201.409 323.844V323.775H202.648V323.844C202.717 324.189 202.923 324.464 203.198 324.671C203.474 324.878 203.887 324.947 204.368 324.947C204.712 324.947 204.988 324.878 205.194 324.809C205.4 324.74 205.607 324.602 205.745 324.464C205.882 324.326 205.951 324.12 205.951 323.913C205.951 323.637 205.882 323.43 205.745 323.293C205.607 323.155 205.263 323.017 204.85 322.879L203.68 322.603C202.992 322.466 202.441 322.19 202.166 321.845C201.891 321.501 201.684 321.087 201.684 320.536C201.684 320.122 201.822 319.709 202.029 319.433C202.235 319.088 202.579 318.882 202.992 318.675C203.405 318.468 203.887 318.399 204.368 318.399C204.919 318.399 205.4 318.468 205.745 318.675C206.157 318.882 206.433 319.157 206.708 319.433C206.983 319.709 207.052 320.122 207.121 320.536V320.605H205.951V320.536C205.882 320.191 205.745 319.915 205.469 319.64C205.194 319.364 204.85 319.295 204.368 319.295C204.093 319.295 203.818 319.364 203.611 319.433C203.405 319.502 203.198 319.64 203.13 319.778C202.992 319.915 202.923 320.122 202.923 320.329C202.923 320.605 202.992 320.811 203.198 320.949C203.405 321.087 203.68 321.294 204.093 321.363L205.263 321.639C206.02 321.845 206.501 322.052 206.846 322.397C207.19 322.741 207.327 323.155 207.327 323.637C207.327 324.051 207.19 324.464 206.983 324.809C206.708 325.153 206.364 325.429 205.951 325.567C205.538 325.774 205.056 325.843 204.506 325.843C203.749 326.049 203.198 325.981 202.785 325.774Z" fill="#0071B2"/>
<path d="M209.667 325.636C209.185 325.291 208.772 324.878 208.497 324.326C208.222 323.775 208.084 323.086 208.084 322.328C208.084 321.57 208.222 320.88 208.497 320.329C208.772 319.778 209.185 319.295 209.667 318.951C210.149 318.606 210.768 318.468 211.387 318.468C212.007 318.468 212.626 318.606 213.108 318.951C213.589 319.295 213.933 319.709 214.209 320.26C214.484 320.811 214.622 321.432 214.622 322.19V322.672H208.704V321.707H214.002L213.383 322.603V322.121C213.383 321.57 213.314 321.087 213.108 320.674C212.901 320.26 212.695 320.053 212.42 319.847C212.144 319.64 211.8 319.571 211.387 319.571C210.974 319.571 210.63 319.64 210.355 319.847C210.08 320.053 209.805 320.329 209.598 320.674C209.392 321.018 209.323 321.501 209.323 322.052V322.534C209.323 323.086 209.392 323.499 209.598 323.844C209.805 324.189 210.011 324.464 210.355 324.671C210.699 324.878 211.043 324.947 211.525 324.947C211.869 324.947 212.144 324.878 212.351 324.809C212.557 324.74 212.832 324.602 212.97 324.395C213.108 324.189 213.245 324.051 213.314 323.844V323.775H214.553V323.844C214.484 324.12 214.346 324.395 214.209 324.671C214.071 324.947 213.796 325.153 213.521 325.36C213.245 325.567 212.97 325.705 212.626 325.843C212.282 325.98 211.938 325.98 211.525 325.98C210.768 326.049 210.149 325.912 209.667 325.636Z" fill="#0071B2"/>
<path d="M215.929 318.606H217.099V319.778C217.237 319.364 217.443 319.02 217.787 318.813C218.131 318.606 218.475 318.468 218.888 318.468C219.026 318.468 219.095 318.468 219.163 318.468C219.232 318.468 219.301 318.468 219.37 318.468V319.64C219.301 319.64 219.232 319.571 219.095 319.571C218.957 319.571 218.819 319.571 218.682 319.571C218.338 319.571 218.062 319.64 217.856 319.778C217.65 319.915 217.443 320.122 217.305 320.398C217.168 320.674 217.099 320.949 217.099 321.294V325.912H215.929V318.606Z" fill="#0071B2"/>
<path d="M220.127 318.606H221.434L223.43 324.671L225.494 318.606H226.802L224.118 325.981H222.81L220.127 318.606Z" fill="#0071B2"/>
<path d="M227.765 318.606H228.935V319.778C229.073 319.364 229.279 319.02 229.623 318.813C229.967 318.606 230.311 318.468 230.724 318.468C230.862 318.468 230.931 318.468 231 318.468C231.068 318.468 231.137 318.468 231.206 318.468V319.64C231.137 319.64 231.068 319.571 230.931 319.571C230.793 319.571 230.656 319.571 230.518 319.571C230.174 319.571 229.899 319.64 229.692 319.778C229.486 319.915 229.279 320.122 229.142 320.398C229.004 320.674 228.935 320.949 228.935 321.294V325.912H227.697V318.606H227.765Z" fill="#0071B2"/>
<path d="M233.477 325.774C233.064 325.567 232.789 325.222 232.582 324.809C232.376 324.395 232.307 323.913 232.307 323.361V318.606H233.546V323.155C233.546 323.775 233.683 324.189 233.958 324.533C234.234 324.878 234.647 325.016 235.197 325.016C235.61 325.016 235.885 324.947 236.229 324.74C236.573 324.533 236.711 324.326 236.917 323.982C237.124 323.637 237.124 323.293 237.124 322.879V318.537H238.363V325.912H237.124V324.878C236.917 325.222 236.642 325.498 236.298 325.705C235.954 325.912 235.472 326.049 234.922 326.049C234.303 326.049 233.821 325.98 233.477 325.774Z" fill="#0071B2"/>
<path d="M240.152 325.774C240.014 325.636 239.946 325.429 239.946 325.222C239.946 325.016 240.014 324.809 240.152 324.671C240.29 324.533 240.496 324.464 240.703 324.464C240.909 324.464 241.115 324.533 241.253 324.671C241.391 324.809 241.459 325.016 241.459 325.222C241.459 325.429 241.391 325.636 241.253 325.774C241.115 325.912 240.909 325.98 240.703 325.98C240.496 325.98 240.358 325.98 240.152 325.774Z" fill="#0071B2"/>
<path d="M243.18 318.606H244.35V319.778C244.487 319.364 244.694 319.02 245.038 318.813C245.382 318.606 245.726 318.468 246.139 318.468C246.276 318.468 246.345 318.468 246.414 318.468C246.483 318.468 246.552 318.468 246.62 318.468V319.64C246.552 319.64 246.483 319.571 246.345 319.571C246.208 319.571 246.07 319.571 245.932 319.571C245.588 319.571 245.313 319.64 245.106 319.778C244.9 319.915 244.694 320.122 244.556 320.398C244.418 320.674 244.35 320.949 244.35 321.294V325.912H243.111V318.606H243.18Z" fill="#0071B2"/>
<path d="M248.823 325.774C248.41 325.567 248.135 325.222 247.928 324.809C247.722 324.395 247.653 323.913 247.653 323.361V318.606H248.891V323.155C248.891 323.775 249.029 324.189 249.304 324.533C249.58 324.878 249.993 325.016 250.543 325.016C250.956 325.016 251.231 324.947 251.575 324.74C251.919 324.533 252.057 324.326 252.263 323.982C252.47 323.637 252.47 323.293 252.47 322.879V318.537H253.709V325.912H252.47V324.878C252.263 325.222 251.988 325.498 251.644 325.705C251.3 325.912 250.818 326.049 250.268 326.049C249.648 326.049 249.167 325.98 248.823 325.774Z" fill="#0071B2"/>
<path d="M132.113 328.531V327.704H254.603V328.531H132.113Z" fill="#0071B2"/>
</g>
<defs>
<clipPath id="clip0">
<rect width="252" height="106" fill="white" transform="translate(26 243)"/>
</clipPath>
</defs>
</svg>
