<svg width="167" height="167" viewBox="0 0 167 167" fill="none" xmlns="http://www.w3.org/2000/svg">
<circle cx="83.5" cy="83.5" r="83.5" fill="#EF3124"/>
<path d="M82.9445 115.169C72.1881 115.169 66.9762 108.801 65.7564 102.657H55C55.998 113.381 64.204 125 82.9445 125C100.576 125 111 115.616 111 101.986C111 89.4741 103.349 83.6649 97.4713 81.9891C102.129 79.9782 108.45 74.6158 108.45 64.7847C108.45 52.1608 99.1346 43 82.6119 43C65.5347 43 57.6614 54.5068 57.1069 64.673H67.7525C68.8614 58.0817 73.4079 52.7193 82.7228 52.7193C91.5941 52.7193 97.804 57.4114 97.804 65.2316C97.804 73.2752 92.703 77.7439 84.3861 77.7439H70.1921V87.5749H84.0535C94.2554 87.5749 100.133 92.4905 100.133 101.316C100.133 110.03 93.3683 115.169 82.9445 115.169Z" fill="white"/>
</svg>
