<svg width="28" height="28" viewBox="0 0 28 28" fill="none" xmlns="http://www.w3.org/2000/svg">
<path d="M13.9202 19.404C11.8832 19.404 10.8962 18.207 10.6652 17.052H8.62818C8.81718 19.068 10.3712 21.252 13.9202 21.252C17.2592 21.252 19.2332 19.488 19.2332 16.926C19.2332 14.574 17.7842 13.482 16.6712 13.167C17.5532 12.789 18.7502 11.781 18.7502 9.933C18.7502 7.56 16.9862 5.838 13.8572 5.838C10.6232 5.838 9.13218 8.001 9.02718 9.912H11.0432C11.2532 8.673 12.1142 7.665 13.8782 7.665C15.5582 7.665 16.7342 8.547 16.7342 10.017C16.7342 11.529 15.7682 12.369 14.1932 12.369H11.5052V14.217H14.1302C16.0622 14.217 17.1752 15.141 17.1752 16.8C17.1752 18.438 15.8942 19.404 13.9202 19.404Z" fill="white"/>
<circle cx="14" cy="14" r="13.5" stroke="white"/>
</svg>
