<svg width="167" height="167" viewBox="0 0 167 167" fill="none" xmlns="http://www.w3.org/2000/svg">
<circle cx="83.5" cy="83.5" r="82.5" stroke="white" stroke-width="2"/>
<path d="M80.6708 99.151H81.1708V98.651C81.1708 96.9831 81.3696 95.7378 81.9115 94.659C82.452 93.5828 83.3607 92.6193 84.8783 91.5685L93.1882 86.0065C93.1884 86.0064 93.1885 86.0063 93.1887 86.0062C97.6521 83.0417 101.235 80.1048 103.698 76.6226C106.172 73.126 107.5 69.1056 107.5 64.0111C107.5 57.4747 105.261 52.0785 101.084 48.3211C96.913 44.5693 90.8637 42.5 83.3268 42.5C76.0651 42.5 70.0998 44.7191 65.9469 48.7159C61.792 52.7147 59.5 58.4462 59.5 65.374V69.349V69.849H60H70.2776H70.7776V69.349V65.7147C70.7776 61.9571 71.9564 58.7366 74.0922 56.4598C76.2241 54.1873 79.3484 52.813 83.3268 52.813C87.274 52.813 90.3762 53.9488 92.4865 55.8895C94.5925 57.8263 95.7604 60.61 95.7604 64.0111C95.7604 69.8783 91.913 73.7224 86.8539 77.2282C86.8535 77.2284 86.8532 77.2287 86.8528 77.2289L78.543 82.9044C78.5429 82.9045 78.5427 82.9046 78.5425 82.9047C74.8401 85.4081 72.5647 87.362 71.234 89.5929C69.8934 91.8403 69.5467 94.308 69.5467 97.7424V98.651V99.151H70.0467H80.6708ZM68.1609 125V125.5H68.6609H82.0565H82.5565V125V108.873V108.373H82.0565H68.6609H68.1609V108.873V125Z" fill="white" stroke="white"/>
</svg>
