<svg width="97" height="88" viewBox="0 0 97 88" fill="none" xmlns="http://www.w3.org/2000/svg">
<path fill-rule="evenodd" clip-rule="evenodd" d="M10.5023 19.882C10.5387 20.4518 10.5571 21.0264 10.5571 21.6054V66.3953C10.5571 75.0477 6.43439 82.7372 0.0461884 87.6066H10.7881C14.3765 87.6066 17.7166 86.5429 20.5101 84.7136C23.8206 86.7957 27.7389 88 31.9386 88H75.504C87.3759 88 97 78.3759 97 66.504V21.496C97 9.62407 87.3759 0 75.504 0H31.9386C20.6096 0 11.3276 8.76396 10.5023 19.882Z" fill="white"/>
<path d="M51.7658 56.6403C51.7658 53.6662 52.5113 51.981 55.387 50.0974L63.0554 45.2399C71.2564 40.0849 76.0492 35.1282 76.0492 26.4045C76.0492 15.2023 67.9547 8.0647 54.2154 8.0647C41.0087 8.0647 32.7012 15.698 32.7012 27.5941V31.0637H42.1802V27.8915C42.1802 21.1504 46.6535 16.1937 54.2154 16.1937C61.6708 16.1937 66.1441 20.2582 66.1441 26.4045C66.1441 31.7577 62.4164 35.2274 57.7301 38.3005L50.0617 43.2572C43.2453 47.6191 41.9672 49.8992 41.9672 55.8472V56.6403H51.7658ZM40.6891 79.6393H53.0438V65.5623H40.6891V79.6393Z" fill="black"/>
</svg>
