<svg id="2cee420d-c3d8-4b89-a3e8-36c740fd1f6f" data-name="Слой 1" xmlns="http://www.w3.org/2000/svg" viewBox="0 0 135.01 74.1"><title>info_icon1</title><path d="M34.65,72.87V0H22L0,13.08V28.92L17.68,19V72.87ZM67.93,42c.82-1.43,3.38-5.32,9.82-5.32C84.59,36.69,89,41,89,47.73V48a10.79,10.79,0,0,1-11.24,11c-7.67,0-10.74-5.31-11.25-8.58H49.33c.31,11,8.59,23.61,28.42,23.61,17.88,0,28.31-11.24,28.31-26.27v-.41c0-15.33-10.33-24.63-23.31-24.63-7,0-11.65,2.76-14,5.42v-14H103.3V.31H52.81V42Z" style="fill:#fff"/><path d="M117.1,27.67h10.4L135,.41H120.8Z" style="fill:#fff"/><path d="M117.1,27.67h10.4L135,.41H120.8Z" style="fill:#fff"/></svg>