<svg width="2286" height="325" viewBox="0 0 2286 325" fill="none" xmlns="http://www.w3.org/2000/svg">
<path d="M149.32 319V5.27997H94.76L0.16 61.6V129.8L76.28 87.12V319H149.32ZM366.958 0.879978C292.598 0.879978 246.838 45.32 246.838 117.48V208.12C246.838 281.16 293.038 324.72 366.958 324.72C441.318 324.72 487.078 281.16 487.078 208.12V117.48C487.078 45.32 441.758 0.879978 366.958 0.879978ZM366.958 258.72C335.718 258.72 319.878 236.72 319.878 205.92V119.68C319.878 88.88 335.718 66.88 366.958 66.88C398.638 66.88 414.038 88.88 414.038 119.68V205.92C414.038 236.72 398.638 258.72 366.958 258.72ZM630.615 0.879978C556.255 0.879978 510.495 45.32 510.495 117.48V208.12C510.495 281.16 556.695 324.72 630.615 324.72C704.975 324.72 750.735 281.16 750.735 208.12V117.48C750.735 45.32 705.415 0.879978 630.615 0.879978ZM630.615 258.72C599.375 258.72 583.535 236.72 583.535 205.92V119.68C583.535 88.88 599.375 66.88 630.615 66.88C662.295 66.88 677.695 88.88 677.695 119.68V205.92C677.695 236.72 662.295 258.72 630.615 258.72ZM894.271 0.879978C819.911 0.879978 774.151 45.32 774.151 117.48V208.12C774.151 281.16 820.351 324.72 894.271 324.72C968.631 324.72 1014.39 281.16 1014.39 208.12V117.48C1014.39 45.32 969.071 0.879978 894.271 0.879978ZM894.271 258.72C863.031 258.72 847.191 236.72 847.191 205.92V119.68C847.191 88.88 863.031 66.88 894.271 66.88C925.951 66.88 941.351 88.88 941.351 119.68V205.92C941.351 236.72 925.951 258.72 894.271 258.72ZM1224.79 0.879978C1150.43 0.879978 1104.67 45.32 1104.67 117.48V208.12C1104.67 281.16 1150.87 324.72 1224.79 324.72C1299.15 324.72 1344.91 281.16 1344.91 208.12V117.48C1344.91 45.32 1299.59 0.879978 1224.79 0.879978ZM1224.79 258.72C1193.55 258.72 1177.71 236.72 1177.71 205.92V119.68C1177.71 88.88 1193.55 66.88 1224.79 66.88C1256.47 66.88 1271.87 88.88 1271.87 119.68V205.92C1271.87 236.72 1256.47 258.72 1224.79 258.72ZM1488.44 0.879978C1414.08 0.879978 1368.32 45.32 1368.32 117.48V208.12C1368.32 281.16 1414.52 324.72 1488.44 324.72C1562.8 324.72 1608.56 281.16 1608.56 208.12V117.48C1608.56 45.32 1563.24 0.879978 1488.44 0.879978ZM1488.44 258.72C1457.2 258.72 1441.36 236.72 1441.36 205.92V119.68C1441.36 88.88 1457.2 66.88 1488.44 66.88C1520.12 66.88 1535.52 88.88 1535.52 119.68V205.92C1535.52 236.72 1520.12 258.72 1488.44 258.72ZM1752.1 0.879978C1677.74 0.879978 1631.98 45.32 1631.98 117.48V208.12C1631.98 281.16 1678.18 324.72 1752.1 324.72C1826.46 324.72 1872.22 281.16 1872.22 208.12V117.48C1872.22 45.32 1826.9 0.879978 1752.1 0.879978ZM1752.1 258.72C1720.86 258.72 1705.02 236.72 1705.02 205.92V119.68C1705.02 88.88 1720.86 66.88 1752.1 66.88C1783.78 66.88 1799.18 88.88 1799.18 119.68V205.92C1799.18 236.72 1783.78 258.72 1752.1 258.72ZM1942.25 269.28H1994.17V319H2068.53V269.28H2224.29V221.32H2068.53V195.36H2173.25C2244.09 195.36 2285.01 163.24 2285.01 100.76C2285.01 41.36 2244.09 6.59998 2173.25 6.59998H1994.17V146.96H1942.25V194.92H1994.17V221.32H1942.25V269.28ZM2166.21 71.72C2194.81 71.72 2208.45 84.04 2208.45 106.92C2208.45 129.36 2194.37 143.44 2166.21 143.44H2068.53V71.72H2166.21Z" fill="white"/>
</svg>
