<svg id="Capa_1" data-name="Capa 1" xmlns="http://www.w3.org/2000/svg" viewBox="0 0 443.73 477.87"><defs><style>.cls-1{fill:#fff;}</style></defs><title>refresh</title><path class="cls-1" d="M392.53,0a17.06,17.06,0,0,0-17.06,17.07V79.41C287.6-5.66,147.41-3.39,62.34,84.48A221.44,221.44,0,0,0,0,238.93a17.07,17.07,0,1,0,34.13,0c0-103.68,84.09-187.71,187.77-187.69a187.75,187.75,0,0,1,138.45,61l-75.61,25.21a17.09,17.09,0,0,0,10.79,32.43l102.4-34.14a17.06,17.06,0,0,0,11.67-16.24V17.07A17.07,17.07,0,0,0,392.53,0Z"/><path class="cls-1" d="M426.67,221.87a17.06,17.06,0,0,0-17.07,17.06c0,103.69-84.09,187.72-187.77,187.7a187.73,187.73,0,0,1-138.44-61l75.6-25.2A17.09,17.09,0,0,0,148.21,308L45.81,342.15A17.08,17.08,0,0,0,34.13,358.4V460.8a17.07,17.07,0,1,0,34.14,0V398.46c87.86,85.06,228.05,82.79,313.12-5.07a221.45,221.45,0,0,0,62.34-154.46A17.06,17.06,0,0,0,426.67,221.87Z"/></svg>