<svg id="12757b03-5663-492c-a469-fa3e0053c9b3" data-name="Слой 1" xmlns="http://www.w3.org/2000/svg" viewBox="0 0 334 64.9"><title>tooltip_desktop</title><path d="M326,0H8A8,8,0,0,0,0,8V50a8,8,0,0,0,8,8H160l7,6.9,7-6.9H326a8,8,0,0,0,8-8V8A8,8,0,0,0,326,0Z" style="fill:#3a3a3c"/><path d="M44.55,24V14.14H43.32V18.4H37.9V14.14H36.67V24H37.9V19.51h5.42V24Zm5.51.12c2,0,3.29-1.41,3.29-3.67S52,16.77,50.06,16.77s-3.29,1.41-3.29,3.68S48.09,24.12,50.06,24.12Zm0-1c-1.26,0-2.08-1-2.08-2.63s.82-2.64,2.08-2.64,2.08,1,2.08,2.64S51.32,23.08,50.06,23.08Zm8.39.92c1.51,0,2.44-.79,2.44-2a1.61,1.61,0,0,0-1.49-1.63v-.06a1.57,1.57,0,0,0,1.17-1.54c0-1.14-.81-1.84-2.15-1.84h-3V24Zm-1.88-6.15h1.68c.74,0,1.15.36,1.15,1s-.44,1-1.33,1h-1.5Zm0,3h1.6c1,0,1.53.36,1.53,1.1S59.24,23,58.38,23H56.57ZM69,24h1.18V16.89H69Zm-3.58-3.86a1.44,1.44,0,1,1,0,2.88H64.14V20.14ZM63,24h2.52a2.43,2.43,0,1,0,0-4.84H64.14V16.89H63Zm10.8,0V19h0l2.29,4.83H77L79.3,19h0v5h1.18V16.89H79.14L76.6,22.43h0L74,16.89H72.57V24ZM88.9,20.25l3.31-3.36H90.74l-3,3.15h0V16.89H86.47V24h1.19V20.58h0L90.77,24H92.3Zm6.94.61.22-3h2.39V24h1.19V16.89H95l-.27,3.94c-.09,1.31-.36,2.14-1.06,2.14a1.13,1.13,0,0,1-.36-.06V24a1.19,1.19,0,0,0,.42.07C95.21,24.06,95.69,22.82,95.84,20.86ZM103.2,24l3.54-5.28h.05V24H108V16.89h-1.17l-3.55,5.28h-.05V16.89H102V24Zm10-6.2a1.9,1.9,0,0,1,1.89,2h-3.86A2,2,0,0,1,113.21,17.8ZM115.07,22a1.71,1.71,0,0,1-1.76,1.13,2,2,0,0,1-2.08-2.26v-.06h5.1v-.45c0-2.16-1.18-3.55-3.1-3.55S110,18.26,110,20.47s1.24,3.65,3.27,3.65a2.81,2.81,0,0,0,3-2.16Zm8,2h1.19V16.89H123v2.93h-3.48V16.89h-1.19V24h1.19V20.8H123Zm8.77-7.11H126v1h2.29V24h1.19V17.87h2.29Zm3.88,6.22c-.86,0-1.42-.44-1.42-1.12s.54-1.09,1.5-1.16l1.9-.11v.58A1.87,1.87,0,0,1,135.68,23.11Zm-.27,1a2.58,2.58,0,0,0,2.28-1.34h0V24h1.13V19.08c0-1.41-1-2.31-2.72-2.31s-2.73.94-2.82,2.17h1.15a1.49,1.49,0,0,1,1.64-1.13c1,0,1.56.52,1.56,1.39v.6l-2,.11c-1.64.1-2.57.86-2.57,2.08A2.13,2.13,0,0,0,135.41,24.12Zm7-.12V19h0l2.3,4.83h.91l2.3-4.83h0v5h1.19V16.89h-1.39l-2.54,5.54h-.06l-2.53-5.54h-1.44V24Zm13.89,0,3.54-5.28h.06V24h1.19V16.89h-1.18l-3.54,5.28h-.05V16.89h-1.19V24ZM168,17.87v-1h-4.58V24h1.19V17.87Zm5.45-1.1a2.56,2.56,0,0,0-2.3,1.32h0v-1.2H170v9.48h1.19V22.84h0a2.51,2.51,0,0,0,2.27,1.28c1.79,0,3-1.45,3-3.67S175.25,16.77,173.44,16.77Zm-.23,6.31c-1.22,0-2-1-2-2.63s.82-2.64,2-2.64,2,1,2,2.64S174.47,23.08,173.21,23.08Zm7.66,0c-.86,0-1.43-.44-1.43-1.12S180,20.9,181,20.83l1.9-.11v.58A1.87,1.87,0,0,1,180.87,23.11Zm-.27,1a2.58,2.58,0,0,0,2.28-1.34h0V24H184V19.08c0-1.41-1-2.31-2.72-2.31s-2.74.94-2.82,2.17h1.15a1.49,1.49,0,0,1,1.64-1.13c1,0,1.56.52,1.56,1.39v.6l-2,.11c-1.64.1-2.58.86-2.58,2.08A2.13,2.13,0,0,0,180.6,24.12Zm12.4,0c2.06,0,3.32-1.37,3.32-3.61S195.1,17,193.18,17a2.64,2.64,0,0,0-2.45,1.28h-.06c.29-2.13.88-3,2.85-3.07l.53,0a3.57,3.57,0,0,0,1.8-.42v-1a5.09,5.09,0,0,1-1.85.39l-.53,0c-2.76.1-3.8,1.73-3.8,5.66C189.67,22.66,190.82,24.12,193,24.12Zm0-1.05c-1.34,0-2.11-.92-2.11-2.56s.77-2.43,2.11-2.43,2.1.88,2.1,2.43S194.33,23.07,193,23.07Zm5.74,3.59c1.29,0,1.88-.5,2.49-2.16L204,16.89h-1.25l-2,5.92h0l-2-5.92h-1.27L200.16,24l-.16.5c-.27.82-.64,1.14-1.3,1.14a2.32,2.32,0,0,1-.47,0v1A2.85,2.85,0,0,0,198.74,26.66ZM210.23,23h-3.47V23a4.27,4.27,0,0,0,.59-2.11l.21-3h2.67Zm-4.31,2.86V24h5.51v1.88h1.11V23h-1.13V16.89h-4.89l-.28,3.94A2.89,2.89,0,0,1,205.4,23h-.59v2.86Zm11.24-8.08a1.9,1.9,0,0,1,1.9,2H215.2A2,2,0,0,1,217.16,17.8ZM219,22a1.72,1.72,0,0,1-1.76,1.13,2,2,0,0,1-2.08-2.26v-.06h5.1v-.45c0-2.16-1.18-3.55-3.11-3.55S214,18.26,214,20.47s1.23,3.65,3.27,3.65a2.82,2.82,0,0,0,3-2.16Zm8.22-5.07h-5.77v1h2.29V24H225V17.87h2.29ZM237.34,23h-3.47V23a4.17,4.17,0,0,0,.58-2.11l.22-3h2.67ZM233,25.88V24h5.51v1.88h1.11V23h-1.13V16.89h-4.89l-.28,3.94a2.89,2.89,0,0,1-.84,2.19h-.59v2.86Zm11.34-1.76c2,0,3.29-1.41,3.29-3.67s-1.33-3.68-3.29-3.68-3.3,1.41-3.3,3.68S242.4,24.12,244.37,24.12Zm0-1c-1.26,0-2.09-1-2.09-2.63s.83-2.64,2.09-2.64,2.08,1,2.08,2.64S245.63,23.08,244.37,23.08Zm11.23-3.86a2.82,2.82,0,0,0-3-2.45c-2,0-3.27,1.43-3.27,3.68s1.31,3.67,3.28,3.67a2.84,2.84,0,0,0,3-2.41h-1.17a1.72,1.72,0,0,1-1.81,1.37c-1.23,0-2.08-1-2.08-2.63s.83-2.64,2.06-2.64a1.75,1.75,0,0,1,1.82,1.41Zm7-2.33h-5.77v1h2.29V24h1.19V17.87h2.29Zm2.4,9.77c1.28,0,1.87-.5,2.48-2.16l2.8-7.61H269l-2,5.92h0l-2-5.92H263.8L266.43,24l-.16.5c-.28.82-.65,1.14-1.31,1.14a2.22,2.22,0,0,1-.46,0v1A2.71,2.71,0,0,0,265,26.66ZM276.65,24h1.2V16.89h-5.8V24h1.19V17.87h3.41Zm8.24,0h1.19V16.89h-1.19v2.93h-3.48V16.89h-1.19V24h1.19V20.8h3.48Zm5.91-.89c-.85,0-1.42-.44-1.42-1.12s.55-1.09,1.5-1.16l1.9-.11v.58A1.87,1.87,0,0,1,290.8,23.11Zm-.26,1a2.6,2.6,0,0,0,2.28-1.34h0V24H294V19.08c0-1.41-1.05-2.31-2.72-2.31s-2.73.94-2.81,2.17h1.14a1.5,1.5,0,0,1,1.65-1.13c1,0,1.55.52,1.55,1.39v.6l-2,.11c-1.64.1-2.58.86-2.58,2.08A2.13,2.13,0,0,0,290.54,24.12ZM23.51,44V36.89H22.32v3a2.49,2.49,0,0,1-1.75.57,1.36,1.36,0,0,1-1.47-1.53v-2H17.91v2a2.37,2.37,0,0,0,2.62,2.55,3,3,0,0,0,1.69-.43h.1v3Zm5.23-6.2a1.9,1.9,0,0,1,1.89,2H26.77A2,2,0,0,1,28.74,37.8ZM30.61,42a1.72,1.72,0,0,1-1.77,1.13,2,2,0,0,1-2.08-2.26v-.06h5.1v-.45c0-2.16-1.18-3.55-3.1-3.55s-3.22,1.49-3.22,3.7,1.24,3.65,3.28,3.65a2.82,2.82,0,0,0,3-2.16Zm6.75-5.19a2.55,2.55,0,0,0-2.3,1.32h0v-1.2H33.9v9.48h1.19V42.84h0a2.5,2.5,0,0,0,2.26,1.28c1.79,0,3-1.45,3-3.67S39.17,36.77,37.36,36.77Zm-.24,6.31c-1.21,0-2-1-2-2.63s.82-2.64,2-2.64,2.06,1,2.06,2.64S38.39,43.08,37.12,43.08Zm8.17-5.28a1.9,1.9,0,0,1,1.89,2H43.32A2,2,0,0,1,45.29,37.8ZM47.16,42a1.73,1.73,0,0,1-1.77,1.13,2,2,0,0,1-2.08-2.26v-.06h5.1v-.45c0-2.16-1.18-3.55-3.1-3.55s-3.22,1.49-3.22,3.7,1.24,3.65,3.27,3.65a2.8,2.8,0,0,0,3-2.16Zm5.66,2.16c1.67,0,2.77-.89,2.77-2.2a1.58,1.58,0,0,0-1.42-1.59v-.06a1.58,1.58,0,0,0,1.23-1.56c0-1.16-.89-1.94-2.51-1.94s-2.53.74-2.68,1.92h1.16c.09-.57.68-.93,1.52-.93s1.34.44,1.34,1-.48,1.08-1.41,1.08H51.75v1h1.07c1.07,0,1.6.35,1.6,1.13s-.57,1.16-1.6,1.16-1.47-.36-1.61-1H50C50.13,43.36,51.26,44.12,52.82,44.12ZM61.13,37h1.19a2,2,0,0,1,2.13-2,1.74,1.74,0,0,1,1.85,1.75c0,.82-.3,1.35-1.64,2.74l-3.47,3.62V44H67.7V42.91H62.88v0l2.34-2.41c1.82-1.86,2.31-2.67,2.31-3.76A2.86,2.86,0,0,0,64.45,34,3.1,3.1,0,0,0,61.13,37Zm13.13,3.56v-1.1H69.78v1.1Zm4.27-1.12h1.24c1.39,0,2.26.68,2.25,1.9,0,1-.88,1.77-2.18,1.77s-2.23-.67-2.31-1.71H76.35c.09,1.63,1.45,2.77,3.49,2.77s3.43-1.18,3.43-2.87a2.38,2.38,0,0,0-2.41-2.42v0A2.38,2.38,0,0,0,83,36.51c0-1.4-1.14-2.54-3.12-2.54a3,3,0,0,0-3.28,2.75h1.18A1.88,1.88,0,0,1,79.83,35c1.27,0,1.88.66,1.88,1.64a1.8,1.8,0,0,1-2,1.71H78.53ZM93.83,43H90.36V43a4.17,4.17,0,0,0,.58-2.11l.22-3h2.67Zm-4.31,2.86V44H95v1.88h1.11V43H95V36.89H90.12l-.28,3.94A2.89,2.89,0,0,1,89,43h-.59v2.86Zm13-1.88h1.19V36.89h-1.19v2.93H99.1V36.89H97.91V44H99.1V40.8h3.47Zm6.13-3.51c-.92,0-1.51-.52-1.51-1.26a1.33,1.33,0,0,1,1.51-1.36H110v2.62ZM110,44h1.19V36.89h-2.54c-1.63,0-2.69.9-2.69,2.36a2,2,0,0,0,1.62,2l-2,2.75H107l1.8-2.53H110Zm11.74,0H123V36.89h-5.79V44h1.19V37.87h3.41Zm6.52.12c2,0,3.28-1.41,3.28-3.67s-1.32-3.68-3.28-3.68-3.3,1.41-3.3,3.68S126.33,44.12,128.3,44.12Zm0-1c-1.26,0-2.09-1-2.09-2.63s.83-2.64,2.09-2.64,2.07,1,2.07,2.64S129.55,43.08,128.3,43.08Zm11.23-3.86a2.83,2.83,0,0,0-3-2.45c-2,0-3.26,1.43-3.26,3.68s1.31,3.67,3.28,3.67a2.82,2.82,0,0,0,3-2.41h-1.16a1.73,1.73,0,0,1-1.82,1.37c-1.23,0-2.07-1-2.07-2.63s.83-2.64,2.06-2.64a1.75,1.75,0,0,1,1.82,1.41Zm3.78,1.64.22-3h2.4V44h1.18V36.89h-4.65l-.27,3.94c-.09,1.31-.36,2.14-1.06,2.14a1.21,1.21,0,0,1-.37-.06V44a1.25,1.25,0,0,0,.43.07C142.68,44.06,143.17,42.82,143.31,40.86Zm9-3.06a1.91,1.91,0,0,1,1.9,2h-3.87A2,2,0,0,1,152.35,37.8ZM154.22,42a1.72,1.72,0,0,1-1.76,1.13,2,2,0,0,1-2.08-2.26v-.06h5.1v-.45c0-2.16-1.19-3.55-3.11-3.55s-3.22,1.49-3.22,3.7,1.24,3.65,3.28,3.65a2.82,2.82,0,0,0,3-2.16Zm7.46,4.7c1.29,0,1.88-.5,2.48-2.16l2.8-7.61h-1.25l-2,5.92h0l-2-5.92h-1.27L163.1,44l-.16.5c-.27.82-.64,1.14-1.31,1.14a2.32,2.32,0,0,1-.46,0v1A2.85,2.85,0,0,0,161.68,46.66Zm12.75-7.44a2.82,2.82,0,0,0-3-2.45c-2,0-3.27,1.43-3.27,3.68s1.31,3.67,3.28,3.67a2.84,2.84,0,0,0,3-2.41h-1.17a1.72,1.72,0,0,1-1.81,1.37c-1.23,0-2.08-1-2.08-2.63s.83-2.64,2.06-2.64a1.75,1.75,0,0,1,1.82,1.41Zm7-2.33h-5.77v1H178V44h1.19V37.87h2.29Zm3.88,6.22c-.86,0-1.43-.44-1.43-1.12s.55-1.09,1.51-1.16l1.9-.11v.58A1.87,1.87,0,0,1,185.32,43.11Zm-.27,1a2.58,2.58,0,0,0,2.28-1.34h0V44h1.13V39.08c0-1.41-1.06-2.31-2.72-2.31s-2.74.94-2.82,2.17h1.15a1.49,1.49,0,0,1,1.64-1.13c1,0,1.56.52,1.56,1.39v.6l-2,.11c-1.64.1-2.58.86-2.58,2.08A2.13,2.13,0,0,0,185.05,44.12ZM195.5,44h1.19V36.89H195.5v2.93H192V36.89h-1.19V44H192V40.8h3.48Zm6.51.12c2,0,3.29-1.41,3.29-3.67S204,36.77,202,36.77s-3.29,1.41-3.29,3.68S200.05,44.12,202,44.12Zm0-1c-1.25,0-2.08-1-2.08-2.63s.83-2.64,2.08-2.64,2.08,1,2.08,2.64S203.27,43.08,202,43.08Zm8.39.92c1.51,0,2.44-.79,2.44-2a1.61,1.61,0,0,0-1.48-1.63v-.06a1.57,1.57,0,0,0,1.16-1.54c0-1.14-.81-1.84-2.14-1.84h-3V44Zm-1.87-6.15h1.67c.75,0,1.15.36,1.15,1s-.43,1-1.33,1h-1.49Zm0,3h1.59c1,0,1.54.36,1.54,1.1S211.19,43,210.33,43h-1.8Zm8.8-.58,3.3-3.36h-1.47l-3,3.15h0V36.89H214.9V44h1.19V40.58h0L219.2,44h1.53ZM223.6,44l3.54-5.28h.05V44h1.19V36.89h-1.17l-3.54,5.28h-.06V36.89h-1.19V44Zm15.32,0h1.2V36.89h-5.8V44h1.19V37.87h3.41Zm7-7.23a2.55,2.55,0,0,0-2.3,1.32h0v-1.2h-1.13v9.48h1.19V42.84h0A2.49,2.49,0,0,0,246,44.12c1.79,0,3-1.45,3-3.67S247.76,36.77,246,36.77Zm-.24,6.31c-1.21,0-2-1-2-2.63s.82-2.64,2-2.64,2.06,1,2.06,2.64S247,43.08,245.71,43.08Zm6.49.92,3.54-5.28h0V44H257V36.89h-1.17l-3.55,5.28h0V36.89H251V44Zm9.06-3.14.22-3h2.39V44h1.19V36.89h-4.65l-.27,3.94c-.09,1.31-.36,2.14-1.06,2.14a1.15,1.15,0,0,1-.37-.06V44a1.25,1.25,0,0,0,.43.07C260.64,44.06,261.12,42.82,261.26,40.86Zm9.14,3.26c2,0,3.29-1.41,3.29-3.67s-1.33-3.68-3.29-3.68-3.3,1.41-3.3,3.68S268.43,44.12,270.4,44.12Zm0-1c-1.26,0-2.09-1-2.09-2.63s.83-2.64,2.09-2.64,2.08,1,2.08,2.64S271.66,43.08,270.4,43.08Zm11.14-2.83,3.1-3.36h-1.45L280.36,40h-.06V36.89h-1.18V40h0l-2.84-3.15h-1.46l3.11,3.38L274.7,44h1.5l2.88-3.42h0V44h1.18V40.58h.06L283.23,44h1.52Zm7.55-2.45a1.91,1.91,0,0,1,1.9,2h-3.87A2,2,0,0,1,289.09,37.8ZM291,42a1.72,1.72,0,0,1-1.76,1.13,2,2,0,0,1-2.08-2.26v-.06h5.1v-.45c0-2.16-1.18-3.55-3.11-3.55s-3.22,1.49-3.22,3.7,1.24,3.65,3.28,3.65a2.82,2.82,0,0,0,3-2.16Zm8,2h1.19V36.89h-1.19v2.93h-3.48V36.89h-1.19V44h1.19V40.8h3.48Zm4.74,0,3.54-5.28h.06V44h1.19V36.89h-1.18l-3.54,5.28h-.06V36.89h-1.19V44Zm9.71-3.51c-.92,0-1.51-.52-1.51-1.26a1.33,1.33,0,0,1,1.51-1.36h1.35v2.62ZM314.72,44h1.19V36.89h-2.55c-1.63,0-2.68.9-2.68,2.36a2,2,0,0,0,1.61,2l-2,2.75h1.37l1.81-2.53h1.23Z" style="fill:#fff"/></svg>