<svg id="75c97916-b94f-4f53-8d46-d2d07a71fac4" data-name="Слой 1" xmlns="http://www.w3.org/2000/svg" viewBox="0 0 235 84.89"><title>tooltip_mobile</title><path d="M227,0H8A8,8,0,0,0,0,8V70a8,8,0,0,0,8,8H209l7,6.89L223,78h4a8,8,0,0,0,8-8V8A8,8,0,0,0,227,0Z" style="fill:#3a3a3c"/><path d="M25.9,24V14.14H24.67V18.4H19.26V14.14H18V24h1.23V19.51h5.41V24Zm5.51.12c2,0,3.29-1.41,3.29-3.67s-1.33-3.68-3.29-3.68-3.29,1.41-3.29,3.68S29.44,24.12,31.41,24.12Zm0-1c-1.25,0-2.08-1-2.08-2.63s.83-2.64,2.08-2.64,2.08,1,2.08,2.64S32.67,23.08,31.41,23.08ZM39.8,24c1.51,0,2.44-.79,2.44-2a1.61,1.61,0,0,0-1.49-1.63v-.06a1.57,1.57,0,0,0,1.17-1.54c0-1.14-.81-1.84-2.14-1.84H36.73V24Zm-1.88-6.15H39.6c.74,0,1.15.36,1.15,1s-.43,1-1.33,1h-1.5Zm0,3h1.6c1,0,1.53.36,1.53,1.1S40.59,23,39.73,23H37.92ZM50.38,24h1.18V16.89H50.38ZM46.8,20.14a1.44,1.44,0,1,1,0,2.88H45.49V20.14ZM44.3,24h2.52a2.43,2.43,0,1,0,0-4.84H45.49V16.89H44.3Zm10.8,0V19h0l2.3,4.83h.9L60.65,19h.05v5h1.18V16.89H60.49L58,22.43H57.9l-2.53-5.54H53.92V24Zm15.15-3.75,3.31-3.36H72.09l-3,3.15H69V16.89H67.82V24H69V20.58h.06L72.12,24h1.53Zm6.94.61.22-3H79.8V24H81V16.89H76.33l-.27,3.94C76,22.14,75.71,23,75,23a1.13,1.13,0,0,1-.36-.06V24a1.19,1.19,0,0,0,.42.07C76.56,24.06,77.05,22.82,77.19,20.86ZM84.55,24l3.54-5.28h0V24h1.19V16.89H88.16l-3.54,5.28h-.06V16.89H83.37V24Zm10-6.2a1.9,1.9,0,0,1,1.89,2H92.59A2,2,0,0,1,94.56,17.8ZM96.42,22a1.71,1.71,0,0,1-1.76,1.13,2,2,0,0,1-2.08-2.26v-.06h5.1v-.45c0-2.16-1.18-3.55-3.1-3.55s-3.22,1.49-3.22,3.7,1.24,3.65,3.27,3.65a2.81,2.81,0,0,0,3-2.16Zm8,2h1.19V16.89h-1.19v2.93H100.9V16.89H99.71V24h1.19V20.8h3.48Zm8.77-7.11h-5.77v1h2.29V24h1.19V17.87h2.29ZM117,23.11c-.86,0-1.42-.44-1.42-1.12s.54-1.09,1.5-1.16l1.9-.11v.58A1.87,1.87,0,0,1,117,23.11Zm-.27,1a2.61,2.61,0,0,0,2.29-1.34h0V24h1.13V19.08c0-1.41-1-2.31-2.72-2.31s-2.73.94-2.82,2.17h1.15a1.49,1.49,0,0,1,1.64-1.13c1,0,1.56.52,1.56,1.39v.6l-2,.11c-1.64.1-2.57.86-2.57,2.08A2.13,2.13,0,0,0,116.76,24.12Zm7-.12V19h0l2.3,4.83H127l2.3-4.83h0v5h1.18V16.89h-1.39l-2.54,5.54h-.06L124,16.89h-1.44V24Zm13.89,0,3.54-5.28h.06V24h1.19V16.89h-1.18l-3.54,5.28h-.05V16.89h-1.19V24Zm11.73-6.13v-1h-4.57V24H146V17.87Zm5.45-1.1a2.56,2.56,0,0,0-2.3,1.32h0v-1.2h-1.13v9.48h1.19V22.84h0a2.51,2.51,0,0,0,2.27,1.28c1.79,0,3-1.45,3-3.67S156.6,16.77,154.79,16.77Zm-.23,6.31c-1.22,0-2-1-2-2.63s.82-2.64,2-2.64,2.06,1,2.06,2.64S155.82,23.08,154.56,23.08Zm7.66,0c-.86,0-1.43-.44-1.43-1.12s.55-1.09,1.51-1.16l1.9-.11v.58A1.87,1.87,0,0,1,162.22,23.11Zm-.27,1a2.58,2.58,0,0,0,2.28-1.34h0V24h1.13V19.08c0-1.41-1-2.31-2.72-2.31s-2.74.94-2.82,2.17H161a1.49,1.49,0,0,1,1.64-1.13c1,0,1.56.52,1.56,1.39v.6l-2,.11c-1.64.1-2.57.86-2.57,2.08A2.13,2.13,0,0,0,162,24.12Zm12.4,0c2.06,0,3.32-1.37,3.32-3.61S176.45,17,174.53,17a2.64,2.64,0,0,0-2.45,1.28H172c.29-2.13.88-3,2.86-3.07l.52,0a3.54,3.54,0,0,0,1.8-.42v-1a5.09,5.09,0,0,1-1.85.39l-.53,0c-2.76.1-3.8,1.73-3.8,5.66C171,22.66,172.17,24.12,174.35,24.12Zm0-1.05c-1.34,0-2.11-.92-2.11-2.56s.77-2.43,2.11-2.43,2.11.88,2.11,2.43S175.68,23.07,174.35,23.07Zm5.75,3.59c1.28,0,1.87-.5,2.48-2.16l2.79-7.61h-1.25l-2,5.92h0l-2-5.92h-1.27L181.52,24l-.17.5c-.27.82-.64,1.14-1.3,1.14a2.37,2.37,0,0,1-.47,0v1A2.89,2.89,0,0,0,180.1,26.66ZM191.58,23h-3.46V23a4.39,4.39,0,0,0,.58-2.11l.22-3h2.66Zm-4.31,2.86V24h5.52v1.88h1.1V23h-1.13V16.89h-4.89l-.27,3.94a3,3,0,0,1-.84,2.19h-.6v2.86Zm11.25-8.08a1.9,1.9,0,0,1,1.89,2h-3.86A2,2,0,0,1,198.52,17.8ZM200.38,22a1.72,1.72,0,0,1-1.76,1.13,2,2,0,0,1-2.08-2.26v-.06h5.1v-.45c0-2.16-1.18-3.55-3.1-3.55s-3.22,1.49-3.22,3.7,1.23,3.65,3.27,3.65a2.81,2.81,0,0,0,3-2.16Zm8.22-5.07h-5.77v1h2.29V24h1.19V17.87h2.29ZM22.55,43H19.08V43a4.27,4.27,0,0,0,.59-2.11l.21-3h2.67Zm-4.31,2.86V44h5.51v1.88h1.11V43H23.73V36.89H18.84l-.27,3.94A2.93,2.93,0,0,1,17.72,43h-.59v2.86Zm11.34-1.76c2,0,3.29-1.41,3.29-3.67s-1.33-3.68-3.29-3.68-3.29,1.41-3.29,3.68S27.61,44.12,29.58,44.12Zm0-1c-1.26,0-2.08-1-2.08-2.63s.82-2.64,2.08-2.64,2.08,1,2.08,2.64S30.84,43.08,29.58,43.08Zm11.23-3.86a2.82,2.82,0,0,0-3-2.45c-2,0-3.27,1.43-3.27,3.68s1.31,3.67,3.28,3.67a2.84,2.84,0,0,0,3-2.41H39.66a1.72,1.72,0,0,1-1.81,1.37c-1.23,0-2.08-1-2.08-2.63s.83-2.64,2.06-2.64a1.75,1.75,0,0,1,1.82,1.41Zm7-2.33H42.05v1h2.29V44h1.19V37.87h2.29Zm2.4,9.77c1.29,0,1.87-.5,2.48-2.16l2.8-7.61H54.25l-2,5.92h0l-2-5.92H49L51.64,44l-.16.5c-.28.82-.64,1.14-1.31,1.14a2.27,2.27,0,0,1-.46,0v1A2.85,2.85,0,0,0,50.22,46.66ZM61.86,44h1.2V36.89h-5.8V44h1.19V37.87h3.41Zm8.24,0h1.19V36.89H70.1v2.93H66.62V36.89H65.43V44h1.19V40.8H70.1ZM76,43.11c-.85,0-1.42-.44-1.42-1.12s.55-1.09,1.51-1.16l1.9-.11v.58A1.87,1.87,0,0,1,76,43.11Zm-.26,1A2.59,2.59,0,0,0,78,42.78h0V44h1.13V39.08c0-1.41-1.06-2.31-2.73-2.31s-2.73.94-2.81,2.17H74.8a1.49,1.49,0,0,1,1.64-1.13c1,0,1.56.52,1.56,1.39v.6l-2,.11c-1.64.1-2.58.86-2.58,2.08A2.13,2.13,0,0,0,75.75,44.12ZM90.52,44V36.89H89.33v3a2.49,2.49,0,0,1-1.75.57,1.36,1.36,0,0,1-1.47-1.53v-2H84.92v2a2.37,2.37,0,0,0,2.62,2.55,3,3,0,0,0,1.69-.43h.1v3Zm5.23-6.2a1.9,1.9,0,0,1,1.89,2H93.78A2,2,0,0,1,95.75,37.8ZM97.62,42a1.73,1.73,0,0,1-1.77,1.13,2,2,0,0,1-2.08-2.26v-.06h5.1v-.45c0-2.16-1.18-3.55-3.1-3.55s-3.22,1.49-3.22,3.7,1.24,3.65,3.28,3.65a2.82,2.82,0,0,0,3-2.16Zm6.75-5.19a2.55,2.55,0,0,0-2.3,1.32h0v-1.2h-1.13v9.48h1.19V42.84h0a2.5,2.5,0,0,0,2.26,1.28c1.79,0,3-1.45,3-3.67S106.18,36.77,104.37,36.77Zm-.24,6.31c-1.21,0-2-1-2-2.63s.82-2.64,2-2.64,2.06,1,2.06,2.64S105.4,43.08,104.13,43.08Zm8.17-5.28a1.9,1.9,0,0,1,1.89,2h-3.86A2,2,0,0,1,112.3,37.8ZM114.17,42a1.73,1.73,0,0,1-1.77,1.13,2,2,0,0,1-2.08-2.26v-.06h5.1v-.45c0-2.16-1.18-3.55-3.1-3.55s-3.22,1.49-3.22,3.7,1.24,3.65,3.27,3.65a2.8,2.8,0,0,0,3-2.16Zm5.66,2.16c1.67,0,2.77-.89,2.77-2.2a1.58,1.58,0,0,0-1.42-1.59v-.06a1.57,1.57,0,0,0,1.22-1.56c0-1.16-.88-1.94-2.5-1.94s-2.53.74-2.68,1.92h1.16c.09-.57.68-.93,1.52-.93s1.34.44,1.34,1-.48,1.08-1.41,1.08h-1.07v1h1.07c1.07,0,1.6.35,1.6,1.13s-.57,1.16-1.6,1.16c-.88,0-1.47-.36-1.61-1H117C117.14,43.36,118.27,44.12,119.83,44.12ZM128.14,37h1.19a2,2,0,0,1,2.13-2,1.74,1.74,0,0,1,1.85,1.75c0,.82-.3,1.35-1.64,2.74l-3.47,3.62V44h6.51V42.91h-4.82v0l2.34-2.41c1.81-1.86,2.31-2.67,2.31-3.76A2.86,2.86,0,0,0,131.46,34,3.1,3.1,0,0,0,128.14,37Zm13.13,3.56v-1.1h-4.48v1.1Zm4.27-1.12h1.24c1.39,0,2.26.68,2.25,1.9,0,1-.88,1.77-2.18,1.77s-2.23-.67-2.31-1.71h-1.18c.09,1.63,1.45,2.77,3.49,2.77s3.43-1.18,3.43-2.87a2.38,2.38,0,0,0-2.41-2.42v0A2.38,2.38,0,0,0,150,36.51c0-1.4-1.14-2.54-3.12-2.54a3,3,0,0,0-3.28,2.75h1.18a1.88,1.88,0,0,1,2.1-1.68c1.26,0,1.88.66,1.88,1.64a1.8,1.8,0,0,1-2,1.71h-1.18ZM160.84,43h-3.47V43a4.17,4.17,0,0,0,.58-2.11l.22-3h2.67Zm-4.31,2.86V44H162v1.88h1.11V43H162V36.89h-4.89l-.28,3.94A2.89,2.89,0,0,1,156,43h-.59v2.86ZM169.59,44h1.18V36.89h-1.18v2.93H166.1V36.89h-1.18V44h1.18V40.8h3.49Zm6.12-3.51c-.92,0-1.51-.52-1.51-1.26a1.33,1.33,0,0,1,1.51-1.36h1.34v2.62ZM177.05,44h1.19V36.89H175.7c-1.63,0-2.69.9-2.69,2.36a2,2,0,0,0,1.62,2l-2,2.75H174l1.8-2.53h1.23ZM22.43,64h1.2V56.89h-5.8V64H19V57.87h3.41Zm6.52.12c2,0,3.29-1.41,3.29-3.67S30.91,56.77,29,56.77s-3.29,1.41-3.29,3.68S27,64.12,29,64.12Zm0-1c-1.26,0-2.08-1-2.08-2.63s.82-2.64,2.08-2.64,2.08,1,2.08,2.64S30.21,63.08,29,63.08Zm11.24-3.86a2.83,2.83,0,0,0-3-2.45c-2,0-3.27,1.43-3.27,3.68s1.31,3.67,3.28,3.67a2.83,2.83,0,0,0,3-2.41H39a1.72,1.72,0,0,1-1.81,1.37c-1.23,0-2.08-1-2.08-2.63s.84-2.64,2.07-2.64A1.74,1.74,0,0,1,39,59.22ZM44,60.86l.22-3h2.39V64h1.19V56.89H43.11l-.27,3.94c-.09,1.31-.35,2.14-1.06,2.14a1.13,1.13,0,0,1-.36-.06V64a1.19,1.19,0,0,0,.42.07C43.34,64.06,43.83,62.82,44,60.86Zm9-3.06a1.9,1.9,0,0,1,1.89,2H51A2,2,0,0,1,53,57.8ZM54.88,62a1.73,1.73,0,0,1-1.77,1.13A2,2,0,0,1,51,60.83v-.06h5.1v-.45c0-2.16-1.18-3.55-3.1-3.55s-3.22,1.49-3.22,3.7,1.24,3.65,3.27,3.65A2.8,2.8,0,0,0,56,62Zm7.46,4.7c1.28,0,1.87-.5,2.48-2.16l2.8-7.61H66.36l-2,5.92h0l-2-5.92H61.14L63.76,64l-.16.5c-.28.82-.65,1.14-1.31,1.14a2.27,2.27,0,0,1-.46,0v1A2.85,2.85,0,0,0,62.34,66.66Zm12.75-7.44a2.83,2.83,0,0,0-3-2.45c-2,0-3.26,1.43-3.26,3.68s1.31,3.67,3.28,3.67a2.82,2.82,0,0,0,3-2.41H73.94a1.73,1.73,0,0,1-1.82,1.37c-1.23,0-2.07-1-2.07-2.63s.83-2.64,2.06-2.64a1.75,1.75,0,0,1,1.82,1.41Zm7-2.33H76.32v1h2.29V64H79.8V57.87h2.29ZM86,63.11c-.85,0-1.42-.44-1.42-1.12s.55-1.09,1.5-1.16l1.9-.11v.58A1.87,1.87,0,0,1,86,63.11Zm-.26,1A2.6,2.6,0,0,0,88,62.78h0V64h1.12V59.08c0-1.41-1-2.31-2.72-2.31s-2.73.94-2.81,2.17h1.15a1.49,1.49,0,0,1,1.64-1.13c1,0,1.55.52,1.55,1.39v.6l-2,.11c-1.64.1-2.58.86-2.58,2.08A2.13,2.13,0,0,0,85.71,64.12ZM96.15,64h1.19V56.89H96.15v2.93H92.67V56.89H91.48V64h1.19V60.8h3.48Zm6.52.12c2,0,3.29-1.41,3.29-3.67s-1.33-3.68-3.29-3.68-3.29,1.41-3.29,3.68S100.7,64.12,102.67,64.12Zm0-1c-1.26,0-2.08-1-2.08-2.63s.82-2.64,2.08-2.64,2.08,1,2.08,2.64S103.93,63.08,102.67,63.08Zm8.38.92c1.52,0,2.45-.79,2.45-2A1.61,1.61,0,0,0,112,60.33v-.06a1.57,1.57,0,0,0,1.17-1.54c0-1.14-.81-1.84-2.15-1.84h-3V64Zm-1.87-6.15h1.68c.74,0,1.14.36,1.14,1s-.43,1-1.32,1h-1.5Zm0,3h1.59c1,0,1.54.36,1.54,1.1S111.85,63,111,63h-1.81Zm8.8-.58,3.31-3.36h-1.47l-3,3.15h0V56.89h-1.19V64h1.19V60.58h0L119.86,64h1.53ZM124.25,64l3.54-5.28h.06V64H129V56.89h-1.18l-3.54,5.28h0V56.89h-1.19V64Zm15.33,0h1.19V56.89H135V64h1.19V57.87h3.41Zm7-7.23a2.56,2.56,0,0,0-2.3,1.32h0v-1.2h-1.13v9.48h1.19V62.84h0a2.49,2.49,0,0,0,2.26,1.28c1.79,0,3-1.45,3-3.67S148.41,56.77,146.6,56.77Zm-.23,6.31c-1.22,0-2-1-2-2.63s.82-2.64,2-2.64,2.06,1,2.06,2.64S147.63,63.08,146.37,63.08Zm6.48.92,3.54-5.28h.06V64h1.19V56.89h-1.18l-3.54,5.28h0V56.89h-1.19V64Zm9.07-3.14.22-3h2.39V64h1.19V56.89h-4.65l-.28,3.94c-.09,1.31-.35,2.14-1.06,2.14a1.13,1.13,0,0,1-.36-.06V64a1.19,1.19,0,0,0,.42.07C161.29,64.06,161.78,62.82,161.92,60.86Zm9.13,3.26c2,0,3.29-1.41,3.29-3.67s-1.32-3.68-3.29-3.68-3.29,1.41-3.29,3.68S169.09,64.12,171.05,64.12Zm0-1c-1.25,0-2.08-1-2.08-2.63s.83-2.64,2.08-2.64,2.08,1,2.08,2.64S172.31,63.08,171.05,63.08Zm11.14-2.83,3.11-3.36h-1.45L181,60h0V56.89h-1.18V60h-.05l-2.83-3.15h-1.47l3.12,3.38L175.36,64h1.5l2.87-3.42h.05V64H181V60.58h0L183.88,64h1.53Zm7.56-2.45a1.9,1.9,0,0,1,1.89,2h-3.86A2,2,0,0,1,189.75,57.8ZM191.62,62a1.73,1.73,0,0,1-1.77,1.13,2,2,0,0,1-2.08-2.26v-.06h5.1v-.45c0-2.16-1.18-3.55-3.1-3.55s-3.22,1.49-3.22,3.7,1.24,3.65,3.27,3.65a2.82,2.82,0,0,0,3-2.16Zm8,2h1.18V56.89h-1.18v2.93H196.1V56.89h-1.19V64h1.19V60.8h3.48Zm4.74,0,3.54-5.28h0V64h1.19V56.89h-1.17l-3.55,5.28h0V56.89h-1.19V64Zm9.7-3.51c-.91,0-1.51-.52-1.51-1.26A1.33,1.33,0,0,1,214,57.87h1.35v2.62ZM215.37,64h1.19V56.89H214c-1.64,0-2.69.9-2.69,2.36a2,2,0,0,0,1.62,2L211,64h1.38l1.8-2.53h1.23Z" style="fill:#fff"/></svg>