<svg width="484" height="231" viewBox="0 0 484 231" fill="none" xmlns="http://www.w3.org/2000/svg">
<rect y="121.904" width="262.887" height="106.004" rx="12.5779" fill="#0BD21F"/>
<path fill-rule="evenodd" clip-rule="evenodd" d="M161.971 211.21L227.836 174.245L161.971 137.28V158.879H48.683V191.319H161.971V211.21Z" fill="black"/>
<circle cx="319.786" cy="176.715" r="53.2143" stroke="white" stroke-width="2"/>
<path fill-rule="evenodd" clip-rule="evenodd" d="M367.166 150.344L318.321 178.544L318.321 122.52C318.808 122.507 319.297 122.501 319.787 122.501C340.156 122.501 357.901 133.734 367.166 150.344Z" fill="white"/>
<circle cx="276.343" cy="118.118" r="16.0434" fill="#0BD21F" stroke="black" stroke-width="1.47521"/>
<path d="M275.567 122.446C275.567 121.378 275.834 120.773 276.867 120.096L279.621 118.352C282.567 116.5 284.288 114.72 284.288 111.587C284.288 107.564 281.381 105 276.446 105C271.703 105 268.72 107.742 268.72 112.014V113.26H272.124V112.121C272.124 109.7 273.731 107.92 276.446 107.92C279.124 107.92 280.731 109.38 280.731 111.587C280.731 113.51 279.392 114.756 277.709 115.859L274.955 117.64C272.507 119.206 272.047 120.025 272.047 122.161V122.446H275.567ZM271.588 130.706H276.026V125.651H271.588V130.706Z" fill="black"/>
<path d="M206.894 24.0798C212.526 21.726 215.2 15.2112 212.867 9.52876C210.534 3.84627 204.077 1.14785 198.445 3.50166C192.813 5.85547 190.139 12.3702 192.472 18.0527C194.805 23.7352 201.262 26.4336 206.894 24.0798Z" fill="black" stroke="white" stroke-width="2.28689" stroke-miterlimit="10"/>
<path d="M201.972 42.1531L212.154 54.5635C213.58 56.3306 215.738 57.358 218.019 57.358H234.637C237.774 57.358 240.34 54.8101 240.34 51.6048C240.34 48.4405 237.814 45.8516 234.637 45.8516H219.241L206.737 30.1125C204.66 27.4824 201.483 25.9619 198.184 25.9619H166.862C164.174 25.7154 161.526 27.0715 160.142 29.6193L151.588 45.4406C150.936 46.5091 150.611 47.8241 150.814 49.1802C151.14 51.728 153.177 53.7828 155.702 54.1115C158.431 54.4814 160.875 52.8787 161.771 50.4952L168.858 37.4272H180.181L172.198 58.3853C171.587 59.9469 171.22 61.5496 171.098 63.2344L169.061 88.1375H147.189C141.039 88.1375 136.07 93.151 136.07 99.3563H174.193C177.411 99.3563 180.099 96.8495 180.344 93.6031L182.177 69.0698L203.56 111.685C206.696 117.89 214.231 120.397 220.382 117.232L194.722 66.1521C194.029 64.796 193.948 63.2344 194.518 61.7961L201.972 42.1531Z" fill="black" stroke="white" stroke-width="2.28689" stroke-miterlimit="10"/>
<circle cx="429.786" cy="176.715" r="53.2143" fill="white" stroke="white" stroke-width="2"/>
<path d="M401.823 201.955H412.387V213.81H421.895V201.955H443.816V195.716H421.895V186.878H435.576C450.366 186.878 460.032 177.519 460.032 164.469V164.365C460.032 151.367 450.524 141.904 435.681 141.904H412.387V180.639H401.823V186.878H412.387V195.716H401.823V201.955ZM421.895 178.559V150.223H433.199C444.714 150.223 450.26 155.526 450.26 164.365V164.469C450.26 173.256 444.608 178.559 433.199 178.559H421.895Z" fill="#0BD21F"/>
</svg>
